G04*
G04 #@! TF.GenerationSoftware,Altium Limited,Altium Designer,21.3.2 (30)*
G04*
G04 Layer_Color=32896*
%FSLAX25Y25*%
%MOIN*%
G70*
G04*
G04 #@! TF.SameCoordinates,6B7675C1-BEDD-4D56-80B4-810BFE634478*
G04*
G04*
G04 #@! TF.FilePolarity,Positive*
G04*
G01*
G75*
%ADD10C,0.01000*%
%ADD11C,0.00787*%
%ADD12C,0.00984*%
%ADD14C,0.00600*%
%ADD18C,0.00591*%
%ADD19C,0.00394*%
%ADD20C,0.00500*%
D10*
X284448Y226468D02*
Y223844D01*
X283136Y222532D01*
X281824Y223844D01*
Y226468D01*
X280512D02*
Y222532D01*
X278544D01*
X277888Y223188D01*
Y225812D01*
X278544Y226468D01*
X280512D01*
X276576Y225812D02*
X275920Y226468D01*
X274608D01*
X273952Y225812D01*
Y225156D01*
X274608Y224500D01*
X273952Y223844D01*
Y223188D01*
X274608Y222532D01*
X275920D01*
X276576Y223188D01*
Y223844D01*
X275920Y224500D01*
X276576Y225156D01*
Y225812D01*
X275920Y224500D02*
X274608D01*
X137148Y128268D02*
Y125644D01*
X135836Y124332D01*
X134524Y125644D01*
Y128268D01*
X133212D02*
Y124332D01*
X131244D01*
X130588Y124988D01*
Y127612D01*
X131244Y128268D01*
X133212D01*
X129276D02*
X126652D01*
Y127612D01*
X129276Y124988D01*
Y124332D01*
X308892Y129868D02*
Y127244D01*
X307580Y125932D01*
X306268Y127244D01*
Y129868D01*
X304956D02*
Y125932D01*
X302988D01*
X302332Y126588D01*
Y129212D01*
X302988Y129868D01*
X304956D01*
X301020Y125932D02*
X299708D01*
X300364D01*
Y129868D01*
X301020Y129212D01*
X269048Y276432D02*
Y280368D01*
X267080D01*
X266424Y279712D01*
Y278400D01*
X267080Y277744D01*
X269048D01*
X267736D02*
X266424Y276432D01*
X265112Y280368D02*
X262488D01*
Y279712D01*
X265112Y277088D01*
Y276432D01*
X261176Y279712D02*
X260520Y280368D01*
X259208D01*
X258552Y279712D01*
Y277088D01*
X259208Y276432D01*
X260520D01*
X261176Y277088D01*
Y279712D01*
X299648Y259032D02*
Y262968D01*
X297680D01*
X297024Y262312D01*
Y261000D01*
X297680Y260344D01*
X299648D01*
X298336D02*
X297024Y259032D01*
X293088Y262968D02*
X294400Y262312D01*
X295712Y261000D01*
Y259688D01*
X295056Y259032D01*
X293744D01*
X293088Y259688D01*
Y260344D01*
X293744Y261000D01*
X295712D01*
X291776Y259688D02*
X291120Y259032D01*
X289808D01*
X289152Y259688D01*
Y262312D01*
X289808Y262968D01*
X291120D01*
X291776Y262312D01*
Y261656D01*
X291120Y261000D01*
X289152D01*
X250748Y265432D02*
Y269368D01*
X248780D01*
X248124Y268712D01*
Y267400D01*
X248780Y266744D01*
X250748D01*
X249436D02*
X248124Y265432D01*
X244188Y269368D02*
X245500Y268712D01*
X246812Y267400D01*
Y266088D01*
X246156Y265432D01*
X244844D01*
X244188Y266088D01*
Y266744D01*
X244844Y267400D01*
X246812D01*
X242876Y268712D02*
X242220Y269368D01*
X240908D01*
X240252Y268712D01*
Y268056D01*
X240908Y267400D01*
X240252Y266744D01*
Y266088D01*
X240908Y265432D01*
X242220D01*
X242876Y266088D01*
Y266744D01*
X242220Y267400D01*
X242876Y268056D01*
Y268712D01*
X242220Y267400D02*
X240908D01*
X105148Y237832D02*
Y241768D01*
X103180D01*
X102524Y241112D01*
Y239800D01*
X103180Y239144D01*
X105148D01*
X103836D02*
X102524Y237832D01*
X98588Y241768D02*
X99900Y241112D01*
X101212Y239800D01*
Y238488D01*
X100556Y237832D01*
X99244D01*
X98588Y238488D01*
Y239144D01*
X99244Y239800D01*
X101212D01*
X94652Y241768D02*
X95964Y241112D01*
X97276Y239800D01*
Y238488D01*
X96620Y237832D01*
X95308D01*
X94652Y238488D01*
Y239144D01*
X95308Y239800D01*
X97276D01*
X252548Y236532D02*
Y240468D01*
X250580D01*
X249924Y239812D01*
Y238500D01*
X250580Y237844D01*
X252548D01*
X251236D02*
X249924Y236532D01*
X245988Y240468D02*
X247300Y239812D01*
X248612Y238500D01*
Y237188D01*
X247956Y236532D01*
X246644D01*
X245988Y237188D01*
Y237844D01*
X246644Y238500D01*
X248612D01*
X242052Y240468D02*
X244676D01*
Y238500D01*
X243364Y239156D01*
X242708D01*
X242052Y238500D01*
Y237188D01*
X242708Y236532D01*
X244020D01*
X244676Y237188D01*
X94948Y217032D02*
Y220968D01*
X92980D01*
X92324Y220312D01*
Y219000D01*
X92980Y218344D01*
X94948D01*
X93636D02*
X92324Y217032D01*
X88388Y220968D02*
X89700Y220312D01*
X91012Y219000D01*
Y217688D01*
X90356Y217032D01*
X89044D01*
X88388Y217688D01*
Y218344D01*
X89044Y219000D01*
X91012D01*
X85108Y217032D02*
Y220968D01*
X87076Y219000D01*
X84452D01*
X252648Y228632D02*
Y232568D01*
X250680D01*
X250024Y231912D01*
Y230600D01*
X250680Y229944D01*
X252648D01*
X251336D02*
X250024Y228632D01*
X246088Y232568D02*
X247400Y231912D01*
X248712Y230600D01*
Y229288D01*
X248056Y228632D01*
X246744D01*
X246088Y229288D01*
Y229944D01*
X246744Y230600D01*
X248712D01*
X244776Y231912D02*
X244120Y232568D01*
X242808D01*
X242152Y231912D01*
Y231256D01*
X242808Y230600D01*
X243464D01*
X242808D01*
X242152Y229944D01*
Y229288D01*
X242808Y228632D01*
X244120D01*
X244776Y229288D01*
X84348Y237832D02*
Y241768D01*
X82380D01*
X81724Y241112D01*
Y239800D01*
X82380Y239144D01*
X84348D01*
X83036D02*
X81724Y237832D01*
X77788Y241768D02*
X79100Y241112D01*
X80412Y239800D01*
Y238488D01*
X79756Y237832D01*
X78444D01*
X77788Y238488D01*
Y239144D01*
X78444Y239800D01*
X80412D01*
X73852Y237832D02*
X76476D01*
X73852Y240456D01*
Y241112D01*
X74508Y241768D01*
X75820D01*
X76476Y241112D01*
X299892Y219532D02*
Y223468D01*
X297924D01*
X297268Y222812D01*
Y221500D01*
X297924Y220844D01*
X299892D01*
X298580D02*
X297268Y219532D01*
X293332Y223468D02*
X294644Y222812D01*
X295956Y221500D01*
Y220188D01*
X295300Y219532D01*
X293988D01*
X293332Y220188D01*
Y220844D01*
X293988Y221500D01*
X295956D01*
X292020Y219532D02*
X290708D01*
X291364D01*
Y223468D01*
X292020Y222812D01*
X74748Y216932D02*
Y220868D01*
X72780D01*
X72124Y220212D01*
Y218900D01*
X72780Y218244D01*
X74748D01*
X73436D02*
X72124Y216932D01*
X68188Y220868D02*
X70812D01*
Y218900D01*
X69500Y219556D01*
X68844D01*
X68188Y218900D01*
Y217588D01*
X68844Y216932D01*
X70156D01*
X70812Y217588D01*
X66876D02*
X66220Y216932D01*
X64908D01*
X64252Y217588D01*
Y220212D01*
X64908Y220868D01*
X66220D01*
X66876Y220212D01*
Y219556D01*
X66220Y218900D01*
X64252D01*
X293648Y243832D02*
Y247768D01*
X291680D01*
X291024Y247112D01*
Y245800D01*
X291680Y245144D01*
X293648D01*
X292336D02*
X291024Y243832D01*
X287088Y247768D02*
X289712D01*
Y245800D01*
X288400Y246456D01*
X287744D01*
X287088Y245800D01*
Y244488D01*
X287744Y243832D01*
X289056D01*
X289712Y244488D01*
X285776Y247112D02*
X285120Y247768D01*
X283808D01*
X283152Y247112D01*
Y246456D01*
X283808Y245800D01*
X283152Y245144D01*
Y244488D01*
X283808Y243832D01*
X285120D01*
X285776Y244488D01*
Y245144D01*
X285120Y245800D01*
X285776Y246456D01*
Y247112D01*
X285120Y245800D02*
X283808D01*
X64648Y238032D02*
Y241968D01*
X62680D01*
X62024Y241312D01*
Y240000D01*
X62680Y239344D01*
X64648D01*
X63336D02*
X62024Y238032D01*
X58088Y241968D02*
X60712D01*
Y240000D01*
X59400Y240656D01*
X58744D01*
X58088Y240000D01*
Y238688D01*
X58744Y238032D01*
X60056D01*
X60712Y238688D01*
X56776Y241968D02*
X54152D01*
Y241312D01*
X56776Y238688D01*
Y238032D01*
X54948Y216332D02*
Y220268D01*
X52980D01*
X52324Y219612D01*
Y218300D01*
X52980Y217644D01*
X54948D01*
X53636D02*
X52324Y216332D01*
X48388Y220268D02*
X51012D01*
Y218300D01*
X49700Y218956D01*
X49044D01*
X48388Y218300D01*
Y216988D01*
X49044Y216332D01*
X50356D01*
X51012Y216988D01*
X44452Y220268D02*
X45764Y219612D01*
X47076Y218300D01*
Y216988D01*
X46420Y216332D01*
X45108D01*
X44452Y216988D01*
Y217644D01*
X45108Y218300D01*
X47076D01*
X44748Y238232D02*
Y242168D01*
X42780D01*
X42124Y241512D01*
Y240200D01*
X42780Y239544D01*
X44748D01*
X43436D02*
X42124Y238232D01*
X38188Y242168D02*
X40812D01*
Y240200D01*
X39500Y240856D01*
X38844D01*
X38188Y240200D01*
Y238888D01*
X38844Y238232D01*
X40156D01*
X40812Y238888D01*
X34252Y242168D02*
X36876D01*
Y240200D01*
X35564Y240856D01*
X34908D01*
X34252Y240200D01*
Y238888D01*
X34908Y238232D01*
X36220D01*
X36876Y238888D01*
X34848Y216332D02*
Y220268D01*
X32880D01*
X32224Y219612D01*
Y218300D01*
X32880Y217644D01*
X34848D01*
X33536D02*
X32224Y216332D01*
X28288Y220268D02*
X30912D01*
Y218300D01*
X29600Y218956D01*
X28944D01*
X28288Y218300D01*
Y216988D01*
X28944Y216332D01*
X30256D01*
X30912Y216988D01*
X25008Y216332D02*
Y220268D01*
X26976Y218300D01*
X24352D01*
X227448Y213532D02*
Y217468D01*
X225480D01*
X224824Y216812D01*
Y215500D01*
X225480Y214844D01*
X227448D01*
X226136D02*
X224824Y213532D01*
X220888Y217468D02*
X223512D01*
Y215500D01*
X222200Y216156D01*
X221544D01*
X220888Y215500D01*
Y214188D01*
X221544Y213532D01*
X222856D01*
X223512Y214188D01*
X219576Y216812D02*
X218920Y217468D01*
X217608D01*
X216952Y216812D01*
Y216156D01*
X217608Y215500D01*
X218264D01*
X217608D01*
X216952Y214844D01*
Y214188D01*
X217608Y213532D01*
X218920D01*
X219576Y214188D01*
X227492Y206732D02*
Y210668D01*
X225524D01*
X224868Y210012D01*
Y208700D01*
X225524Y208044D01*
X227492D01*
X226180D02*
X224868Y206732D01*
X220932Y210668D02*
X223556D01*
Y208700D01*
X222244Y209356D01*
X221588D01*
X220932Y208700D01*
Y207388D01*
X221588Y206732D01*
X222900D01*
X223556Y207388D01*
X219620Y206732D02*
X218308D01*
X218964D01*
Y210668D01*
X219620Y210012D01*
X253648Y197232D02*
Y201168D01*
X251680D01*
X251024Y200512D01*
Y199200D01*
X251680Y198544D01*
X253648D01*
X252336D02*
X251024Y197232D01*
X247744D02*
Y201168D01*
X249712Y199200D01*
X247088D01*
X243808Y197232D02*
Y201168D01*
X245776Y199200D01*
X243152D01*
X55548Y74032D02*
Y77968D01*
X53580D01*
X52924Y77312D01*
Y76000D01*
X53580Y75344D01*
X55548D01*
X54236D02*
X52924Y74032D01*
X49644D02*
Y77968D01*
X51612Y76000D01*
X48988D01*
X47676Y77312D02*
X47020Y77968D01*
X45708D01*
X45052Y77312D01*
Y74688D01*
X45708Y74032D01*
X47020D01*
X47676Y74688D01*
Y77312D01*
X98948Y73232D02*
Y77168D01*
X96980D01*
X96324Y76512D01*
Y75200D01*
X96980Y74544D01*
X98948D01*
X97636D02*
X96324Y73232D01*
X95012Y76512D02*
X94356Y77168D01*
X93044D01*
X92388Y76512D01*
Y75856D01*
X93044Y75200D01*
X93700D01*
X93044D01*
X92388Y74544D01*
Y73888D01*
X93044Y73232D01*
X94356D01*
X95012Y73888D01*
X88452Y77168D02*
X89764Y76512D01*
X91076Y75200D01*
Y73888D01*
X90420Y73232D01*
X89108D01*
X88452Y73888D01*
Y74544D01*
X89108Y75200D01*
X91076D01*
X58848Y181032D02*
Y184968D01*
X56880D01*
X56224Y184312D01*
Y183000D01*
X56880Y182344D01*
X58848D01*
X57536D02*
X56224Y181032D01*
X52288D02*
X54912D01*
X52288Y183656D01*
Y184312D01*
X52944Y184968D01*
X54256D01*
X54912Y184312D01*
X50976Y181688D02*
X50320Y181032D01*
X49008D01*
X48352Y181688D01*
Y184312D01*
X49008Y184968D01*
X50320D01*
X50976Y184312D01*
Y183656D01*
X50320Y183000D01*
X48352D01*
X49120Y116732D02*
Y120668D01*
X47152D01*
X46496Y120012D01*
Y118700D01*
X47152Y118044D01*
X49120D01*
X47808D02*
X46496Y116732D01*
X45184D02*
X43872D01*
X44528D01*
Y120668D01*
X45184Y120012D01*
X41904D02*
X41248Y120668D01*
X39936D01*
X39280Y120012D01*
Y119356D01*
X39936Y118700D01*
X39280Y118044D01*
Y117388D01*
X39936Y116732D01*
X41248D01*
X41904Y117388D01*
Y118044D01*
X41248Y118700D01*
X41904Y119356D01*
Y120012D01*
X41248Y118700D02*
X39936D01*
X49320Y124232D02*
Y128168D01*
X47352D01*
X46696Y127512D01*
Y126200D01*
X47352Y125544D01*
X49320D01*
X48008D02*
X46696Y124232D01*
X45384D02*
X44072D01*
X44728D01*
Y128168D01*
X45384Y127512D01*
X42104Y128168D02*
X39480D01*
Y127512D01*
X42104Y124888D01*
Y124232D01*
X49320Y130932D02*
Y134868D01*
X47352D01*
X46696Y134212D01*
Y132900D01*
X47352Y132244D01*
X49320D01*
X48008D02*
X46696Y130932D01*
X45384D02*
X44072D01*
X44728D01*
Y134868D01*
X45384Y134212D01*
X39480Y134868D02*
X42104D01*
Y132900D01*
X40792Y133556D01*
X40136D01*
X39480Y132900D01*
Y131588D01*
X40136Y130932D01*
X41448D01*
X42104Y131588D01*
X49220Y138132D02*
Y142068D01*
X47252D01*
X46596Y141412D01*
Y140100D01*
X47252Y139444D01*
X49220D01*
X47908D02*
X46596Y138132D01*
X45284D02*
X43972D01*
X44628D01*
Y142068D01*
X45284Y141412D01*
X40036Y138132D02*
Y142068D01*
X42004Y140100D01*
X39380D01*
X49020Y101032D02*
Y104968D01*
X47052D01*
X46396Y104312D01*
Y103000D01*
X47052Y102344D01*
X49020D01*
X47708D02*
X46396Y101032D01*
X45084D02*
X43772D01*
X44428D01*
Y104968D01*
X45084Y104312D01*
X41804D02*
X41148Y104968D01*
X39836D01*
X39180Y104312D01*
Y103656D01*
X39836Y103000D01*
X40492D01*
X39836D01*
X39180Y102344D01*
Y101688D01*
X39836Y101032D01*
X41148D01*
X41804Y101688D01*
X49020Y108232D02*
Y112168D01*
X47052D01*
X46396Y111512D01*
Y110200D01*
X47052Y109544D01*
X49020D01*
X47708D02*
X46396Y108232D01*
X45084D02*
X43772D01*
X44428D01*
Y112168D01*
X45084Y111512D01*
X39180Y108232D02*
X41804D01*
X39180Y110856D01*
Y111512D01*
X39836Y112168D01*
X41148D01*
X41804Y111512D01*
X50564Y84332D02*
Y88268D01*
X48596D01*
X47940Y87612D01*
Y86300D01*
X48596Y85644D01*
X50564D01*
X49252D02*
X47940Y84332D01*
X46628D02*
X45316D01*
X45972D01*
Y88268D01*
X46628Y87612D01*
X43348Y84332D02*
X42036D01*
X42692D01*
Y88268D01*
X43348Y87612D01*
X65520Y96032D02*
Y99968D01*
X63552D01*
X62896Y99312D01*
Y98000D01*
X63552Y97344D01*
X65520D01*
X64208D02*
X62896Y96032D01*
X61584D02*
X60272D01*
X60928D01*
Y99968D01*
X61584Y99312D01*
X58304D02*
X57648Y99968D01*
X56336D01*
X55680Y99312D01*
Y96688D01*
X56336Y96032D01*
X57648D01*
X58304Y96688D01*
Y99312D01*
X246680Y54632D02*
Y58568D01*
X244712D01*
X244056Y57912D01*
Y56600D01*
X244712Y55944D01*
X246680D01*
X245368D02*
X244056Y54632D01*
X242744Y57912D02*
X242088Y58568D01*
X240776D01*
X240120Y57912D01*
Y57256D01*
X240776Y56600D01*
X240120Y55944D01*
Y55288D01*
X240776Y54632D01*
X242088D01*
X242744Y55288D01*
Y55944D01*
X242088Y56600D01*
X242744Y57256D01*
Y57912D01*
X242088Y56600D02*
X240776D01*
X323300Y112368D02*
X324612D01*
X323956D01*
Y109088D01*
X324612Y108432D01*
X325268D01*
X325924Y109088D01*
X321988Y108432D02*
X320676D01*
X321332D01*
Y112368D01*
X321988Y111712D01*
X333000Y269412D02*
X333656Y270068D01*
X334968D01*
X335624Y269412D01*
Y266788D01*
X334968Y266132D01*
X333656D01*
X333000Y266788D01*
Y268100D01*
X334312D01*
X331688Y266132D02*
X330376D01*
X331032D01*
Y270068D01*
X331688Y269412D01*
X301400Y154468D02*
X304024D01*
Y152500D01*
X302712D01*
X304024D01*
Y150532D01*
X300088D02*
X298776D01*
X299432D01*
Y154468D01*
X300088Y153812D01*
X83880Y114568D02*
Y110632D01*
X81912D01*
X81256Y111288D01*
Y113912D01*
X81912Y114568D01*
X83880D01*
X77320D02*
X78632Y113912D01*
X79944Y112600D01*
Y111288D01*
X79288Y110632D01*
X77976D01*
X77320Y111288D01*
Y111944D01*
X77976Y112600D01*
X79944D01*
X221424Y233312D02*
X222080Y233968D01*
X223392D01*
X224048Y233312D01*
Y230688D01*
X223392Y230032D01*
X222080D01*
X221424Y230688D01*
X217488Y233968D02*
X220112D01*
Y232000D01*
X218800Y232656D01*
X218144D01*
X217488Y232000D01*
Y230688D01*
X218144Y230032D01*
X219456D01*
X220112Y230688D01*
X214208Y230032D02*
Y233968D01*
X216176Y232000D01*
X213552D01*
X228324Y268912D02*
X228980Y269568D01*
X230292D01*
X230948Y268912D01*
Y266288D01*
X230292Y265632D01*
X228980D01*
X228324Y266288D01*
X224388Y269568D02*
X227012D01*
Y267600D01*
X225700Y268256D01*
X225044D01*
X224388Y267600D01*
Y266288D01*
X225044Y265632D01*
X226356D01*
X227012Y266288D01*
X223076Y268912D02*
X222420Y269568D01*
X221108D01*
X220452Y268912D01*
Y268256D01*
X221108Y267600D01*
X221764D01*
X221108D01*
X220452Y266944D01*
Y266288D01*
X221108Y265632D01*
X222420D01*
X223076Y266288D01*
X224724Y224112D02*
X225380Y224768D01*
X226692D01*
X227348Y224112D01*
Y221488D01*
X226692Y220832D01*
X225380D01*
X224724Y221488D01*
X220788Y224768D02*
X223412D01*
Y222800D01*
X222100Y223456D01*
X221444D01*
X220788Y222800D01*
Y221488D01*
X221444Y220832D01*
X222756D01*
X223412Y221488D01*
X216852Y220832D02*
X219476D01*
X216852Y223456D01*
Y224112D01*
X217508Y224768D01*
X218820D01*
X219476Y224112D01*
X264324Y214312D02*
X264980Y214968D01*
X266292D01*
X266948Y214312D01*
Y211688D01*
X266292Y211032D01*
X264980D01*
X264324Y211688D01*
X261044Y211032D02*
Y214968D01*
X263012Y213000D01*
X260388D01*
X256452Y214968D02*
X257764Y214312D01*
X259076Y213000D01*
Y211688D01*
X258420Y211032D01*
X257108D01*
X256452Y211688D01*
Y212344D01*
X257108Y213000D01*
X259076D01*
X284124Y194712D02*
X284780Y195368D01*
X286092D01*
X286748Y194712D01*
Y192088D01*
X286092Y191432D01*
X284780D01*
X284124Y192088D01*
X280844Y191432D02*
Y195368D01*
X282812Y193400D01*
X280188D01*
X276252Y191432D02*
X278876D01*
X276252Y194056D01*
Y194712D01*
X276908Y195368D01*
X278220D01*
X278876Y194712D01*
X283527Y202712D02*
X284184Y203368D01*
X285495D01*
X286151Y202712D01*
Y200088D01*
X285495Y199432D01*
X284184D01*
X283527Y200088D01*
X280248Y199432D02*
Y203368D01*
X282216Y201400D01*
X279592D01*
X278280Y199432D02*
X276968D01*
X277624D01*
Y203368D01*
X278280Y202712D01*
X99224Y135212D02*
X99880Y135868D01*
X101192D01*
X101848Y135212D01*
Y132588D01*
X101192Y131932D01*
X99880D01*
X99224Y132588D01*
X97912Y135212D02*
X97256Y135868D01*
X95944D01*
X95288Y135212D01*
Y134556D01*
X95944Y133900D01*
X96600D01*
X95944D01*
X95288Y133244D01*
Y132588D01*
X95944Y131932D01*
X97256D01*
X97912Y132588D01*
X91352Y135868D02*
X93976D01*
Y133900D01*
X92664Y134556D01*
X92008D01*
X91352Y133900D01*
Y132588D01*
X92008Y131932D01*
X93320D01*
X93976Y132588D01*
X41424Y157812D02*
X42080Y158468D01*
X43392D01*
X44048Y157812D01*
Y155188D01*
X43392Y154532D01*
X42080D01*
X41424Y155188D01*
X40112Y157812D02*
X39456Y158468D01*
X38144D01*
X37488Y157812D01*
Y157156D01*
X38144Y156500D01*
X38800D01*
X38144D01*
X37488Y155844D01*
Y155188D01*
X38144Y154532D01*
X39456D01*
X40112Y155188D01*
X36176Y157812D02*
X35520Y158468D01*
X34208D01*
X33552Y157812D01*
Y157156D01*
X34208Y156500D01*
X34864D01*
X34208D01*
X33552Y155844D01*
Y155188D01*
X34208Y154532D01*
X35520D01*
X36176Y155188D01*
X68824Y165512D02*
X69480Y166168D01*
X70792D01*
X71448Y165512D01*
Y162888D01*
X70792Y162232D01*
X69480D01*
X68824Y162888D01*
X67512Y165512D02*
X66856Y166168D01*
X65544D01*
X64888Y165512D01*
Y164856D01*
X65544Y164200D01*
X66200D01*
X65544D01*
X64888Y163544D01*
Y162888D01*
X65544Y162232D01*
X66856D01*
X67512Y162888D01*
X60952Y162232D02*
X63576D01*
X60952Y164856D01*
Y165512D01*
X61608Y166168D01*
X62920D01*
X63576Y165512D01*
X95924Y121512D02*
X96580Y122168D01*
X97892D01*
X98548Y121512D01*
Y118888D01*
X97892Y118232D01*
X96580D01*
X95924Y118888D01*
X91988Y118232D02*
X94612D01*
X91988Y120856D01*
Y121512D01*
X92644Y122168D01*
X93956D01*
X94612Y121512D01*
X90676D02*
X90020Y122168D01*
X88708D01*
X88052Y121512D01*
Y120856D01*
X88708Y120200D01*
X88052Y119544D01*
Y118888D01*
X88708Y118232D01*
X90020D01*
X90676Y118888D01*
Y119544D01*
X90020Y120200D01*
X90676Y120856D01*
Y121512D01*
X90020Y120200D02*
X88708D01*
X129824Y170912D02*
X130480Y171568D01*
X131792D01*
X132448Y170912D01*
Y168288D01*
X131792Y167632D01*
X130480D01*
X129824Y168288D01*
X125888Y167632D02*
X128512D01*
X125888Y170256D01*
Y170912D01*
X126544Y171568D01*
X127856D01*
X128512Y170912D01*
X124576Y171568D02*
X121952D01*
Y170912D01*
X124576Y168288D01*
Y167632D01*
X109524Y152412D02*
X110180Y153068D01*
X111492D01*
X112148Y152412D01*
Y149788D01*
X111492Y149132D01*
X110180D01*
X109524Y149788D01*
X105588Y149132D02*
X108212D01*
X105588Y151756D01*
Y152412D01*
X106244Y153068D01*
X107556D01*
X108212Y152412D01*
X102308Y149132D02*
Y153068D01*
X104276Y151100D01*
X101652D01*
X136324Y151212D02*
X136980Y151868D01*
X138292D01*
X138948Y151212D01*
Y148588D01*
X138292Y147932D01*
X136980D01*
X136324Y148588D01*
X132388Y147932D02*
X135012D01*
X132388Y150556D01*
Y151212D01*
X133044Y151868D01*
X134356D01*
X135012Y151212D01*
X128452Y147932D02*
X131076D01*
X128452Y150556D01*
Y151212D01*
X129108Y151868D01*
X130420D01*
X131076Y151212D01*
X10940Y120358D02*
X11596Y121014D01*
X12908D01*
X13564Y120358D01*
Y117735D01*
X12908Y117079D01*
X11596D01*
X10940Y117735D01*
X9628Y117079D02*
X8316D01*
X8972D01*
Y121014D01*
X9628Y120358D01*
X6348Y117079D02*
X5036D01*
X5692D01*
Y121014D01*
X6348Y120358D01*
X108196Y97912D02*
X108852Y98568D01*
X110164D01*
X110820Y97912D01*
Y95288D01*
X110164Y94632D01*
X108852D01*
X108196Y95288D01*
X106884Y94632D02*
X105572D01*
X106228D01*
Y98568D01*
X106884Y97912D01*
X103604D02*
X102948Y98568D01*
X101636D01*
X100980Y97912D01*
Y95288D01*
X101636Y94632D01*
X102948D01*
X103604Y95288D01*
Y97912D01*
X204576Y230180D02*
X205232Y230836D01*
X206544D01*
X207200Y230180D01*
Y227556D01*
X206544Y226900D01*
X205232D01*
X204576Y227556D01*
X203264D02*
X202608Y226900D01*
X201296D01*
X200640Y227556D01*
Y230180D01*
X201296Y230836D01*
X202608D01*
X203264Y230180D01*
Y229524D01*
X202608Y228868D01*
X200640D01*
D11*
X303163Y101953D02*
G03*
X303163Y101953I-557J0D01*
G01*
X227750Y253479D02*
X234050D01*
X227750Y252731D02*
X234050D01*
X227750D02*
Y255093D01*
X234050Y252731D02*
Y255093D01*
X243950Y252719D02*
Y255081D01*
X237650Y252719D02*
Y255081D01*
Y252719D02*
X243950D01*
X237650Y253467D02*
X243950D01*
X65419Y88842D02*
X71423D01*
X72801Y89354D02*
Y108646D01*
X85399D01*
Y89354D02*
Y108646D01*
X72801Y89354D02*
X85399D01*
X296035Y132877D02*
Y135330D01*
X266893Y132692D02*
X295850D01*
X266705Y132881D02*
Y135429D01*
X296035Y151374D02*
Y153922D01*
X295847Y154111D02*
X296035Y153922D01*
X266890Y154111D02*
X295847D01*
X266705Y153926D02*
X266890Y154111D01*
X266705Y151472D02*
Y153926D01*
X228719Y234743D02*
X242105D01*
X228719Y227657D02*
X242105D01*
X228719Y234546D02*
Y234743D01*
X236987Y234546D02*
X242105D01*
X228719Y227657D02*
Y227853D01*
X236987D02*
X242105D01*
X243975Y234842D02*
Y235826D01*
X243286Y235334D02*
X244664D01*
X276921Y239907D02*
X279480D01*
X276921Y228293D02*
Y239907D01*
Y228293D02*
X279480D01*
Y239907D01*
X280857Y240005D02*
X285385D01*
X235626Y18188D02*
X251374D01*
X235626D02*
Y25275D01*
X251374Y18188D02*
Y25275D01*
X235626Y43976D02*
Y51062D01*
X251374Y43976D02*
Y51062D01*
X235626D02*
X251374D01*
X249799Y29113D02*
Y40137D01*
X237201Y29113D02*
Y40137D01*
X297051Y126177D02*
Y130114D01*
X265949D02*
X297051D01*
X265949Y126177D02*
Y130114D01*
X297051Y106886D02*
Y110823D01*
X265949Y106886D02*
X297051D01*
X265949D02*
Y110823D01*
D12*
X302071Y118500D02*
G03*
X302071Y118500I-492J0D01*
G01*
D14*
X122510Y138355D02*
X126165Y134700D01*
X119563Y135407D02*
X122510Y138355D01*
X113756Y129600D02*
X117410Y125946D01*
X113756Y129600D02*
X116564Y132409D01*
D18*
X235526Y244266D02*
Y249483D01*
X226274Y244266D02*
X235526D01*
X226274D02*
Y249483D01*
X235526Y258341D02*
Y263558D01*
X226274D02*
X235526D01*
X226274Y258341D02*
Y263558D01*
X236174Y258329D02*
Y263546D01*
X245426D01*
Y258329D02*
Y263546D01*
X236174Y244254D02*
Y249471D01*
Y244254D02*
X245426D01*
Y249471D01*
X120134Y159291D02*
X122709Y156715D01*
X126885Y160891D01*
X124310Y163466D02*
X126885Y160891D01*
X113383Y166041D02*
X115958Y163466D01*
X113383Y166041D02*
X117559Y170217D01*
X120134Y167642D01*
X14947Y112706D02*
Y116347D01*
Y112706D02*
X20853D01*
Y116347D01*
X14947Y122253D02*
Y125894D01*
X20853D01*
Y122253D02*
Y125894D01*
X38841Y164491D02*
X41625Y161707D01*
X44409Y170059D02*
X47193Y167275D01*
X38841Y164491D02*
X44409Y170059D01*
X49281Y154052D02*
X54848Y159619D01*
X46497Y156835D02*
X49281Y154052D01*
X52065Y162403D02*
X54848Y159619D01*
X45249Y170025D02*
X47824Y172600D01*
X45249Y170025D02*
X49425Y165849D01*
X52000Y168424D01*
Y176776D02*
X54575Y179351D01*
X58751Y175175D01*
X56176Y172600D02*
X58751Y175175D01*
X259778Y197863D02*
X263715D01*
X259778Y205737D02*
X263715D01*
X259778Y197863D02*
Y205737D01*
X274542Y197863D02*
Y205737D01*
X270605Y197863D02*
X274542D01*
X270605Y205737D02*
X274542D01*
X259878Y189463D02*
X263815D01*
X259878Y197337D02*
X263815D01*
X259878Y189463D02*
Y197337D01*
X274642Y189463D02*
Y197337D01*
X270705Y189463D02*
X274642D01*
X270705Y197337D02*
X274642D01*
X49883Y165459D02*
X52458Y168034D01*
X49883Y165459D02*
X54059Y161283D01*
X56634Y163858D01*
Y172210D02*
X59209Y174785D01*
X63385Y170609D01*
X60809Y168034D02*
X63385Y170609D01*
X32653Y232906D02*
Y236548D01*
X26747D02*
X32653D01*
X26747Y232906D02*
Y236548D01*
X32653Y223359D02*
Y227001D01*
X26747Y223359D02*
X32653D01*
X26747D02*
Y227001D01*
X36747Y223359D02*
Y227001D01*
Y223359D02*
X42653D01*
Y227001D01*
X36747Y232906D02*
Y236548D01*
X42653D01*
Y232906D02*
Y236548D01*
X46747Y223306D02*
Y226947D01*
Y223306D02*
X52653D01*
Y226947D01*
X46747Y232853D02*
Y236494D01*
X52653D01*
Y232853D02*
Y236494D01*
X56547Y223259D02*
Y226901D01*
Y223259D02*
X62453D01*
Y226901D01*
X56547Y232806D02*
Y236448D01*
X62453D01*
Y232806D02*
Y236448D01*
X66747Y223352D02*
Y226994D01*
Y223352D02*
X72653D01*
Y226994D01*
X66747Y232899D02*
Y236541D01*
X72653D01*
Y232899D02*
Y236541D01*
X76847Y223352D02*
Y226994D01*
Y223352D02*
X82753D01*
Y226994D01*
X76847Y232899D02*
Y236541D01*
X82753D01*
Y232899D02*
Y236541D01*
X86847Y223352D02*
Y226994D01*
Y223352D02*
X92753D01*
Y226994D01*
X86847Y232899D02*
Y236541D01*
X92753D01*
Y232899D02*
Y236541D01*
X96747Y223352D02*
Y226994D01*
Y223352D02*
X102653D01*
Y226994D01*
X96747Y232899D02*
Y236541D01*
X102653D01*
Y232899D02*
Y236541D01*
X57853Y89553D02*
Y93195D01*
X51947D02*
X57853D01*
X51947Y89553D02*
Y93195D01*
X57853Y80006D02*
Y83647D01*
X51947Y80006D02*
X57853D01*
X51947D02*
Y83647D01*
X58547Y80059D02*
Y83701D01*
Y80059D02*
X64453D01*
Y83701D01*
X58547Y89606D02*
Y93248D01*
X64453D01*
Y89606D02*
Y93248D01*
X100053Y99653D02*
Y103295D01*
X94147D02*
X100053D01*
X94147Y99653D02*
Y103295D01*
X100053Y90105D02*
Y93747D01*
X94147Y90105D02*
X100053D01*
X94147D02*
Y93747D01*
X128976Y153800D02*
X131551Y156375D01*
X127375Y160551D02*
X131551Y156375D01*
X124800Y157976D02*
X127375Y160551D01*
X122225Y147049D02*
X124800Y149624D01*
X118049Y151225D02*
X122225Y147049D01*
X118049Y151225D02*
X120624Y153800D01*
X119076Y144000D02*
X121651Y146575D01*
X117475Y150751D02*
X121651Y146575D01*
X114900Y148176D02*
X117475Y150751D01*
X112325Y137249D02*
X114900Y139824D01*
X108149Y141425D02*
X112325Y137249D01*
X108149Y141425D02*
X110724Y144000D01*
X102559Y146117D02*
X105134Y143542D01*
X98383Y141941D02*
X102559Y146117D01*
X98383Y141941D02*
X100958Y139366D01*
X109309D02*
X111885Y136791D01*
X107709Y132615D02*
X111885Y136791D01*
X105134Y135190D02*
X107709Y132615D01*
X90018Y108763D02*
X93955D01*
X90018Y116637D02*
X93955D01*
X90018Y108763D02*
Y116637D01*
X104782Y108763D02*
Y116637D01*
X100845Y108763D02*
X104782Y108763D01*
X100845Y116637D02*
X104782D01*
X56678Y71263D02*
X60615D01*
X56678Y79137D02*
X60615D01*
X56678Y71263D02*
Y79137D01*
X71442Y71263D02*
Y79137D01*
X67505Y71263D02*
X71442D01*
X67505Y79137D02*
X71442D01*
X82905D02*
X86842D01*
X82905Y71263D02*
X86842D01*
Y79137D01*
X72078Y71263D02*
Y79137D01*
X76015D01*
X72078Y71263D02*
X76015D01*
X239445Y226837D02*
X243382D01*
X239445Y218963D02*
X243382D01*
Y226837D01*
X228618Y218963D02*
Y226837D01*
X232555D01*
X228618Y218963D02*
X232555D01*
X295163Y253645D02*
Y257582D01*
X303037Y253645D02*
Y257582D01*
X295163D02*
X303037D01*
X295163Y242818D02*
X303037D01*
X295163D02*
Y246755D01*
X303037Y242818D02*
Y246755D01*
X267837Y282858D02*
Y286795D01*
X259963Y282858D02*
Y286795D01*
Y282858D02*
X267837D01*
X259963Y297622D02*
X267837D01*
Y293685D02*
Y297622D01*
X259963Y293685D02*
Y297622D01*
X207937Y208858D02*
Y212795D01*
X200063Y208858D02*
Y212795D01*
Y208858D02*
X207937D01*
X200063Y223622D02*
X207937D01*
Y219685D02*
Y223622D01*
X200063Y219685D02*
Y223622D01*
X253378Y225263D02*
X257315D01*
X253378Y233137D02*
X257315D01*
X253378Y225263D02*
Y233137D01*
X268142Y225263D02*
Y233137D01*
X264205Y225263D02*
X268142D01*
X264205Y233137D02*
X268142D01*
X253358Y233763D02*
X257295D01*
X253358Y241637D02*
X257295D01*
X253358Y233763D02*
Y241637D01*
X268122Y233763D02*
Y241637D01*
X264185Y233763D02*
X268122D01*
X264185Y241637D02*
X268122D01*
X288358Y225563D02*
X292295D01*
X288358Y233437D02*
X292295D01*
X288358Y225563D02*
Y233437D01*
X303122Y225563D02*
Y233437D01*
X299185Y225563D02*
X303122D01*
X299185Y233437D02*
X303122D01*
X288358Y234063D02*
X292295D01*
X288358Y241937D02*
X292295D01*
X288358Y234063D02*
Y241937D01*
X303122Y234063D02*
Y241937D01*
X299185Y234063D02*
X303122D01*
X299185Y241937D02*
X303122D01*
X253378Y216763D02*
X257315D01*
X253378Y224637D02*
X257315D01*
X253378Y216763D02*
Y224637D01*
X268142Y216763D02*
Y224637D01*
X264205Y216763D02*
X268142D01*
X264205Y224637D02*
X268142D01*
X251406Y202647D02*
X255048D01*
Y208553D01*
X251406D02*
X255048D01*
X241859Y202647D02*
X245501D01*
X241859D02*
Y208553D01*
X245501D01*
X238106Y212247D02*
X241748D01*
Y218153D01*
X238106D02*
X241748D01*
X228559Y212247D02*
X232201D01*
X228559D02*
Y218153D01*
X232201D01*
X238206Y205647D02*
X241848D01*
Y211553D01*
X238206D02*
X241848D01*
X228659Y205647D02*
X232301D01*
X228659D02*
Y211553D01*
X232301D01*
X33206Y100247D02*
X36848D01*
Y106153D01*
X33206D02*
X36848D01*
X23659Y100247D02*
X27301D01*
X23659D02*
Y106153D01*
X27301D01*
X33199Y106747D02*
X36841D01*
Y112653D01*
X33199D02*
X36841D01*
X23652Y106747D02*
X27294D01*
X23652D02*
Y112653D01*
X27294D01*
X33253Y115247D02*
X36895D01*
Y121153D01*
X33253D02*
X36895D01*
X23706Y115247D02*
X27347D01*
X23706D02*
Y121153D01*
X27347D01*
X33299Y129447D02*
X36941D01*
Y135353D01*
X33299D02*
X36941D01*
X23752Y129447D02*
X27394D01*
X23752D02*
Y135353D01*
X27394D01*
X33306Y122747D02*
X36948D01*
Y128653D01*
X33306D02*
X36948D01*
X23759Y122747D02*
X27401D01*
X23759D02*
Y128653D01*
X27401D01*
X33299Y136147D02*
X36941D01*
Y142053D01*
X33299D02*
X36941D01*
X23752Y136147D02*
X27394D01*
X23752D02*
Y142053D01*
X27394D01*
D19*
X338060Y247300D02*
G03*
X338060Y247300I-403J0D01*
G01*
X335698D02*
G03*
X335698Y247300I-18898J0D01*
G01*
D20*
X273000Y90496D02*
X288000D01*
X273000Y7504D02*
X288000D01*
X318000D02*
X333000D01*
X318000Y90496D02*
X333000D01*
M02*
