M48
;Layer_Color=9474304
;FILE_FORMAT=2:5
INCH,LZ
;TYPE=PLATED
T1F00S00C0.00787
T2F00S00C0.02756
T3F00S00C0.03150
T4F00S00C0.03543
T5F00S00C0.03600
T6F00S00C0.04000
T7F00S00C0.04291
T8F00S00C0.04724
T9F00S00C0.05512
T10F00S00C0.06400
T11F00S00C0.08661
T12F00S00C0.12835
;TYPE=NON_PLATED
T13F00S00C0.03937
T14F00S00C0.12800
%
T01
X00245Y00055
X00325
X00365Y00095
X00425Y0005
X0026Y00135
X0047Y00115
X00545Y0015
X006Y0011
X00535Y00055
X0067Y00045
X0092Y0012
X00995Y00115
X01035Y0015
X0107Y0011
X01175
X0183Y0015
X02515Y00145
X0258Y0012
X02605Y00055
X02475Y00035
X0241
X02715Y00242
X02665Y00725
X02585Y0082
X025Y00845
X02565Y0092
X02713Y00873
X02515Y00585
X02095Y00595
X02145Y00439
X0208Y00345
Y00315
Y00285
X02045
X02018Y002864
X02015Y00315
X02045
X02047Y003454
X0202
X02045Y0021
X02205Y00818
X02189Y00971
X02159Y00973
X02132
X02104Y00972
X02106Y01002
X02133
X02161Y01001
X02188Y01003
X02311Y01152
X02511Y01183
X02865Y0133
X03185Y0127
X0325Y01265
X03255Y0095
X03294Y00935
X03335Y0098
X03195Y0094
X0333Y0076
X03255Y01685
X0321Y0169
X02415Y01615
X02374Y01652
X0222Y0168
X0223Y01576
X01965Y0167
X01915Y01625
X0184
X01764Y01653
X01795Y01695
X01421Y01676
X01394Y01706
X01415Y01596
X01411Y01552
X01418Y0148
X0136Y01422
X0137Y01365
X01305Y01368
X01235Y01292
X0109076Y01304
X0102Y01315
X00995
Y0129
X0102
Y0126
X00995
X01013Y01188
X00916Y01174
X00861
X00862Y01202
X00863Y01231
X00808Y01287
X00766Y0133
X00724Y01369
X0070922Y0138483
X0070871Y0128429
X00589Y01321
X00567Y013
X00543Y0125
X00478Y01264
X00511Y01529
X0053Y01548
X00549Y01567
X00571Y01551
X00553Y01533
X00533Y01511
X00594Y01491
X0060987Y0147627
X0057583Y0163983
X00629Y0168
X00717Y01623
X00801Y01705
X0087Y01645
X0102712Y0154421
X0109Y0149
X01079Y01466
X0111Y0147
X01205Y01436
X0119Y01545
X01186Y01575
X01165Y01565
X011Y01595
X01102Y01718
X01143Y01691
X01307Y01533
X01543Y0139
X014Y0113
X01345Y01165
X0128Y0114
X0114266Y0120055
X0112593Y0118669
X01111Y01171
X00888Y01126
X0072815Y01109
X00818Y01016
X0081935Y00961
X00841
X00746Y00915
X00749Y00854
X00766Y00811
X00791
X0094Y00775
X00945Y0075
X00972Y00749
X0097Y0072
X01005
X0098Y0078
X00971Y00886
X00995Y00885
X0101Y0091
X0094Y0089
X00915Y0088
X0093Y0067
X00945Y0061
X00975Y00535
X00995Y0055
X0101Y0053
X0104Y00545
Y00585
X0102Y00565
X01065
Y00605
X01095Y0062
Y00585
X0116Y00595
X01255Y0058
X0136Y0057
X01285Y00685
X0117Y00725
X01202Y0079
X01359Y00784
X01785Y00846
X01875Y00815
X0187Y00905
X01875Y01235
X0196Y0124
Y01175
X01868Y00437
X0171752Y0043852
X0166752
X0199Y00345
Y00315
X0198607Y002864
X01415Y0027
X01456Y0022109
Y0019944
X0112Y0016
X0106Y0026
X0098Y00265
X0095Y00165
X0086
X00453Y00628
X0046Y00755
Y00785
X00445Y00815
X005Y00832
X00524Y00712
X00925Y01317
X0092Y01395
X00998Y01446
X00391Y01358
Y01316
X0039Y01266
X00391Y01183
X0039Y01139
X00391Y01096
Y01066
X00308Y00987
X00163Y00954
X00218Y01159
X0022569Y0122569
X00135Y01226
X00143Y01251
X00117Y01252
Y0128
Y01306
X00148Y01308
X00145Y01282
X00193Y0162
X00194Y01651
Y0168
X00232Y01681
Y01652
Y01621
X0031Y01655
X00396Y01691
X0009Y0171
X00332Y00819
X00358Y00818
X00416Y0081273
X00273Y00623
X0039Y0016
X003Y01725
X0032Y01795
X0034Y01905
X004Y0194
X0029Y0195
X003Y0207
X00227Y02118
X00186
X00171Y02145
X00208
X00191Y02172
X00155
X0029682Y022255
X00397Y02225
X00405Y0246
X0034
X0039Y02605
X00285Y026
X002Y02545
X00165Y0267
X00105Y02675
X00055Y02665
X0006Y0261
Y0252
X00095Y0275
X001Y0281
Y0289
X00225Y02895
X0029Y02935
X00285Y02985
X0036Y0298
X00355Y03055
X00405
X00425Y031
X00375
X00325
X00275
X003Y03055
X00245
X0017Y02825
X0015Y0277
X0021
X0018Y02725
X00212Y01735
X00453Y01739
X00617Y01753
X00644
X00669Y01752
X00695Y01753
X0081577Y0172083
X0094Y01755
X01025Y01835
X0110283Y0174026
X01189Y0189
X01137Y01948
X0112047Y0196199
X0110559Y0197772
X01144Y02042
X01247Y02092
X01208Y02195
X01295Y02241
X01294Y02268
X01326Y02269
X01327Y02243
X01357
Y02268
X01469Y02289
X01491
X01442Y02178
X01413Y01994
X01461Y01913
X01502Y01872
X01579Y01906
X01582Y0194965
X01677
X0174Y0191
X01771Y01888
X01795Y01905
X01711Y01874
X01739Y01721
X01675
X01533Y01746
X01433Y01766
X0135094Y0174034
X01335Y01755
X0131969Y0177031
X0130416Y0178685
X0127831Y0180969
X01263Y01825
X00985Y0197
X00968Y01986
X0079483Y0202177
X00779Y02007
X00798Y02225
X00898
X00997
X01054Y02271
X01085Y0227
Y02306
X01084Y02333
X01053Y02334
Y02307
X0105Y0247
X011Y0248
X01174Y02495
X0124Y025
X01352Y0254735
Y02569
X01535Y026
X01675Y0259
X01781Y0261
X0168Y02715
X01515Y02735
X01465Y02915
X01485Y02995
X0142
X01455Y0305
X0153
X01575Y02995
X0156Y0293
X0136Y02935
X0132Y0299
X01345Y0305
X01265Y0293
X0106Y0299
X00995Y02985
X00935
X0088Y0298
X0081Y02975
X00755Y0298
Y0305
X008
X00865Y03045
X0092
X0097Y0304
X0103
X01085Y03045
X01055Y031
X0112
X01175Y03105
X0099Y031
X00935
X00885
X0083
X0078
X0073
X00685
X0063
X0058
X0053
X00475
X00455Y0305
X00505
X0056
X00615
X0066
X0071
X00655Y0298
X00615
X0052
X0045
X0059Y0247
X0069Y0246
X0075Y02465
X00835Y0246
X009
X00955Y0247
X0098Y0263
X00905Y0267
X0083Y02595
X0078Y02635
X01055Y0257803
Y0255638
X01165Y0271
X01125Y02765
X01795Y02995
X01875Y0299
X0193Y02995
X01964Y02374
Y02349
Y02287
X01941Y0229
X01822Y02323
X01825Y02373
X01847Y02374
X0175701Y02193
X01987Y01917
X00515Y01885
X00475Y0195
X00497Y02225
X00596
X00698
X02048Y0225
Y0227447
X02049Y02298
X02077Y02297
X02076Y02272
Y02247
X02092Y02125
X02225Y0213
X0222Y02035
X02277Y02227
X0217525Y0228868
X02232Y02453
X02525Y0241
Y0238
X025
X02526Y02196
X02554Y0216
X02455Y0218
X0248Y02
Y0197835
X02483Y01907
X02588Y01932
X02587Y02057
X02626Y0207
X02684Y02066
X02763Y02065
X0278Y01975
X02815Y01902
Y0188035
X0281382Y0185872
X02784Y0183
X0272665Y01829
X02705
X02646Y0182586
X02562Y018
X02529Y01804
X02371Y01767
X02374Y01744
X02976Y01723
X03195Y0176
X03255Y0177
Y0185
X03205Y01855
X03185Y0194
X0319Y02025
X0325
X0326Y01955
X03255Y0211
X03201Y02276
X0308Y02189
X03028Y02213
X03006Y02214
X02982
X02983Y02239
X03005Y02238
X03028
X02915Y0223
X02885Y02195
X02892Y02149
X02855Y02165
X0280433Y02162
X0278267
X0274533Y02161
X0272367
X02705Y02207
X027Y0225
X02795
X02871Y0234
X0295Y026
X0292Y0264
X02875Y02675
X02785
X02715Y0268
X02655Y0267
Y0264
Y02615
X0262
Y0264
Y0267
X02725Y0275
X0277Y02775
X0278Y0286
X0271Y0282
X02589Y02913
X02325Y03025
X0213Y03005
Y03055
X02125Y0292
X02087Y0283
X02009Y02649
X0267735Y02525
X02699
X031Y0255
X0316Y02555
X03125Y02645
X0308
X03125Y0273
X0312Y0281
X03185Y02675
X03145Y03095
T02
X0166Y0009
X0176
X01885
X01985
X0211
X0221
X02435
X02535
T03
X0308926Y02473
X0324674
T04
X00514Y00563
X00614
X00714
X00814
Y00663
X00714
X00614
X00514
X01588Y00295
Y00195
X00163Y0027978
Y0035852
Y0043726
Y00516
Y0059474
Y0067348
Y0075222
Y0083096
X0008426
Y0075222
Y0067348
Y0059474
Y00516
Y0043726
Y0035852
Y0027978
X00077Y01798
Y01898
Y01998
Y02098
X00072Y02227
X00172
Y02327
X00072
Y02427
X00172
X01301Y02598
X01401
T05
X02491Y02462
X02591
X02691
X02791
X02841Y02562
X02741
X02641
X02541
T06
X02416Y02945
X02516Y03005
X02815Y02945
X02915Y03005
T07
X0068594Y0032
X00795
X0090405
X0101311
X0106764Y0043181
X0095858
X0084953
X0074047
X0063142
X0062882Y0271609
X0073787
X0084693
X0095598
X0106504
X0101051Y028279
X0090146
X007924
X0068335
T08
X0326542Y0154613
Y0223511
T09
X0322Y0118
Y0137685
T10
X02356Y02692
X02976
T11
X00105Y00105
X0328
X00105Y03045
X0328
T12
X0134146Y0037591
X003576
X00355Y02772
X0133886
T13
X01761Y02929
X0193423
T14
X02441Y02812
X02891
M30
