G04*
G04 #@! TF.GenerationSoftware,Altium Limited,Altium Designer,21.3.2 (30)*
G04*
G04 Layer_Physical_Order=4*
G04 Layer_Color=16711680*
%FSLAX25Y25*%
%MOIN*%
G70*
G04*
G04 #@! TF.SameCoordinates,6B7675C1-BEDD-4D56-80B4-810BFE634478*
G04*
G04*
G04 #@! TF.FilePolarity,Positive*
G04*
G01*
G75*
%ADD11C,0.00787*%
%ADD12C,0.00984*%
%ADD23R,0.05118X0.05906*%
%ADD24R,0.03937X0.04331*%
%ADD27R,0.04331X0.03937*%
%ADD28R,0.05906X0.05118*%
%ADD36R,0.06004X0.02559*%
%ADD40R,0.07874X0.04724*%
%ADD46R,0.08661X0.12402*%
%ADD62C,0.00610*%
%ADD63C,0.01968*%
%ADD64C,0.01181*%
%ADD65C,0.00906*%
%ADD66C,0.00469*%
%ADD68R,0.05600X0.05600*%
%ADD69C,0.05600*%
%ADD70C,0.06000*%
%ADD71C,0.09600*%
%ADD72C,0.12800*%
%ADD73C,0.06653*%
%ADD74R,0.06653X0.06653*%
%ADD75C,0.18740*%
%ADD76R,0.05906X0.05906*%
%ADD77C,0.05906*%
%ADD78C,0.05118*%
%ADD79R,0.05906X0.05906*%
%ADD80C,0.04331*%
%ADD81C,0.03937*%
%ADD82C,0.08661*%
%ADD83C,0.06693*%
%ADD84C,0.15748*%
%ADD85C,0.01772*%
%ADD86C,0.00512*%
%ADD87R,0.07087X0.06299*%
%ADD88R,0.20000X0.10984*%
%ADD89C,0.70000*%
G04:AMPARAMS|DCode=90|XSize=39.37mil|YSize=43.31mil|CornerRadius=0mil|HoleSize=0mil|Usage=FLASHONLY|Rotation=225.000|XOffset=0mil|YOffset=0mil|HoleType=Round|Shape=Rectangle|*
%AMROTATEDRECTD90*
4,1,4,-0.00139,0.02923,0.02923,-0.00139,0.00139,-0.02923,-0.02923,0.00139,-0.00139,0.02923,0.0*
%
%ADD90ROTATEDRECTD90*%

G04:AMPARAMS|DCode=91|XSize=59.06mil|YSize=51.18mil|CornerRadius=0mil|HoleSize=0mil|Usage=FLASHONLY|Rotation=225.000|XOffset=0mil|YOffset=0mil|HoleType=Round|Shape=Rectangle|*
%AMROTATEDRECTD91*
4,1,4,0.00278,0.03897,0.03897,0.00278,-0.00278,-0.03897,-0.03897,-0.00278,0.00278,0.03897,0.0*
%
%ADD91ROTATEDRECTD91*%

G04:AMPARAMS|DCode=92|XSize=39.37mil|YSize=43.31mil|CornerRadius=0mil|HoleSize=0mil|Usage=FLASHONLY|Rotation=315.000|XOffset=0mil|YOffset=0mil|HoleType=Round|Shape=Rectangle|*
%AMROTATEDRECTD92*
4,1,4,-0.02923,-0.00139,0.00139,0.02923,0.02923,0.00139,-0.00139,-0.02923,-0.02923,-0.00139,0.0*
%
%ADD92ROTATEDRECTD92*%

G04:AMPARAMS|DCode=93|XSize=23.62mil|YSize=27.56mil|CornerRadius=0mil|HoleSize=0mil|Usage=FLASHONLY|Rotation=225.000|XOffset=0mil|YOffset=0mil|HoleType=Round|Shape=Rectangle|*
%AMROTATEDRECTD93*
4,1,4,-0.00139,0.01810,0.01810,-0.00139,0.00139,-0.01810,-0.01810,0.00139,-0.00139,0.01810,0.0*
%
%ADD93ROTATEDRECTD93*%

%ADD94R,0.09055X0.12205*%
%ADD95R,0.04528X0.02362*%
%ADD96R,0.13386X0.08465*%
%ADD97C,0.07874*%
G36*
X259534Y290671D02*
X259486Y290600D01*
X259443Y290527D01*
X259407Y290453D01*
X259376Y290377D01*
X259350Y290301D01*
X259331Y290223D01*
X259316Y290143D01*
X259308Y290063D01*
X259305Y289981D01*
X258695Y289907D01*
X258692Y289991D01*
X258681Y290072D01*
X258664Y290150D01*
X258641Y290224D01*
X258610Y290295D01*
X258573Y290363D01*
X258528Y290428D01*
X258478Y290489D01*
X258420Y290547D01*
X258355Y290601D01*
X259588Y290741D01*
X259534Y290671D01*
D02*
G37*
G36*
X271121Y253140D02*
X271074Y253088D01*
X271030Y253030D01*
X270988Y252966D01*
X270949Y252894D01*
X270912Y252817D01*
X270879Y252733D01*
X270819Y252545D01*
X270793Y252442D01*
X270770Y252332D01*
X270085Y253366D01*
X270182Y253349D01*
X270274Y253339D01*
X270363Y253338D01*
X270446Y253344D01*
X270526Y253357D01*
X270601Y253379D01*
X270672Y253408D01*
X270739Y253445D01*
X270802Y253489D01*
X270860Y253541D01*
X271121Y253140D01*
D02*
G37*
G36*
X267000Y254433D02*
X266564Y254252D01*
X266255Y253943D01*
X265400D01*
X264848Y253833D01*
X264380Y253520D01*
X261880Y251020D01*
X260900Y252000D01*
X261000Y252100D01*
Y289500D01*
X267000D01*
Y254433D01*
D02*
G37*
G36*
X317500Y292500D02*
X335000D01*
Y22500D01*
X320500D01*
X317500Y19500D01*
Y2500D01*
X313394D01*
Y11638D01*
X292606D01*
Y6380D01*
X290382D01*
X282280Y14481D01*
Y18000D01*
X282081Y18481D01*
X265880Y34681D01*
Y66219D01*
X291151Y91490D01*
X291196Y91515D01*
X291243Y91537D01*
X291291Y91555D01*
X291341Y91568D01*
X292606D01*
Y86362D01*
X313394D01*
Y98134D01*
X292606D01*
Y92928D01*
X264334D01*
X224920Y132341D01*
X224439Y132541D01*
X127087D01*
X125261Y134366D01*
X123034Y132139D01*
X125539Y129634D01*
X127087Y131181D01*
X224158D01*
X263571Y91767D01*
X264052Y91568D01*
X288000D01*
X288383Y90645D01*
X264719Y66981D01*
X264520Y66500D01*
Y34400D01*
X264719Y33919D01*
X271555Y27084D01*
X271185Y26040D01*
X270896Y26010D01*
X263303Y33603D01*
X262700Y33852D01*
X217953D01*
X210352Y41453D01*
Y58439D01*
X210355Y58450D01*
X210368Y58484D01*
X210381Y58511D01*
X210393Y58532D01*
X210406Y58549D01*
X210434Y58579D01*
X210460Y58650D01*
X210780Y58970D01*
Y60030D01*
X210030Y60780D01*
X208982D01*
Y83852D01*
X220765Y95635D01*
X220765Y95635D01*
X221082Y96400D01*
X221082Y96400D01*
X221082Y110400D01*
X220926Y110778D01*
X220772Y111158D01*
X220767Y111161D01*
X220765Y111165D01*
X220387Y111322D01*
X220010Y111482D01*
X209365Y111579D01*
X209363Y111578D01*
X209360Y111579D01*
X208980Y111424D01*
X208597Y111269D01*
X208596Y111267D01*
X208593Y111266D01*
X208238Y110914D01*
X208237Y110911D01*
X208235Y110910D01*
X208077Y110529D01*
X207918Y110150D01*
X207919Y110147D01*
X207918Y110145D01*
X207918Y101348D01*
X194935Y88365D01*
X194618Y87600D01*
X194618Y87600D01*
Y28500D01*
X194935Y27735D01*
X195700Y27418D01*
X198020D01*
X198076Y27361D01*
X199136D01*
X199194Y27418D01*
X201213D01*
X201270Y27361D01*
X202330D01*
X202387Y27418D01*
X203773D01*
X203970Y27220D01*
X205030D01*
X205227Y27418D01*
X207273D01*
X207470Y27220D01*
X208530D01*
X209279Y27970D01*
Y29030D01*
X208982Y29327D01*
Y30673D01*
X209279Y30970D01*
Y32030D01*
X208982Y32327D01*
Y33673D01*
X209279Y33970D01*
Y35030D01*
X208982Y35327D01*
Y39106D01*
X209906Y39488D01*
X216997Y32397D01*
X217600Y32148D01*
X262347D01*
X270147Y24348D01*
X270153Y24337D01*
X270168Y24305D01*
X270178Y24277D01*
X270184Y24253D01*
X270187Y24232D01*
X270188Y24191D01*
X270220Y24122D01*
Y23670D01*
X270970Y22920D01*
X272030D01*
X272779Y23670D01*
Y24445D01*
X273688Y24951D01*
X280920Y17718D01*
Y14200D01*
X281119Y13719D01*
X289619Y5219D01*
X290100Y5020D01*
X292606D01*
Y2500D01*
X22500D01*
Y22500D01*
X2500D01*
Y40724D01*
X3424Y41106D01*
X5365Y39165D01*
X5365Y39165D01*
X5900Y38944D01*
X5928D01*
X6342Y37944D01*
X5473Y37075D01*
Y34629D01*
X7203Y32899D01*
X9649D01*
X11379Y34629D01*
Y37075D01*
X10510Y37944D01*
X10924Y38944D01*
X13802D01*
X14216Y37944D01*
X13347Y37075D01*
Y34629D01*
X15077Y32899D01*
X17523D01*
X19253Y34629D01*
Y37075D01*
X18384Y37944D01*
X18798Y38944D01*
X21187D01*
X23075Y37056D01*
X23075Y37056D01*
X23609Y36834D01*
X25996D01*
Y33546D01*
X31716Y27827D01*
X39804D01*
X45524Y33546D01*
Y36834D01*
X124382D01*
Y33546D01*
X130101Y27827D01*
X138190D01*
X143909Y33546D01*
Y41635D01*
X138190Y47354D01*
X130101D01*
X124382Y41635D01*
Y38347D01*
X111685D01*
X111582Y38500D01*
Y67000D01*
X111582Y67000D01*
X111265Y67765D01*
X111265Y67765D01*
X99765Y79265D01*
X99000Y79582D01*
X99000Y79582D01*
X80806D01*
X80316Y80505D01*
X80316Y80506D01*
X80379Y80570D01*
Y81630D01*
X80634Y82244D01*
X136887D01*
X165996Y53135D01*
Y45044D01*
X165992Y45031D01*
X165976Y44990D01*
X165957Y44950D01*
X165934Y44911D01*
X165906Y44871D01*
X165872Y44830D01*
X165823Y44778D01*
X165795Y44704D01*
X165472Y44382D01*
Y43322D01*
X166222Y42572D01*
X167282D01*
X168032Y43322D01*
Y44382D01*
X167709Y44704D01*
X167681Y44778D01*
X167632Y44830D01*
X167598Y44871D01*
X167570Y44911D01*
X167547Y44950D01*
X167527Y44990D01*
X167512Y45031D01*
X167508Y45044D01*
Y52708D01*
X168508Y53122D01*
X170996Y50635D01*
Y45044D01*
X170992Y45031D01*
X170976Y44990D01*
X170957Y44950D01*
X170934Y44911D01*
X170906Y44871D01*
X170872Y44830D01*
X170823Y44778D01*
X170795Y44704D01*
X170473Y44382D01*
Y43322D01*
X171222Y42572D01*
X172282D01*
X173031Y43322D01*
Y44382D01*
X172709Y44704D01*
X172681Y44778D01*
X172632Y44830D01*
X172598Y44871D01*
X172570Y44911D01*
X172547Y44950D01*
X172528Y44990D01*
X172512Y45031D01*
X172508Y45044D01*
Y49917D01*
X173508Y50331D01*
X175148Y48692D01*
Y11559D01*
X174940D01*
X173441Y10060D01*
Y7940D01*
X174940Y6441D01*
X177060D01*
X178559Y7940D01*
Y10060D01*
X177060Y11559D01*
X176852D01*
Y28789D01*
X177848Y28800D01*
X178097Y28197D01*
X196088Y10207D01*
X195941Y10060D01*
Y7940D01*
X197440Y6441D01*
X199560D01*
X201059Y7940D01*
Y10060D01*
X199560Y11559D01*
X197440D01*
X197293Y11412D01*
X179673Y29032D01*
X179719Y29416D01*
X180743Y29557D01*
X180747Y29547D01*
X196797Y13497D01*
X197400Y13248D01*
X215547D01*
X218588Y10207D01*
X218441Y10060D01*
Y7940D01*
X219940Y6441D01*
X222060D01*
X223559Y7940D01*
Y10060D01*
X222060Y11559D01*
X219940D01*
X219793Y11412D01*
X216503Y14703D01*
X215900Y14952D01*
X197753D01*
X182202Y30503D01*
Y48650D01*
X181953Y49253D01*
X115118Y116087D01*
Y118994D01*
X115121Y119005D01*
X115134Y119039D01*
X115147Y119065D01*
X115159Y119087D01*
X115172Y119104D01*
X115200Y119134D01*
X115226Y119205D01*
X115545Y119525D01*
Y120585D01*
X114796Y121334D01*
X113779D01*
X113103Y122072D01*
X116268Y125237D01*
X117432D01*
X119135Y123535D01*
X119900Y123218D01*
X120665Y123535D01*
X120665Y123535D01*
X123115Y125985D01*
X123367Y126592D01*
X123432Y126750D01*
X123115Y127515D01*
X123115Y127515D01*
X117700Y132930D01*
X119554Y134784D01*
X117048Y137289D01*
X116360Y136601D01*
X115881Y137081D01*
X115400Y137280D01*
X114817D01*
X114434Y138204D01*
X116965Y140735D01*
X116965Y140735D01*
X117282Y141500D01*
X116965Y142265D01*
X113631Y145600D01*
X118000Y149969D01*
X121235Y146735D01*
X122000Y146418D01*
X122765Y146735D01*
X122765Y146735D01*
X126965Y150935D01*
X127282Y151700D01*
X126965Y152465D01*
X126965Y152465D01*
X123231Y156200D01*
X126814Y159783D01*
X126815Y159787D01*
X126819Y159788D01*
X126973Y160168D01*
X127131Y160548D01*
X127129Y160552D01*
X127131Y160556D01*
X127127Y161056D01*
X127126Y161059D01*
X127127Y161063D01*
X126965Y161439D01*
X126805Y161819D01*
X126802Y161820D01*
X126800Y161824D01*
X123255Y165276D01*
X122877Y165426D01*
X122500Y165582D01*
X122493Y165579D01*
X122486Y165582D01*
X122111Y165421D01*
X121735Y165265D01*
X119835Y163365D01*
X119835Y163365D01*
X103235Y146765D01*
X102983Y146159D01*
X102918Y146000D01*
X103235Y145235D01*
X103235Y145235D01*
X107098Y141371D01*
X106968Y140087D01*
X104020Y137139D01*
X107639Y133520D01*
X107639D01*
X108396Y132863D01*
Y131678D01*
X108385Y131647D01*
X108366Y131604D01*
X108339Y131558D01*
X108306Y131507D01*
X108265Y131453D01*
X108215Y131396D01*
X108150Y131329D01*
X108120Y131254D01*
X107797Y130930D01*
Y129870D01*
X108546Y129121D01*
X108559Y129090D01*
X105606Y126137D01*
X104682Y126520D01*
Y134500D01*
X104365Y135265D01*
X103600Y135582D01*
X98500D01*
X97735Y135265D01*
X97418Y134500D01*
Y129300D01*
Y117500D01*
X97418Y117500D01*
X97418Y117500D01*
Y116500D01*
Y108000D01*
X97735Y107235D01*
X97735Y107235D01*
X99918Y105052D01*
Y98448D01*
X99052Y97582D01*
X95500D01*
X95500Y97582D01*
X94959Y97358D01*
X93960Y97798D01*
Y98961D01*
X93960D01*
Y99039D01*
X93960D01*
Y103961D01*
X85594D01*
Y101307D01*
X83537D01*
X83079Y101613D01*
Y102130D01*
X82330Y102880D01*
X81270D01*
X80948Y102557D01*
X80874Y102529D01*
X80822Y102480D01*
X80781Y102446D01*
X80741Y102418D01*
X80702Y102395D01*
X80662Y102375D01*
X80621Y102360D01*
X80608Y102356D01*
X71819D01*
Y103173D01*
X65027D01*
Y99827D01*
X67666D01*
Y98173D01*
X65027D01*
Y97256D01*
X57200D01*
X57200Y97256D01*
X56665Y97035D01*
X56665Y97035D01*
X54365Y94735D01*
X54144Y94200D01*
X54144Y94200D01*
Y92506D01*
X52538D01*
Y87387D01*
X57262D01*
Y92506D01*
X55656D01*
Y93887D01*
X57513Y95744D01*
X65027D01*
Y94827D01*
X71819D01*
Y98173D01*
X69179D01*
Y99827D01*
X71819D01*
Y100844D01*
X80608D01*
X80621Y100840D01*
X80662Y100824D01*
X80702Y100805D01*
X80741Y100782D01*
X80781Y100754D01*
X80822Y100720D01*
X80846Y100697D01*
X80879Y100660D01*
X81196Y99941D01*
X81089Y99396D01*
X80710Y98480D01*
Y97798D01*
X79868Y96956D01*
Y95244D01*
X81078Y94033D01*
X82791D01*
X83017Y94260D01*
X83244Y94033D01*
X84556D01*
X85174Y93651D01*
X85418Y93224D01*
Y87000D01*
X85560Y86656D01*
X85006Y85656D01*
X78113D01*
X75356Y88413D01*
Y90308D01*
X75360Y90321D01*
X75375Y90362D01*
X75395Y90402D01*
X75418Y90441D01*
X75446Y90481D01*
X75480Y90522D01*
X75529Y90574D01*
X75557Y90648D01*
X75880Y90970D01*
Y92030D01*
X75130Y92779D01*
X74070D01*
X73748Y92457D01*
X73674Y92429D01*
X73622Y92380D01*
X73581Y92346D01*
X73541Y92318D01*
X73501Y92295D01*
X73462Y92276D01*
X73421Y92260D01*
X73409Y92256D01*
X71819D01*
Y93173D01*
X65027D01*
Y92256D01*
X63862D01*
Y92559D01*
X59138D01*
Y87441D01*
X59138D01*
X58984Y86505D01*
X57681Y86482D01*
X57309Y86321D01*
X56935Y86165D01*
X56931Y86156D01*
X56922Y86152D01*
X56773Y85775D01*
X56618Y85400D01*
Y79582D01*
X48448D01*
X46582Y81448D01*
Y82200D01*
X46265Y82965D01*
X45500Y83282D01*
X41659D01*
X41276Y84206D01*
X64103Y107034D01*
X65027Y106651D01*
Y104827D01*
X71819D01*
Y108173D01*
X70557D01*
X70143Y109173D01*
X71113Y110144D01*
X71624D01*
X71636Y110140D01*
X71677Y110125D01*
X71717Y110105D01*
X71757Y110082D01*
X71797Y110054D01*
X71837Y110020D01*
X71889Y109971D01*
X71963Y109943D01*
X72285Y109620D01*
X73345D01*
X74095Y110370D01*
Y111430D01*
X73345Y112180D01*
X72285D01*
X71963Y111857D01*
X71889Y111829D01*
X71837Y111780D01*
X71797Y111746D01*
X71757Y111718D01*
X71717Y111695D01*
X71677Y111676D01*
X71636Y111660D01*
X71624Y111656D01*
X70800D01*
X70800Y111656D01*
X70265Y111435D01*
X68065Y109235D01*
X67844Y108700D01*
X67473Y108450D01*
X67038Y108554D01*
X66726Y109656D01*
X73713Y116644D01*
X84908D01*
X84921Y116640D01*
X84962Y116624D01*
X85002Y116605D01*
X85041Y116582D01*
X85081Y116554D01*
X85122Y116520D01*
X85174Y116471D01*
X85248Y116443D01*
X85570Y116121D01*
X86630D01*
X87379Y116870D01*
Y117930D01*
X87196Y118114D01*
X86770Y118852D01*
X87237Y119428D01*
X87480Y119670D01*
Y120730D01*
X87225Y120984D01*
X86885Y121704D01*
X87267Y122257D01*
X87580Y122570D01*
Y123630D01*
X86830Y124380D01*
X85770D01*
X85448Y124057D01*
X85374Y124029D01*
X85322Y123980D01*
X85281Y123946D01*
X85241Y123918D01*
X85202Y123895D01*
X85162Y123875D01*
X85121Y123860D01*
X85109Y123856D01*
X74840D01*
X74426Y124856D01*
X78521Y128951D01*
X79520Y128537D01*
Y128170D01*
X80270Y127420D01*
X81330D01*
X82079Y128170D01*
Y129230D01*
X81330Y129980D01*
X80963D01*
X80549Y130980D01*
X86735Y137165D01*
X86735Y137165D01*
X86956Y137700D01*
X86956Y137700D01*
Y142287D01*
X87956Y142486D01*
X87965Y142465D01*
X90623Y139808D01*
X90629Y139796D01*
X90647Y139757D01*
X90661Y139715D01*
X90673Y139670D01*
X90681Y139622D01*
X90687Y139570D01*
X90688Y139498D01*
X90720Y139426D01*
Y138970D01*
X91470Y138221D01*
X92530D01*
X93279Y138970D01*
Y140030D01*
X92530Y140779D01*
X92074D01*
X92002Y140812D01*
X91930Y140814D01*
X91878Y140819D01*
X91830Y140827D01*
X91785Y140839D01*
X91743Y140853D01*
X91704Y140871D01*
X91692Y140877D01*
X89256Y143313D01*
Y146587D01*
X116435Y173765D01*
X116435Y173765D01*
X116464Y173835D01*
X124190Y181561D01*
X125517Y181474D01*
X125770Y181220D01*
X126552D01*
Y180439D01*
X127301Y179689D01*
X128333D01*
X128432Y179631D01*
X129137Y179051D01*
Y178155D01*
X129886Y177405D01*
X130689D01*
Y176501D01*
X131439Y175752D01*
X132220D01*
Y174970D01*
X132970Y174221D01*
X133815D01*
Y173504D01*
X134564Y172755D01*
X135624D01*
X136373Y173504D01*
Y173962D01*
X136406Y174037D01*
X136407Y174130D01*
X136413Y174206D01*
X136422Y174273D01*
X136433Y174332D01*
X136448Y174383D01*
X136464Y174428D01*
X136478Y174457D01*
X139753Y177732D01*
X139753Y177732D01*
X143927Y181906D01*
X254883D01*
X255297Y180906D01*
X254921Y180530D01*
Y179470D01*
X254795Y179166D01*
X163686D01*
X163206Y178967D01*
X144662Y160423D01*
X142712D01*
X142673Y160435D01*
X142619Y160456D01*
X142560Y160483D01*
X142500Y160514D01*
X142349Y160606D01*
X142269Y160663D01*
X142240Y160669D01*
X142030Y160880D01*
X140970D01*
X140220Y160130D01*
Y159070D01*
X140970Y158320D01*
X142030D01*
X142513Y158804D01*
X142565Y158834D01*
X142616Y158902D01*
X142646Y158937D01*
X142702Y158992D01*
X142732Y159017D01*
X142765Y159040D01*
X142796Y159056D01*
X142814Y159064D01*
X144388D01*
X144803Y158064D01*
X142936Y156198D01*
X141797Y156312D01*
X141630Y156480D01*
X140570D01*
X139821Y155730D01*
Y154670D01*
X140570Y153920D01*
X141630D01*
X141722Y153898D01*
X142030Y152791D01*
X130019Y140781D01*
X129820Y140300D01*
Y138078D01*
X129809Y138047D01*
X129789Y138004D01*
X129763Y137958D01*
X129730Y137907D01*
X129689Y137853D01*
X129639Y137796D01*
X129574Y137729D01*
X129544Y137654D01*
X129220Y137330D01*
Y136270D01*
X129970Y135521D01*
X131030D01*
X131780Y136270D01*
Y137330D01*
X131456Y137653D01*
X131426Y137729D01*
X131361Y137796D01*
X131311Y137853D01*
X131270Y137907D01*
X131237Y137958D01*
X131210Y138004D01*
X131191Y138047D01*
X131180Y138078D01*
Y140018D01*
X139521Y148359D01*
X140521Y147945D01*
Y147470D01*
X141270Y146721D01*
X142330D01*
X143079Y147470D01*
Y148530D01*
X142330Y149279D01*
X141855D01*
X141441Y150279D01*
X164882Y173720D01*
X165897D01*
X166311Y172720D01*
X166220Y172630D01*
Y171570D01*
X166970Y170820D01*
X168030D01*
X168780Y171570D01*
Y172630D01*
X168689Y172720D01*
X169103Y173720D01*
X172297D01*
X172711Y172720D01*
X172620Y172630D01*
Y171570D01*
X173370Y170820D01*
X174430D01*
X175180Y171570D01*
Y172630D01*
X175089Y172720D01*
X175503Y173720D01*
X236122D01*
X236153Y173709D01*
X236196Y173689D01*
X236243Y173663D01*
X236293Y173630D01*
X236347Y173589D01*
X236404Y173539D01*
X236471Y173474D01*
X236546Y173444D01*
X236870Y173120D01*
X237930D01*
X238680Y173870D01*
Y174930D01*
X237930Y175680D01*
X237918Y175708D01*
X238380Y176170D01*
Y177230D01*
X238618Y177806D01*
X277886D01*
X278447Y176956D01*
Y175448D01*
X277264Y174265D01*
X276947Y173500D01*
X276947Y173500D01*
Y171082D01*
X274500D01*
X274500Y171082D01*
X273735Y170765D01*
X273735Y170765D01*
X261235Y158265D01*
X260918Y157500D01*
X260918Y157500D01*
Y137000D01*
X261235Y136235D01*
X262000Y135918D01*
X272500D01*
X273265Y136235D01*
X273582Y137000D01*
Y157052D01*
X277948Y161418D01*
X310000D01*
X310000Y161418D01*
X310765Y161735D01*
X310765Y161735D01*
X315765Y166735D01*
X316082Y167500D01*
X316082Y167500D01*
Y207052D01*
X327948Y218918D01*
X329900D01*
X330665Y219235D01*
X330982Y220000D01*
Y227500D01*
X330665Y228265D01*
X329900Y228582D01*
X325000D01*
X325000Y228582D01*
X324235Y228265D01*
X324235Y228265D01*
X306735Y210765D01*
X306612Y210469D01*
X305612Y210667D01*
Y213871D01*
X305529Y214069D01*
X305529Y214285D01*
X305377Y214437D01*
X305295Y214636D01*
X305638Y215576D01*
X307577Y217516D01*
X307607Y217530D01*
X307651Y217546D01*
X307702Y217561D01*
X307762Y217572D01*
X307829Y217581D01*
X307904Y217587D01*
X307998Y217588D01*
X308073Y217620D01*
X308530D01*
X309279Y218370D01*
Y219430D01*
X308530Y220180D01*
X307470D01*
X306720Y219430D01*
Y219403D01*
X306612Y219314D01*
X305612Y219789D01*
X305612Y245024D01*
X306612Y245439D01*
X307703Y244347D01*
X310149D01*
X311879Y246077D01*
Y248523D01*
X310149Y250253D01*
X307703D01*
X306612Y249162D01*
X305612Y249576D01*
Y250000D01*
X305295Y250765D01*
X304529Y251082D01*
X302447D01*
Y252260D01*
X302740Y253184D01*
X303275Y253405D01*
X305035Y255165D01*
X305035Y255165D01*
X305256Y255700D01*
Y287500D01*
X305256Y287500D01*
X305035Y288035D01*
X305035Y288035D01*
X294435Y298635D01*
X294894Y299094D01*
Y301906D01*
X292906Y303894D01*
X290094D01*
X288106Y301906D01*
Y299094D01*
X290094Y297106D01*
X292906D01*
X293365Y297565D01*
X303744Y287187D01*
Y271472D01*
X302744Y271401D01*
X299751Y274394D01*
X295449D01*
X292406Y271351D01*
Y267049D01*
X295449Y264006D01*
X299751D01*
X302744Y266999D01*
X303744Y266928D01*
Y256568D01*
X303447Y256350D01*
X302447Y256857D01*
Y256893D01*
X295754D01*
Y251286D01*
X294788Y251000D01*
X294656Y251000D01*
X294504Y250848D01*
X294305Y250765D01*
X294223Y250567D01*
X294071Y250414D01*
X294029Y250314D01*
X294029Y250099D01*
X293947Y249900D01*
Y244500D01*
Y242134D01*
X288260D01*
Y238425D01*
X286566D01*
Y240202D01*
X283475D01*
X283093Y241126D01*
X286483Y244517D01*
X286932Y245600D01*
Y248264D01*
X286483Y249347D01*
X284612Y251219D01*
X285026Y252219D01*
X288081D01*
Y260181D01*
X280119D01*
Y253916D01*
X280002Y253634D01*
Y252130D01*
X280395Y251181D01*
X280176Y250613D01*
X279902Y250181D01*
X277451D01*
X275666Y248397D01*
X272844Y251219D01*
X273258Y252219D01*
X275749D01*
X278081Y254551D01*
Y257849D01*
X275749Y260181D01*
X272451D01*
X270119Y257849D01*
Y255537D01*
X269147Y254567D01*
X269044D01*
X268082Y254980D01*
Y289500D01*
X267774Y290246D01*
X267765Y290265D01*
X267247Y291053D01*
X267247Y291480D01*
Y296933D01*
X260554D01*
Y295256D01*
X244994D01*
Y295906D01*
X243006Y297894D01*
X240194D01*
X238206Y295906D01*
Y293094D01*
X240194Y291106D01*
X243006D01*
X244994Y293094D01*
Y293744D01*
X260049D01*
X260141Y293283D01*
X260086Y293229D01*
X259261Y292580D01*
X258370D01*
X257621Y291830D01*
Y290770D01*
X258044Y290347D01*
X258080Y290276D01*
X258131Y290233D01*
X258162Y290202D01*
X258188Y290171D01*
X258209Y290140D01*
X258227Y290108D01*
X258241Y290075D01*
X258244Y290067D01*
Y257644D01*
X257244Y257573D01*
X255423Y259394D01*
X252777D01*
X250906Y257523D01*
Y254877D01*
X252777Y253006D01*
X254122D01*
X254537Y252006D01*
X253565Y251035D01*
X253344Y250500D01*
X253344Y250500D01*
Y245913D01*
X245965Y238535D01*
X245744Y238000D01*
X245744Y238000D01*
Y234753D01*
X245254Y233956D01*
X244744Y233956D01*
X236593D01*
Y228444D01*
X238984D01*
Y226247D01*
X236787D01*
Y219554D01*
X242693D01*
Y221887D01*
X243693Y222038D01*
X244744Y220987D01*
Y219192D01*
X244740Y219179D01*
X244724Y219138D01*
X244705Y219098D01*
X244682Y219059D01*
X244654Y219019D01*
X244620Y218978D01*
X244571Y218926D01*
X244543Y218852D01*
X244220Y218530D01*
Y217470D01*
X244970Y216721D01*
X246030D01*
X246244Y216934D01*
X247244Y216520D01*
Y207962D01*
X242548D01*
Y206456D01*
X241159D01*
Y210962D01*
X236950D01*
X236556Y211913D01*
X237175Y212601D01*
X237273Y212838D01*
X241059D01*
Y217562D01*
X235941D01*
Y213676D01*
X235883Y213537D01*
X235883Y213537D01*
Y213449D01*
X233396Y210962D01*
X229348D01*
Y206238D01*
X234466D01*
Y209735D01*
X235128Y210263D01*
X236041Y209864D01*
Y206238D01*
X236920D01*
X237844Y206058D01*
X238065Y205523D01*
X238423Y205165D01*
X238423Y205165D01*
X238958Y204944D01*
X242548D01*
Y203238D01*
X247244D01*
Y201191D01*
X247240Y201179D01*
X247224Y201138D01*
X247205Y201098D01*
X247182Y201059D01*
X247154Y201019D01*
X247120Y200978D01*
X247071Y200926D01*
X247043Y200852D01*
X246721Y200530D01*
Y199470D01*
X247273Y198917D01*
X246721Y198365D01*
Y197305D01*
X247470Y196555D01*
X248530D01*
X249279Y197305D01*
Y198365D01*
X248727Y198917D01*
X249279Y199470D01*
Y200530D01*
X248957Y200852D01*
X248929Y200926D01*
X248880Y200978D01*
X248846Y201019D01*
X248818Y201059D01*
X248795Y201098D01*
X248776Y201138D01*
X248760Y201179D01*
X248756Y201192D01*
Y202438D01*
X249241Y203238D01*
X249756Y203238D01*
X254359D01*
Y204944D01*
X257508D01*
X257521Y204940D01*
X257562Y204925D01*
X257602Y204905D01*
X257641Y204882D01*
X257681Y204854D01*
X257722Y204820D01*
X257774Y204771D01*
X257848Y204743D01*
X258170Y204420D01*
X259230D01*
X259467Y204657D01*
X260467Y204243D01*
Y198453D01*
X261978D01*
Y196747D01*
X260567D01*
Y194692D01*
X258800D01*
X258288Y194480D01*
X258270D01*
X258257Y194467D01*
X257745Y194255D01*
X257533Y193743D01*
X257521Y193730D01*
Y193712D01*
X257309Y193200D01*
X257521Y192688D01*
Y192670D01*
X257533Y192657D01*
X257745Y192145D01*
X258257Y191933D01*
X258270Y191920D01*
X258288D01*
X258800Y191709D01*
X259860D01*
X260567Y191001D01*
X260567Y190054D01*
X259722Y189680D01*
X249783D01*
X249580Y190170D01*
Y191230D01*
X248830Y191980D01*
X247770D01*
X247021Y191230D01*
Y190170D01*
X246817Y189680D01*
X187101D01*
X173700Y203081D01*
X173219Y203280D01*
X100800D01*
X100319Y203081D01*
X97561Y200323D01*
X97152Y200368D01*
X96784Y201414D01*
X108413Y213044D01*
X146800D01*
X146800Y213044D01*
X147335Y213265D01*
X149735Y215665D01*
X149735Y215665D01*
X149956Y216200D01*
Y227768D01*
X149960Y227781D01*
X149976Y227829D01*
X149995Y227877D01*
X150019Y227925D01*
X150047Y227974D01*
X150080Y228023D01*
X150126Y228083D01*
X150138Y228129D01*
X150380Y228370D01*
Y229430D01*
X149630Y230180D01*
X148570D01*
X148000Y229609D01*
X147430Y230180D01*
X146370D01*
X145621Y229430D01*
Y228370D01*
X145943Y228048D01*
X145971Y227974D01*
X146020Y227922D01*
X146054Y227881D01*
X146082Y227841D01*
X146105Y227801D01*
X146124Y227762D01*
X146140Y227721D01*
X146144Y227708D01*
Y219080D01*
X145144Y218666D01*
X144730Y219079D01*
X143670D01*
X143348Y218757D01*
X143274Y218729D01*
X143222Y218680D01*
X143181Y218646D01*
X143141Y218618D01*
X143102Y218595D01*
X143062Y218576D01*
X143021Y218560D01*
X143008Y218556D01*
X122251D01*
X122080Y218970D01*
Y220030D01*
X121692Y220418D01*
X122106Y221418D01*
X138100D01*
X138865Y221735D01*
X139182Y222500D01*
Y227747D01*
X139025Y228128D01*
X138868Y228509D01*
X138866Y228510D01*
X138865Y228512D01*
X138484Y228670D01*
X138104Y228829D01*
X111082Y228929D01*
Y235500D01*
X110765Y236265D01*
X110000Y236582D01*
X53448D01*
X53082Y236948D01*
Y265052D01*
X54948Y266918D01*
X66500D01*
X67265Y267235D01*
X67582Y268000D01*
Y275000D01*
X67265Y275765D01*
X66500Y276082D01*
X53500D01*
X53500Y276082D01*
X52735Y275765D01*
Y275765D01*
X46235Y269265D01*
X45918Y268500D01*
X45918Y268500D01*
Y236948D01*
X45552Y236582D01*
X25500D01*
X25500Y236582D01*
X24735Y236265D01*
X24735Y236265D01*
X21470Y233001D01*
X20546Y233384D01*
Y234086D01*
X18586Y236047D01*
X15814D01*
X13854Y234086D01*
Y231314D01*
X15814Y229353D01*
X18586D01*
X19418Y229009D01*
Y228082D01*
X14000D01*
X13235Y227765D01*
X12952Y227082D01*
X4000D01*
X3362Y227893D01*
X3330Y228160D01*
X5169Y229999D01*
X5814Y229353D01*
X8586D01*
X10547Y231314D01*
Y234086D01*
X8586Y236047D01*
X5814D01*
X3853Y234086D01*
Y231314D01*
X4099Y231069D01*
X3424Y230394D01*
X2500Y230776D01*
Y292500D01*
X22500D01*
Y312500D01*
X317500D01*
Y292500D01*
D02*
G37*
G36*
X266564Y250748D02*
X266746Y250672D01*
Y250666D01*
X266856Y250113D01*
X267169Y249645D01*
X268179Y248635D01*
X268647Y248322D01*
X269199Y248212D01*
X269867D01*
X272500Y245580D01*
Y241000D01*
X268220D01*
Y241834D01*
X260740D01*
Y240040D01*
X259700Y239000D01*
Y236000D01*
Y224046D01*
X254067D01*
Y221704D01*
X253700D01*
X253316Y221627D01*
X253208Y221555D01*
X253126Y221500D01*
X248712D01*
X248658Y221773D01*
X248504Y222004D01*
X247213Y223295D01*
Y237212D01*
X252900Y242900D01*
X256854D01*
X257563Y242490D01*
X258576Y242219D01*
X259624D01*
X260637Y242490D01*
X261346Y242900D01*
X262100D01*
X264800Y245600D01*
Y248100D01*
X263920Y248980D01*
X265998Y251057D01*
X266255D01*
X266564Y250748D01*
D02*
G37*
G36*
X278698Y232219D02*
Y232169D01*
X279146Y231086D01*
X279676Y230556D01*
Y227998D01*
X286566D01*
Y229775D01*
X288260D01*
Y225366D01*
X295740D01*
X295947Y224452D01*
Y209488D01*
X296029Y209289D01*
Y209074D01*
X296080Y208219D01*
X295923Y207789D01*
X295916Y207778D01*
X286019Y197881D01*
X285820Y197400D01*
Y187381D01*
X283577Y185138D01*
X282662Y185637D01*
Y186402D01*
X282170Y186895D01*
X282780Y187505D01*
Y188565D01*
X282227Y189117D01*
X282780Y189670D01*
Y190730D01*
X282030Y191480D01*
X280970D01*
X280646Y191156D01*
X280571Y191126D01*
X280504Y191061D01*
X280447Y191011D01*
X280393Y190970D01*
X280343Y190937D01*
X280296Y190910D01*
X280253Y190891D01*
X280222Y190880D01*
X278300D01*
X277819Y190681D01*
X276818Y189680D01*
X267318D01*
X266472Y190054D01*
X266472Y190680D01*
Y196747D01*
X264961D01*
Y198453D01*
X266372D01*
Y205147D01*
X264459D01*
Y205887D01*
X264178Y206565D01*
X263888Y206855D01*
X263884Y206867D01*
X263879Y206874D01*
Y207530D01*
X263130Y208279D01*
X262070D01*
X261320Y207530D01*
Y206470D01*
X261370Y206420D01*
X260964Y205428D01*
X260763Y205422D01*
X259980Y206230D01*
X259230Y206979D01*
X258170D01*
X257848Y206657D01*
X257774Y206629D01*
X257722Y206580D01*
X257681Y206546D01*
X257641Y206518D01*
X257601Y206495D01*
X257562Y206475D01*
X257521Y206460D01*
X257508Y206456D01*
X254359D01*
Y207962D01*
X249756D01*
X249241Y207962D01*
X248756Y208762D01*
Y220418D01*
X252677D01*
X252609Y220486D01*
X252621Y220489D01*
X252639Y220501D01*
X252664Y220519D01*
X252734Y220579D01*
X252954Y220789D01*
X253025Y220860D01*
X253368Y220518D01*
X253417Y220538D01*
X253727Y220600D01*
X253738Y220607D01*
X253807Y220621D01*
X254067D01*
X254832Y220938D01*
X255149Y221704D01*
Y222964D01*
X259700D01*
X260465Y223281D01*
X260666Y223455D01*
X261543Y223281D01*
X261547Y223142D01*
X261547Y223046D01*
Y217354D01*
X260795Y216756D01*
X256592D01*
X256579Y216760D01*
X256538Y216775D01*
X256498Y216795D01*
X256459Y216818D01*
X256419Y216846D01*
X256378Y216880D01*
X256326Y216929D01*
X256252Y216957D01*
X255930Y217280D01*
X254870D01*
X254120Y216530D01*
Y215470D01*
X254870Y214721D01*
X255930D01*
X256252Y215043D01*
X256326Y215071D01*
X256378Y215120D01*
X256419Y215154D01*
X256459Y215182D01*
X256499Y215205D01*
X256538Y215225D01*
X256579Y215240D01*
X256592Y215244D01*
X269000D01*
X269000Y215244D01*
X269300Y215368D01*
X270300Y215244D01*
X271511Y214033D01*
X273223D01*
X273450Y214260D01*
X273676Y214033D01*
X275389D01*
X276450Y215094D01*
X277411Y214133D01*
X279123D01*
X279350Y214360D01*
X279576Y214133D01*
X281289D01*
X282500Y215344D01*
Y217056D01*
X281289Y218267D01*
X279576D01*
X279350Y218040D01*
X279123Y218267D01*
X277411D01*
X276350Y217206D01*
X275389Y218167D01*
X273676D01*
X273450Y217940D01*
X273223Y218167D01*
X271511D01*
X271256Y218272D01*
Y219509D01*
X271260Y219521D01*
X271275Y219562D01*
X271295Y219602D01*
X271318Y219641D01*
X271346Y219681D01*
X271380Y219722D01*
X271429Y219774D01*
X271457Y219848D01*
X271779Y220170D01*
Y221230D01*
X271030Y221979D01*
X269970D01*
X269648Y221657D01*
X269574Y221629D01*
X269522Y221580D01*
X269481Y221546D01*
X269441Y221518D01*
X269402Y221495D01*
X269362Y221476D01*
X269321Y221460D01*
X269308Y221456D01*
X267453D01*
Y224046D01*
X262567Y224046D01*
X261845Y225046D01*
X261851Y225066D01*
X268240D01*
Y230826D01*
X268959Y231066D01*
X269834Y230451D01*
Y227998D01*
X276724D01*
Y232086D01*
X277453Y232389D01*
X277698Y232633D01*
X278698Y232219D01*
D02*
G37*
G36*
X147460Y228204D02*
X147407Y228139D01*
X147359Y228072D01*
X147318Y228002D01*
X147284Y227930D01*
X147256Y227856D01*
X147233Y227780D01*
X147218Y227701D01*
X147208Y227620D01*
X147205Y227537D01*
X146595D01*
X146592Y227620D01*
X146582Y227701D01*
X146566Y227780D01*
X146545Y227856D01*
X146516Y227930D01*
X146482Y228002D01*
X146441Y228072D01*
X146393Y228139D01*
X146340Y228204D01*
X146280Y228267D01*
X147520D01*
X147460Y228204D01*
D02*
G37*
G36*
X149734Y228271D02*
X149686Y228200D01*
X149644Y228127D01*
X149607Y228053D01*
X149576Y227977D01*
X149550Y227901D01*
X149530Y227823D01*
X149516Y227743D01*
X149508Y227663D01*
X149505Y227581D01*
X148895Y227507D01*
X148891Y227591D01*
X148881Y227672D01*
X148864Y227750D01*
X148841Y227824D01*
X148810Y227895D01*
X148773Y227963D01*
X148729Y228028D01*
X148678Y228089D01*
X148620Y228147D01*
X148555Y228201D01*
X149787Y228341D01*
X149734Y228271D01*
D02*
G37*
G36*
X29990Y223830D02*
X29999Y223749D01*
X30015Y223671D01*
X30037Y223594D01*
X30066Y223520D01*
X30100Y223448D01*
X30141Y223378D01*
X30188Y223311D01*
X30242Y223246D01*
X30302Y223183D01*
X29061D01*
X29121Y223246D01*
X29175Y223311D01*
X29222Y223378D01*
X29263Y223448D01*
X29298Y223520D01*
X29326Y223594D01*
X29348Y223671D01*
X29364Y223749D01*
X29373Y223830D01*
X29377Y223913D01*
X29987D01*
X29990Y223830D01*
D02*
G37*
G36*
X100008Y223780D02*
X100018Y223699D01*
X100033Y223620D01*
X100056Y223544D01*
X100084Y223470D01*
X100119Y223398D01*
X100160Y223328D01*
X100207Y223261D01*
X100260Y223196D01*
X100320Y223133D01*
X99080D01*
X99140Y223196D01*
X99193Y223261D01*
X99240Y223328D01*
X99282Y223398D01*
X99316Y223470D01*
X99344Y223544D01*
X99366Y223620D01*
X99382Y223699D01*
X99392Y223780D01*
X99395Y223863D01*
X100005D01*
X100008Y223780D01*
D02*
G37*
G36*
X90108D02*
X90118Y223699D01*
X90134Y223620D01*
X90156Y223544D01*
X90184Y223470D01*
X90219Y223398D01*
X90259Y223328D01*
X90307Y223261D01*
X90360Y223196D01*
X90420Y223133D01*
X89180D01*
X89240Y223196D01*
X89293Y223261D01*
X89341Y223328D01*
X89381Y223398D01*
X89416Y223470D01*
X89445Y223544D01*
X89467Y223620D01*
X89482Y223699D01*
X89492Y223780D01*
X89495Y223863D01*
X90105D01*
X90108Y223780D01*
D02*
G37*
G36*
X80108D02*
X80118Y223699D01*
X80133Y223620D01*
X80155Y223544D01*
X80184Y223470D01*
X80218Y223398D01*
X80260Y223328D01*
X80307Y223261D01*
X80360Y223196D01*
X80420Y223133D01*
X79180D01*
X79240Y223196D01*
X79293Y223261D01*
X79340Y223328D01*
X79382Y223398D01*
X79416Y223470D01*
X79444Y223544D01*
X79466Y223620D01*
X79482Y223699D01*
X79492Y223780D01*
X79495Y223863D01*
X80105D01*
X80108Y223780D01*
D02*
G37*
G36*
X70108D02*
X70118Y223699D01*
X70134Y223620D01*
X70156Y223544D01*
X70184Y223470D01*
X70218Y223398D01*
X70259Y223328D01*
X70307Y223261D01*
X70360Y223196D01*
X70420Y223133D01*
X69180D01*
X69240Y223196D01*
X69293Y223261D01*
X69340Y223328D01*
X69381Y223398D01*
X69416Y223470D01*
X69445Y223544D01*
X69467Y223620D01*
X69482Y223699D01*
X69492Y223780D01*
X69495Y223863D01*
X70105D01*
X70108Y223780D01*
D02*
G37*
G36*
X59908D02*
X59918Y223699D01*
X59934Y223620D01*
X59956Y223544D01*
X59984Y223470D01*
X60018Y223398D01*
X60059Y223328D01*
X60107Y223261D01*
X60160Y223196D01*
X60220Y223133D01*
X58980D01*
X59040Y223196D01*
X59093Y223261D01*
X59140Y223328D01*
X59181Y223398D01*
X59216Y223470D01*
X59245Y223544D01*
X59267Y223620D01*
X59282Y223699D01*
X59292Y223780D01*
X59295Y223863D01*
X59905D01*
X59908Y223780D01*
D02*
G37*
G36*
X50008D02*
X50018Y223699D01*
X50033Y223620D01*
X50055Y223544D01*
X50084Y223470D01*
X50118Y223398D01*
X50159Y223328D01*
X50207Y223261D01*
X50260Y223196D01*
X50320Y223133D01*
X49080D01*
X49140Y223196D01*
X49193Y223261D01*
X49241Y223328D01*
X49281Y223398D01*
X49316Y223470D01*
X49345Y223544D01*
X49367Y223620D01*
X49382Y223699D01*
X49392Y223780D01*
X49395Y223863D01*
X50005D01*
X50008Y223780D01*
D02*
G37*
G36*
X40008D02*
X40018Y223699D01*
X40034Y223620D01*
X40056Y223544D01*
X40084Y223470D01*
X40119Y223398D01*
X40159Y223328D01*
X40207Y223261D01*
X40260Y223196D01*
X40320Y223133D01*
X39080D01*
X39140Y223196D01*
X39193Y223261D01*
X39241Y223328D01*
X39281Y223398D01*
X39316Y223470D01*
X39344Y223544D01*
X39366Y223620D01*
X39382Y223699D01*
X39392Y223780D01*
X39395Y223863D01*
X40005D01*
X40008Y223780D01*
D02*
G37*
G36*
X66500Y268000D02*
X54500D01*
X52000Y265500D01*
Y236500D01*
X53000Y235500D01*
X110000D01*
Y228100D01*
Y227850D01*
X138100Y227747D01*
Y222500D01*
X102500D01*
Y230500D01*
X27900D01*
X25200Y227800D01*
Y222700D01*
X22000Y219500D01*
X20500D01*
Y217700D01*
X24500Y213700D01*
Y211000D01*
X18000D01*
X14000Y215000D01*
Y219500D01*
X4000D01*
Y226000D01*
X14000D01*
Y227000D01*
X20500D01*
Y230500D01*
X25500Y235500D01*
X46000D01*
X47000Y236500D01*
Y268500D01*
X53500Y275000D01*
X66500D01*
Y268000D01*
D02*
G37*
G36*
X97338Y229159D02*
Y224041D01*
X98008D01*
X98019Y224036D01*
X98431Y223041D01*
X98421Y223030D01*
Y221970D01*
X99170Y221220D01*
X100230D01*
X100679Y221670D01*
X101706Y221733D01*
X101860Y221683D01*
X102500Y221418D01*
X118489D01*
X119039Y220418D01*
X118937Y220256D01*
X105900D01*
X105900Y220256D01*
X105365Y220035D01*
X62008Y176677D01*
X61996Y176671D01*
X61957Y176653D01*
X61915Y176639D01*
X61870Y176627D01*
X61822Y176619D01*
X61770Y176614D01*
X61698Y176612D01*
X61625Y176579D01*
X61170D01*
X60421Y175830D01*
Y174770D01*
X61170Y174021D01*
X62230D01*
X62372Y174163D01*
X63050Y174713D01*
X63728Y174163D01*
X63870Y174021D01*
X64930D01*
X65592Y174682D01*
X65620Y174670D01*
X66370Y173921D01*
X67430D01*
X68180Y174670D01*
X68928Y174063D01*
X68970Y174021D01*
X70030D01*
X70780Y174770D01*
Y175143D01*
X70808Y175195D01*
X70815Y175269D01*
X70825Y175326D01*
X70837Y175378D01*
X70853Y175428D01*
X70871Y175474D01*
X70892Y175517D01*
X70899Y175529D01*
X94535Y199165D01*
X95521Y198737D01*
Y198070D01*
X96270Y197320D01*
X97220D01*
Y196470D01*
X97970Y195721D01*
X99030D01*
X99779Y196470D01*
Y196927D01*
X99812Y197002D01*
X99813Y197096D01*
X99819Y197171D01*
X99827Y197238D01*
X99839Y197298D01*
X99854Y197349D01*
X99870Y197393D01*
X99884Y197423D01*
X102981Y200520D01*
X110366D01*
X110869Y199936D01*
X110880Y199908D01*
X110896Y199855D01*
X110937Y199520D01*
X110561Y199084D01*
X110487Y199051D01*
X110029D01*
X109280Y198302D01*
Y197242D01*
X110029Y196492D01*
X110767D01*
Y195669D01*
X111517Y194919D01*
X112420D01*
Y194270D01*
X113170Y193520D01*
X114230D01*
X114980Y194270D01*
Y195330D01*
X114267Y196043D01*
X114224Y196098D01*
X114216Y196120D01*
X114932Y197120D01*
X157371D01*
X157546Y196120D01*
X156921Y195495D01*
Y194435D01*
X156797Y194136D01*
X134939D01*
X134939Y194136D01*
X134404Y193915D01*
X134404Y193915D01*
X115365Y174876D01*
X115336Y174806D01*
X112642Y172112D01*
X111661Y172387D01*
X111409Y173017D01*
X111379Y173312D01*
X111563Y173496D01*
Y174556D01*
X110813Y175305D01*
X109753D01*
X109431Y174983D01*
X109356Y174954D01*
X109305Y174905D01*
X109264Y174872D01*
X109224Y174844D01*
X109185Y174820D01*
X109144Y174801D01*
X109104Y174785D01*
X109091Y174782D01*
X108826D01*
X108826Y174782D01*
X108291Y174560D01*
X108291Y174560D01*
X83665Y149935D01*
X83444Y149400D01*
X83444Y149400D01*
Y138672D01*
X78178Y133406D01*
X77880Y133530D01*
X77130Y134280D01*
X76070D01*
X75748Y133957D01*
X75674Y133929D01*
X75622Y133880D01*
X75581Y133846D01*
X75541Y133818D01*
X75502Y133795D01*
X75462Y133775D01*
X75421Y133760D01*
X75409Y133756D01*
X73200D01*
X73200Y133756D01*
X72665Y133535D01*
X71702Y133780D01*
X71556Y133840D01*
Y134987D01*
X72092Y135523D01*
X72104Y135529D01*
X72143Y135547D01*
X72185Y135561D01*
X72230Y135573D01*
X72278Y135581D01*
X72330Y135586D01*
X72402Y135588D01*
X72474Y135620D01*
X72930D01*
X73680Y136370D01*
Y137430D01*
X72930Y138180D01*
X72202D01*
Y139013D01*
X71452Y139762D01*
X70647D01*
X70119Y140649D01*
X80635Y151165D01*
X80635Y151165D01*
X80856Y151700D01*
X80856Y151700D01*
Y169308D01*
X80860Y169321D01*
X80875Y169362D01*
X80895Y169402D01*
X80918Y169441D01*
X80946Y169481D01*
X80980Y169522D01*
X81029Y169574D01*
X81057Y169648D01*
X81379Y169970D01*
Y170803D01*
X82107D01*
X82857Y171553D01*
Y172613D01*
X82107Y173363D01*
X81486D01*
X81414Y173384D01*
X81348Y173378D01*
X81305Y173378D01*
X81266Y173381D01*
X81230Y173387D01*
X81196Y173397D01*
X81164Y173409D01*
X81157Y173413D01*
X79535Y175035D01*
X79000Y175256D01*
X79000Y175256D01*
X74800D01*
X74265Y175035D01*
X74265Y175035D01*
X61465Y162235D01*
X61244Y161700D01*
X61244Y161700D01*
Y156113D01*
X60570Y155440D01*
X59433Y155613D01*
X59373Y155657D01*
X50465Y164565D01*
X49700Y164882D01*
X48935Y164565D01*
X48935Y164565D01*
X44952Y160582D01*
X25948D01*
X25582Y160948D01*
Y182900D01*
X26274Y183844D01*
X44419D01*
X52161Y176102D01*
X50886Y174827D01*
X54227Y171486D01*
X57846Y175106D01*
X54505Y178446D01*
X53231Y177172D01*
X45268Y185135D01*
X44733Y185356D01*
X44733Y185356D01*
X7187D01*
X7129Y185453D01*
X7691Y186453D01*
X9086D01*
X11046Y188414D01*
Y191186D01*
X10601Y191631D01*
X18913Y199944D01*
X76709D01*
X76721Y199940D01*
X76762Y199925D01*
X76802Y199905D01*
X76841Y199882D01*
X76881Y199854D01*
X76922Y199820D01*
X76974Y199771D01*
X77048Y199743D01*
X77370Y199420D01*
X78430D01*
X79180Y200170D01*
Y200898D01*
X80013D01*
X80762Y201647D01*
Y202707D01*
X80013Y203457D01*
X78953D01*
X78717Y203221D01*
X78674Y203210D01*
X78614Y203165D01*
X78564Y203132D01*
X78515Y203103D01*
X78466Y203080D01*
X78418Y203060D01*
X78369Y203044D01*
X78357Y203041D01*
X10686D01*
X10686Y203041D01*
X10151Y202819D01*
X9227Y203006D01*
X9086Y203147D01*
X6314D01*
X4354Y201186D01*
Y198414D01*
X6314Y196453D01*
X9086D01*
X11046Y198414D01*
Y201186D01*
X11905Y201528D01*
X16944D01*
X17358Y200528D01*
X9531Y192701D01*
X9086Y193147D01*
X6314D01*
X4354Y191186D01*
Y188730D01*
X3423Y188247D01*
X2756Y188913D01*
Y217906D01*
X3756Y218518D01*
X4000Y218418D01*
X12918D01*
Y215000D01*
X13235Y214235D01*
X13235Y214235D01*
X17235Y210235D01*
X18000Y209918D01*
X18000Y209918D01*
X24500D01*
X25265Y210235D01*
X25582Y211000D01*
Y213700D01*
X25265Y214465D01*
X25265Y214465D01*
X22237Y217494D01*
X22514Y218631D01*
X22765Y218735D01*
X22765Y218735D01*
X25965Y221935D01*
X26282Y222700D01*
X26282Y222700D01*
Y226455D01*
X26338Y226492D01*
X27338Y225958D01*
Y224048D01*
X27956D01*
X28402Y223080D01*
Y222020D01*
X29152Y221271D01*
X30212D01*
X30961Y222020D01*
Y223080D01*
X31408Y224048D01*
X32062D01*
Y229166D01*
X32958Y229418D01*
X36442D01*
X37338Y229166D01*
X37338Y228418D01*
Y224048D01*
X38012D01*
X38028Y224040D01*
X38438Y223048D01*
X38421Y223030D01*
Y221970D01*
X39170Y221220D01*
X40230D01*
X40979Y221970D01*
Y223030D01*
X40962Y223048D01*
X41372Y224040D01*
X41388Y224048D01*
X42062D01*
X42062Y229166D01*
X42958Y229418D01*
X46464D01*
X47338Y229113D01*
X47338Y228418D01*
Y223994D01*
X47971D01*
X48421Y223030D01*
Y221970D01*
X49170Y221220D01*
X50230D01*
X50980Y221970D01*
Y223030D01*
X51429Y223994D01*
X52062D01*
X52062Y229113D01*
X52936Y229418D01*
X56283D01*
X57138Y229066D01*
X57138Y228418D01*
Y223948D01*
X57824D01*
X58320Y223030D01*
Y221970D01*
X59070Y221220D01*
X60130D01*
X60879Y221970D01*
Y223030D01*
X61376Y223948D01*
X61862D01*
Y228418D01*
X61862Y229066D01*
X62717Y229418D01*
X66445D01*
X67338Y229159D01*
X67338Y228418D01*
Y224041D01*
X68108D01*
X68120Y224036D01*
X68531Y223041D01*
X68520Y223030D01*
Y221970D01*
X69270Y221220D01*
X70330D01*
X71079Y221970D01*
Y223030D01*
X71069Y223041D01*
X71481Y224036D01*
X71492Y224041D01*
X72062D01*
X72062Y229159D01*
X72955Y229418D01*
X76545D01*
X77438Y229159D01*
X77438Y228418D01*
Y224041D01*
X78108D01*
X78119Y224036D01*
X78531Y223041D01*
X78521Y223030D01*
Y221970D01*
X79270Y221220D01*
X80330D01*
X81080Y221970D01*
Y223030D01*
X81069Y223041D01*
X81480Y224036D01*
X81492Y224041D01*
X82162D01*
X82162Y229159D01*
X83055Y229418D01*
X86545D01*
X87438Y229159D01*
X87438Y228418D01*
Y224041D01*
X88108D01*
X88120Y224036D01*
X88531Y223041D01*
X88520Y223030D01*
Y221970D01*
X89270Y221220D01*
X90330D01*
X91079Y221970D01*
Y223030D01*
X91069Y223041D01*
X91480Y224036D01*
X91492Y224041D01*
X92162D01*
X92162Y229159D01*
X93055Y229418D01*
X96445D01*
X97338Y229159D01*
D02*
G37*
G36*
X269867Y220080D02*
X269805Y220140D01*
X269739Y220193D01*
X269672Y220240D01*
X269602Y220282D01*
X269530Y220316D01*
X269456Y220344D01*
X269380Y220367D01*
X269301Y220382D01*
X269220Y220392D01*
X269137Y220395D01*
Y221005D01*
X269220Y221008D01*
X269301Y221018D01*
X269380Y221034D01*
X269456Y221056D01*
X269530Y221084D01*
X269602Y221118D01*
X269672Y221160D01*
X269739Y221207D01*
X269805Y221260D01*
X269867Y221320D01*
Y220080D01*
D02*
G37*
G36*
X271060Y220005D02*
X271007Y219939D01*
X270959Y219872D01*
X270918Y219802D01*
X270884Y219730D01*
X270855Y219656D01*
X270833Y219580D01*
X270818Y219501D01*
X270808Y219420D01*
X270805Y219337D01*
X270195D01*
X270192Y219420D01*
X270182Y219501D01*
X270166Y219580D01*
X270145Y219656D01*
X270116Y219730D01*
X270081Y219802D01*
X270040Y219872D01*
X269993Y219939D01*
X269940Y220005D01*
X269880Y220067D01*
X271120D01*
X271060Y220005D01*
D02*
G37*
G36*
X120167Y218880D02*
X120105Y218940D01*
X120039Y218993D01*
X119972Y219040D01*
X119902Y219081D01*
X119830Y219116D01*
X119756Y219145D01*
X119680Y219166D01*
X119601Y219182D01*
X119520Y219192D01*
X119437Y219195D01*
Y219805D01*
X119520Y219808D01*
X119601Y219818D01*
X119680Y219833D01*
X119756Y219855D01*
X119830Y219884D01*
X119902Y219918D01*
X119972Y219959D01*
X120039Y220007D01*
X120105Y220060D01*
X120167Y220120D01*
Y218880D01*
D02*
G37*
G36*
X245808Y219280D02*
X245818Y219199D01*
X245833Y219120D01*
X245855Y219044D01*
X245884Y218970D01*
X245918Y218898D01*
X245959Y218828D01*
X246007Y218761D01*
X246060Y218695D01*
X246120Y218633D01*
X244880D01*
X244940Y218695D01*
X244993Y218761D01*
X245040Y218828D01*
X245081Y218898D01*
X245116Y218970D01*
X245145Y219044D01*
X245166Y219120D01*
X245182Y219199D01*
X245192Y219280D01*
X245195Y219363D01*
X245805D01*
X245808Y219280D01*
D02*
G37*
G36*
X307991Y218014D02*
X307886Y218013D01*
X307786Y218006D01*
X307692Y217993D01*
X307603Y217975D01*
X307520Y217952D01*
X307442Y217923D01*
X307370Y217889D01*
X307303Y217850D01*
X307242Y217805D01*
X307186Y217755D01*
X306855Y218086D01*
X306905Y218142D01*
X306950Y218203D01*
X306989Y218270D01*
X307023Y218342D01*
X307052Y218420D01*
X307075Y218503D01*
X307093Y218592D01*
X307106Y218686D01*
X307113Y218786D01*
X307114Y218891D01*
X307991Y218014D01*
D02*
G37*
G36*
X143567Y217180D02*
X143505Y217240D01*
X143439Y217293D01*
X143372Y217340D01*
X143302Y217382D01*
X143230Y217416D01*
X143156Y217444D01*
X143080Y217466D01*
X143001Y217482D01*
X142920Y217492D01*
X142837Y217495D01*
Y218105D01*
X142920Y218108D01*
X143001Y218118D01*
X143080Y218133D01*
X143156Y218156D01*
X143230Y218184D01*
X143302Y218218D01*
X143372Y218260D01*
X143439Y218307D01*
X143505Y218360D01*
X143567Y218420D01*
Y217180D01*
D02*
G37*
G36*
X256096Y216560D02*
X256161Y216507D01*
X256228Y216459D01*
X256298Y216419D01*
X256370Y216384D01*
X256444Y216355D01*
X256520Y216334D01*
X256599Y216318D01*
X256680Y216308D01*
X256763Y216305D01*
Y215695D01*
X256680Y215692D01*
X256599Y215682D01*
X256520Y215667D01*
X256444Y215645D01*
X256370Y215616D01*
X256298Y215581D01*
X256228Y215541D01*
X256161Y215493D01*
X256096Y215440D01*
X256033Y215380D01*
Y216620D01*
X256096Y216560D01*
D02*
G37*
G36*
X304529Y216335D02*
X297491Y209297D01*
X297029Y209488D01*
Y235500D01*
X295929Y236600D01*
X295740D01*
Y242134D01*
X295029D01*
Y244500D01*
Y249900D01*
X295071Y250000D01*
X304529D01*
X304529Y216335D01*
D02*
G37*
G36*
X263468Y206800D02*
X263473Y206756D01*
X263486Y206710D01*
X263506Y206659D01*
X263535Y206606D01*
X263571Y206549D01*
X263615Y206488D01*
X263667Y206425D01*
X263795Y206288D01*
X262952Y205739D01*
X262881Y205808D01*
X262599Y206054D01*
X262556Y206082D01*
X262519Y206103D01*
X262486Y206118D01*
X262458Y206126D01*
X263471Y206841D01*
X263468Y206800D01*
D02*
G37*
G36*
X258067Y205080D02*
X258004Y205140D01*
X257939Y205193D01*
X257872Y205241D01*
X257802Y205281D01*
X257730Y205316D01*
X257656Y205345D01*
X257580Y205366D01*
X257501Y205382D01*
X257420Y205392D01*
X257337Y205395D01*
Y206005D01*
X257420Y206008D01*
X257501Y206018D01*
X257580Y206033D01*
X257656Y206055D01*
X257730Y206084D01*
X257802Y206118D01*
X257872Y206159D01*
X257939Y206207D01*
X258004Y206260D01*
X258067Y206320D01*
Y205080D01*
D02*
G37*
G36*
X78780Y201639D02*
X78726Y201703D01*
X78669Y201761D01*
X78608Y201812D01*
X78544Y201857D01*
X78476Y201894D01*
X78405Y201925D01*
X78331Y201949D01*
X78254Y201966D01*
X78172Y201976D01*
X78088Y201979D01*
X78167Y202590D01*
X78249Y202593D01*
X78330Y202601D01*
X78409Y202615D01*
X78487Y202635D01*
X78564Y202660D01*
X78640Y202691D01*
X78714Y202727D01*
X78787Y202769D01*
X78859Y202816D01*
X78930Y202870D01*
X78780Y201639D01*
D02*
G37*
G36*
X248308Y201280D02*
X248318Y201199D01*
X248334Y201120D01*
X248356Y201044D01*
X248384Y200970D01*
X248418Y200898D01*
X248460Y200828D01*
X248507Y200761D01*
X248560Y200695D01*
X248620Y200633D01*
X247380D01*
X247440Y200695D01*
X247493Y200761D01*
X247540Y200828D01*
X247582Y200898D01*
X247616Y200970D01*
X247644Y201044D01*
X247667Y201120D01*
X247682Y201199D01*
X247692Y201280D01*
X247695Y201363D01*
X248305D01*
X248308Y201280D01*
D02*
G37*
G36*
X77267Y200080D02*
X77205Y200140D01*
X77139Y200193D01*
X77072Y200241D01*
X77002Y200282D01*
X76930Y200316D01*
X76856Y200344D01*
X76780Y200366D01*
X76701Y200382D01*
X76620Y200392D01*
X76537Y200395D01*
Y201005D01*
X76620Y201008D01*
X76701Y201018D01*
X76780Y201033D01*
X76856Y201056D01*
X76930Y201084D01*
X77002Y201118D01*
X77072Y201159D01*
X77139Y201207D01*
X77205Y201260D01*
X77267Y201320D01*
Y200080D01*
D02*
G37*
G36*
X140741Y198713D02*
X140655Y198780D01*
X140487Y198893D01*
X140406Y198939D01*
X140326Y198977D01*
X140247Y199009D01*
X140170Y199034D01*
X140095Y199052D01*
X140021Y199062D01*
X139948Y199066D01*
X139893Y199534D01*
X139970Y199538D01*
X140046Y199551D01*
X140120Y199571D01*
X140193Y199600D01*
X140264Y199637D01*
X140334Y199682D01*
X140403Y199735D01*
X140471Y199797D01*
X140537Y199867D01*
X140601Y199945D01*
X140741Y198713D01*
D02*
G37*
G36*
X97945Y199414D02*
X97895Y199358D01*
X97850Y199297D01*
X97811Y199230D01*
X97777Y199158D01*
X97748Y199080D01*
X97725Y198997D01*
X97707Y198908D01*
X97694Y198814D01*
X97687Y198714D01*
X97686Y198609D01*
X96809Y199486D01*
X96914Y199487D01*
X97014Y199494D01*
X97108Y199507D01*
X97197Y199525D01*
X97280Y199548D01*
X97358Y199577D01*
X97430Y199611D01*
X97497Y199650D01*
X97558Y199695D01*
X97614Y199746D01*
X97945Y199414D01*
D02*
G37*
G36*
X111705Y198586D02*
X111654Y198530D01*
X111609Y198469D01*
X111570Y198402D01*
X111536Y198330D01*
X111507Y198252D01*
X111484Y198169D01*
X111466Y198080D01*
X111454Y197986D01*
X111446Y197886D01*
X111445Y197781D01*
X110568Y198658D01*
X110673Y198659D01*
X110773Y198666D01*
X110867Y198679D01*
X110956Y198697D01*
X111039Y198720D01*
X111117Y198749D01*
X111189Y198783D01*
X111256Y198822D01*
X111318Y198867D01*
X111373Y198917D01*
X111705Y198586D01*
D02*
G37*
G36*
X99646Y197814D02*
X99595Y197758D01*
X99550Y197697D01*
X99511Y197630D01*
X99477Y197558D01*
X99448Y197480D01*
X99425Y197397D01*
X99407Y197308D01*
X99394Y197214D01*
X99387Y197114D01*
X99386Y197009D01*
X98509Y197886D01*
X98614Y197887D01*
X98714Y197894D01*
X98808Y197907D01*
X98897Y197925D01*
X98980Y197948D01*
X99058Y197977D01*
X99130Y198011D01*
X99197Y198050D01*
X99259Y198095D01*
X99314Y198145D01*
X99646Y197814D01*
D02*
G37*
G36*
X113192Y197013D02*
X113142Y196957D01*
X113097Y196896D01*
X113058Y196829D01*
X113024Y196757D01*
X112995Y196679D01*
X112972Y196596D01*
X112954Y196507D01*
X112941Y196413D01*
X112934Y196313D01*
X112933Y196207D01*
X112056Y197084D01*
X112161Y197086D01*
X112261Y197093D01*
X112355Y197106D01*
X112444Y197123D01*
X112527Y197147D01*
X112605Y197175D01*
X112677Y197210D01*
X112744Y197249D01*
X112805Y197294D01*
X112861Y197344D01*
X113192Y197013D01*
D02*
G37*
G36*
X145467Y190680D02*
X145421Y190723D01*
X145369Y190761D01*
X145312Y190795D01*
X145250Y190825D01*
X145183Y190850D01*
X145112Y190870D01*
X145035Y190886D01*
X144953Y190897D01*
X144867Y190904D01*
X144775Y190906D01*
Y191694D01*
X144867Y191696D01*
X144953Y191703D01*
X145035Y191714D01*
X145112Y191730D01*
X145183Y191750D01*
X145250Y191775D01*
X145312Y191805D01*
X145369Y191839D01*
X145421Y191877D01*
X145467Y191920D01*
Y190680D01*
D02*
G37*
G36*
X178748Y191589D02*
X178812Y191538D01*
X178879Y191495D01*
X178949Y191458D01*
X179021Y191429D01*
X179095Y191406D01*
X179173Y191390D01*
X179253Y191380D01*
X179335Y191378D01*
X179420Y191382D01*
X178616Y190438D01*
X178607Y190526D01*
X178593Y190610D01*
X178574Y190692D01*
X178549Y190770D01*
X178519Y190846D01*
X178484Y190918D01*
X178444Y190987D01*
X178398Y191054D01*
X178347Y191117D01*
X178291Y191177D01*
X178686Y191646D01*
X178748Y191589D01*
D02*
G37*
G36*
X280867Y189580D02*
X280792Y189653D01*
X280716Y189719D01*
X280641Y189777D01*
X280565Y189827D01*
X280490Y189869D01*
X280415Y189904D01*
X280340Y189931D01*
X280264Y189950D01*
X280189Y189962D01*
X280114Y189966D01*
Y190434D01*
X280189Y190438D01*
X280264Y190450D01*
X280340Y190469D01*
X280415Y190496D01*
X280490Y190531D01*
X280565Y190573D01*
X280641Y190623D01*
X280716Y190681D01*
X280792Y190747D01*
X280867Y190820D01*
Y189580D01*
D02*
G37*
G36*
X176352Y188325D02*
X176305Y188393D01*
X176254Y188453D01*
X176198Y188506D01*
X176138Y188552D01*
X176074Y188591D01*
X176006Y188623D01*
X175934Y188648D01*
X175857Y188665D01*
X175776Y188676D01*
X175691Y188680D01*
X175830Y189290D01*
X175911Y189292D01*
X175991Y189300D01*
X176071Y189312D01*
X176150Y189330D01*
X176228Y189352D01*
X176306Y189379D01*
X176383Y189412D01*
X176459Y189449D01*
X176535Y189491D01*
X176611Y189538D01*
X176352Y188325D01*
D02*
G37*
G36*
X280892Y187390D02*
X280813Y187462D01*
X280656Y187582D01*
X280578Y187631D01*
X280501Y187672D01*
X280425Y187706D01*
X280349Y187732D01*
X280274Y187751D01*
X280199Y187762D01*
X280124Y187766D01*
X280105Y188234D01*
X280181Y188238D01*
X280257Y188250D01*
X280331Y188270D01*
X280406Y188297D01*
X280480Y188333D01*
X280554Y188376D01*
X280627Y188428D01*
X280699Y188487D01*
X280772Y188554D01*
X280844Y188629D01*
X280892Y187390D01*
D02*
G37*
G36*
X170541Y186713D02*
X170471Y186766D01*
X170400Y186814D01*
X170327Y186856D01*
X170253Y186893D01*
X170177Y186924D01*
X170101Y186950D01*
X170023Y186969D01*
X169943Y186984D01*
X169863Y186992D01*
X169781Y186995D01*
X169707Y187605D01*
X169791Y187609D01*
X169872Y187619D01*
X169950Y187636D01*
X170024Y187659D01*
X170095Y187690D01*
X170163Y187727D01*
X170228Y187771D01*
X170289Y187822D01*
X170347Y187880D01*
X170401Y187945D01*
X170541Y186713D01*
D02*
G37*
G36*
X150829Y187834D02*
X150900Y187786D01*
X150973Y187743D01*
X151047Y187707D01*
X151122Y187676D01*
X151199Y187650D01*
X151277Y187630D01*
X151357Y187616D01*
X151437Y187608D01*
X151519Y187605D01*
X151593Y186995D01*
X151509Y186992D01*
X151428Y186981D01*
X151350Y186964D01*
X151276Y186941D01*
X151205Y186910D01*
X151137Y186873D01*
X151072Y186828D01*
X151011Y186777D01*
X150953Y186720D01*
X150899Y186655D01*
X150759Y187888D01*
X150829Y187834D01*
D02*
G37*
G36*
X280750Y185252D02*
X280674Y185326D01*
X280598Y185391D01*
X280523Y185449D01*
X280448Y185499D01*
X280372Y185542D01*
X280297Y185576D01*
X280222Y185603D01*
X280147Y185623D01*
X280071Y185634D01*
X279996Y185638D01*
Y186107D01*
X280071Y186111D01*
X280147Y186122D01*
X280222Y186142D01*
X280297Y186169D01*
X280372Y186203D01*
X280448Y186246D01*
X280523Y186296D01*
X280598Y186354D01*
X280674Y186419D01*
X280750Y186493D01*
Y185252D01*
D02*
G37*
G36*
X295947Y204579D02*
Y191148D01*
X287881Y183082D01*
X284750Y183082D01*
X284367Y184006D01*
X286981Y186619D01*
X287180Y187100D01*
Y197118D01*
X295023Y204962D01*
X295947Y204579D01*
D02*
G37*
G36*
X271907Y183995D02*
X271968Y183950D01*
X272035Y183911D01*
X272107Y183877D01*
X272185Y183848D01*
X272268Y183825D01*
X272357Y183807D01*
X272451Y183794D01*
X272551Y183787D01*
X272656Y183786D01*
X271780Y182909D01*
X271778Y183014D01*
X271771Y183114D01*
X271759Y183208D01*
X271741Y183297D01*
X271717Y183380D01*
X271689Y183458D01*
X271655Y183530D01*
X271615Y183597D01*
X271570Y183659D01*
X271520Y183714D01*
X271851Y184046D01*
X271907Y183995D01*
D02*
G37*
G36*
X269742D02*
X269803Y183950D01*
X269870Y183911D01*
X269942Y183877D01*
X270020Y183848D01*
X270103Y183825D01*
X270192Y183807D01*
X270286Y183794D01*
X270386Y183787D01*
X270491Y183786D01*
X269614Y182909D01*
X269613Y183014D01*
X269606Y183114D01*
X269593Y183208D01*
X269575Y183297D01*
X269552Y183380D01*
X269523Y183458D01*
X269489Y183530D01*
X269450Y183597D01*
X269405Y183659D01*
X269355Y183714D01*
X269686Y184046D01*
X269742Y183995D01*
D02*
G37*
G36*
X304529Y213871D02*
Y189000D01*
X288529Y173000D01*
Y170500D01*
X284423Y170426D01*
X278189D01*
X277998Y170888D01*
X278029Y170920D01*
Y173500D01*
X279529Y175000D01*
Y179224D01*
X282306Y182000D01*
X288329Y182000D01*
X297029Y190700D01*
Y207024D01*
X304067Y214062D01*
X304529Y213871D01*
D02*
G37*
G36*
X263967Y181966D02*
X263892Y182039D01*
X263816Y182105D01*
X263741Y182163D01*
X263665Y182213D01*
X263590Y182255D01*
X263515Y182290D01*
X263439Y182317D01*
X263364Y182336D01*
X263289Y182348D01*
X263214Y182352D01*
Y182820D01*
X263289Y182824D01*
X263364Y182836D01*
X263439Y182855D01*
X263515Y182882D01*
X263590Y182917D01*
X263665Y182959D01*
X263741Y183010D01*
X263816Y183067D01*
X263892Y183133D01*
X263967Y183206D01*
Y181966D01*
D02*
G37*
G36*
X277647Y185392D02*
X278128Y185193D01*
X280104D01*
X280135Y185182D01*
X280178Y185162D01*
X280225Y185136D01*
X280275Y185102D01*
X280329Y185061D01*
X280386Y185012D01*
X280453Y184947D01*
X280529Y184916D01*
X280852Y184593D01*
X281617D01*
X282116Y183678D01*
X277605Y179166D01*
X257606D01*
X257480Y179470D01*
Y180530D01*
X257103Y180906D01*
X257517Y181906D01*
X263322D01*
X263353Y181895D01*
X263396Y181876D01*
X263442Y181850D01*
X263493Y181816D01*
X263547Y181775D01*
X263604Y181725D01*
X263671Y181660D01*
X263747Y181630D01*
X264070Y181307D01*
X265130D01*
X265880Y182056D01*
Y183116D01*
X266005Y183420D01*
X269019D01*
X269116Y183323D01*
X269130Y183293D01*
X269146Y183249D01*
X269161Y183197D01*
X269173Y183138D01*
X269181Y183071D01*
X269187Y182996D01*
X269188Y182902D01*
X269220Y182827D01*
Y182370D01*
X269970Y181621D01*
X271030D01*
X271583Y182173D01*
X272135Y181621D01*
X273195D01*
X273945Y182370D01*
Y183430D01*
X273195Y184179D01*
X272738D01*
X272663Y184212D01*
X272569Y184213D01*
X272494Y184219D01*
X272427Y184228D01*
X272368Y184239D01*
X272316Y184254D01*
X272272Y184270D01*
X272242Y184284D01*
X271206Y185320D01*
X271620Y186320D01*
X276718D01*
X277647Y185392D01*
D02*
G37*
G36*
X128963Y181806D02*
X128900Y181739D01*
X128845Y181673D01*
X128798Y181607D01*
X128759Y181542D01*
X128728Y181477D01*
X128705Y181413D01*
X128691Y181350D01*
X128684Y181287D01*
X128686Y181225D01*
X128695Y181163D01*
X127654Y181837D01*
X127711Y181851D01*
X127770Y181871D01*
X127829Y181896D01*
X127889Y181927D01*
X127950Y181964D01*
X128013Y182005D01*
X128140Y182106D01*
X128205Y182164D01*
X128271Y182228D01*
X128963Y181806D01*
D02*
G37*
G36*
X131662Y179230D02*
X131606Y179171D01*
X131555Y179110D01*
X131507Y179044D01*
X131464Y178977D01*
X131424Y178905D01*
X131388Y178831D01*
X131356Y178754D01*
X131328Y178674D01*
X131304Y178590D01*
X131283Y178504D01*
X130615Y179548D01*
X130695Y179534D01*
X130774Y179527D01*
X130851Y179528D01*
X130925Y179538D01*
X130998Y179555D01*
X131069Y179581D01*
X131138Y179614D01*
X131204Y179656D01*
X131269Y179706D01*
X131332Y179763D01*
X131662Y179230D01*
D02*
G37*
G36*
X132962Y178042D02*
X132909Y177983D01*
X132864Y177921D01*
X132828Y177854D01*
X132801Y177784D01*
X132782Y177710D01*
X132772Y177633D01*
X132771Y177552D01*
X132778Y177467D01*
X132793Y177379D01*
X132817Y177287D01*
X131730Y177884D01*
X131841Y177917D01*
X132132Y178023D01*
X132215Y178061D01*
X132362Y178142D01*
X132425Y178184D01*
X132481Y178228D01*
X132530Y178273D01*
X132962Y178042D01*
D02*
G37*
G36*
X70709Y175977D02*
X70653Y175917D01*
X70602Y175854D01*
X70556Y175787D01*
X70516Y175718D01*
X70481Y175645D01*
X70451Y175570D01*
X70426Y175492D01*
X70407Y175410D01*
X70393Y175326D01*
X70384Y175238D01*
X69579Y176182D01*
X69665Y176178D01*
X69747Y176180D01*
X69827Y176190D01*
X69905Y176206D01*
X69979Y176229D01*
X70051Y176258D01*
X70121Y176295D01*
X70188Y176338D01*
X70252Y176389D01*
X70314Y176446D01*
X70709Y175977D01*
D02*
G37*
G36*
X236467Y176080D02*
X236392Y176153D01*
X236316Y176219D01*
X236241Y176277D01*
X236165Y176327D01*
X236090Y176369D01*
X236015Y176404D01*
X235940Y176431D01*
X235864Y176450D01*
X235789Y176462D01*
X235714Y176466D01*
Y176934D01*
X235789Y176938D01*
X235864Y176950D01*
X235940Y176969D01*
X236015Y176996D01*
X236090Y177031D01*
X236165Y177073D01*
X236241Y177123D01*
X236316Y177181D01*
X236392Y177247D01*
X236467Y177320D01*
Y176080D01*
D02*
G37*
G36*
X68133Y175801D02*
X68077Y175742D01*
X68026Y175679D01*
X67979Y175613D01*
X67936Y175545D01*
X67899Y175473D01*
X67865Y175398D01*
X67836Y175320D01*
X67812Y175239D01*
X67791Y175155D01*
X67776Y175067D01*
X67050Y176073D01*
X67133Y176062D01*
X67213Y176059D01*
X67291Y176064D01*
X67368Y176076D01*
X67441Y176095D01*
X67513Y176123D01*
X67582Y176157D01*
X67649Y176200D01*
X67713Y176250D01*
X67776Y176307D01*
X68133Y175801D01*
D02*
G37*
G36*
X134493Y176511D02*
X134440Y176452D01*
X134396Y176390D01*
X134360Y176323D01*
X134332Y176253D01*
X134314Y176179D01*
X134303Y176102D01*
X134302Y176021D01*
X134309Y175936D01*
X134324Y175848D01*
X134348Y175756D01*
X133261Y176353D01*
X133372Y176386D01*
X133663Y176492D01*
X133747Y176530D01*
X133893Y176611D01*
X133956Y176653D01*
X134012Y176697D01*
X134061Y176742D01*
X134493Y176511D01*
D02*
G37*
G36*
X65580Y176048D02*
X65523Y175987D01*
X65472Y175923D01*
X65428Y175856D01*
X65389Y175787D01*
X65357Y175714D01*
X65331Y175639D01*
X65310Y175561D01*
X65296Y175479D01*
X65288Y175396D01*
X65286Y175309D01*
X64409Y176186D01*
X64496Y176188D01*
X64579Y176196D01*
X64661Y176210D01*
X64739Y176231D01*
X64814Y176257D01*
X64887Y176289D01*
X64956Y176328D01*
X65023Y176372D01*
X65087Y176423D01*
X65148Y176480D01*
X65580Y176048D01*
D02*
G37*
G36*
X62880D02*
X62823Y175987D01*
X62772Y175923D01*
X62728Y175856D01*
X62689Y175787D01*
X62657Y175714D01*
X62631Y175639D01*
X62610Y175561D01*
X62596Y175479D01*
X62588Y175396D01*
X62586Y175309D01*
X61709Y176186D01*
X61796Y176188D01*
X61879Y176196D01*
X61961Y176210D01*
X62039Y176231D01*
X62114Y176257D01*
X62187Y176289D01*
X62256Y176328D01*
X62323Y176372D01*
X62387Y176423D01*
X62448Y176480D01*
X62880Y176048D01*
D02*
G37*
G36*
X136240Y174849D02*
X136189Y174793D01*
X136144Y174732D01*
X136105Y174665D01*
X136071Y174592D01*
X136042Y174515D01*
X136019Y174432D01*
X136001Y174343D01*
X135988Y174248D01*
X135981Y174149D01*
X135980Y174043D01*
X135103Y174920D01*
X135208Y174922D01*
X135308Y174929D01*
X135402Y174941D01*
X135491Y174959D01*
X135574Y174982D01*
X135652Y175011D01*
X135724Y175045D01*
X135791Y175085D01*
X135853Y175130D01*
X135908Y175180D01*
X136240Y174849D01*
D02*
G37*
G36*
X236767Y173780D02*
X236692Y173853D01*
X236616Y173919D01*
X236541Y173977D01*
X236465Y174027D01*
X236390Y174069D01*
X236315Y174104D01*
X236240Y174131D01*
X236164Y174150D01*
X236089Y174162D01*
X236014Y174166D01*
Y174634D01*
X236089Y174638D01*
X236164Y174650D01*
X236240Y174669D01*
X236315Y174696D01*
X236390Y174731D01*
X236465Y174773D01*
X236541Y174823D01*
X236616Y174881D01*
X236692Y174947D01*
X236767Y175020D01*
Y173780D01*
D02*
G37*
G36*
X109651Y173406D02*
X109588Y173465D01*
X109523Y173519D01*
X109455Y173566D01*
X109386Y173607D01*
X109314Y173642D01*
X109239Y173670D01*
X109163Y173692D01*
X109084Y173708D01*
X109003Y173717D01*
X108920Y173720D01*
X108920Y174331D01*
X109003Y174334D01*
X109084Y174343D01*
X109163Y174359D01*
X109239Y174381D01*
X109313Y174409D01*
X109385Y174444D01*
X109455Y174485D01*
X109522Y174532D01*
X109588Y174586D01*
X109650Y174646D01*
X109651Y173406D01*
D02*
G37*
G36*
X80788Y173149D02*
X80852Y173099D01*
X80919Y173056D01*
X80989Y173020D01*
X81060Y172992D01*
X81135Y172971D01*
X81211Y172958D01*
X81290Y172951D01*
X81371Y172952D01*
X81455Y172960D01*
X80698Y171978D01*
X80685Y172066D01*
X80667Y172150D01*
X80645Y172232D01*
X80617Y172310D01*
X80585Y172385D01*
X80549Y172457D01*
X80507Y172526D01*
X80461Y172592D01*
X80409Y172655D01*
X80354Y172715D01*
X80726Y173206D01*
X80788Y173149D01*
D02*
G37*
G36*
X306418Y188332D02*
Y172948D01*
X304552Y171082D01*
X289612D01*
Y172552D01*
X305295Y188235D01*
X305418Y188531D01*
X306418Y188332D01*
D02*
G37*
G36*
X110191Y170914D02*
X110104Y170912D01*
X110020Y170904D01*
X109939Y170890D01*
X109861Y170869D01*
X109786Y170843D01*
X109713Y170811D01*
X109644Y170772D01*
X109577Y170728D01*
X109513Y170677D01*
X109452Y170620D01*
X109020Y171052D01*
X109077Y171113D01*
X109128Y171177D01*
X109172Y171244D01*
X109211Y171313D01*
X109243Y171386D01*
X109269Y171461D01*
X109290Y171539D01*
X109304Y171621D01*
X109312Y171704D01*
X109314Y171791D01*
X110191Y170914D01*
D02*
G37*
G36*
X80660Y169805D02*
X80607Y169739D01*
X80559Y169672D01*
X80519Y169602D01*
X80484Y169530D01*
X80455Y169456D01*
X80433Y169380D01*
X80418Y169301D01*
X80408Y169220D01*
X80405Y169137D01*
X79795D01*
X79792Y169220D01*
X79782Y169301D01*
X79766Y169380D01*
X79744Y169456D01*
X79716Y169530D01*
X79681Y169602D01*
X79641Y169672D01*
X79593Y169739D01*
X79540Y169805D01*
X79480Y169867D01*
X80720D01*
X80660Y169805D01*
D02*
G37*
G36*
X72588Y162204D02*
X72596Y162120D01*
X72610Y162039D01*
X72631Y161961D01*
X72657Y161886D01*
X72689Y161813D01*
X72728Y161744D01*
X72772Y161677D01*
X72823Y161613D01*
X72880Y161552D01*
X72448Y161120D01*
X72387Y161177D01*
X72323Y161228D01*
X72256Y161272D01*
X72187Y161311D01*
X72114Y161343D01*
X72039Y161369D01*
X71961Y161390D01*
X71880Y161404D01*
X71796Y161412D01*
X71709Y161414D01*
X72586Y162291D01*
X72588Y162204D01*
D02*
G37*
G36*
X142114Y160250D02*
X142289Y160143D01*
X142374Y160099D01*
X142456Y160062D01*
X142535Y160032D01*
X142613Y160008D01*
X142688Y159991D01*
X142762Y159981D01*
X142833Y159978D01*
X142913Y159509D01*
X142835Y159505D01*
X142759Y159493D01*
X142685Y159472D01*
X142614Y159442D01*
X142544Y159405D01*
X142476Y159359D01*
X142410Y159304D01*
X142346Y159241D01*
X142285Y159170D01*
X142225Y159091D01*
X142024Y160314D01*
X142114Y160250D01*
D02*
G37*
G36*
X79651Y172780D02*
X79620Y172404D01*
X79403Y171613D01*
X78821Y171030D01*
Y169970D01*
X79143Y169648D01*
X79171Y169574D01*
X79220Y169522D01*
X79254Y169481D01*
X79282Y169441D01*
X79305Y169402D01*
X79325Y169362D01*
X79340Y169321D01*
X79344Y169308D01*
Y157138D01*
X78344Y156726D01*
X73077Y161992D01*
X73071Y162004D01*
X73053Y162043D01*
X73039Y162085D01*
X73027Y162130D01*
X73019Y162178D01*
X73014Y162230D01*
X73012Y162302D01*
X72979Y162374D01*
Y162830D01*
X72230Y163579D01*
X71170D01*
X70420Y162830D01*
Y161770D01*
X71170Y161021D01*
X71626D01*
X71698Y160988D01*
X71770Y160986D01*
X71822Y160981D01*
X71870Y160973D01*
X71915Y160961D01*
X71957Y160947D01*
X71996Y160929D01*
X72008Y160923D01*
X77344Y155587D01*
Y153513D01*
X63765Y139935D01*
X63544Y139400D01*
X63544Y139400D01*
Y135313D01*
X62743Y134513D01*
X61743Y134927D01*
Y146435D01*
X61747Y146448D01*
X61762Y146488D01*
X61782Y146528D01*
X61805Y146568D01*
X61833Y146608D01*
X61866Y146649D01*
X61915Y146700D01*
X61944Y146774D01*
X62266Y147097D01*
Y148157D01*
X61517Y148906D01*
X60680D01*
Y149630D01*
X59930Y150380D01*
X59064D01*
X58493Y151223D01*
X62535Y155265D01*
X62535Y155265D01*
X62756Y155800D01*
X62756Y155800D01*
Y161387D01*
X75113Y173744D01*
X78687D01*
X79651Y172780D01*
D02*
G37*
G36*
X141808Y155747D02*
X141884Y155681D01*
X141959Y155623D01*
X142035Y155573D01*
X142110Y155531D01*
X142185Y155496D01*
X142261Y155469D01*
X142336Y155450D01*
X142411Y155438D01*
X142486Y155434D01*
Y154966D01*
X142411Y154962D01*
X142336Y154950D01*
X142261Y154931D01*
X142185Y154904D01*
X142110Y154869D01*
X142035Y154827D01*
X141959Y154777D01*
X141884Y154719D01*
X141808Y154653D01*
X141733Y154580D01*
Y155820D01*
X141808Y155747D01*
D02*
G37*
G36*
X24500Y160500D02*
X25500Y159500D01*
X45400D01*
X49700Y163800D01*
X58650Y154850D01*
X53450Y149650D01*
X48600Y154500D01*
X22500D01*
X16500Y148500D01*
X16500Y126300D01*
X17800Y125000D01*
X24500Y125000D01*
Y141600D01*
X29500D01*
Y101000D01*
X24000D01*
Y119400D01*
X23500Y119900D01*
X11100D01*
X11000Y120000D01*
Y151600D01*
X18000Y158600D01*
Y182900D01*
X24500D01*
Y160500D01*
D02*
G37*
G36*
X59391Y148214D02*
X59304Y148212D01*
X59220Y148204D01*
X59139Y148190D01*
X59061Y148169D01*
X58986Y148143D01*
X58913Y148110D01*
X58844Y148072D01*
X58777Y148028D01*
X58713Y147977D01*
X58652Y147920D01*
X58220Y148352D01*
X58277Y148413D01*
X58328Y148477D01*
X58372Y148544D01*
X58411Y148613D01*
X58443Y148686D01*
X58469Y148761D01*
X58490Y148839D01*
X58504Y148921D01*
X58512Y149004D01*
X58514Y149091D01*
X59391Y148214D01*
D02*
G37*
G36*
X126045Y161048D02*
X126048Y160548D01*
X121700Y156200D01*
X126200Y151700D01*
X122000Y147500D01*
X118000Y151500D01*
X112100Y145600D01*
X116200Y141500D01*
X112350Y137650D01*
X104000Y146000D01*
X120600Y162600D01*
X122500Y164500D01*
X126045Y161048D01*
D02*
G37*
G36*
X61547Y146931D02*
X61493Y146866D01*
X61446Y146799D01*
X61405Y146729D01*
X61371Y146657D01*
X61342Y146583D01*
X61320Y146506D01*
X61304Y146428D01*
X61295Y146347D01*
X61292Y146264D01*
X60682D01*
X60678Y146347D01*
X60669Y146428D01*
X60653Y146506D01*
X60631Y146583D01*
X60603Y146657D01*
X60568Y146729D01*
X60527Y146799D01*
X60480Y146866D01*
X60426Y146931D01*
X60367Y146994D01*
X61607D01*
X61547Y146931D01*
D02*
G37*
G36*
X91313Y140623D02*
X91377Y140572D01*
X91444Y140528D01*
X91513Y140489D01*
X91586Y140457D01*
X91661Y140431D01*
X91739Y140410D01*
X91821Y140396D01*
X91904Y140388D01*
X91991Y140386D01*
X91114Y139509D01*
X91112Y139596D01*
X91104Y139680D01*
X91090Y139761D01*
X91069Y139839D01*
X91043Y139914D01*
X91011Y139987D01*
X90972Y140056D01*
X90928Y140123D01*
X90877Y140187D01*
X90820Y140248D01*
X91252Y140680D01*
X91313Y140623D01*
D02*
G37*
G36*
X130738Y138111D02*
X130750Y138036D01*
X130769Y137961D01*
X130796Y137885D01*
X130831Y137810D01*
X130873Y137735D01*
X130923Y137659D01*
X130981Y137584D01*
X131047Y137508D01*
X131120Y137433D01*
X129880D01*
X129953Y137508D01*
X130019Y137584D01*
X130077Y137659D01*
X130127Y137735D01*
X130169Y137810D01*
X130204Y137885D01*
X130231Y137961D01*
X130250Y138036D01*
X130262Y138111D01*
X130266Y138186D01*
X130734D01*
X130738Y138111D01*
D02*
G37*
G36*
X71098Y137615D02*
X71011Y137595D01*
X70847Y137543D01*
X70770Y137512D01*
X70696Y137476D01*
X70625Y137437D01*
X70556Y137393D01*
X70491Y137346D01*
X70429Y137294D01*
X70371Y137239D01*
X69841Y137572D01*
X69898Y137635D01*
X69948Y137700D01*
X69990Y137766D01*
X70024Y137835D01*
X70049Y137906D01*
X70067Y137979D01*
X70077Y138054D01*
X70078Y138130D01*
X70072Y138209D01*
X70058Y138290D01*
X71098Y137615D01*
D02*
G37*
G36*
X329900Y220000D02*
X327500D01*
X315000Y207500D01*
Y167500D01*
X310000Y162500D01*
X277500D01*
X272500Y157500D01*
Y137000D01*
X262000D01*
Y157500D01*
X274500Y170000D01*
X305000D01*
X307500Y172500D01*
Y210000D01*
X325000Y227500D01*
X329900D01*
Y220000D01*
D02*
G37*
G36*
X39408Y137080D02*
X39418Y136999D01*
X39434Y136920D01*
X39456Y136844D01*
X39484Y136770D01*
X39518Y136698D01*
X39559Y136628D01*
X39607Y136561D01*
X39660Y136495D01*
X39720Y136433D01*
X38480D01*
X38540Y136495D01*
X38593Y136561D01*
X38641Y136628D01*
X38682Y136698D01*
X38716Y136770D01*
X38745Y136844D01*
X38767Y136920D01*
X38782Y136999D01*
X38792Y137080D01*
X38795Y137163D01*
X39405D01*
X39408Y137080D01*
D02*
G37*
G36*
X72391Y136014D02*
X72304Y136012D01*
X72220Y136004D01*
X72139Y135990D01*
X72061Y135969D01*
X71986Y135943D01*
X71913Y135910D01*
X71844Y135872D01*
X71777Y135828D01*
X71713Y135777D01*
X71652Y135720D01*
X71220Y136152D01*
X71277Y136213D01*
X71328Y136277D01*
X71372Y136344D01*
X71411Y136413D01*
X71443Y136486D01*
X71469Y136561D01*
X71490Y136639D01*
X71504Y136721D01*
X71512Y136804D01*
X71514Y136891D01*
X72391Y136014D01*
D02*
G37*
G36*
X52685Y148885D02*
X52685Y148885D01*
X52860Y147730D01*
X48850Y143719D01*
X48628Y143185D01*
X48628Y143185D01*
Y127803D01*
X48330Y127680D01*
X47270D01*
X47029Y127438D01*
X46983Y127426D01*
X46923Y127380D01*
X46874Y127347D01*
X46825Y127319D01*
X46777Y127295D01*
X46729Y127276D01*
X46681Y127260D01*
X46668Y127256D01*
X40233D01*
X40225Y127259D01*
X40192Y127273D01*
X40160Y127291D01*
X40130Y127312D01*
X40098Y127338D01*
X40067Y127369D01*
X40024Y127420D01*
X39953Y127456D01*
X39530Y127880D01*
X38470D01*
X37721Y127130D01*
Y126456D01*
X36259D01*
Y128062D01*
X31141D01*
X30582Y128831D01*
Y129266D01*
X31134Y130038D01*
X31582Y130038D01*
X36252D01*
Y131003D01*
X36821Y131302D01*
X37821Y131070D01*
X38570Y130321D01*
X39630D01*
X40380Y131070D01*
Y132130D01*
X39630Y132879D01*
X38576D01*
X38521Y132935D01*
X37986Y133156D01*
X37986Y133156D01*
X36252D01*
Y134762D01*
X31582D01*
X31134Y134762D01*
X30582Y135534D01*
Y135966D01*
X31134Y136738D01*
X31582Y136738D01*
X36252D01*
Y138344D01*
X37587D01*
X38344Y137587D01*
Y136992D01*
X38340Y136979D01*
X38324Y136938D01*
X38305Y136898D01*
X38282Y136859D01*
X38254Y136819D01*
X38220Y136778D01*
X38171Y136726D01*
X38143Y136652D01*
X37821Y136330D01*
Y135270D01*
X38570Y134520D01*
X39630D01*
X40380Y135270D01*
Y136330D01*
X40057Y136652D01*
X40029Y136726D01*
X39980Y136778D01*
X39946Y136819D01*
X39918Y136859D01*
X39895Y136899D01*
X39876Y136938D01*
X39860Y136979D01*
X39856Y136992D01*
Y137900D01*
X39635Y138435D01*
X39635Y138435D01*
X38633Y139437D01*
X38633Y139437D01*
X38435Y139635D01*
X38435Y139635D01*
X38186Y139738D01*
X37900Y139856D01*
X37900Y139856D01*
X36252D01*
Y141462D01*
X31506D01*
X31051Y141530D01*
X30387Y142072D01*
X30265Y142365D01*
X29500Y142682D01*
X24500D01*
X23735Y142365D01*
X23418Y141600D01*
Y126082D01*
X18306Y126082D01*
X17582Y126806D01*
X17582Y148052D01*
X22948Y153418D01*
X48152D01*
X52685Y148885D01*
D02*
G37*
G36*
X75967Y132380D02*
X75905Y132440D01*
X75839Y132493D01*
X75772Y132541D01*
X75702Y132581D01*
X75630Y132616D01*
X75556Y132644D01*
X75480Y132667D01*
X75401Y132682D01*
X75320Y132692D01*
X75237Y132695D01*
Y133305D01*
X75320Y133308D01*
X75401Y133318D01*
X75480Y133334D01*
X75556Y133355D01*
X75630Y133384D01*
X75702Y133419D01*
X75772Y133459D01*
X75839Y133507D01*
X75905Y133560D01*
X75967Y133620D01*
Y132380D01*
D02*
G37*
G36*
X60080Y132848D02*
X60023Y132787D01*
X59972Y132723D01*
X59928Y132656D01*
X59889Y132587D01*
X59857Y132514D01*
X59831Y132439D01*
X59810Y132361D01*
X59796Y132280D01*
X59788Y132196D01*
X59786Y132109D01*
X58909Y132986D01*
X58996Y132988D01*
X59079Y132996D01*
X59161Y133010D01*
X59239Y133031D01*
X59314Y133057D01*
X59387Y133089D01*
X59456Y133128D01*
X59523Y133172D01*
X59587Y133223D01*
X59648Y133280D01*
X60080Y132848D01*
D02*
G37*
G36*
X38259Y132562D02*
X38318Y132517D01*
X38377Y132479D01*
X38438Y132449D01*
X38499Y132428D01*
X38561Y132414D01*
X38623Y132408D01*
X38686Y132411D01*
X38751Y132421D01*
X38816Y132439D01*
X38228Y131441D01*
X38213Y131510D01*
X38193Y131579D01*
X38168Y131647D01*
X38137Y131715D01*
X38102Y131781D01*
X38061Y131848D01*
X38015Y131913D01*
X37965Y131978D01*
X37848Y132106D01*
X38201Y132616D01*
X38259Y132562D01*
D02*
G37*
G36*
X109314Y131711D02*
X109326Y131636D01*
X109345Y131561D01*
X109372Y131485D01*
X109407Y131410D01*
X109449Y131335D01*
X109500Y131259D01*
X109557Y131184D01*
X109623Y131108D01*
X109696Y131033D01*
X108456D01*
X108529Y131108D01*
X108595Y131184D01*
X108653Y131259D01*
X108703Y131335D01*
X108745Y131410D01*
X108780Y131485D01*
X108807Y131561D01*
X108826Y131636D01*
X108838Y131711D01*
X108842Y131786D01*
X109310D01*
X109314Y131711D01*
D02*
G37*
G36*
X57008Y131280D02*
X57018Y131199D01*
X57033Y131120D01*
X57055Y131044D01*
X57084Y130970D01*
X57118Y130898D01*
X57160Y130828D01*
X57207Y130761D01*
X57260Y130695D01*
X57320Y130633D01*
X56080D01*
X56140Y130695D01*
X56193Y130761D01*
X56240Y130828D01*
X56282Y130898D01*
X56316Y130970D01*
X56344Y131044D01*
X56366Y131120D01*
X56382Y131199D01*
X56392Y131280D01*
X56395Y131363D01*
X57005D01*
X57008Y131280D01*
D02*
G37*
G36*
X39753Y127080D02*
X39811Y127023D01*
X39872Y126971D01*
X39937Y126927D01*
X40005Y126890D01*
X40076Y126859D01*
X40150Y126836D01*
X40228Y126819D01*
X40309Y126809D01*
X40393Y126805D01*
X40319Y126195D01*
X40237Y126192D01*
X40157Y126184D01*
X40077Y126170D01*
X39999Y126150D01*
X39922Y126124D01*
X39847Y126093D01*
X39773Y126057D01*
X39700Y126014D01*
X39629Y125966D01*
X39559Y125912D01*
X39699Y127145D01*
X39753Y127080D01*
D02*
G37*
G36*
X47101Y125855D02*
X47047Y125920D01*
X46989Y125978D01*
X46928Y126029D01*
X46863Y126073D01*
X46795Y126110D01*
X46724Y126141D01*
X46650Y126164D01*
X46572Y126181D01*
X46491Y126191D01*
X46407Y126195D01*
X46481Y126805D01*
X46563Y126808D01*
X46643Y126816D01*
X46723Y126830D01*
X46801Y126850D01*
X46878Y126876D01*
X46953Y126907D01*
X47027Y126944D01*
X47100Y126986D01*
X47171Y127034D01*
X47241Y127087D01*
X47101Y125855D01*
D02*
G37*
G36*
X38780Y125742D02*
X38746Y125747D01*
X38709Y125745D01*
X38669Y125736D01*
X38627Y125721D01*
X38582Y125698D01*
X38534Y125669D01*
X38484Y125633D01*
X38430Y125591D01*
X38316Y125484D01*
X37884Y125916D01*
X37941Y125974D01*
X38033Y126084D01*
X38069Y126134D01*
X38098Y126182D01*
X38121Y126227D01*
X38136Y126269D01*
X38145Y126309D01*
X38147Y126346D01*
X38142Y126380D01*
X38780Y125742D01*
D02*
G37*
G36*
X55480Y125748D02*
X55423Y125687D01*
X55372Y125623D01*
X55328Y125556D01*
X55289Y125487D01*
X55257Y125414D01*
X55231Y125339D01*
X55210Y125261D01*
X55196Y125180D01*
X55188Y125096D01*
X55186Y125009D01*
X54309Y125886D01*
X54396Y125888D01*
X54479Y125896D01*
X54561Y125910D01*
X54639Y125931D01*
X54714Y125957D01*
X54787Y125989D01*
X54856Y126028D01*
X54923Y126072D01*
X54987Y126123D01*
X55048Y126180D01*
X55480Y125748D01*
D02*
G37*
G36*
X46575Y125741D02*
X46608Y125727D01*
X46640Y125709D01*
X46670Y125688D01*
X46702Y125662D01*
X46733Y125631D01*
X46776Y125580D01*
X46847Y125543D01*
X47270Y125120D01*
X48330D01*
X48628Y124997D01*
Y120198D01*
X39408Y110977D01*
X39396Y110971D01*
X39357Y110953D01*
X39315Y110939D01*
X39270Y110927D01*
X39222Y110919D01*
X39170Y110914D01*
X39098Y110912D01*
X39026Y110880D01*
X38570D01*
X38248Y110557D01*
X38174Y110529D01*
X38122Y110480D01*
X38081Y110446D01*
X38041Y110418D01*
X38001Y110395D01*
X37962Y110375D01*
X37921Y110360D01*
X37908Y110356D01*
X36152D01*
Y112062D01*
X31034D01*
X30582Y112875D01*
Y115047D01*
X31087Y115838D01*
X31582Y115838D01*
X36206D01*
Y117544D01*
X37909D01*
X37921Y117540D01*
X37962Y117525D01*
X38002Y117505D01*
X38041Y117482D01*
X38081Y117454D01*
X38122Y117420D01*
X38174Y117371D01*
X38248Y117343D01*
X38570Y117020D01*
X39630D01*
X40380Y117770D01*
Y118830D01*
X39630Y119580D01*
X38570D01*
X38248Y119257D01*
X38174Y119229D01*
X38122Y119180D01*
X38081Y119146D01*
X38041Y119118D01*
X38001Y119095D01*
X37962Y119076D01*
X37921Y119060D01*
X37908Y119056D01*
X36206D01*
Y120562D01*
X31582D01*
X31087Y120562D01*
X30582Y121353D01*
Y122569D01*
X31141Y123338D01*
X36259D01*
Y124944D01*
X38100D01*
X38100Y124944D01*
X38635Y125165D01*
X38789Y125319D01*
X38792Y125320D01*
X39530D01*
X39771Y125562D01*
X39817Y125574D01*
X39877Y125620D01*
X39926Y125653D01*
X39975Y125681D01*
X40023Y125705D01*
X40071Y125724D01*
X40119Y125740D01*
X40132Y125744D01*
X46567D01*
X46575Y125741D01*
D02*
G37*
G36*
X103600Y122600D02*
X115050Y134050D01*
X122350Y126750D01*
X119900Y124300D01*
X117600Y126600D01*
X116100D01*
X106000Y116500D01*
Y95500D01*
X102000Y91500D01*
Y87000D01*
X86500D01*
Y93500D01*
X92500D01*
X93039Y94039D01*
X93960D01*
Y94960D01*
X95500Y96500D01*
X99500D01*
X101000Y98000D01*
Y105500D01*
X98500Y108000D01*
Y108356D01*
Y117500D01*
Y129300D01*
Y134500D01*
X103600D01*
Y122600D01*
D02*
G37*
G36*
X85667Y122480D02*
X85605Y122540D01*
X85539Y122593D01*
X85472Y122641D01*
X85402Y122681D01*
X85330Y122716D01*
X85256Y122745D01*
X85180Y122766D01*
X85101Y122782D01*
X85020Y122792D01*
X84937Y122795D01*
Y123405D01*
X85020Y123408D01*
X85101Y123418D01*
X85180Y123433D01*
X85256Y123456D01*
X85330Y123484D01*
X85402Y123519D01*
X85472Y123559D01*
X85539Y123607D01*
X85605Y123660D01*
X85667Y123720D01*
Y122480D01*
D02*
G37*
G36*
X57775Y149091D02*
X57791Y148561D01*
X56165Y146935D01*
X55944Y146400D01*
X55944Y146400D01*
Y131192D01*
X55940Y131179D01*
X55924Y131138D01*
X55905Y131098D01*
X55882Y131059D01*
X55854Y131019D01*
X55820Y130978D01*
X55771Y130926D01*
X55743Y130852D01*
X55421Y130530D01*
Y129470D01*
X55853Y129037D01*
X56015Y127785D01*
X54608Y126377D01*
X54596Y126371D01*
X54557Y126353D01*
X54515Y126339D01*
X54470Y126327D01*
X54422Y126319D01*
X54370Y126314D01*
X54298Y126312D01*
X54225Y126279D01*
X53770D01*
X53021Y125530D01*
Y124470D01*
X53753Y123737D01*
X53770Y123721D01*
X54151Y122721D01*
X51065Y119635D01*
X50844Y119694D01*
X50141Y120125D01*
Y142871D01*
X56762Y149493D01*
X57775Y149091D01*
D02*
G37*
G36*
X85567Y119580D02*
X85505Y119640D01*
X85439Y119693D01*
X85372Y119741D01*
X85302Y119781D01*
X85230Y119816D01*
X85156Y119844D01*
X85080Y119867D01*
X85001Y119882D01*
X84920Y119892D01*
X84837Y119895D01*
Y120505D01*
X84920Y120508D01*
X85001Y120518D01*
X85080Y120534D01*
X85156Y120555D01*
X85230Y120584D01*
X85302Y120618D01*
X85372Y120659D01*
X85439Y120707D01*
X85505Y120760D01*
X85567Y120820D01*
Y119580D01*
D02*
G37*
G36*
X114843Y119375D02*
X114804Y119324D01*
X114771Y119267D01*
X114741Y119205D01*
X114716Y119138D01*
X114696Y119067D01*
X114680Y118990D01*
X114669Y118908D01*
X114662Y118822D01*
X114660Y118730D01*
X113872D01*
X113870Y118822D01*
X113863Y118908D01*
X113852Y118990D01*
X113836Y119067D01*
X113816Y119138D01*
X113791Y119205D01*
X113761Y119267D01*
X113727Y119324D01*
X113689Y119375D01*
X113646Y119422D01*
X114886D01*
X114843Y119375D01*
D02*
G37*
G36*
X38467Y117680D02*
X38405Y117740D01*
X38339Y117793D01*
X38272Y117841D01*
X38202Y117882D01*
X38130Y117916D01*
X38056Y117945D01*
X37980Y117966D01*
X37901Y117982D01*
X37820Y117992D01*
X37737Y117995D01*
Y118605D01*
X37820Y118608D01*
X37901Y118618D01*
X37980Y118633D01*
X38056Y118656D01*
X38130Y118684D01*
X38202Y118719D01*
X38272Y118759D01*
X38339Y118807D01*
X38405Y118860D01*
X38467Y118920D01*
Y117680D01*
D02*
G37*
G36*
X113298Y118125D02*
X113270Y118070D01*
X113246Y118010D01*
X113225Y117946D01*
X113207Y117877D01*
X113193Y117803D01*
X113173Y117642D01*
X113169Y117555D01*
X113167Y117463D01*
X112380Y117277D01*
X112377Y117369D01*
X112369Y117455D01*
X112356Y117535D01*
X112337Y117609D01*
X112313Y117676D01*
X112284Y117738D01*
X112250Y117793D01*
X112210Y117843D01*
X112165Y117886D01*
X112115Y117923D01*
X113329Y118176D01*
X113298Y118125D01*
D02*
G37*
G36*
X85467Y116780D02*
X85404Y116840D01*
X85339Y116893D01*
X85272Y116941D01*
X85202Y116981D01*
X85130Y117016D01*
X85056Y117044D01*
X84980Y117067D01*
X84901Y117082D01*
X84820Y117092D01*
X84737Y117095D01*
Y117705D01*
X84820Y117708D01*
X84901Y117718D01*
X84980Y117734D01*
X85056Y117755D01*
X85130Y117784D01*
X85202Y117818D01*
X85272Y117859D01*
X85339Y117907D01*
X85404Y117960D01*
X85467Y118020D01*
Y116780D01*
D02*
G37*
G36*
X111677Y116420D02*
X111639Y116369D01*
X111605Y116312D01*
X111575Y116250D01*
X111550Y116183D01*
X111530Y116112D01*
X111514Y116035D01*
X111503Y115953D01*
X111496Y115867D01*
X111494Y115775D01*
X110706D01*
X110704Y115867D01*
X110697Y115953D01*
X110686Y116035D01*
X110670Y116112D01*
X110650Y116183D01*
X110625Y116250D01*
X110595Y116312D01*
X110561Y116369D01*
X110523Y116420D01*
X110480Y116467D01*
X111720D01*
X111677Y116420D01*
D02*
G37*
G36*
X72183Y110280D02*
X72120Y110340D01*
X72055Y110393D01*
X71987Y110441D01*
X71918Y110482D01*
X71846Y110516D01*
X71772Y110545D01*
X71695Y110566D01*
X71616Y110582D01*
X71535Y110592D01*
X71452Y110595D01*
Y111205D01*
X71535Y111208D01*
X71616Y111218D01*
X71695Y111233D01*
X71772Y111256D01*
X71846Y111284D01*
X71918Y111319D01*
X71987Y111359D01*
X72055Y111407D01*
X72120Y111460D01*
X72183Y111520D01*
Y110280D01*
D02*
G37*
G36*
X40280Y110348D02*
X40223Y110287D01*
X40172Y110223D01*
X40128Y110156D01*
X40089Y110087D01*
X40057Y110014D01*
X40031Y109939D01*
X40010Y109861D01*
X39996Y109780D01*
X39988Y109696D01*
X39986Y109609D01*
X39109Y110486D01*
X39196Y110488D01*
X39280Y110496D01*
X39361Y110510D01*
X39439Y110531D01*
X39514Y110557D01*
X39587Y110590D01*
X39656Y110628D01*
X39723Y110672D01*
X39787Y110723D01*
X39848Y110780D01*
X40280Y110348D01*
D02*
G37*
G36*
X38467Y108980D02*
X38405Y109040D01*
X38339Y109093D01*
X38272Y109141D01*
X38202Y109181D01*
X38130Y109216D01*
X38056Y109245D01*
X37980Y109266D01*
X37901Y109282D01*
X37820Y109292D01*
X37737Y109295D01*
Y109905D01*
X37820Y109908D01*
X37901Y109918D01*
X37980Y109933D01*
X38056Y109956D01*
X38130Y109984D01*
X38202Y110019D01*
X38272Y110059D01*
X38339Y110107D01*
X38405Y110160D01*
X38467Y110220D01*
Y108980D01*
D02*
G37*
G36*
X40280Y107348D02*
X40223Y107287D01*
X40172Y107223D01*
X40128Y107156D01*
X40089Y107087D01*
X40057Y107014D01*
X40031Y106939D01*
X40010Y106861D01*
X39996Y106780D01*
X39988Y106696D01*
X39986Y106609D01*
X39109Y107486D01*
X39196Y107488D01*
X39280Y107496D01*
X39361Y107510D01*
X39439Y107531D01*
X39514Y107557D01*
X39587Y107589D01*
X39656Y107628D01*
X39723Y107672D01*
X39787Y107723D01*
X39848Y107780D01*
X40280Y107348D01*
D02*
G37*
G36*
X39313Y105740D02*
X39228Y105717D01*
X39066Y105660D01*
X38989Y105626D01*
X38916Y105588D01*
X38845Y105547D01*
X38778Y105503D01*
X38713Y105455D01*
X38652Y105403D01*
X38594Y105348D01*
X38059Y105677D01*
X38114Y105736D01*
X38161Y105798D01*
X38199Y105862D01*
X38230Y105928D01*
X38252Y105996D01*
X38267Y106067D01*
X38274Y106139D01*
X38272Y106213D01*
X38262Y106290D01*
X38245Y106369D01*
X39313Y105740D01*
D02*
G37*
G36*
X81167Y100980D02*
X81104Y101040D01*
X81039Y101093D01*
X80972Y101140D01*
X80902Y101181D01*
X80830Y101216D01*
X80756Y101244D01*
X80680Y101267D01*
X80601Y101282D01*
X80520Y101292D01*
X80437Y101295D01*
Y101905D01*
X80520Y101908D01*
X80601Y101918D01*
X80680Y101934D01*
X80756Y101955D01*
X80830Y101984D01*
X80902Y102018D01*
X80972Y102059D01*
X81039Y102107D01*
X81104Y102160D01*
X81167Y102220D01*
Y100980D01*
D02*
G37*
G36*
X30862Y97816D02*
X30774Y97808D01*
X30690Y97793D01*
X30608Y97774D01*
X30530Y97749D01*
X30454Y97720D01*
X30382Y97684D01*
X30313Y97644D01*
X30246Y97598D01*
X30183Y97547D01*
X30123Y97491D01*
X29654Y97886D01*
X29711Y97948D01*
X29762Y98012D01*
X29805Y98079D01*
X29842Y98149D01*
X29871Y98221D01*
X29894Y98295D01*
X29910Y98373D01*
X29920Y98453D01*
X29922Y98535D01*
X29918Y98620D01*
X30862Y97816D01*
D02*
G37*
G36*
X5465Y184065D02*
X5465Y184065D01*
X5791Y183930D01*
X6007Y183193D01*
X6011Y182844D01*
X4354Y181186D01*
Y178414D01*
X6314Y176453D01*
X9086D01*
X11046Y178414D01*
Y181186D01*
X9389Y182844D01*
X9803Y183844D01*
X16226D01*
X16918Y182900D01*
Y159048D01*
X10235Y152365D01*
X9918Y151600D01*
X9918Y151600D01*
Y120000D01*
X9918Y120000D01*
X10235Y119235D01*
X10235Y119235D01*
X10335Y119135D01*
X10335Y119135D01*
X11100Y118818D01*
X11100Y118818D01*
X22918D01*
Y101000D01*
X23235Y100235D01*
X24000Y99918D01*
X28690D01*
X29431Y99177D01*
X29413Y98283D01*
X27287Y96156D01*
X17492D01*
X17479Y96160D01*
X17438Y96175D01*
X17398Y96195D01*
X17359Y96218D01*
X17319Y96246D01*
X17278Y96280D01*
X17226Y96329D01*
X17152Y96357D01*
X16830Y96680D01*
X15770D01*
X15448Y96357D01*
X15374Y96329D01*
X15322Y96280D01*
X15281Y96246D01*
X15241Y96218D01*
X15202Y96195D01*
X15162Y96175D01*
X15121Y96160D01*
X15108Y96156D01*
X12644D01*
X12644Y96156D01*
X12109Y95935D01*
X12109Y95935D01*
X3424Y87250D01*
X2500Y87633D01*
Y185724D01*
X3424Y186106D01*
X5465Y184065D01*
D02*
G37*
G36*
X16996Y95960D02*
X17061Y95907D01*
X17128Y95859D01*
X17198Y95819D01*
X17270Y95784D01*
X17344Y95755D01*
X17420Y95733D01*
X17499Y95718D01*
X17580Y95708D01*
X17663Y95705D01*
Y95095D01*
X17580Y95092D01*
X17499Y95082D01*
X17420Y95066D01*
X17344Y95044D01*
X17270Y95016D01*
X17198Y94981D01*
X17128Y94941D01*
X17061Y94893D01*
X16996Y94840D01*
X16933Y94780D01*
Y96020D01*
X16996Y95960D01*
D02*
G37*
G36*
X15667Y94780D02*
X15605Y94840D01*
X15539Y94893D01*
X15472Y94941D01*
X15402Y94981D01*
X15330Y95016D01*
X15256Y95044D01*
X15180Y95066D01*
X15101Y95082D01*
X15020Y95092D01*
X14937Y95095D01*
Y95705D01*
X15020Y95708D01*
X15101Y95718D01*
X15180Y95733D01*
X15256Y95755D01*
X15330Y95784D01*
X15402Y95819D01*
X15472Y95859D01*
X15539Y95907D01*
X15605Y95960D01*
X15667Y96020D01*
Y94780D01*
D02*
G37*
G36*
X28439Y93909D02*
X21987Y87456D01*
X12030D01*
X12030Y87456D01*
X11495Y87235D01*
X11495Y87235D01*
X9979Y85719D01*
X9649Y86049D01*
X7203D01*
X5473Y84319D01*
Y81873D01*
X7203Y80143D01*
X9649D01*
X11379Y81873D01*
Y84319D01*
X11049Y84649D01*
X12343Y85944D01*
X13665D01*
X14048Y85020D01*
X13347Y84319D01*
Y81873D01*
X14164Y81056D01*
X13750Y80056D01*
X12504D01*
X12504Y80056D01*
X11969Y79835D01*
X11969Y79835D01*
X9979Y77845D01*
X9649Y78175D01*
X7203D01*
X5473Y76445D01*
Y73999D01*
X7203Y72269D01*
X9649D01*
X11379Y73999D01*
Y76445D01*
X11049Y76775D01*
X12817Y78544D01*
X14031D01*
X14446Y77544D01*
X13347Y76445D01*
Y73999D01*
X15077Y72269D01*
X17523D01*
X19253Y73999D01*
Y76445D01*
X18154Y77544D01*
X18568Y78544D01*
X19500D01*
X19500Y78544D01*
X20035Y78765D01*
X20044Y78774D01*
X21044Y78360D01*
Y67713D01*
X20253Y66922D01*
X19253Y67337D01*
Y68571D01*
X17523Y70301D01*
X15077D01*
X13347Y68571D01*
Y66125D01*
X14216Y65256D01*
X13802Y64256D01*
X12452D01*
X12452Y64256D01*
X11917Y64035D01*
X9979Y62097D01*
X9649Y62427D01*
X7203D01*
X5473Y60697D01*
Y58251D01*
X7203Y56521D01*
X9649D01*
X11379Y58251D01*
Y60697D01*
X11049Y61027D01*
X12765Y62744D01*
X17900D01*
X17900Y62744D01*
X18435Y62965D01*
X21844Y66374D01*
X22844Y65960D01*
Y54113D01*
X21087Y52356D01*
X19253D01*
Y52823D01*
X17523Y54553D01*
X15077D01*
X13347Y52823D01*
Y50377D01*
X14268Y49456D01*
X13854Y48456D01*
X11713D01*
X10586Y49584D01*
X11379Y50377D01*
Y52823D01*
X9649Y54553D01*
X7203D01*
X5473Y52823D01*
Y50377D01*
X7203Y48647D01*
X8500D01*
X8543Y48582D01*
X8009Y47582D01*
X5800D01*
X5035Y47265D01*
X4718Y46500D01*
Y44154D01*
X3718Y43635D01*
X3456Y43819D01*
Y85143D01*
X12957Y94644D01*
X15109D01*
X15121Y94640D01*
X15162Y94625D01*
X15202Y94605D01*
X15241Y94582D01*
X15281Y94554D01*
X15322Y94520D01*
X15374Y94471D01*
X15448Y94443D01*
X15770Y94121D01*
X16830D01*
X17152Y94443D01*
X17226Y94471D01*
X17278Y94520D01*
X17319Y94554D01*
X17359Y94582D01*
X17398Y94605D01*
X17438Y94625D01*
X17479Y94640D01*
X17492Y94644D01*
X27600D01*
X27600Y94644D01*
X27873Y94757D01*
X28439Y93909D01*
D02*
G37*
G36*
X291514Y92014D02*
X291421Y92010D01*
X291332Y92001D01*
X291245Y91984D01*
X291161Y91961D01*
X291079Y91931D01*
X291001Y91895D01*
X290925Y91851D01*
X290852Y91802D01*
X290781Y91745D01*
X290714Y91682D01*
X290051D01*
X290109Y91745D01*
X290152Y91802D01*
X290178Y91851D01*
X290188Y91895D01*
X290183Y91931D01*
X290161Y91961D01*
X290123Y91984D01*
X290069Y92001D01*
X290000Y92010D01*
X289914Y92014D01*
X290948Y92482D01*
X291514Y92014D01*
D02*
G37*
G36*
X73967Y90880D02*
X73905Y90940D01*
X73839Y90993D01*
X73772Y91040D01*
X73702Y91082D01*
X73630Y91116D01*
X73556Y91145D01*
X73480Y91167D01*
X73401Y91182D01*
X73320Y91192D01*
X73237Y91195D01*
Y91805D01*
X73320Y91808D01*
X73401Y91818D01*
X73480Y91834D01*
X73556Y91856D01*
X73630Y91884D01*
X73702Y91918D01*
X73772Y91960D01*
X73839Y92007D01*
X73905Y92060D01*
X73967Y92120D01*
Y90880D01*
D02*
G37*
G36*
X75160Y90804D02*
X75107Y90739D01*
X75059Y90672D01*
X75019Y90602D01*
X74984Y90530D01*
X74955Y90456D01*
X74933Y90380D01*
X74918Y90301D01*
X74908Y90220D01*
X74905Y90137D01*
X74295D01*
X74292Y90220D01*
X74282Y90301D01*
X74266Y90380D01*
X74244Y90456D01*
X74216Y90530D01*
X74181Y90602D01*
X74141Y90672D01*
X74093Y90739D01*
X74040Y90804D01*
X73980Y90867D01*
X75220D01*
X75160Y90804D01*
D02*
G37*
G36*
X73421Y90740D02*
X73462Y90724D01*
X73502Y90705D01*
X73541Y90682D01*
X73581Y90654D01*
X73622Y90620D01*
X73672Y90572D01*
X73720Y90522D01*
X73754Y90481D01*
X73782Y90441D01*
X73805Y90402D01*
X73825Y90362D01*
X73840Y90321D01*
X73844Y90308D01*
Y88100D01*
X73844Y88100D01*
X74065Y87565D01*
X74074Y87557D01*
X73953Y86263D01*
X73620Y85930D01*
Y84870D01*
X74370Y84121D01*
X74826D01*
X74898Y84088D01*
X74970Y84086D01*
X75022Y84081D01*
X75070Y84073D01*
X75115Y84061D01*
X75157Y84047D01*
X75196Y84029D01*
X75208Y84023D01*
X75915Y83315D01*
X75753Y82063D01*
X75748Y82057D01*
X75674Y82029D01*
X75622Y81980D01*
X75581Y81946D01*
X75541Y81918D01*
X75502Y81895D01*
X75462Y81875D01*
X75421Y81860D01*
X75409Y81856D01*
X69200D01*
X69200Y81856D01*
X68665Y81635D01*
X68665Y81635D01*
X67265Y80235D01*
X67044Y79700D01*
X67044Y79700D01*
Y78547D01*
X64847D01*
X64582Y79437D01*
Y85143D01*
X64581Y85148D01*
X64582Y85153D01*
X64422Y85530D01*
X64265Y85909D01*
X64261Y85911D01*
X64259Y85915D01*
X63902Y86266D01*
X63898Y86268D01*
X63895Y86272D01*
X63515Y86422D01*
X63469Y86441D01*
X63663Y87441D01*
X63862D01*
Y90744D01*
X65027D01*
Y89827D01*
X71819D01*
Y90744D01*
X73409D01*
X73421Y90740D01*
D02*
G37*
G36*
X109820Y117376D02*
Y116570D01*
X110140Y116251D01*
X110166Y116179D01*
X110194Y116149D01*
X110207Y116132D01*
X110219Y116111D01*
X110232Y116084D01*
X110245Y116051D01*
X110248Y116039D01*
Y113945D01*
X110497Y113342D01*
X137183Y86656D01*
X136769Y85656D01*
X103494D01*
X102940Y86656D01*
X103082Y87000D01*
Y91052D01*
X106765Y94735D01*
X107082Y95500D01*
X107082Y95500D01*
Y116052D01*
X108933Y117903D01*
X109820Y117376D01*
D02*
G37*
G36*
X75788Y85304D02*
X75796Y85220D01*
X75810Y85139D01*
X75831Y85061D01*
X75857Y84986D01*
X75889Y84913D01*
X75928Y84844D01*
X75972Y84777D01*
X76023Y84713D01*
X76080Y84652D01*
X75648Y84220D01*
X75587Y84277D01*
X75523Y84328D01*
X75456Y84372D01*
X75387Y84411D01*
X75314Y84443D01*
X75239Y84469D01*
X75161Y84490D01*
X75080Y84504D01*
X74996Y84512D01*
X74909Y84514D01*
X75786Y85391D01*
X75788Y85304D01*
D02*
G37*
G36*
X34307Y82776D02*
X34250Y82713D01*
X34200Y82649D01*
X34157Y82582D01*
X34123Y82513D01*
X34095Y82441D01*
X34076Y82367D01*
X34064Y82292D01*
X34059Y82213D01*
X34062Y82133D01*
X34073Y82050D01*
X33067Y82776D01*
X33155Y82792D01*
X33239Y82812D01*
X33320Y82836D01*
X33398Y82865D01*
X33473Y82899D01*
X33545Y82937D01*
X33613Y82979D01*
X33679Y83026D01*
X33742Y83077D01*
X33801Y83132D01*
X34307Y82776D01*
D02*
G37*
G36*
X75967Y80480D02*
X75905Y80540D01*
X75839Y80593D01*
X75772Y80641D01*
X75702Y80682D01*
X75630Y80716D01*
X75556Y80744D01*
X75480Y80766D01*
X75401Y80782D01*
X75320Y80792D01*
X75237Y80795D01*
Y81405D01*
X75320Y81408D01*
X75401Y81418D01*
X75480Y81433D01*
X75556Y81455D01*
X75630Y81484D01*
X75702Y81519D01*
X75772Y81559D01*
X75839Y81607D01*
X75905Y81660D01*
X75967Y81720D01*
Y80480D01*
D02*
G37*
G36*
X79660Y80405D02*
X79607Y80339D01*
X79559Y80272D01*
X79519Y80202D01*
X79484Y80130D01*
X79456Y80056D01*
X79434Y79980D01*
X79418Y79901D01*
X79408Y79820D01*
X79405Y79737D01*
X78795D01*
X78792Y79820D01*
X78782Y79901D01*
X78767Y79980D01*
X78745Y80056D01*
X78716Y80130D01*
X78681Y80202D01*
X78641Y80272D01*
X78593Y80339D01*
X78540Y80405D01*
X78480Y80467D01*
X79720D01*
X79660Y80405D01*
D02*
G37*
G36*
X63500Y85143D02*
Y72000D01*
X57000D01*
Y73000D01*
X56500Y73500D01*
X40000D01*
Y82200D01*
X45500D01*
Y81000D01*
X48000Y78500D01*
X57700D01*
Y85400D01*
X63143Y85494D01*
X63500Y85143D01*
D02*
G37*
G36*
X32137Y81153D02*
X32670Y80620D01*
X33730D01*
X33772Y80663D01*
X34521Y81270D01*
X35270Y80520D01*
X36330D01*
X36644Y80834D01*
X37644Y80420D01*
Y77213D01*
X27056Y66626D01*
X26056Y67038D01*
Y76487D01*
X30926Y81356D01*
X32137Y81153D01*
D02*
G37*
G36*
X27608Y63580D02*
X27618Y63499D01*
X27634Y63420D01*
X27656Y63344D01*
X27684Y63270D01*
X27718Y63198D01*
X27759Y63128D01*
X27807Y63061D01*
X27860Y62995D01*
X27920Y62933D01*
X26680D01*
X26740Y62995D01*
X26793Y63061D01*
X26841Y63128D01*
X26882Y63198D01*
X26916Y63270D01*
X26945Y63344D01*
X26967Y63420D01*
X26982Y63499D01*
X26992Y63580D01*
X26995Y63663D01*
X27605D01*
X27608Y63580D01*
D02*
G37*
G36*
X38918Y75041D02*
Y73500D01*
X39235Y72735D01*
X40000Y72418D01*
X55918D01*
Y72000D01*
X56235Y71235D01*
X57000Y70918D01*
X63500D01*
X64265Y71235D01*
X64847Y71854D01*
X67044D01*
Y69900D01*
X67044Y69900D01*
X67265Y69365D01*
X68499Y68131D01*
X68054Y67686D01*
Y64914D01*
X70014Y62954D01*
X72786D01*
X73963Y64131D01*
X74963Y63717D01*
Y60933D01*
X73231Y59201D01*
X72786Y59646D01*
X70014D01*
X68054Y57686D01*
Y54914D01*
X67363Y54199D01*
X66810Y54133D01*
X66082Y54811D01*
Y58500D01*
X65765Y59265D01*
X65765Y59265D01*
X64765Y60265D01*
X64000Y60582D01*
X64000Y60582D01*
X34500D01*
X34500Y60582D01*
X33735Y60265D01*
X33735Y60265D01*
X27056Y53587D01*
X26056Y54001D01*
Y60725D01*
X26770Y61020D01*
X27830D01*
X28580Y61770D01*
Y62830D01*
X28257Y63152D01*
X28229Y63226D01*
X28180Y63278D01*
X28146Y63319D01*
X28118Y63359D01*
X28095Y63398D01*
X28076Y63438D01*
X28060Y63479D01*
X28056Y63491D01*
Y65487D01*
X37994Y75424D01*
X38918Y75041D01*
D02*
G37*
G36*
X210077Y58820D02*
X210039Y58769D01*
X210005Y58712D01*
X209975Y58650D01*
X209950Y58583D01*
X209930Y58512D01*
X209914Y58435D01*
X209903Y58353D01*
X209896Y58267D01*
X209894Y58175D01*
X209106D01*
X209104Y58267D01*
X209097Y58353D01*
X209086Y58435D01*
X209070Y58512D01*
X209050Y58583D01*
X209025Y58650D01*
X208995Y58712D01*
X208961Y58769D01*
X208923Y58820D01*
X208880Y58867D01*
X210120D01*
X210077Y58820D01*
D02*
G37*
G36*
X78672Y71854D02*
X79596Y71669D01*
X79735Y71335D01*
X80500Y71018D01*
X93152D01*
X100918Y63252D01*
X100918Y60205D01*
X93605Y54081D01*
X85106Y54050D01*
X84962Y54396D01*
X84746Y55049D01*
Y57686D01*
X82786Y59646D01*
X80014D01*
X78053Y57686D01*
Y54914D01*
X77687Y54024D01*
X75121Y54015D01*
X74804Y54775D01*
X74747Y55013D01*
Y57686D01*
X74301Y58131D01*
X76254Y60085D01*
X76254Y60085D01*
X76476Y60620D01*
Y71854D01*
X78672D01*
X78672Y71854D01*
D02*
G37*
G36*
X110500Y67000D02*
Y38500D01*
X102000D01*
Y45000D01*
X99300Y47700D01*
X31500D01*
X24800Y41000D01*
X5800D01*
Y46500D01*
X21500D01*
X34500Y59500D01*
X64000D01*
X65000Y58500D01*
Y54000D01*
X66100Y52900D01*
X81040Y52953D01*
X81841D01*
X81851Y52956D01*
X94000Y53000D01*
X102000Y59700D01*
X102000Y63700D01*
X93600Y72100D01*
X80500D01*
Y78500D01*
X99000D01*
X110500Y67000D01*
D02*
G37*
G36*
X172060Y45132D02*
X172070Y45051D01*
X172085Y44972D01*
X172108Y44896D01*
X172136Y44822D01*
X172170Y44750D01*
X172211Y44680D01*
X172259Y44613D01*
X172312Y44547D01*
X172372Y44485D01*
X171132D01*
X171192Y44547D01*
X171245Y44613D01*
X171292Y44680D01*
X171334Y44750D01*
X171368Y44822D01*
X171397Y44896D01*
X171418Y44972D01*
X171434Y45051D01*
X171444Y45132D01*
X171447Y45215D01*
X172057D01*
X172060Y45132D01*
D02*
G37*
G36*
X167060D02*
X167070Y45051D01*
X167085Y44972D01*
X167107Y44896D01*
X167136Y44822D01*
X167171Y44750D01*
X167211Y44680D01*
X167259Y44613D01*
X167312Y44547D01*
X167372Y44485D01*
X166132D01*
X166192Y44547D01*
X166245Y44613D01*
X166293Y44680D01*
X166333Y44750D01*
X166368Y44822D01*
X166396Y44896D01*
X166419Y44972D01*
X166434Y45051D01*
X166444Y45132D01*
X166447Y45215D01*
X167057D01*
X167060Y45132D01*
D02*
G37*
G36*
X70185Y45694D02*
X69539Y45048D01*
Y41314D01*
X71506Y39347D01*
X71092Y38347D01*
X45524D01*
Y41635D01*
X41465Y45694D01*
X41847Y46618D01*
X69802D01*
X70185Y45694D01*
D02*
G37*
G36*
X220000Y110400D02*
X220000Y96400D01*
X207900Y84300D01*
Y28500D01*
X195700D01*
Y87600D01*
X209000Y100900D01*
X209000Y110145D01*
X209355Y110497D01*
X220000Y110400D01*
D02*
G37*
G36*
X270908Y25352D02*
X270974Y25296D01*
X271040Y25246D01*
X271105Y25203D01*
X271170Y25167D01*
X271235Y25137D01*
X271300Y25114D01*
X271364Y25098D01*
X271428Y25089D01*
X271491Y25086D01*
X270614Y24209D01*
X270612Y24272D01*
X270602Y24336D01*
X270586Y24400D01*
X270563Y24465D01*
X270533Y24530D01*
X270497Y24595D01*
X270454Y24660D01*
X270404Y24726D01*
X270348Y24792D01*
X270285Y24859D01*
X270842Y25415D01*
X270908Y25352D01*
D02*
G37*
%LPC*%
G36*
X253006Y303894D02*
X250194D01*
X248206Y301906D01*
Y299094D01*
X250194Y297106D01*
X253006D01*
X254994Y299094D01*
Y301906D01*
X253006Y303894D01*
D02*
G37*
G36*
X282906Y297894D02*
X280094D01*
X278106Y295906D01*
Y293094D01*
X280094Y291106D01*
X282906D01*
X284894Y293094D01*
Y295906D01*
X282906Y297894D01*
D02*
G37*
G36*
X194401Y295262D02*
X192444D01*
X191061Y293879D01*
Y291921D01*
X192444Y290538D01*
X194401D01*
X195785Y291921D01*
Y293879D01*
X194401Y295262D01*
D02*
G37*
G36*
X177078D02*
X175121D01*
X173738Y293879D01*
Y291921D01*
X175121Y290538D01*
X177078D01*
X178462Y291921D01*
Y293879D01*
X177078Y295262D01*
D02*
G37*
G36*
X246914Y287994D02*
X241286D01*
X237306Y284014D01*
Y280223D01*
X236356Y280100D01*
X236135Y280635D01*
X233235Y283535D01*
X232700Y283756D01*
X232700Y283756D01*
X209892D01*
X209879Y283760D01*
X209838Y283775D01*
X209798Y283795D01*
X209759Y283818D01*
X209719Y283846D01*
X209678Y283880D01*
X209626Y283929D01*
X209552Y283957D01*
X209230Y284279D01*
X208170D01*
X207420Y283530D01*
Y282470D01*
X208170Y281720D01*
X209230D01*
X209552Y282043D01*
X209626Y282071D01*
X209678Y282120D01*
X209719Y282154D01*
X209759Y282182D01*
X209799Y282205D01*
X209838Y282224D01*
X209879Y282240D01*
X209892Y282244D01*
X232387D01*
X234844Y279787D01*
Y274394D01*
X233449D01*
X230406Y271351D01*
Y267049D01*
X233449Y264006D01*
X237751D01*
X239120Y265375D01*
X239948Y264547D01*
Y262955D01*
X236863D01*
Y260264D01*
X234837D01*
Y262967D01*
X226963D01*
Y255880D01*
X234837D01*
Y258559D01*
X236863D01*
Y255869D01*
X244737D01*
Y262955D01*
X241652D01*
Y264900D01*
X241403Y265503D01*
X240325Y266580D01*
X240794Y267049D01*
Y271351D01*
X237751Y274394D01*
X236356D01*
Y278265D01*
X237356Y278336D01*
X241286Y274406D01*
X246914D01*
X250894Y278386D01*
Y284014D01*
X246914Y287994D01*
D02*
G37*
G36*
X102592Y286511D02*
X99510D01*
X97331Y284332D01*
Y281249D01*
X99510Y279070D01*
X102592D01*
X104772Y281249D01*
Y284332D01*
X102592Y286511D01*
D02*
G37*
G36*
X91687D02*
X88605D01*
X86425Y284332D01*
Y281249D01*
X88605Y279070D01*
X91687D01*
X93866Y281249D01*
Y284332D01*
X91687Y286511D01*
D02*
G37*
G36*
X69876D02*
X66794D01*
X64614Y284332D01*
Y281249D01*
X66794Y279070D01*
X69876D01*
X72055Y281249D01*
Y284332D01*
X69876Y286511D01*
D02*
G37*
G36*
X81107Y287298D02*
X77373D01*
X74732Y284658D01*
Y280923D01*
X77373Y278283D01*
X81107D01*
X83748Y280923D01*
Y284658D01*
X81107Y287298D01*
D02*
G37*
G36*
X291914Y287994D02*
X286286D01*
X282306Y284014D01*
Y278386D01*
X286286Y274406D01*
X291914D01*
X295894Y278386D01*
Y284014D01*
X291914Y287994D01*
D02*
G37*
G36*
X97140Y275330D02*
X94057D01*
X91878Y273150D01*
Y270068D01*
X94057Y267889D01*
X97140D01*
X99319Y270068D01*
Y273150D01*
X97140Y275330D01*
D02*
G37*
G36*
X50286Y292742D02*
X49751Y292521D01*
Y292521D01*
X41869Y284639D01*
X39544Y286964D01*
X31456D01*
X25736Y281244D01*
Y273156D01*
X31456Y267436D01*
X39544D01*
X45264Y273156D01*
Y281244D01*
X42939Y283569D01*
X50599Y291229D01*
X118787D01*
X126447Y283569D01*
X124122Y281244D01*
Y273156D01*
X129841Y267436D01*
X137930D01*
X143650Y273156D01*
Y281244D01*
X137930Y286964D01*
X129841D01*
X127517Y284639D01*
X119635Y292521D01*
X119100Y292742D01*
X119100Y292742D01*
X50286D01*
X50286Y292742D01*
D02*
G37*
G36*
X75655Y276117D02*
X71920D01*
X69279Y273477D01*
Y269742D01*
X71920Y267102D01*
X75655D01*
X78295Y269742D01*
Y273477D01*
X75655Y276117D01*
D02*
G37*
G36*
X106356Y259870D02*
X104644D01*
X103433Y258659D01*
Y256947D01*
X103660Y256720D01*
X103433Y256494D01*
Y254782D01*
X104644Y253571D01*
X106356D01*
X107567Y254782D01*
Y256494D01*
X107340Y256720D01*
X107567Y256947D01*
Y258659D01*
X106356Y259870D01*
D02*
G37*
G36*
X131812Y263934D02*
X128388D01*
X125966Y261512D01*
Y258088D01*
X128388Y255666D01*
X131812D01*
X132413Y256267D01*
X133133Y255573D01*
Y253878D01*
X134344Y252668D01*
X136056D01*
X137267Y253878D01*
Y255591D01*
X137818Y256453D01*
X143447D01*
Y263146D01*
X136753D01*
Y259678D01*
X135873Y258967D01*
X134344D01*
X134234Y259013D01*
Y261512D01*
X131812Y263934D01*
D02*
G37*
G36*
X325897Y250253D02*
X323451D01*
X321721Y248523D01*
Y246077D01*
X323451Y244347D01*
X325897D01*
X327627Y246077D01*
Y248523D01*
X325897Y250253D01*
D02*
G37*
G36*
X196930Y238680D02*
X195870D01*
X195121Y237930D01*
Y236870D01*
X195870Y236121D01*
X196930D01*
X197679Y236870D01*
Y237930D01*
X196930Y238680D01*
D02*
G37*
G36*
X176231Y220580D02*
X175171D01*
X174421Y219830D01*
Y218770D01*
X175171Y218021D01*
X176231D01*
X176980Y218770D01*
Y219830D01*
X176231Y220580D01*
D02*
G37*
G36*
X186100Y239582D02*
X186100Y239582D01*
X181000D01*
X180235Y239265D01*
X179918Y238500D01*
Y236000D01*
X180235Y235235D01*
X181000Y234918D01*
X184552D01*
X192935Y226535D01*
X193700Y226218D01*
X193700Y226218D01*
X196235D01*
X196435Y225735D01*
X197200Y225418D01*
X199829D01*
X199918Y217388D01*
X200078Y217013D01*
X200235Y216635D01*
X200241Y216632D01*
X200243Y216626D01*
X200622Y216474D01*
X201000Y216318D01*
X208600D01*
X209365Y216635D01*
X209682Y217400D01*
Y230700D01*
X209365Y231465D01*
X208600Y231782D01*
X194348D01*
X186865Y239265D01*
X186100Y239582D01*
D02*
G37*
G36*
X143830Y177880D02*
X142770D01*
X142020Y177130D01*
Y176070D01*
X142344Y175747D01*
X142373Y175672D01*
X142434Y175609D01*
X142478Y175557D01*
X142515Y175507D01*
X142546Y175460D01*
X142570Y175416D01*
X142588Y175373D01*
X142597Y175347D01*
Y174791D01*
X139789Y171983D01*
X139764Y171971D01*
X139721Y171954D01*
X139673Y171940D01*
X139618Y171928D01*
X139556Y171919D01*
X139488Y171913D01*
X139401Y171912D01*
X139327Y171879D01*
X138870D01*
X138120Y171130D01*
Y170070D01*
X138870Y169320D01*
X139930D01*
X140680Y170070D01*
Y170527D01*
X140712Y170601D01*
X140713Y170688D01*
X140719Y170756D01*
X140728Y170818D01*
X140740Y170873D01*
X140754Y170921D01*
X140771Y170964D01*
X140783Y170989D01*
X143797Y174003D01*
X144003Y174500D01*
Y175347D01*
X144012Y175373D01*
X144030Y175416D01*
X144054Y175460D01*
X144085Y175507D01*
X144122Y175557D01*
X144166Y175609D01*
X144227Y175672D01*
X144256Y175747D01*
X144580Y176070D01*
Y177130D01*
X143830Y177880D01*
D02*
G37*
G36*
X180030Y170780D02*
X178970D01*
X178220Y170030D01*
Y168970D01*
X178970Y168220D01*
X180030D01*
X180780Y168970D01*
Y170030D01*
X180030Y170780D01*
D02*
G37*
G36*
X223530Y158879D02*
X222470D01*
X221721Y158130D01*
Y157070D01*
X222470Y156321D01*
X223530D01*
X224279Y157070D01*
Y158130D01*
X223530Y158879D01*
D02*
G37*
G36*
X93030Y132980D02*
X91970D01*
X91220Y132230D01*
Y131170D01*
X91970Y130420D01*
X93030D01*
X93779Y131170D01*
Y132230D01*
X93030Y132980D01*
D02*
G37*
G36*
X328091Y158353D02*
X324992D01*
X322802Y156163D01*
Y153064D01*
X323860Y152006D01*
X323477Y151082D01*
X291500D01*
X290735Y150765D01*
X290418Y150000D01*
Y135785D01*
X289500Y135082D01*
X280000D01*
X279235Y134765D01*
X278918Y134000D01*
X278918Y112000D01*
X279235Y111235D01*
X280000Y110918D01*
X300000D01*
X300765Y111235D01*
X301082Y112000D01*
Y125000D01*
X300765Y125765D01*
X300000Y126082D01*
X290582D01*
X290582Y131215D01*
X291500Y131918D01*
X326500D01*
X327265Y132235D01*
X327582Y133000D01*
Y150000D01*
X328091Y150873D01*
X328189Y150971D01*
X330282Y153064D01*
Y156163D01*
X328091Y158353D01*
D02*
G37*
G36*
X266500Y73992D02*
X252500D01*
X251445Y73555D01*
X251445Y73555D01*
X242445Y64555D01*
X242008Y63500D01*
X242008Y63500D01*
Y50176D01*
X236413D01*
Y40924D01*
X250587D01*
Y50176D01*
X244991D01*
Y62882D01*
X253118Y71008D01*
X266500D01*
X267012Y71220D01*
X267030D01*
X267043Y71233D01*
X267555Y71445D01*
X267767Y71957D01*
X267779Y71970D01*
Y71988D01*
X267991Y72500D01*
X267779Y73012D01*
Y73030D01*
X267767Y73043D01*
X267555Y73555D01*
X267043Y73767D01*
X267030Y73779D01*
X267012D01*
X266500Y73992D01*
D02*
G37*
G36*
X102852Y35721D02*
X99770D01*
X97591Y33541D01*
Y30459D01*
X99770Y28280D01*
X102852D01*
X105032Y30459D01*
Y33541D01*
X102852Y35721D01*
D02*
G37*
G36*
X91947D02*
X88864D01*
X86685Y33541D01*
Y30459D01*
X88864Y28280D01*
X91947D01*
X94126Y30459D01*
Y33541D01*
X91947Y35721D01*
D02*
G37*
G36*
X81041D02*
X77959D01*
X75779Y33541D01*
Y30459D01*
X77959Y28280D01*
X81041D01*
X83220Y30459D01*
Y33541D01*
X81041Y35721D01*
D02*
G37*
G36*
X70136D02*
X67053D01*
X64874Y33541D01*
Y30459D01*
X67053Y28280D01*
X70136D01*
X72315Y30459D01*
Y33541D01*
X70136Y35721D01*
D02*
G37*
G36*
X162146Y32846D02*
X155454D01*
Y26154D01*
X162146D01*
Y32846D01*
D02*
G37*
G36*
X146456Y24176D02*
X144744D01*
X143533Y22966D01*
Y21253D01*
X143760Y21027D01*
X143533Y20800D01*
Y19088D01*
X144744Y17877D01*
X146456D01*
X147667Y19088D01*
Y20800D01*
X147440Y21027D01*
X147667Y21253D01*
Y22966D01*
X146456Y24176D01*
D02*
G37*
G36*
X160512Y23634D02*
X157088D01*
X154666Y21212D01*
Y17788D01*
X157088Y15366D01*
X160512D01*
X162934Y17788D01*
Y21212D01*
X160512Y23634D01*
D02*
G37*
G36*
X250587Y28326D02*
X236413D01*
Y19074D01*
X242008D01*
Y11128D01*
X240941Y10060D01*
Y7940D01*
X242440Y6441D01*
X244560D01*
X246059Y7940D01*
Y10060D01*
X244991Y11128D01*
Y19074D01*
X250587D01*
Y28326D01*
D02*
G37*
G36*
X212060Y11559D02*
X209940D01*
X208441Y10060D01*
Y7940D01*
X209940Y6441D01*
X212060D01*
X213559Y7940D01*
Y10060D01*
X212060Y11559D01*
D02*
G37*
G36*
X189560D02*
X187440D01*
X185941Y10060D01*
Y7940D01*
X187440Y6441D01*
X189560D01*
X191059Y7940D01*
Y10060D01*
X189560Y11559D01*
D02*
G37*
G36*
X167060D02*
X164940D01*
X163441Y10060D01*
Y7940D01*
X164940Y6441D01*
X167060D01*
X168559Y7940D01*
Y10060D01*
X167060Y11559D01*
D02*
G37*
%LPD*%
G36*
X209396Y283560D02*
X209461Y283507D01*
X209528Y283459D01*
X209598Y283418D01*
X209670Y283384D01*
X209744Y283355D01*
X209820Y283333D01*
X209899Y283318D01*
X209980Y283308D01*
X210063Y283305D01*
Y282695D01*
X209980Y282692D01*
X209899Y282682D01*
X209820Y282666D01*
X209744Y282645D01*
X209670Y282616D01*
X209598Y282581D01*
X209528Y282540D01*
X209461Y282493D01*
X209396Y282440D01*
X209333Y282380D01*
Y283620D01*
X209396Y283560D01*
D02*
G37*
G36*
X193900Y230700D02*
X208600D01*
Y217400D01*
X201000D01*
X200900Y226500D01*
X197200D01*
Y227300D01*
X193700D01*
X185000Y236000D01*
X181000D01*
Y238500D01*
X186100D01*
X193900Y230700D01*
D02*
G37*
G36*
X143851Y175896D02*
X143789Y175823D01*
X143734Y175750D01*
X143687Y175677D01*
X143647Y175602D01*
X143614Y175527D01*
X143589Y175452D01*
X143570Y175375D01*
X143560Y175298D01*
X143556Y175221D01*
X143044D01*
X143041Y175298D01*
X143029Y175375D01*
X143011Y175452D01*
X142986Y175527D01*
X142953Y175602D01*
X142913Y175677D01*
X142866Y175750D01*
X142811Y175823D01*
X142749Y175896D01*
X142680Y175967D01*
X143920D01*
X143851Y175896D01*
D02*
G37*
G36*
X140556Y171395D02*
X140504Y171337D01*
X140457Y171275D01*
X140416Y171208D01*
X140381Y171136D01*
X140351Y171060D01*
X140327Y170979D01*
X140308Y170894D01*
X140295Y170803D01*
X140288Y170709D01*
X140286Y170609D01*
X139409Y171486D01*
X139508Y171488D01*
X139603Y171495D01*
X139694Y171508D01*
X139779Y171527D01*
X139860Y171551D01*
X139936Y171581D01*
X140008Y171616D01*
X140075Y171657D01*
X140137Y171704D01*
X140194Y171756D01*
X140556Y171395D01*
D02*
G37*
G36*
X326500Y133000D02*
X291500D01*
Y150000D01*
X326500D01*
Y133000D01*
D02*
G37*
G36*
X289500Y125000D02*
X300000D01*
Y112000D01*
X280000D01*
X280000Y134000D01*
X289500D01*
X289500Y125000D01*
D02*
G37*
%LPC*%
G36*
X119430Y190279D02*
X118370D01*
X117621Y189530D01*
Y188470D01*
X118370Y187721D01*
X119430D01*
X120179Y188470D01*
Y189530D01*
X119430Y190279D01*
D02*
G37*
G36*
X45830Y175180D02*
X44770D01*
X44021Y174430D01*
Y173370D01*
X44770Y172620D01*
X45226D01*
X45298Y172588D01*
X45370Y172586D01*
X45422Y172581D01*
X45470Y172573D01*
X45515Y172561D01*
X45557Y172547D01*
X45596Y172529D01*
X45608Y172523D01*
X47095Y171036D01*
X46154Y170095D01*
X49494Y166754D01*
X53114Y170373D01*
X49773Y173714D01*
X48164Y172105D01*
X46677Y173592D01*
X46671Y173604D01*
X46653Y173643D01*
X46639Y173685D01*
X46627Y173730D01*
X46619Y173778D01*
X46614Y173830D01*
X46612Y173902D01*
X46580Y173975D01*
Y174430D01*
X45830Y175180D01*
D02*
G37*
G36*
X59139Y173880D02*
X55520Y170261D01*
X58861Y166920D01*
X60190Y168249D01*
X60919Y167519D01*
X61400Y167320D01*
X61622D01*
X61653Y167309D01*
X61696Y167289D01*
X61743Y167263D01*
X61793Y167230D01*
X61847Y167189D01*
X61904Y167139D01*
X61971Y167074D01*
X62047Y167044D01*
X62370Y166720D01*
X63430D01*
X64179Y167470D01*
Y168530D01*
X63430Y169280D01*
X62634D01*
X62114Y170174D01*
X62480Y170539D01*
X59139Y173880D01*
D02*
G37*
%LPD*%
G36*
X46188Y173804D02*
X46196Y173721D01*
X46210Y173639D01*
X46231Y173561D01*
X46257Y173486D01*
X46289Y173413D01*
X46328Y173344D01*
X46372Y173277D01*
X46423Y173213D01*
X46480Y173152D01*
X46048Y172720D01*
X45987Y172777D01*
X45923Y172828D01*
X45856Y172872D01*
X45787Y172910D01*
X45714Y172943D01*
X45639Y172969D01*
X45561Y172990D01*
X45480Y173004D01*
X45396Y173012D01*
X45309Y173014D01*
X46186Y173891D01*
X46188Y173804D01*
D02*
G37*
G36*
X62267Y167380D02*
X62192Y167453D01*
X62116Y167519D01*
X62041Y167577D01*
X61965Y167627D01*
X61890Y167669D01*
X61815Y167704D01*
X61739Y167731D01*
X61664Y167750D01*
X61589Y167762D01*
X61514Y167766D01*
X61514Y168234D01*
X61589Y168238D01*
X61664Y168250D01*
X61739Y168269D01*
X61815Y168296D01*
X61890Y168331D01*
X61965Y168373D01*
X62041Y168423D01*
X62116Y168481D01*
X62192Y168547D01*
X62267Y168620D01*
X62267Y167380D01*
D02*
G37*
%LPC*%
G36*
X9649Y70301D02*
X7203D01*
X5473Y68571D01*
Y66125D01*
X7203Y64395D01*
X9649D01*
X11379Y66125D01*
Y68571D01*
X9649Y70301D01*
D02*
G37*
G36*
X62786Y69647D02*
X60014D01*
X58053Y67686D01*
Y64914D01*
X60014Y62954D01*
X62786D01*
X64746Y64914D01*
Y67686D01*
X62786Y69647D01*
D02*
G37*
G36*
X52786D02*
X50014D01*
X48054Y67686D01*
Y64914D01*
X50014Y62954D01*
X52786D01*
X54747Y64914D01*
Y67686D01*
X52786Y69647D01*
D02*
G37*
%LPD*%
D11*
X137900Y191300D02*
X146100D01*
X127831Y181231D02*
X137900Y191300D01*
X127831Y180969D02*
Y181231D01*
X181350Y30150D02*
X197400Y14100D01*
X215900D01*
X221000Y9000D01*
X114266Y115734D02*
X181350Y48650D01*
Y30150D02*
Y48650D01*
X178700Y28800D02*
Y48600D01*
X112773Y114527D02*
Y118488D01*
Y114527D02*
X178700Y48600D01*
X176000Y9000D02*
Y49045D01*
X111100Y113945D02*
Y117100D01*
Y113945D02*
X176000Y49045D01*
X114266Y115734D02*
Y120055D01*
X112593Y118669D02*
X112773Y118488D01*
X178700Y28800D02*
X198500Y9000D01*
X217600Y33000D02*
X262700D01*
X209500Y41100D02*
Y59500D01*
Y41100D02*
X217600Y33000D01*
X262700D02*
X271500Y24200D01*
X235600Y269200D02*
X236500D01*
X240800Y264900D01*
Y259412D02*
Y264900D01*
X230900Y259424D02*
X230912Y259412D01*
X240800D01*
D12*
X122900Y162800D02*
Y162900D01*
X99100Y233293D02*
X99107D01*
X182500Y237300D02*
X185300D01*
X193900Y228700D01*
X196400D01*
X262600Y206787D02*
Y207000D01*
Y206787D02*
X263500Y205887D01*
X263420Y201800D02*
X263500Y201880D01*
Y205887D01*
X17353Y222853D02*
X21053D01*
X17200Y222700D02*
X17353Y222853D01*
X22400Y224200D02*
Y229600D01*
X21053Y222853D02*
X22400Y224200D01*
X26100Y233300D02*
X29700D01*
X22400Y229600D02*
X26100Y233300D01*
X95427Y91680D02*
X95624D01*
X89777Y91500D02*
X95246D01*
X95624Y91680D02*
X97100Y93157D01*
X95246Y91500D02*
X95427Y91680D01*
D23*
X263420Y201800D02*
D03*
X270900D02*
D03*
X263520Y193400D02*
D03*
X271000D02*
D03*
X93660Y112700D02*
D03*
X101140Y112700D02*
D03*
X60320Y75200D02*
D03*
X67800D02*
D03*
X83200D02*
D03*
X75720D02*
D03*
X239740Y222900D02*
D03*
X232260D02*
D03*
X257020Y229200D02*
D03*
X264500D02*
D03*
X257000Y237700D02*
D03*
X264480D02*
D03*
X292000Y229500D02*
D03*
X299480D02*
D03*
X292000Y238000D02*
D03*
X299480D02*
D03*
X257020Y220700D02*
D03*
X264500D02*
D03*
D24*
X17900Y122646D02*
D03*
Y115954D02*
D03*
X29700Y226607D02*
D03*
Y233300D02*
D03*
X39700D02*
D03*
Y226607D02*
D03*
X49700Y233246D02*
D03*
Y226554D02*
D03*
X59500Y233200D02*
D03*
Y226507D02*
D03*
X69700Y233293D02*
D03*
Y226600D02*
D03*
X79800Y233293D02*
D03*
Y226600D02*
D03*
X89800Y233293D02*
D03*
Y226600D02*
D03*
X99700Y233293D02*
D03*
Y226600D02*
D03*
X54900Y83254D02*
D03*
Y89947D02*
D03*
X61500Y90000D02*
D03*
Y83307D02*
D03*
X97100Y93353D02*
D03*
Y100047D02*
D03*
D27*
X245107Y205600D02*
D03*
X251800D02*
D03*
X231807Y215200D02*
D03*
X238500D02*
D03*
X231907Y208600D02*
D03*
X238600D02*
D03*
X26907Y103200D02*
D03*
X33600D02*
D03*
X26900Y109700D02*
D03*
X33593D02*
D03*
X26954Y118200D02*
D03*
X33646D02*
D03*
X27000Y132400D02*
D03*
X33693D02*
D03*
X27007Y125700D02*
D03*
X33700D02*
D03*
X27000Y139100D02*
D03*
X33693D02*
D03*
D28*
X299100Y253940D02*
D03*
Y246460D02*
D03*
X263900Y286500D02*
D03*
Y293980D02*
D03*
X204000Y212500D02*
D03*
Y219980D02*
D03*
D36*
X89777Y91500D02*
D03*
Y96500D02*
D03*
Y101500D02*
D03*
Y106500D02*
D03*
X68423D02*
D03*
Y101500D02*
D03*
Y96500D02*
D03*
Y91500D02*
D03*
D40*
X240924Y231200D02*
D03*
X229900D02*
D03*
D46*
X295280Y118500D02*
D03*
X267721D02*
D03*
D62*
X2000Y188600D02*
Y227900D01*
X6800Y232700D02*
X7200D01*
X2000Y227900D02*
X6800Y232700D01*
X64300Y139400D02*
X78100Y153200D01*
X71700Y162300D02*
X78100Y155900D01*
Y153200D02*
Y155900D01*
X8426Y59474D02*
X12452Y63500D01*
X17900D02*
X21800Y67400D01*
X12452Y63500D02*
X17900D01*
X16300Y51600D02*
X21400D01*
X23600Y53800D02*
Y77759D01*
X21400Y51600D02*
X23600Y53800D01*
X20896Y83096D02*
X70800Y133000D01*
Y135300D02*
X72400Y136900D01*
X70800Y133000D02*
Y135300D01*
X22300Y86700D02*
X69000Y133400D01*
Y136300D02*
X70922Y138223D01*
X69000Y133400D02*
Y136300D01*
X36022Y82722D02*
X73500Y120200D01*
X86200D01*
X248000Y206127D02*
Y221500D01*
X246500Y223000D02*
X248000Y221500D01*
X246500Y223000D02*
Y238000D01*
X243900Y222900D02*
X245500Y221300D01*
Y218000D02*
Y221300D01*
X239740Y222900D02*
X243900D01*
X246500Y238000D02*
X254100Y245600D01*
Y250500D01*
X248000Y205273D02*
X248011Y205284D01*
Y206116D01*
X248000Y206127D02*
X248011Y206116D01*
X238958Y205700D02*
X247007D01*
X238600Y206058D02*
X238958Y205700D01*
X248000Y200000D02*
Y205273D01*
X238600Y206058D02*
Y208600D01*
X259000Y255400D02*
Y291200D01*
X254100Y250500D02*
X259000Y255400D01*
X33200Y82100D02*
X74200Y123100D01*
X33200Y81900D02*
Y82100D01*
X74200Y123100D02*
X86300D01*
X25300Y76800D02*
X86200Y137700D01*
X25300Y52800D02*
Y76800D01*
X86200Y137700D02*
Y147800D01*
X27300Y62300D02*
Y65800D01*
X38400Y76900D01*
X20200Y47700D02*
X25300Y52800D01*
X38400Y76900D02*
Y82400D01*
X12644Y95400D02*
X16300D01*
X2700Y85456D02*
X12644Y95400D01*
X2700Y42900D02*
Y85456D01*
Y42900D02*
X5900Y39700D01*
X21500D01*
X23609Y37591D02*
X35760D01*
X21500Y39700D02*
X23609Y37591D01*
X16300Y95400D02*
X27600D01*
X30800Y98600D01*
Y98700D01*
X39100Y109600D02*
X49385Y119885D01*
Y143185D01*
X54300Y125000D02*
X64300Y135000D01*
X49385Y143185D02*
X62000Y155800D01*
X64300Y135000D02*
Y139400D01*
X67100Y138700D02*
X80100Y151700D01*
Y170500D01*
X74800Y174500D02*
X79000D01*
X81417Y172083D01*
X81577D01*
X62000Y161700D02*
X74800Y174500D01*
X62000Y155800D02*
Y161700D01*
X67100Y134600D02*
Y138700D01*
X39100Y106600D02*
X67100Y134600D01*
X58900Y132100D02*
X60987Y134187D01*
Y147627D01*
X56700Y130000D02*
Y146400D01*
X59400Y149100D01*
X39000Y126600D02*
X39100Y126500D01*
X47700D02*
X47800Y126400D01*
X39100Y126500D02*
X47700D01*
X23600Y77759D02*
X84200Y138359D01*
X35800Y81800D02*
X36022Y82022D01*
X16300Y83096D02*
X20896D01*
X21800Y67400D02*
Y78900D01*
X70387Y127487D01*
Y127772D01*
X19500Y79300D02*
X73200Y133000D01*
X70387Y127772D02*
X70871Y128256D01*
X12030Y86700D02*
X22300D01*
X36022Y82022D02*
Y82722D01*
X70871Y128256D02*
Y128429D01*
X84200Y138359D02*
Y149400D01*
X12504Y79300D02*
X19500D01*
X54900Y94200D02*
X57200Y96500D01*
X68423D01*
X54900Y89947D02*
Y94200D01*
X61500Y90000D02*
X63000Y91500D01*
X68423D01*
X68523Y101600D02*
X81800D01*
X68423Y101500D02*
X68523Y101600D01*
X68423Y96500D02*
Y101500D01*
X78342Y75000D02*
X79100Y75757D01*
X75720Y60620D02*
Y75200D01*
X75920Y75000D02*
X78342D01*
X79100Y75757D02*
Y81100D01*
X75720Y75200D02*
X75920Y75000D01*
X137200Y83000D02*
X166752Y53448D01*
X77300Y83000D02*
X137200D01*
X74900Y85400D02*
X77300Y83000D01*
X69200Y81100D02*
X76600D01*
X67800Y79700D02*
X69200Y81100D01*
X68423Y106500D02*
X68600Y106677D01*
X83716Y97038D02*
Y97901D01*
X86723Y99699D02*
X87080Y100056D01*
X68423Y91500D02*
X74600D01*
X83537Y99699D02*
X86723D01*
X68600Y106677D02*
Y108700D01*
X87080Y100056D02*
Y100526D01*
Y97474D02*
X88055Y96500D01*
X84116Y98301D02*
X86723D01*
X83716Y97901D02*
X84116Y98301D01*
X68600Y108700D02*
X70800Y110900D01*
X72815D01*
X86723Y98301D02*
X87080Y97944D01*
Y100526D02*
X88055Y101500D01*
X82319Y97038D02*
Y98480D01*
X83537Y99699D01*
X88055Y101500D02*
X89777D01*
X87080Y97474D02*
Y97944D01*
X88055Y96500D02*
X89777D01*
X74600Y88100D02*
Y91500D01*
Y88100D02*
X77800Y84900D01*
X137800D01*
X11400Y47700D02*
X20200D01*
X8426Y75222D02*
X12504Y79300D01*
X8426Y50674D02*
X11400Y47700D01*
X8426Y50674D02*
Y51600D01*
X38400Y82400D02*
X73400Y117400D01*
X86100D01*
X35760Y37591D02*
X134146D01*
X70922Y138223D02*
Y138483D01*
X8426Y83096D02*
X12030Y86700D01*
X73200Y133000D02*
X76600D01*
X33593Y109700D02*
X33693Y109600D01*
X35263Y104863D02*
X37844D01*
X38275Y105295D02*
Y105461D01*
X39100Y106286D02*
Y106600D01*
X37844Y104863D02*
X38275Y105295D01*
Y105461D02*
X39100Y106286D01*
X33693Y109600D02*
X39100D01*
X33600Y103200D02*
X35263Y104863D01*
X88500Y143000D02*
Y146900D01*
X115900Y174300D01*
Y174341D01*
X108826Y174025D02*
X110283D01*
X84200Y149400D02*
X108826Y174025D01*
X86200Y147800D02*
X110200Y171800D01*
X110200D01*
X88500Y143000D02*
X92000Y139500D01*
X110283Y174025D02*
X110283Y174026D01*
X115900Y174341D02*
X134939Y193380D01*
X176520D01*
X67800Y75200D02*
Y79700D01*
Y69900D02*
X71400Y66300D01*
X67800Y69900D02*
Y75200D01*
X71400Y56300D02*
X75720Y60620D01*
X33646Y118200D02*
X33746Y118300D01*
X39100D01*
X38100Y125700D02*
X39000Y126600D01*
X33700Y125700D02*
X38100D01*
X37986Y132400D02*
X38786Y131600D01*
X33693Y132400D02*
X37986D01*
X38786Y131600D02*
X39100D01*
Y135800D02*
Y137900D01*
X37900Y139100D02*
X38098Y138902D01*
X39100Y137900D01*
X33693Y139100D02*
X37900D01*
X69600Y175300D02*
X108100Y213800D01*
X146800D02*
X149200Y216200D01*
X108100Y213800D02*
X146800D01*
X176520Y193380D02*
X179400Y190500D01*
X48966Y170234D02*
X49634D01*
X45300Y173900D02*
X48966Y170234D01*
X140985Y188985D02*
X176915D01*
X130685Y178685D02*
X140985Y188985D01*
X150200Y187200D02*
X150300Y187300D01*
X171000D02*
X171100Y187400D01*
X150300Y187300D02*
X171000D01*
X176915Y188985D02*
X177100Y188800D01*
X171752Y43852D02*
Y50948D01*
X137800Y84900D02*
X171752Y50948D01*
X166752Y43852D02*
Y53448D01*
X2000Y188600D02*
X6000Y184600D01*
X44733D02*
X54366Y174966D01*
X6000Y184600D02*
X44733D01*
X54366Y174966D02*
Y174966D01*
X10686Y202285D02*
X79376D01*
X18600Y200700D02*
X77900D01*
X8201Y199800D02*
X10686Y202285D01*
X7700Y189800D02*
X18600Y200700D01*
X7700Y199800D02*
X8201D01*
X79376Y202285D02*
X79483Y202177D01*
X35500Y277200D02*
X50286Y291986D01*
X119100D01*
X133886Y277200D01*
X235600Y269200D02*
Y280100D01*
X232700Y283000D02*
X235600Y280100D01*
X208700Y283000D02*
X232700D01*
X269000Y216000D02*
X270500Y217500D01*
X255400Y216000D02*
X269000D01*
X39700Y222500D02*
Y226607D01*
X130416Y178685D02*
X130685D01*
X66900Y175200D02*
X67100D01*
X69500Y175300D02*
X69600D01*
X107500Y215600D02*
X145500D01*
X64400Y175300D02*
X82581Y193481D01*
X67100Y175200D02*
X107500Y215600D01*
X82581Y193481D02*
Y193481D01*
X106900Y217800D01*
X144200D01*
X105900Y219500D02*
X120800D01*
X61700Y175300D02*
X105900Y219500D01*
X179400Y190500D02*
X179500D01*
X270500Y217500D02*
Y220700D01*
X258900Y291300D02*
X259000Y291200D01*
X241600Y294500D02*
X263380D01*
X263900Y293980D01*
X146900Y217000D02*
Y228900D01*
X149200Y216200D02*
Y228800D01*
X145500Y215600D02*
X146900Y217000D01*
X149100Y228900D02*
X149200Y228800D01*
X99700Y222500D02*
Y226600D01*
X29682Y226589D02*
X29700Y226607D01*
X29682Y222550D02*
Y226589D01*
X49700Y222500D02*
Y226554D01*
X59600Y222500D02*
Y226407D01*
X59500Y226507D02*
X59600Y226407D01*
X69800Y222500D02*
Y226500D01*
X69700Y226600D02*
X69800Y226500D01*
X79800Y222500D02*
Y226600D01*
X89800Y222500D02*
Y226600D01*
X299100Y253940D02*
X302740D01*
X304500Y255700D01*
Y287500D01*
X291500Y300500D02*
X304500Y287500D01*
X236640Y213136D02*
Y213537D01*
X238303Y215200D02*
X238500D01*
X231907Y208600D02*
X232104D01*
X236640Y213136D01*
Y213537D02*
X238303Y215200D01*
X253700Y205700D02*
X258700D01*
X239740Y230016D02*
X240924Y231200D01*
X239740Y222900D02*
Y230016D01*
X264500Y220700D02*
X270500D01*
D63*
X201500Y34140D02*
X201900Y34540D01*
X201500Y31500D02*
Y34140D01*
X201900Y34540D02*
Y88700D01*
X118567Y157467D02*
X118600Y157500D01*
X118567Y155300D02*
Y157467D01*
Y155300D02*
X122434Y151434D01*
X107900Y146267D02*
Y146600D01*
Y146267D02*
X112534Y141634D01*
X118900Y157500D02*
X122500Y161100D01*
X118600Y157500D02*
X118900D01*
X101300Y118800D02*
X104400D01*
X114200Y128600D02*
X118132D01*
X104400Y118800D02*
X114200Y128600D01*
X101300Y112859D02*
Y118800D01*
X201900Y88700D02*
X210400Y97200D01*
X298300Y223900D02*
Y228320D01*
X299480Y229500D01*
X55300Y153300D02*
Y153421D01*
X17900Y121500D02*
X18700Y122300D01*
Y122385D01*
X18884Y122569D01*
X120022Y126711D02*
X120111D01*
X118132Y128600D02*
X120022Y126711D01*
X62553Y50700D02*
X99245D01*
X106764Y43181D01*
X61400Y51853D02*
Y56300D01*
Y51853D02*
X62553Y50700D01*
X47673Y75200D02*
X60320D01*
X41600Y81273D02*
X47673Y75200D01*
X60910Y82717D02*
X61500Y83307D01*
X60320Y75200D02*
X60910Y75790D01*
Y82717D01*
X17854Y122600D02*
X17900Y122646D01*
X13500Y122600D02*
X17854D01*
X13500D02*
Y148200D01*
X21200Y155900D01*
X18884Y122569D02*
X22569D01*
X26954Y121900D02*
Y139053D01*
Y103246D02*
Y121900D01*
X263470Y193350D02*
Y201750D01*
X49700Y233296D02*
X99103D01*
X29704D02*
X49700D01*
X49311Y159411D02*
Y159411D01*
Y159411D02*
X55300Y153421D01*
X97100Y93157D02*
X97443Y93500D01*
X26854Y121800D02*
X26954Y121900D01*
X49700Y233296D02*
Y267600D01*
Y233246D02*
Y233296D01*
X53709Y271609D02*
X62882D01*
X49700Y267600D02*
X53709Y271609D01*
X105300Y228000D02*
Y233400D01*
Y228000D02*
X109000Y224300D01*
X135700D01*
X99800Y144600D02*
X99900D01*
X101961Y141733D02*
X102767D01*
X99900Y144600D02*
X102767Y141733D01*
X102767D01*
X123000Y152667D02*
Y152700D01*
X101140Y112700D02*
X101800Y112040D01*
Y107900D02*
Y112040D01*
Y107900D02*
X103200Y106500D01*
Y96300D02*
Y106500D01*
X101140Y112700D02*
X101300Y112859D01*
X54387Y165787D02*
X55779D01*
X54267Y165667D02*
X54387Y165787D01*
X55779D02*
X57583Y163983D01*
X49311Y159411D02*
X49311D01*
X21200Y155900D02*
Y173500D01*
X21600Y156300D02*
X38500D01*
X21200Y155900D02*
X21600Y156300D01*
X38500D02*
X38600Y156400D01*
X46300D01*
X49311Y159411D01*
X97443Y93500D02*
X100400D01*
X103200Y96300D01*
X99807Y233400D02*
X105300D01*
X99700Y233293D02*
X99807Y233400D01*
X99103Y233296D02*
X99107Y233293D01*
X99700D01*
X29700Y233300D02*
X29704Y233296D01*
X7200Y222700D02*
X17200D01*
X97200Y74900D02*
X106764Y65336D01*
Y43181D02*
Y65336D01*
X96900Y75200D02*
X97200Y74900D01*
X83200Y75200D02*
X96900D01*
X97100Y88600D02*
Y93157D01*
X26954Y139053D02*
X27000Y139100D01*
X26907Y103200D02*
X26954Y103246D01*
X204000Y212500D02*
X209200D01*
X258800Y193200D02*
X263320D01*
X263470Y193350D01*
X263420Y201800D02*
X263470Y201750D01*
X240912Y248500D02*
X246000D01*
X240800Y248388D02*
X240912Y248500D01*
X246000D02*
X248300Y246200D01*
X249100D01*
X230900Y248400D02*
X230912Y248388D01*
X240800D01*
X227700Y222700D02*
X227900Y222900D01*
X232260D01*
X232100Y223060D02*
X232260Y222900D01*
X232100Y223060D02*
Y225900D01*
X229800Y228200D02*
X232100Y225900D01*
X229800Y228200D02*
Y231100D01*
X229900Y231200D01*
X231807Y215200D02*
X232033Y215426D01*
Y222674D01*
X232260Y222900D01*
X283121Y234100D02*
X283221Y234000D01*
X287100D01*
X299480Y238000D02*
Y246079D01*
X299100Y246460D02*
X299480Y246079D01*
Y229500D02*
Y238000D01*
X258253Y242022D02*
X260831D01*
X257100Y240869D02*
X258253Y242022D01*
X257100Y237800D02*
Y240869D01*
X264931Y242031D02*
X269100Y246200D01*
X260839Y242031D02*
X264931D01*
X260831Y242022D02*
X260839Y242031D01*
X257000Y237700D02*
X257100Y237800D01*
X257000Y237700D02*
X257010Y237690D01*
Y229210D02*
Y237690D01*
Y229210D02*
X257020Y229200D01*
X264100Y256200D02*
Y286300D01*
X263900Y286500D02*
X264100Y286300D01*
X204800Y220780D02*
Y225000D01*
X204000Y219980D02*
X204800Y220780D01*
X252500Y72500D02*
X266500D01*
X243500Y63500D02*
X252500Y72500D01*
X243500Y45550D02*
Y63500D01*
X286500Y119653D02*
X287653Y118500D01*
X295280D01*
X286500Y119653D02*
Y133000D01*
X311900Y169400D02*
Y208869D01*
X326542Y223511D01*
X307900Y165400D02*
X311900Y169400D01*
X276400Y165400D02*
X307900D01*
X267000Y156000D02*
X276400Y165400D01*
X267000Y143500D02*
Y156000D01*
X243500Y9000D02*
Y23700D01*
D64*
X17900Y115954D02*
X17954Y115900D01*
X21800D01*
X50000Y83200D02*
X54847D01*
X54900Y83254D01*
X117567Y165833D02*
X117767D01*
X114300Y169100D02*
X117567Y165833D01*
X127834Y156166D02*
X130700Y153300D01*
X127166Y156166D02*
X127834D01*
X117734Y146366D02*
X120500Y143600D01*
X117266Y146366D02*
X117734D01*
X89777Y106500D02*
X89977Y106300D01*
X96200D01*
X97100Y105400D01*
Y100047D02*
Y105400D01*
X88800Y112440D02*
X89777Y111463D01*
Y106500D02*
Y111463D01*
X88800Y112440D02*
Y112600D01*
X93560D02*
X93660Y112700D01*
X88800Y112600D02*
X93560D01*
X251460Y118500D02*
X267721D01*
X251260Y118300D02*
X251460Y118500D01*
X251100Y118300D02*
X251260D01*
X329400Y75400D02*
Y93500D01*
X303000Y49000D02*
X329400Y75400D01*
X252600Y219600D02*
X253700Y220700D01*
X257020D01*
X271000Y193400D02*
Y201700D01*
X270900Y201800D02*
X271000Y201700D01*
X268400Y206600D02*
X269800D01*
X271000Y205400D01*
Y201900D02*
Y205400D01*
X270900Y201800D02*
X271000Y201900D01*
D65*
X118133Y167533D02*
X118167D01*
X44000Y164700D02*
X44200D01*
X39600Y169100D02*
X44000Y164700D01*
D66*
X163686Y178486D02*
X277886D01*
X286500Y187100D02*
Y197400D01*
X277886Y178486D02*
X286500Y187100D01*
X139272Y178213D02*
X143646Y182586D01*
X135094Y174034D02*
X139272Y178213D01*
X133500Y175500D02*
Y175850D01*
X139272Y178213D02*
Y178213D01*
X131969Y177031D02*
Y177381D01*
X133500Y175850D02*
X141750Y184100D01*
X110559Y197772D02*
X112087Y199300D01*
X141200D01*
X141300Y199400D01*
X112047Y196199D02*
X113648Y197800D01*
X175300D02*
X186100Y187000D01*
X113648Y197800D02*
X175300D01*
X173219Y202600D02*
X186819Y189000D01*
X100800Y202600D02*
X173219D01*
X96800Y198600D02*
X100800Y202600D01*
X118900Y189000D02*
X118950Y189050D01*
X102700Y201200D02*
X173400D01*
X186600Y188000D01*
X98500Y197000D02*
X102700Y201200D01*
X139988Y185400D02*
X270165D01*
X272665Y182900D01*
X131969Y177381D02*
X139988Y185400D01*
X186600Y188000D02*
X281465D01*
X186100Y187000D02*
X277000D01*
X278128Y185872D01*
X144943Y159743D02*
X163686Y178486D01*
X141644Y159743D02*
X144943D01*
X141100Y155200D02*
X142900D01*
X164400Y176700D02*
X237100D01*
X142900Y155200D02*
X164400Y176700D01*
X130500Y136800D02*
Y140300D01*
X164600Y174400D02*
X237400D01*
X130500Y140300D02*
X164600Y174400D01*
X141750Y184100D02*
X269300D01*
X143646Y182586D02*
X264600D01*
X269300Y184100D02*
X270500Y182900D01*
X61400Y168000D02*
X62900D01*
X62900Y168000D01*
X112050Y136600D02*
X115400D01*
X110350Y134900D02*
X112050Y136600D01*
X109600Y134900D02*
X110350D01*
X264052Y92248D02*
X290948D01*
X265200Y34400D02*
Y66500D01*
X290948Y92248D01*
X303000D01*
X265200Y34400D02*
X281600Y18000D01*
X290100Y5700D02*
X302948D01*
X303000Y5752D01*
X281600Y14200D02*
X290100Y5700D01*
X281600Y14200D02*
Y18000D01*
X224439Y131861D02*
X264052Y92248D01*
X125539Y131861D02*
X224439D01*
X125400Y132000D02*
X125539Y131861D01*
X109600Y133600D02*
Y134900D01*
X109076Y133076D02*
X109600Y133600D01*
X109076Y130400D02*
Y133076D01*
X107500Y137000D02*
X107500D01*
X109600Y134900D01*
X117077Y134923D02*
X117188D01*
X115400Y136600D02*
X117077Y134923D01*
X286500Y197400D02*
X308000Y218900D01*
X141500Y159600D02*
X141644Y159743D01*
X265400Y252500D02*
X267735D01*
X269445Y251186D02*
Y251693D01*
X269720Y250911D02*
X270985D01*
X269445Y251186D02*
X269720Y250911D01*
X270465Y249656D02*
X273955Y246166D01*
X269445Y251693D02*
X269900Y252147D01*
X269199Y249656D02*
X270465D01*
X268189Y250666D02*
X269199Y249656D01*
X275211Y244321D02*
Y246686D01*
X273955Y243801D02*
Y246166D01*
X269900Y252147D02*
Y252500D01*
X270150D01*
X270985Y250911D02*
X275211Y246686D01*
X267735Y252147D02*
Y252500D01*
X268189Y250666D02*
Y251693D01*
X267735Y252147D02*
X268189Y251693D01*
X186819Y189000D02*
X277100D01*
X281465Y188000D02*
X281500Y188035D01*
X278128Y185872D02*
X281382D01*
X277100Y189000D02*
X278300Y190200D01*
X281500D01*
X59000Y170400D02*
Y170400D01*
Y170400D02*
X61400Y168000D01*
X279100Y246200D02*
X281900Y249000D01*
X278363Y240339D02*
X284144Y246120D01*
X282888Y249000D02*
X284144Y247744D01*
X281900Y249000D02*
X282888D01*
X284068Y231307D02*
X290193D01*
X283121Y230360D02*
X284068Y231307D01*
X290893Y236893D02*
X292000Y238000D01*
X284068Y236893D02*
X290893D01*
X283121Y237840D02*
X284068Y236893D01*
X290193Y231307D02*
X292000Y229500D01*
X282039Y230360D02*
X283121D01*
X282039Y237840D02*
X283121D01*
X275850Y234728D02*
X276245Y235123D01*
Y241511D01*
X275187Y235002D02*
Y236893D01*
X274240Y237840D02*
X275187Y236893D01*
X275462Y234728D02*
X275850D01*
X275187Y235002D02*
X275462Y234728D01*
X273955Y243801D02*
X276245Y241511D01*
X273279Y237840D02*
X274240D01*
X259100Y246200D02*
X265400Y252500D01*
X273850Y256200D02*
X274100D01*
X270150Y252500D02*
X273850Y256200D01*
X277501Y234603D02*
Y242031D01*
X275462Y233472D02*
X276370D01*
X277501Y234603D01*
X275211Y244321D02*
X277501Y242031D01*
X275187Y233198D02*
X275462Y233472D01*
X275187Y231307D02*
Y233198D01*
X273279Y230360D02*
X274240D01*
X275187Y231307D01*
X266568Y234356D02*
X266843Y234082D01*
X269164Y234728D02*
X273004D01*
Y233472D02*
X273279Y233198D01*
X266843Y234082D02*
X268518D01*
X264480Y237700D02*
X266568Y235612D01*
X269685Y233472D02*
X273004D01*
X268518Y234082D02*
X269164Y234728D01*
X269039Y232826D02*
X269685Y233472D01*
X266568Y234356D02*
Y235612D01*
X266854Y232826D02*
X269039D01*
X266580Y232552D02*
X266854Y232826D01*
X273004Y234728D02*
X273279Y235002D01*
X266580Y231280D02*
Y232552D01*
X264500Y229200D02*
X266580Y231280D01*
X273279Y235002D02*
Y237840D01*
Y230360D02*
Y233198D01*
X281534Y253634D02*
X284100Y256200D01*
X283088Y250576D02*
X285400Y248264D01*
X283088Y250576D02*
Y250576D01*
X281534Y252130D02*
Y253634D01*
Y252130D02*
X283088Y250576D01*
X285400Y245600D02*
Y248264D01*
X280282Y236083D02*
X282039Y237840D01*
X279894Y236083D02*
X280282D01*
X279619Y239819D02*
X285400Y245600D01*
X279619Y236358D02*
X279894Y236083D01*
X279619Y236358D02*
Y239819D01*
X284144Y246120D02*
Y247744D01*
X280229Y232169D02*
X282039Y230360D01*
X278363Y235838D02*
X280229Y233972D01*
Y232169D02*
Y233972D01*
X278363Y235838D02*
Y240339D01*
D68*
X284100Y256200D02*
D03*
D69*
X279100Y246200D02*
D03*
X274100Y256200D02*
D03*
X269100Y246200D02*
D03*
X264100Y256200D02*
D03*
X259100Y246200D02*
D03*
X254100Y256200D02*
D03*
X249100Y246200D02*
D03*
D70*
X291500Y300500D02*
D03*
X281500Y294500D02*
D03*
X251600Y300500D02*
D03*
X241600Y294500D02*
D03*
D71*
X235600Y269200D02*
D03*
X297600D02*
D03*
D72*
X244100Y281200D02*
D03*
X289100D02*
D03*
D73*
X106504Y271609D02*
D03*
X101051Y282790D02*
D03*
X95598Y271609D02*
D03*
X90146Y282790D02*
D03*
X84693Y271609D02*
D03*
X79240Y282790D02*
D03*
X73787Y271609D02*
D03*
X68335Y282790D02*
D03*
X63142Y43181D02*
D03*
X68594Y32000D02*
D03*
X74047Y43181D02*
D03*
X79500Y32000D02*
D03*
X84953Y43181D02*
D03*
X90405Y32000D02*
D03*
X95858Y43181D02*
D03*
X101311Y32000D02*
D03*
D74*
X62882Y271609D02*
D03*
X106764Y43181D02*
D03*
D75*
X35500Y277200D02*
D03*
X133886D02*
D03*
X134146Y37591D02*
D03*
X35760D02*
D03*
D76*
X17200Y222700D02*
D03*
X7700Y209800D02*
D03*
X158800Y29500D02*
D03*
D77*
X7200Y222700D02*
D03*
X17200Y232700D02*
D03*
X7200D02*
D03*
X17200Y242700D02*
D03*
X7200D02*
D03*
X7700Y179800D02*
D03*
Y189800D02*
D03*
Y199800D02*
D03*
X81400Y66300D02*
D03*
Y56300D02*
D03*
X71400Y66300D02*
D03*
Y56300D02*
D03*
X61400Y66300D02*
D03*
Y56300D02*
D03*
X51400Y66300D02*
D03*
X130100Y259800D02*
D03*
X158800Y19500D02*
D03*
D78*
X8426Y83096D02*
D03*
X16300D02*
D03*
X8426Y75222D02*
D03*
X16300D02*
D03*
X8426Y67348D02*
D03*
X16300D02*
D03*
X8426Y59474D02*
D03*
X16300D02*
D03*
X8426Y51600D02*
D03*
X16300D02*
D03*
X8426Y43726D02*
D03*
X16300D02*
D03*
X8426Y35852D02*
D03*
X16300D02*
D03*
X8426Y27978D02*
D03*
X16300D02*
D03*
X308926Y247300D02*
D03*
X324674D02*
D03*
D79*
X51400Y56300D02*
D03*
X140100Y259800D02*
D03*
D80*
X176000Y9000D02*
D03*
X166000D02*
D03*
X243500D02*
D03*
X253500D02*
D03*
X211000D02*
D03*
X221000D02*
D03*
X188500D02*
D03*
X198500D02*
D03*
D81*
X176100Y292900D02*
D03*
X193423D02*
D03*
D82*
X322000Y118000D02*
D03*
Y137685D02*
D03*
D83*
X326542Y223511D02*
D03*
Y154613D02*
D03*
D84*
X10500Y10500D02*
D03*
X328000D02*
D03*
Y304500D02*
D03*
X10500D02*
D03*
D85*
X151500Y273500D02*
D03*
X168000Y271500D02*
D03*
X167500Y259000D02*
D03*
X153500Y260000D02*
D03*
X278000Y197500D02*
D03*
X217525Y228868D02*
D03*
X222000Y203500D02*
D03*
X222500Y213000D02*
D03*
X110000Y159500D02*
D03*
X102712Y154421D02*
D03*
X87000Y164500D02*
D03*
X94000Y175500D02*
D03*
X102500Y183500D02*
D03*
X196500Y167000D02*
D03*
X191500Y162500D02*
D03*
X184000D02*
D03*
X241500Y161500D02*
D03*
X222000Y168000D02*
D03*
X187500Y123500D02*
D03*
X196000Y124000D02*
D03*
X137000Y136500D02*
D03*
X134500Y116500D02*
D03*
X117000Y72500D02*
D03*
X116000Y59500D02*
D03*
X128500Y68500D02*
D03*
X136000Y57000D02*
D03*
X125500Y58000D02*
D03*
X128000Y114000D02*
D03*
X140000Y113000D02*
D03*
X187500Y81500D02*
D03*
X187000Y90500D02*
D03*
X250000Y84500D02*
D03*
X256500Y92000D02*
D03*
X258500Y82000D02*
D03*
X251500Y58500D02*
D03*
X204500Y21000D02*
D03*
X183000Y15000D02*
D03*
X141500Y27000D02*
D03*
X106000Y26000D02*
D03*
X98000Y26500D02*
D03*
X94500Y61000D02*
D03*
X93000Y67000D02*
D03*
X116500Y271000D02*
D03*
X112500Y276500D02*
D03*
X20000Y254500D02*
D03*
X39000Y260500D02*
D03*
X28500Y260000D02*
D03*
X34000Y246000D02*
D03*
X40500D02*
D03*
X59000Y247000D02*
D03*
X69000Y246000D02*
D03*
X75000Y246500D02*
D03*
X83500Y246000D02*
D03*
X90000D02*
D03*
X95500Y247000D02*
D03*
X105000D02*
D03*
X110000Y248000D02*
D03*
X124000Y250000D02*
D03*
X98000Y263000D02*
D03*
X90500Y267000D02*
D03*
X83000Y259500D02*
D03*
X78000Y263500D02*
D03*
X270000Y225000D02*
D03*
X291500Y223000D02*
D03*
X288500Y219500D02*
D03*
X285500Y216500D02*
D03*
X279500Y225000D02*
D03*
X295000Y260000D02*
D03*
X292000Y264000D02*
D03*
X86000Y16500D02*
D03*
X95000D02*
D03*
X103500Y15000D02*
D03*
X112000Y16000D02*
D03*
X117500Y11000D02*
D03*
X107000D02*
D03*
X99500Y11500D02*
D03*
X92000Y12000D02*
D03*
X9000Y171000D02*
D03*
X31000Y165500D02*
D03*
X30000Y172500D02*
D03*
X32000Y179500D02*
D03*
X51500Y188500D02*
D03*
X47500Y195000D02*
D03*
X40000Y194000D02*
D03*
X34000Y190500D02*
D03*
X29000Y195000D02*
D03*
X30000Y207000D02*
D03*
X156000Y293000D02*
D03*
X146500Y291500D02*
D03*
X136000Y293500D02*
D03*
X126500Y293000D02*
D03*
X132000Y299000D02*
D03*
X142000Y299500D02*
D03*
X148500D02*
D03*
X157500D02*
D03*
X153000Y305000D02*
D03*
X145500D02*
D03*
X134500D02*
D03*
X179500Y299500D02*
D03*
X187500Y299000D02*
D03*
X193000Y299500D02*
D03*
X212500Y292000D02*
D03*
X213000Y300500D02*
D03*
Y305500D02*
D03*
X232500Y302500D02*
D03*
X271000Y282000D02*
D03*
X278000Y286000D02*
D03*
X277000Y277500D02*
D03*
X272500Y275000D02*
D03*
X271500Y268000D02*
D03*
X278500Y267500D02*
D03*
X287500D02*
D03*
X314500Y309500D02*
D03*
X312000Y281000D02*
D03*
X312500Y273000D02*
D03*
X318500Y267500D02*
D03*
X312500Y264500D02*
D03*
X308000D02*
D03*
X310000Y255000D02*
D03*
X316000Y255500D02*
D03*
X325500Y211000D02*
D03*
X319000Y202500D02*
D03*
X325000D02*
D03*
X326000Y195500D02*
D03*
X318500Y194000D02*
D03*
X320500Y185500D02*
D03*
X325500Y185000D02*
D03*
Y177000D02*
D03*
X319500Y176000D02*
D03*
X321000Y169000D02*
D03*
X325500Y168500D02*
D03*
X318500Y127000D02*
D03*
X325000Y126500D02*
D03*
X333000Y76000D02*
D03*
X319500Y94000D02*
D03*
X325500Y95000D02*
D03*
X333500Y98000D02*
D03*
X241000Y3500D02*
D03*
X247500D02*
D03*
X251500Y14500D02*
D03*
X258000Y12000D02*
D03*
X260500Y5500D02*
D03*
X36500Y9500D02*
D03*
X26000Y13500D02*
D03*
X24500Y5500D02*
D03*
X32500D02*
D03*
X42500Y5000D02*
D03*
X53500Y5500D02*
D03*
X47000Y11500D02*
D03*
X39000Y16000D02*
D03*
X54500Y15000D02*
D03*
X60000Y11000D02*
D03*
X67000Y4500D02*
D03*
X6000Y252000D02*
D03*
Y261000D02*
D03*
X5500Y266500D02*
D03*
X10500Y267500D02*
D03*
X16500Y267000D02*
D03*
X15000Y277000D02*
D03*
X9500Y275000D02*
D03*
X18000Y272500D02*
D03*
X21000Y277000D02*
D03*
X17000Y282500D02*
D03*
X10000Y281000D02*
D03*
Y289000D02*
D03*
X22500Y289500D02*
D03*
X29000Y293500D02*
D03*
X28500Y298500D02*
D03*
X36000Y298000D02*
D03*
X45000D02*
D03*
X52000D02*
D03*
X61500D02*
D03*
X65500D02*
D03*
X75500D02*
D03*
X81000Y297500D02*
D03*
X88000Y298000D02*
D03*
X93500Y298500D02*
D03*
X99500D02*
D03*
X106000Y299000D02*
D03*
X108500Y304500D02*
D03*
X103000Y304000D02*
D03*
X97000D02*
D03*
X92000Y304500D02*
D03*
X86500D02*
D03*
X80000Y305000D02*
D03*
X75500D02*
D03*
X71000D02*
D03*
X66000D02*
D03*
X61500D02*
D03*
X56000D02*
D03*
X50500D02*
D03*
X45500D02*
D03*
X40500Y305500D02*
D03*
X35500D02*
D03*
X30000D02*
D03*
X24500D02*
D03*
X117500Y310500D02*
D03*
X112000Y310000D02*
D03*
X105500D02*
D03*
X99000D02*
D03*
X93500D02*
D03*
X88500D02*
D03*
X83000D02*
D03*
X78000D02*
D03*
X73000D02*
D03*
X68500D02*
D03*
X63000D02*
D03*
X58000D02*
D03*
X53000D02*
D03*
X47500D02*
D03*
X42500D02*
D03*
X37500D02*
D03*
X32500D02*
D03*
X27500D02*
D03*
X223000Y157600D02*
D03*
X207600Y224700D02*
D03*
Y227200D02*
D03*
X207700Y229700D02*
D03*
X204900Y229800D02*
D03*
X204800Y227447D02*
D03*
X129400Y226800D02*
D03*
X129500Y224100D02*
D03*
X132600Y226900D02*
D03*
X132700Y224300D02*
D03*
X135700Y226800D02*
D03*
X108500Y227000D02*
D03*
X105400Y227100D02*
D03*
X108500Y230600D02*
D03*
X105300Y230700D02*
D03*
X108400Y233300D02*
D03*
X22700Y211800D02*
D03*
X18600D02*
D03*
X20800Y214500D02*
D03*
X17100D02*
D03*
X19100Y217200D02*
D03*
X15500D02*
D03*
X23200Y168100D02*
D03*
X19400Y168000D02*
D03*
X23200Y165200D02*
D03*
X19400Y165100D02*
D03*
X23200Y162100D02*
D03*
X19300Y162000D02*
D03*
X14800Y130800D02*
D03*
X11700Y130600D02*
D03*
X14500Y128200D02*
D03*
X11700Y128000D02*
D03*
Y125200D02*
D03*
X14300Y125100D02*
D03*
X46000Y75500D02*
D03*
Y78500D02*
D03*
X44500Y81500D02*
D03*
X119000Y154500D02*
D03*
X116500Y156500D02*
D03*
X111000Y147000D02*
D03*
X109000Y149000D02*
D03*
X99500Y126000D02*
D03*
X102000Y131500D02*
D03*
X99500D02*
D03*
X102000Y129000D02*
D03*
X99500D02*
D03*
X102000Y126000D02*
D03*
X91500Y88000D02*
D03*
X101000Y91000D02*
D03*
X94000Y89000D02*
D03*
X99500Y88500D02*
D03*
X98000Y78000D02*
D03*
X94000Y77500D02*
D03*
X100500Y72000D02*
D03*
X97000D02*
D03*
X94500Y75000D02*
D03*
X109500Y58500D02*
D03*
X106500Y56500D02*
D03*
X104000Y54500D02*
D03*
X101000Y53000D02*
D03*
X109500Y62000D02*
D03*
X106500Y60500D02*
D03*
X104000Y58500D02*
D03*
X102000Y56500D02*
D03*
X99500Y55000D02*
D03*
X97500Y53500D02*
D03*
X198607Y28640D02*
D03*
X199000Y31500D02*
D03*
X201500D02*
D03*
X204500D02*
D03*
X208000D02*
D03*
X252500Y241000D02*
D03*
Y238000D02*
D03*
X250000D02*
D03*
X245500Y218000D02*
D03*
X248000Y197835D02*
D03*
X262000Y267000D02*
D03*
X265500D02*
D03*
Y264000D02*
D03*
X262000D02*
D03*
X265500Y261500D02*
D03*
X262000D02*
D03*
X51100Y152900D02*
D03*
X53300Y151100D02*
D03*
X53000Y154800D02*
D03*
X54900Y156700D02*
D03*
X57100Y155100D02*
D03*
X184700Y237400D02*
D03*
X194100Y229000D02*
D03*
X21800Y115900D02*
D03*
X33200Y81900D02*
D03*
X50000Y83200D02*
D03*
X27300Y62300D02*
D03*
X114300Y169100D02*
D03*
X130700Y153300D02*
D03*
X120500Y143600D02*
D03*
X107900Y146600D02*
D03*
X118600Y157500D02*
D03*
X123500Y129200D02*
D03*
X142100Y167600D02*
D03*
X120200Y79000D02*
D03*
X208000Y34500D02*
D03*
X204700Y34540D02*
D03*
X202000D02*
D03*
X199000Y34500D02*
D03*
X208000Y28500D02*
D03*
X204500D02*
D03*
X201800Y28640D02*
D03*
X210600Y100200D02*
D03*
X210400Y97200D02*
D03*
X302800Y221300D02*
D03*
X300600Y221400D02*
D03*
X298200D02*
D03*
X302800Y223800D02*
D03*
X300500D02*
D03*
X298300Y223900D02*
D03*
X218800Y100300D02*
D03*
X216100Y100100D02*
D03*
X213300Y100200D02*
D03*
X218900Y97100D02*
D03*
X215900Y97300D02*
D03*
X213200D02*
D03*
X30800Y98700D02*
D03*
X39000Y113900D02*
D03*
X39100Y106600D02*
D03*
X22569Y122569D02*
D03*
X39100Y135800D02*
D03*
X16300Y95400D02*
D03*
X39100Y131600D02*
D03*
Y109600D02*
D03*
Y118300D02*
D03*
X39000Y126600D02*
D03*
X54300Y125000D02*
D03*
X71700Y162300D02*
D03*
X80100Y170500D02*
D03*
X81577Y172083D02*
D03*
X55300Y153300D02*
D03*
X56700Y130000D02*
D03*
X58900Y132100D02*
D03*
X47800Y126400D02*
D03*
X60987Y147627D02*
D03*
X59400Y149100D02*
D03*
X81800Y101600D02*
D03*
X79100Y81100D02*
D03*
X76600D02*
D03*
X72815Y110900D02*
D03*
X74600Y91500D02*
D03*
X91600Y117400D02*
D03*
X86100D02*
D03*
X186800Y43700D02*
D03*
X41600Y81273D02*
D03*
X52400Y71200D02*
D03*
X35800Y81800D02*
D03*
X86200Y120200D02*
D03*
X86300Y123100D02*
D03*
X70871Y128429D02*
D03*
X72400Y136900D02*
D03*
X70922Y138483D02*
D03*
X76600Y133000D02*
D03*
X80800Y128700D02*
D03*
X110200Y171800D02*
D03*
X110283Y174026D02*
D03*
X92500Y131700D02*
D03*
X109076Y130400D02*
D03*
X57583Y163983D02*
D03*
X139400Y170600D02*
D03*
X118900Y189000D02*
D03*
X98500Y197000D02*
D03*
X114266Y120055D02*
D03*
X96800Y198600D02*
D03*
X110559Y197772D02*
D03*
X101300Y118800D02*
D03*
X92000Y139500D02*
D03*
X131969Y177031D02*
D03*
X113700Y194800D02*
D03*
X126300Y182500D02*
D03*
X141100Y155200D02*
D03*
X77900Y200700D02*
D03*
X130500Y136800D02*
D03*
X62900Y168000D02*
D03*
X61700Y175300D02*
D03*
X133500Y175500D02*
D03*
X64400Y175300D02*
D03*
X66900Y175200D02*
D03*
X136000Y142200D02*
D03*
X69500Y175300D02*
D03*
X130416Y178685D02*
D03*
X135094Y174034D02*
D03*
X127831Y180969D02*
D03*
X112047Y196199D02*
D03*
X79483Y202177D02*
D03*
X111100Y117100D02*
D03*
X141500Y159600D02*
D03*
X141800Y148000D02*
D03*
X112593Y118669D02*
D03*
X45300Y62800D02*
D03*
X84100Y96100D02*
D03*
X81935D02*
D03*
X153300Y174600D02*
D03*
X13500Y122600D02*
D03*
X135700Y224300D02*
D03*
X141300Y199400D02*
D03*
X114400Y204200D02*
D03*
X167700Y194965D02*
D03*
X158200D02*
D03*
X105300Y233400D02*
D03*
X99800Y144600D02*
D03*
X88800Y112600D02*
D03*
X39600Y169100D02*
D03*
X45300Y173900D02*
D03*
X146100Y191300D02*
D03*
X157900Y190600D02*
D03*
X150200Y187200D02*
D03*
X171100Y187400D02*
D03*
X135900Y78400D02*
D03*
X171752Y43852D02*
D03*
X166752D02*
D03*
X89800Y222500D02*
D03*
X29682Y222550D02*
D03*
X59600Y222500D02*
D03*
X49700D02*
D03*
X79800D02*
D03*
X39700D02*
D03*
X99700D02*
D03*
X69800D02*
D03*
X143300Y176600D02*
D03*
X173900Y172100D02*
D03*
X174000Y191000D02*
D03*
X167500Y172100D02*
D03*
X21200Y173500D02*
D03*
X97200Y74900D02*
D03*
X97100Y88600D02*
D03*
X178500Y84600D02*
D03*
X208700Y283000D02*
D03*
X209200Y212500D02*
D03*
X198700Y191700D02*
D03*
X182500Y237300D02*
D03*
X196400Y228700D02*
D03*
X182200Y232300D02*
D03*
X196400Y234900D02*
D03*
X278400Y183000D02*
D03*
X297600Y172300D02*
D03*
X196000Y117500D02*
D03*
X220500Y81800D02*
D03*
X214500Y43900D02*
D03*
X271500Y24200D02*
D03*
X329400Y93500D02*
D03*
X271300Y87300D02*
D03*
X251100Y118300D02*
D03*
X231100Y115200D02*
D03*
X237400Y165200D02*
D03*
X252900Y180400D02*
D03*
X289200Y214900D02*
D03*
X255400Y216000D02*
D03*
X223200Y245300D02*
D03*
X227700Y222700D02*
D03*
X252600Y219600D02*
D03*
X276300Y206500D02*
D03*
X268400Y206600D02*
D03*
X287100Y234000D02*
D03*
X320100Y227600D02*
D03*
X178100Y261000D02*
D03*
X200900Y264900D02*
D03*
X124700Y209200D02*
D03*
X105500Y255638D02*
D03*
Y257803D02*
D03*
X117400Y249500D02*
D03*
X154300Y139000D02*
D03*
X176400Y165300D02*
D03*
X237400Y174400D02*
D03*
X237100Y176700D02*
D03*
X248300Y190700D02*
D03*
X281382Y185872D02*
D03*
X281500Y188035D02*
D03*
X262600Y207000D02*
D03*
X281500Y190200D02*
D03*
X248000Y200000D02*
D03*
X278267Y216200D02*
D03*
X280433D02*
D03*
X270500Y220700D02*
D03*
X258700Y205700D02*
D03*
X258800Y193200D02*
D03*
X256200Y180000D02*
D03*
X264600Y182586D02*
D03*
X270500Y182900D02*
D03*
X272665D02*
D03*
X308000Y218900D02*
D03*
X179500Y169500D02*
D03*
X177100Y188800D02*
D03*
X267735Y252500D02*
D03*
X269900D02*
D03*
X179500Y190500D02*
D03*
X258900Y291300D02*
D03*
X146900Y228900D02*
D03*
X149100D02*
D03*
X204800Y225000D02*
D03*
X175701Y219300D02*
D03*
X196400Y237400D02*
D03*
X120800Y219500D02*
D03*
X144200Y217800D02*
D03*
X74900Y85400D02*
D03*
X145600Y19944D02*
D03*
Y22109D02*
D03*
X135200Y254735D02*
D03*
Y256900D02*
D03*
X209500Y59500D02*
D03*
X266500Y72500D02*
D03*
X286500Y133000D02*
D03*
X274533Y216100D02*
D03*
X272367D02*
D03*
D86*
X139400Y170600D02*
X143300Y174500D01*
Y176600D01*
D87*
X230900Y259424D02*
D03*
Y248400D02*
D03*
X240800Y248388D02*
D03*
Y259412D02*
D03*
D88*
X303000Y92248D02*
D03*
Y5752D02*
D03*
D89*
Y49000D02*
D03*
D90*
X117767Y165833D02*
D03*
X122500Y161100D02*
D03*
X107500Y137000D02*
D03*
X102767Y141733D02*
D03*
D91*
X44200Y164700D02*
D03*
X49489Y159411D02*
D03*
D92*
X54366Y174966D02*
D03*
X49634Y170234D02*
D03*
X59000Y170400D02*
D03*
X54267Y165667D02*
D03*
X122434Y151434D02*
D03*
X127166Y156166D02*
D03*
X112534Y141634D02*
D03*
X117266Y146366D02*
D03*
D93*
X125400Y132000D02*
D03*
X120111Y126711D02*
D03*
X117188Y134923D02*
D03*
D94*
X296134Y143500D02*
D03*
X267000D02*
D03*
D95*
X283121Y237840D02*
D03*
Y234100D02*
D03*
Y230360D02*
D03*
X273279D02*
D03*
Y237840D02*
D03*
D96*
X243500Y23700D02*
D03*
Y45550D02*
D03*
D97*
X296434Y143200D02*
X316272D01*
X296134Y143500D02*
X296434Y143200D01*
X316272D02*
X321787Y137685D01*
X322000D01*
M02*
