G04*
G04 #@! TF.GenerationSoftware,Altium Limited,Altium Designer,21.3.2 (30)*
G04*
G04 Layer_Physical_Order=2*
G04 Layer_Color=36540*
%FSLAX25Y25*%
%MOIN*%
G70*
G04*
G04 #@! TF.SameCoordinates,6B7675C1-BEDD-4D56-80B4-810BFE634478*
G04*
G04*
G04 #@! TF.FilePolarity,Positive*
G04*
G01*
G75*
%ADD69C,0.05600*%
%ADD73C,0.06653*%
%ADD76R,0.05906X0.05906*%
%ADD77C,0.05906*%
%ADD78C,0.05118*%
%ADD80C,0.04331*%
%ADD82C,0.08661*%
%ADD85C,0.01772*%
G36*
X338400Y100D02*
X0D01*
Y314900D01*
X338400D01*
Y100D01*
D02*
G37*
%LPC*%
G36*
X291947Y303894D02*
X291053D01*
X290190Y303662D01*
X289416Y303216D01*
X288784Y302584D01*
X288338Y301810D01*
X288106Y300947D01*
Y300053D01*
X288338Y299190D01*
X288784Y298416D01*
X289416Y297784D01*
X290190Y297338D01*
X291053Y297106D01*
X291947D01*
X292810Y297338D01*
X293584Y297784D01*
X294216Y298416D01*
X294662Y299190D01*
X294894Y300053D01*
Y300947D01*
X294662Y301810D01*
X294216Y302584D01*
X293584Y303216D01*
X292810Y303662D01*
X291947Y303894D01*
D02*
G37*
G36*
X252047D02*
X251153D01*
X250290Y303662D01*
X249516Y303216D01*
X248884Y302584D01*
X248438Y301810D01*
X248206Y300947D01*
Y300053D01*
X248438Y299190D01*
X248884Y298416D01*
X249516Y297784D01*
X250290Y297338D01*
X251153Y297106D01*
X252047D01*
X252910Y297338D01*
X253684Y297784D01*
X254316Y298416D01*
X254762Y299190D01*
X254994Y300053D01*
Y300947D01*
X254762Y301810D01*
X254316Y302584D01*
X253684Y303216D01*
X252910Y303662D01*
X252047Y303894D01*
D02*
G37*
G36*
X328814Y312768D02*
X327186D01*
X325588Y312450D01*
X324084Y311827D01*
X322730Y310922D01*
X321578Y309770D01*
X320673Y308416D01*
X320050Y306912D01*
X319732Y305314D01*
Y303686D01*
X320050Y302088D01*
X320673Y300584D01*
X321578Y299230D01*
X322730Y298078D01*
X324084Y297173D01*
X325588Y296550D01*
X327186Y296232D01*
X328814D01*
X330412Y296550D01*
X331916Y297173D01*
X333270Y298078D01*
X334422Y299230D01*
X335327Y300584D01*
X335950Y302088D01*
X336268Y303686D01*
Y305314D01*
X335950Y306912D01*
X335327Y308416D01*
X334422Y309770D01*
X333270Y310922D01*
X331916Y311827D01*
X330412Y312450D01*
X328814Y312768D01*
D02*
G37*
G36*
X11314D02*
X9686D01*
X8088Y312450D01*
X6584Y311827D01*
X5230Y310922D01*
X4078Y309770D01*
X3173Y308416D01*
X2550Y306912D01*
X2232Y305314D01*
Y303686D01*
X2550Y302088D01*
X3173Y300584D01*
X4078Y299230D01*
X5230Y298078D01*
X6584Y297173D01*
X8088Y296550D01*
X9686Y296232D01*
X11314D01*
X12912Y296550D01*
X14416Y297173D01*
X15770Y298078D01*
X16922Y299230D01*
X17827Y300584D01*
X18450Y302088D01*
X18768Y303686D01*
Y305314D01*
X18450Y306912D01*
X17827Y308416D01*
X16922Y309770D01*
X15770Y310922D01*
X14416Y311827D01*
X12912Y312450D01*
X11314Y312768D01*
D02*
G37*
G36*
X281947Y297894D02*
X281053D01*
X280190Y297662D01*
X279416Y297216D01*
X278784Y296584D01*
X278338Y295810D01*
X278106Y294947D01*
Y294053D01*
X278338Y293190D01*
X278784Y292416D01*
X279416Y291784D01*
X280190Y291338D01*
X281053Y291106D01*
X281947D01*
X282810Y291338D01*
X283584Y291784D01*
X284216Y292416D01*
X284662Y293190D01*
X284894Y294053D01*
Y294947D01*
X284662Y295810D01*
X284216Y296584D01*
X283584Y297216D01*
X282810Y297662D01*
X281947Y297894D01*
D02*
G37*
G36*
X242047D02*
X241153D01*
X240290Y297662D01*
X239516Y297216D01*
X238884Y296584D01*
X238438Y295810D01*
X238206Y294947D01*
Y294053D01*
X238438Y293190D01*
X238884Y292416D01*
X239516Y291784D01*
X240290Y291338D01*
X241153Y291106D01*
X242047D01*
X242910Y291338D01*
X243684Y291784D01*
X244316Y292416D01*
X244762Y293190D01*
X244994Y294053D01*
Y294947D01*
X244762Y295810D01*
X244316Y296584D01*
X243684Y297216D01*
X242910Y297662D01*
X242047Y297894D01*
D02*
G37*
G36*
X193893Y295262D02*
X192953D01*
X192085Y294903D01*
X191420Y294238D01*
X191061Y293370D01*
Y292430D01*
X191420Y291562D01*
X192085Y290897D01*
X192953Y290538D01*
X193893D01*
X194761Y290897D01*
X195425Y291562D01*
X195785Y292430D01*
Y293370D01*
X195425Y294238D01*
X194761Y294903D01*
X193893Y295262D01*
D02*
G37*
G36*
X176570D02*
X175630D01*
X174762Y294903D01*
X174097Y294238D01*
X173738Y293370D01*
Y292430D01*
X174097Y291562D01*
X174762Y290897D01*
X175630Y290538D01*
X176570D01*
X177438Y290897D01*
X178103Y291562D01*
X178462Y292430D01*
Y293370D01*
X178103Y294238D01*
X177438Y294903D01*
X176570Y295262D01*
D02*
G37*
G36*
X259155Y292580D02*
X258646D01*
X258175Y292385D01*
X257815Y292025D01*
X257621Y291554D01*
Y291045D01*
X257815Y290575D01*
X258175Y290215D01*
X258646Y290020D01*
X259155D01*
X259625Y290215D01*
X259985Y290575D01*
X260179Y291045D01*
Y291554D01*
X259985Y292025D01*
X259625Y292385D01*
X259155Y292580D01*
D02*
G37*
G36*
X208955Y284279D02*
X208446D01*
X207975Y284085D01*
X207615Y283725D01*
X207420Y283255D01*
Y282746D01*
X207615Y282275D01*
X207975Y281915D01*
X208446Y281720D01*
X208955D01*
X209425Y281915D01*
X209785Y282275D01*
X209980Y282746D01*
Y283255D01*
X209785Y283725D01*
X209425Y284085D01*
X208955Y284279D01*
D02*
G37*
G36*
X101541Y286511D02*
X100561D01*
X99615Y286258D01*
X98767Y285768D01*
X98074Y285075D01*
X97584Y284227D01*
X97331Y283280D01*
Y282301D01*
X97584Y281354D01*
X98074Y280506D01*
X98767Y279813D01*
X99615Y279324D01*
X100561Y279070D01*
X101541D01*
X102487Y279324D01*
X103336Y279813D01*
X104028Y280506D01*
X104518Y281354D01*
X104772Y282301D01*
Y283280D01*
X104518Y284227D01*
X104028Y285075D01*
X103336Y285768D01*
X102487Y286258D01*
X101541Y286511D01*
D02*
G37*
G36*
X90636D02*
X89656D01*
X88710Y286258D01*
X87861Y285768D01*
X87169Y285075D01*
X86679Y284227D01*
X86425Y283280D01*
Y282301D01*
X86679Y281354D01*
X87169Y280506D01*
X87861Y279813D01*
X88710Y279324D01*
X89656Y279070D01*
X90636D01*
X91582Y279324D01*
X92430Y279813D01*
X93123Y280506D01*
X93613Y281354D01*
X93866Y282301D01*
Y283280D01*
X93613Y284227D01*
X93123Y285075D01*
X92430Y285768D01*
X91582Y286258D01*
X90636Y286511D01*
D02*
G37*
G36*
X68824D02*
X67845D01*
X66899Y286258D01*
X66050Y285768D01*
X65358Y285075D01*
X64868Y284227D01*
X64614Y283280D01*
Y282301D01*
X64868Y281354D01*
X65358Y280506D01*
X66050Y279813D01*
X66899Y279324D01*
X67845Y279070D01*
X68824D01*
X69771Y279324D01*
X70619Y279813D01*
X71312Y280506D01*
X71802Y281354D01*
X72055Y282301D01*
Y283280D01*
X71802Y284227D01*
X71312Y285075D01*
X70619Y285768D01*
X69771Y286258D01*
X68824Y286511D01*
D02*
G37*
G36*
X79834Y287298D02*
X78647D01*
X77500Y286991D01*
X76472Y286398D01*
X75633Y285558D01*
X75039Y284530D01*
X74732Y283384D01*
Y282197D01*
X75039Y281051D01*
X75633Y280023D01*
X76472Y279183D01*
X77500Y278590D01*
X78647Y278283D01*
X79834D01*
X80980Y278590D01*
X82008Y279183D01*
X82847Y280023D01*
X83441Y281051D01*
X83748Y282197D01*
Y283384D01*
X83441Y284530D01*
X82847Y285558D01*
X82008Y286398D01*
X80980Y286991D01*
X79834Y287298D01*
D02*
G37*
G36*
X289769Y287994D02*
X288431D01*
X287118Y287733D01*
X285882Y287221D01*
X284769Y286477D01*
X283823Y285531D01*
X283080Y284418D01*
X282567Y283182D01*
X282306Y281869D01*
Y280531D01*
X282567Y279218D01*
X283080Y277982D01*
X283823Y276869D01*
X284769Y275923D01*
X285882Y275180D01*
X287118Y274667D01*
X288431Y274406D01*
X289769D01*
X291082Y274667D01*
X292318Y275180D01*
X293431Y275923D01*
X294377Y276869D01*
X295121Y277982D01*
X295633Y279218D01*
X295894Y280531D01*
Y281869D01*
X295633Y283182D01*
X295121Y284418D01*
X294377Y285531D01*
X293431Y286477D01*
X292318Y287221D01*
X291082Y287733D01*
X289769Y287994D01*
D02*
G37*
G36*
X244769D02*
X243431D01*
X242118Y287733D01*
X240882Y287221D01*
X239769Y286477D01*
X238823Y285531D01*
X238080Y284418D01*
X237567Y283182D01*
X237306Y281869D01*
Y280531D01*
X237567Y279218D01*
X238080Y277982D01*
X238823Y276869D01*
X239769Y275923D01*
X240882Y275180D01*
X242118Y274667D01*
X243431Y274406D01*
X244769D01*
X246082Y274667D01*
X247318Y275180D01*
X248431Y275923D01*
X249377Y276869D01*
X250120Y277982D01*
X250633Y279218D01*
X250894Y280531D01*
Y281869D01*
X250633Y283182D01*
X250120Y284418D01*
X249377Y285531D01*
X248431Y286477D01*
X247318Y287221D01*
X246082Y287733D01*
X244769Y287994D01*
D02*
G37*
G36*
X96088Y275330D02*
X95109D01*
X94162Y275076D01*
X93314Y274587D01*
X92621Y273894D01*
X92132Y273045D01*
X91878Y272099D01*
Y271120D01*
X92132Y270173D01*
X92621Y269325D01*
X93314Y268632D01*
X94162Y268143D01*
X95109Y267889D01*
X96088D01*
X97035Y268143D01*
X97883Y268632D01*
X98576Y269325D01*
X99065Y270173D01*
X99319Y271120D01*
Y272099D01*
X99065Y273045D01*
X98576Y273894D01*
X97883Y274587D01*
X97035Y275076D01*
X96088Y275330D01*
D02*
G37*
G36*
X66602D02*
X59161D01*
Y267889D01*
X66602D01*
Y275330D01*
D02*
G37*
G36*
X134847Y286964D02*
X132924D01*
X131038Y286589D01*
X129261Y285853D01*
X127662Y284784D01*
X126302Y283424D01*
X125233Y281825D01*
X124497Y280048D01*
X124122Y278162D01*
Y276238D01*
X124497Y274352D01*
X125233Y272575D01*
X126302Y270976D01*
X127662Y269616D01*
X129261Y268547D01*
X131038Y267811D01*
X132924Y267436D01*
X134847D01*
X136734Y267811D01*
X138511Y268547D01*
X140110Y269616D01*
X141470Y270976D01*
X142538Y272575D01*
X143274Y274352D01*
X143650Y276238D01*
Y278162D01*
X143274Y280048D01*
X142538Y281825D01*
X141470Y283424D01*
X140110Y284784D01*
X138511Y285853D01*
X136734Y286589D01*
X134847Y286964D01*
D02*
G37*
G36*
X36462D02*
X34538D01*
X32652Y286589D01*
X30875Y285853D01*
X29276Y284784D01*
X27916Y283424D01*
X26847Y281825D01*
X26111Y280048D01*
X25736Y278162D01*
Y276238D01*
X26111Y274352D01*
X26847Y272575D01*
X27916Y270976D01*
X29276Y269616D01*
X30875Y268547D01*
X32652Y267811D01*
X34538Y267436D01*
X36462D01*
X38348Y267811D01*
X40125Y268547D01*
X41724Y269616D01*
X43084Y270976D01*
X44153Y272575D01*
X44889Y274352D01*
X45264Y276238D01*
Y278162D01*
X44889Y280048D01*
X44153Y281825D01*
X43084Y283424D01*
X41724Y284784D01*
X40125Y285853D01*
X38348Y286589D01*
X36462Y286964D01*
D02*
G37*
G36*
X74381Y276117D02*
X73194D01*
X72047Y275810D01*
X71020Y275217D01*
X70180Y274377D01*
X69587Y273349D01*
X69279Y272203D01*
Y271016D01*
X69587Y269869D01*
X70180Y268842D01*
X71020Y268002D01*
X72047Y267409D01*
X73194Y267102D01*
X74381D01*
X75527Y267409D01*
X76555Y268002D01*
X77395Y268842D01*
X77988Y269869D01*
X78295Y271016D01*
Y272203D01*
X77988Y273349D01*
X77395Y274377D01*
X76555Y275217D01*
X75527Y275810D01*
X74381Y276117D01*
D02*
G37*
G36*
X298284Y274394D02*
X296916D01*
X295595Y274040D01*
X294411Y273356D01*
X293444Y272389D01*
X292760Y271205D01*
X292406Y269884D01*
Y268516D01*
X292760Y267195D01*
X293444Y266011D01*
X294411Y265044D01*
X295595Y264360D01*
X296916Y264006D01*
X298284D01*
X299605Y264360D01*
X300789Y265044D01*
X301756Y266011D01*
X302440Y267195D01*
X302794Y268516D01*
Y269884D01*
X302440Y271205D01*
X301756Y272389D01*
X300789Y273356D01*
X299605Y274040D01*
X298284Y274394D01*
D02*
G37*
G36*
X236284D02*
X234916D01*
X233595Y274040D01*
X232411Y273356D01*
X231444Y272389D01*
X230760Y271205D01*
X230406Y269884D01*
Y268516D01*
X230760Y267195D01*
X231444Y266011D01*
X232411Y265044D01*
X233595Y264360D01*
X234916Y264006D01*
X236284D01*
X237605Y264360D01*
X238789Y265044D01*
X239756Y266011D01*
X240440Y267195D01*
X240794Y268516D01*
Y269884D01*
X240440Y271205D01*
X239756Y272389D01*
X238789Y273356D01*
X237605Y274040D01*
X236284Y274394D01*
D02*
G37*
G36*
X265755Y268280D02*
X265246D01*
X264775Y268085D01*
X264415Y267725D01*
X264220Y267254D01*
Y266745D01*
X264415Y266275D01*
X264775Y265915D01*
X265174Y265750D01*
X265195Y265614D01*
Y265386D01*
X265174Y265250D01*
X264775Y265085D01*
X264415Y264725D01*
X264220Y264254D01*
Y263745D01*
X264415Y263275D01*
X264626Y263064D01*
X264724Y262750D01*
X264626Y262436D01*
X264415Y262225D01*
X264220Y261754D01*
Y261245D01*
X264415Y260775D01*
X264775Y260415D01*
X265246Y260221D01*
X265755D01*
X266225Y260415D01*
X266585Y260775D01*
X266779Y261245D01*
Y261754D01*
X266585Y262225D01*
X266374Y262436D01*
X266276Y262750D01*
X266374Y263064D01*
X266585Y263275D01*
X266779Y263745D01*
Y264254D01*
X266585Y264725D01*
X266225Y265085D01*
X265826Y265250D01*
X265805Y265386D01*
Y265614D01*
X265826Y265750D01*
X266225Y265915D01*
X266585Y266275D01*
X266779Y266745D01*
Y267254D01*
X266585Y267725D01*
X266225Y268085D01*
X265755Y268280D01*
D02*
G37*
G36*
X262255D02*
X261746D01*
X261275Y268085D01*
X260915Y267725D01*
X260720Y267254D01*
Y266745D01*
X260915Y266275D01*
X261275Y265915D01*
X261674Y265750D01*
X261695Y265614D01*
Y265386D01*
X261674Y265250D01*
X261275Y265085D01*
X260915Y264725D01*
X260720Y264254D01*
Y263745D01*
X260915Y263275D01*
X261126Y263064D01*
X261224Y262750D01*
X261126Y262436D01*
X260915Y262225D01*
X260720Y261754D01*
Y261245D01*
X260915Y260775D01*
X261275Y260415D01*
X261746Y260221D01*
X262255D01*
X262725Y260415D01*
X263085Y260775D01*
X263280Y261245D01*
Y261754D01*
X263085Y262225D01*
X262874Y262436D01*
X262776Y262750D01*
X262874Y263064D01*
X263085Y263275D01*
X263280Y263745D01*
Y264254D01*
X263085Y264725D01*
X262725Y265085D01*
X262326Y265250D01*
X262305Y265386D01*
Y265614D01*
X262326Y265750D01*
X262725Y265915D01*
X263085Y266275D01*
X263280Y266745D01*
Y267254D01*
X263085Y267725D01*
X262725Y268085D01*
X262255Y268280D01*
D02*
G37*
G36*
X274624Y260181D02*
X273576D01*
X272563Y259910D01*
X271656Y259386D01*
X270914Y258645D01*
X270390Y257737D01*
X270119Y256724D01*
Y255676D01*
X270282Y255067D01*
X269898Y254567D01*
X269489D01*
X268817Y254289D01*
X268146Y254567D01*
X267422D01*
X267172Y254852D01*
X267088Y255010D01*
X267294Y255780D01*
Y256621D01*
X267076Y257433D01*
X266656Y258161D01*
X266061Y258756D01*
X265333Y259176D01*
X264521Y259394D01*
X263680D01*
X262867Y259176D01*
X262139Y258756D01*
X261544Y258161D01*
X261124Y257433D01*
X260906Y256621D01*
Y255780D01*
X261124Y254967D01*
X261544Y254239D01*
X262139Y253644D01*
X262867Y253224D01*
X263680Y253006D01*
X264521D01*
X265247Y253201D01*
X265512Y253018D01*
X265668Y252840D01*
Y252089D01*
X265982Y251329D01*
X266564Y250748D01*
X267323Y250433D01*
X268146D01*
X268817Y250711D01*
X269489Y250433D01*
X270311D01*
X271071Y250748D01*
X271652Y251329D01*
X271967Y252089D01*
Y252334D01*
X272400Y252585D01*
X272563Y252490D01*
X273576Y252219D01*
X274624D01*
X275637Y252490D01*
X276544Y253014D01*
X277286Y253755D01*
X277810Y254663D01*
X278081Y255676D01*
Y256724D01*
X277810Y257737D01*
X277286Y258645D01*
X276544Y259386D01*
X275637Y259910D01*
X274624Y260181D01*
D02*
G37*
G36*
X105911Y259870D02*
X105089D01*
X104329Y259555D01*
X103748Y258974D01*
X103433Y258214D01*
Y257392D01*
X103711Y256720D01*
X103433Y256049D01*
Y255227D01*
X103748Y254467D01*
X104329Y253886D01*
X105089Y253571D01*
X105911D01*
X106671Y253886D01*
X107252Y254467D01*
X107567Y255227D01*
Y256049D01*
X107289Y256720D01*
X107567Y257392D01*
Y258214D01*
X107252Y258974D01*
X106671Y259555D01*
X105911Y259870D01*
D02*
G37*
G36*
X254521Y259394D02*
X253679D01*
X252867Y259176D01*
X252139Y258756D01*
X251544Y258161D01*
X251124Y257433D01*
X250906Y256621D01*
Y255780D01*
X251124Y254967D01*
X251544Y254239D01*
X252139Y253644D01*
X252867Y253224D01*
X253679Y253006D01*
X254521D01*
X255333Y253224D01*
X256061Y253644D01*
X256656Y254239D01*
X257076Y254967D01*
X257294Y255780D01*
Y256621D01*
X257076Y257433D01*
X256656Y258161D01*
X256061Y258756D01*
X255333Y259176D01*
X254521Y259394D01*
D02*
G37*
G36*
X130644Y263934D02*
X129556D01*
X128504Y263652D01*
X127562Y263108D01*
X126792Y262338D01*
X126248Y261396D01*
X125966Y260344D01*
Y259256D01*
X126248Y258204D01*
X126792Y257262D01*
X127562Y256492D01*
X128504Y255948D01*
X129556Y255666D01*
X130644D01*
X131696Y255948D01*
X132638Y256492D01*
X132671Y256525D01*
X133194Y256341D01*
X133411Y255817D01*
X133133Y255146D01*
Y254324D01*
X133448Y253564D01*
X134029Y252982D01*
X134789Y252668D01*
X135611D01*
X136371Y252982D01*
X136952Y253564D01*
X137267Y254324D01*
Y255146D01*
X136989Y255817D01*
X137252Y256453D01*
X143447D01*
Y263146D01*
X136753D01*
Y258923D01*
X136253Y258701D01*
X135611Y258967D01*
X134789D01*
X134600Y258889D01*
X134224Y259218D01*
X134234Y259256D01*
Y260344D01*
X133952Y261396D01*
X133408Y262338D01*
X132638Y263108D01*
X131696Y263652D01*
X130644Y263934D01*
D02*
G37*
G36*
X288081Y260181D02*
X280119D01*
Y252219D01*
X288081D01*
Y260181D01*
D02*
G37*
G36*
X325063Y250253D02*
X324285D01*
X323534Y250051D01*
X322861Y249663D01*
X322311Y249113D01*
X321922Y248440D01*
X321721Y247689D01*
Y246911D01*
X321922Y246160D01*
X322311Y245487D01*
X322861Y244937D01*
X323534Y244549D01*
X324285Y244347D01*
X325063D01*
X325814Y244549D01*
X326487Y244937D01*
X327037Y245487D01*
X327426Y246160D01*
X327627Y246911D01*
Y247689D01*
X327426Y248440D01*
X327037Y249113D01*
X326487Y249663D01*
X325814Y250051D01*
X325063Y250253D01*
D02*
G37*
G36*
X309315D02*
X308537D01*
X307786Y250051D01*
X307113Y249663D01*
X306563Y249113D01*
X306174Y248440D01*
X305973Y247689D01*
Y246911D01*
X306174Y246160D01*
X306563Y245487D01*
X307113Y244937D01*
X307786Y244549D01*
X308537Y244347D01*
X309315D01*
X310066Y244549D01*
X310739Y244937D01*
X311289Y245487D01*
X311678Y246160D01*
X311879Y246911D01*
Y247689D01*
X311678Y248440D01*
X311289Y249113D01*
X310739Y249663D01*
X310066Y250051D01*
X309315Y250253D01*
D02*
G37*
G36*
X269520Y249394D02*
X268679D01*
X267867Y249176D01*
X267139Y248756D01*
X266544Y248161D01*
X266124Y247433D01*
X265906Y246620D01*
Y245779D01*
X266124Y244967D01*
X266544Y244239D01*
X267139Y243644D01*
X267867Y243224D01*
X268679Y243006D01*
X269520D01*
X270333Y243224D01*
X271061Y243644D01*
X271656Y244239D01*
X272076Y244967D01*
X272294Y245779D01*
Y246620D01*
X272076Y247433D01*
X271656Y248161D01*
X271061Y248756D01*
X270333Y249176D01*
X269520Y249394D01*
D02*
G37*
G36*
X279624Y250181D02*
X278576D01*
X277563Y249910D01*
X276656Y249386D01*
X275914Y248644D01*
X275390Y247737D01*
X275119Y246724D01*
Y245676D01*
X275390Y244663D01*
X275914Y243756D01*
X276656Y243014D01*
X277563Y242490D01*
X278576Y242219D01*
X279624D01*
X280637Y242490D01*
X281544Y243014D01*
X282286Y243756D01*
X282810Y244663D01*
X283081Y245676D01*
Y246724D01*
X282810Y247737D01*
X282286Y248644D01*
X281544Y249386D01*
X280637Y249910D01*
X279624Y250181D01*
D02*
G37*
G36*
X259624D02*
X258576D01*
X257563Y249910D01*
X256656Y249386D01*
X255914Y248644D01*
X255390Y247737D01*
X255119Y246724D01*
Y245676D01*
X255390Y244663D01*
X255914Y243756D01*
X256656Y243014D01*
X257563Y242490D01*
X258576Y242219D01*
X259624D01*
X260637Y242490D01*
X261544Y243014D01*
X262286Y243756D01*
X262810Y244663D01*
X263081Y245676D01*
Y246724D01*
X262810Y247737D01*
X262286Y248644D01*
X261544Y249386D01*
X260637Y249910D01*
X259624Y250181D01*
D02*
G37*
G36*
X252754Y242280D02*
X252245D01*
X251775Y242085D01*
X251415Y241725D01*
X251220Y241254D01*
Y240745D01*
X251415Y240275D01*
X251775Y239915D01*
X252174Y239750D01*
X252195Y239614D01*
Y239386D01*
X252174Y239250D01*
X251775Y239085D01*
X251564Y238874D01*
X251250Y238776D01*
X250936Y238874D01*
X250725Y239085D01*
X250255Y239280D01*
X249745D01*
X249275Y239085D01*
X248915Y238725D01*
X248721Y238254D01*
Y237745D01*
X248915Y237275D01*
X249275Y236915D01*
X249745Y236720D01*
X250255D01*
X250725Y236915D01*
X250936Y237126D01*
X251250Y237224D01*
X251564Y237126D01*
X251775Y236915D01*
X252245Y236720D01*
X252754D01*
X253225Y236915D01*
X253585Y237275D01*
X253780Y237745D01*
Y238254D01*
X253585Y238725D01*
X253225Y239085D01*
X252826Y239250D01*
X252805Y239386D01*
Y239614D01*
X252826Y239750D01*
X253225Y239915D01*
X253585Y240275D01*
X253780Y240745D01*
Y241254D01*
X253585Y241725D01*
X253225Y242085D01*
X252754Y242280D01*
D02*
G37*
G36*
X184955Y238680D02*
X184446D01*
X183975Y238485D01*
X183886Y238395D01*
X183225Y238385D01*
X182755Y238580D01*
X182246D01*
X181775Y238385D01*
X181415Y238025D01*
X181220Y237555D01*
Y237046D01*
X181415Y236575D01*
X181775Y236215D01*
X182246Y236020D01*
X182755D01*
X183225Y236215D01*
X183315Y236305D01*
X183975Y236315D01*
X184446Y236121D01*
X184955D01*
X185425Y236315D01*
X185785Y236675D01*
X185979Y237145D01*
Y237654D01*
X185785Y238125D01*
X185425Y238485D01*
X184955Y238680D01*
D02*
G37*
G36*
X196654D02*
X196145D01*
X195675Y238485D01*
X195315Y238125D01*
X195121Y237654D01*
Y237145D01*
X195315Y236675D01*
X195675Y236315D01*
X196145Y236121D01*
X196654D01*
X197125Y236315D01*
X197485Y236675D01*
X197679Y237145D01*
Y237654D01*
X197485Y238125D01*
X197125Y238485D01*
X196654Y238680D01*
D02*
G37*
G36*
X149355Y230180D02*
X148846D01*
X148375Y229985D01*
X148327Y229936D01*
X148000Y229639D01*
X147673Y229936D01*
X147625Y229985D01*
X147154Y230180D01*
X146645D01*
X146175Y229985D01*
X145815Y229625D01*
X145621Y229154D01*
Y228645D01*
X145815Y228175D01*
X146175Y227815D01*
X146645Y227621D01*
X147154D01*
X147625Y227815D01*
X147673Y227864D01*
X148000Y228161D01*
X148327Y227864D01*
X148375Y227815D01*
X148846Y227621D01*
X149355D01*
X149825Y227815D01*
X150185Y228175D01*
X150380Y228645D01*
Y229154D01*
X150185Y229625D01*
X149825Y229985D01*
X149355Y230180D01*
D02*
G37*
G36*
X105554Y234680D02*
X105045D01*
X104575Y234485D01*
X104215Y234125D01*
X104021Y233654D01*
Y233145D01*
X104215Y232675D01*
X104575Y232315D01*
Y231785D01*
X104215Y231425D01*
X104021Y230955D01*
Y230446D01*
X104215Y229975D01*
X104575Y229615D01*
X105045Y229420D01*
X105554D01*
X106025Y229615D01*
X106385Y229975D01*
X106579Y230446D01*
Y230955D01*
X106385Y231425D01*
X106025Y231785D01*
Y232315D01*
X106385Y232675D01*
X106579Y233145D01*
Y233654D01*
X106385Y234125D01*
X106025Y234485D01*
X105554Y234680D01*
D02*
G37*
G36*
X17641Y236047D02*
X16759D01*
X15908Y235818D01*
X15145Y235378D01*
X14522Y234755D01*
X14082Y233992D01*
X13854Y233141D01*
Y232259D01*
X14082Y231408D01*
X14522Y230645D01*
X15145Y230022D01*
X15908Y229582D01*
X16759Y229353D01*
X17641D01*
X18492Y229582D01*
X19255Y230022D01*
X19878Y230645D01*
X20318Y231408D01*
X20546Y232259D01*
Y233141D01*
X20318Y233992D01*
X19878Y234755D01*
X19255Y235378D01*
X18492Y235818D01*
X17641Y236047D01*
D02*
G37*
G36*
X7641D02*
X6759D01*
X5908Y235818D01*
X5145Y235378D01*
X4522Y234755D01*
X4082Y233992D01*
X3853Y233141D01*
Y232259D01*
X4082Y231408D01*
X4522Y230645D01*
X5145Y230022D01*
X5908Y229582D01*
X6759Y229353D01*
X7641D01*
X8492Y229582D01*
X9255Y230022D01*
X9878Y230645D01*
X10318Y231408D01*
X10547Y232259D01*
Y233141D01*
X10318Y233992D01*
X9878Y234755D01*
X9255Y235378D01*
X8492Y235818D01*
X7641Y236047D01*
D02*
G37*
G36*
X108654Y234579D02*
X108145D01*
X107675Y234385D01*
X107315Y234025D01*
X107121Y233555D01*
Y233046D01*
X107315Y232575D01*
X107675Y232215D01*
X107712Y232200D01*
X107749Y231896D01*
X107738Y231648D01*
X107415Y231325D01*
X107220Y230855D01*
Y230346D01*
X107415Y229875D01*
X107775Y229515D01*
X108246Y229321D01*
X108755D01*
X109225Y229515D01*
X109585Y229875D01*
X109780Y230346D01*
Y230855D01*
X109585Y231325D01*
X109225Y231685D01*
X109188Y231700D01*
X109151Y232004D01*
X109162Y232252D01*
X109485Y232575D01*
X109679Y233046D01*
Y233555D01*
X109485Y234025D01*
X109125Y234385D01*
X108654Y234579D01*
D02*
G37*
G36*
X194354Y230279D02*
X193845D01*
X193375Y230085D01*
X193015Y229725D01*
X192821Y229255D01*
Y228746D01*
X193015Y228275D01*
X193375Y227915D01*
X193845Y227720D01*
X194354D01*
X194803Y227906D01*
X194842Y227917D01*
X195315Y227975D01*
X195427Y227864D01*
X195675Y227615D01*
X196145Y227420D01*
X196654D01*
X197125Y227615D01*
X197485Y227975D01*
X197679Y228446D01*
Y228955D01*
X197485Y229425D01*
X197125Y229785D01*
X196654Y229979D01*
X196145D01*
X195697Y229794D01*
X195658Y229783D01*
X195185Y229725D01*
X195073Y229836D01*
X194825Y230085D01*
X194354Y230279D01*
D02*
G37*
G36*
X105655Y228380D02*
X105146D01*
X104675Y228185D01*
X104315Y227825D01*
X104121Y227355D01*
Y226846D01*
X104315Y226375D01*
X104675Y226015D01*
X105146Y225820D01*
X105655D01*
X106125Y226015D01*
X106485Y226375D01*
X106679Y226846D01*
Y227355D01*
X106485Y227825D01*
X106125Y228185D01*
X105655Y228380D01*
D02*
G37*
G36*
X108755Y228279D02*
X108246D01*
X107775Y228085D01*
X107415Y227725D01*
X107220Y227255D01*
Y226746D01*
X107415Y226275D01*
X107775Y225915D01*
X108246Y225721D01*
X108755D01*
X109225Y225915D01*
X109585Y226275D01*
X109780Y226746D01*
Y227255D01*
X109585Y227725D01*
X109225Y228085D01*
X108755Y228279D01*
D02*
G37*
G36*
X205154Y231080D02*
X204645D01*
X204175Y230885D01*
X203815Y230525D01*
X203621Y230054D01*
Y229545D01*
X203815Y229075D01*
X203893Y228997D01*
X204061Y228568D01*
X203890Y228347D01*
X203715Y228172D01*
X203520Y227701D01*
Y227192D01*
X203715Y226722D01*
X203889Y226549D01*
X204019Y226223D01*
X203889Y225898D01*
X203715Y225725D01*
X203520Y225255D01*
Y224745D01*
X203715Y224275D01*
X204075Y223915D01*
X204545Y223721D01*
X205054D01*
X205525Y223915D01*
X205885Y224275D01*
X206409Y224233D01*
X206515Y223975D01*
X206875Y223615D01*
X207346Y223421D01*
X207855D01*
X208325Y223615D01*
X208685Y223975D01*
X208879Y224446D01*
Y224955D01*
X208685Y225425D01*
X208474Y225636D01*
X208376Y225950D01*
X208474Y226264D01*
X208685Y226475D01*
X208879Y226945D01*
Y227454D01*
X208685Y227925D01*
X208503Y228106D01*
X208439Y228523D01*
X208536Y228727D01*
X208785Y228975D01*
X208980Y229446D01*
Y229955D01*
X208785Y230425D01*
X208425Y230785D01*
X207955Y230979D01*
X207446D01*
X206975Y230785D01*
X206615Y230425D01*
X206591Y230367D01*
X206050D01*
X205985Y230525D01*
X205625Y230885D01*
X205154Y231080D01*
D02*
G37*
G36*
X132854Y228180D02*
X132345D01*
X131875Y227985D01*
X131515Y227625D01*
X131321Y227154D01*
Y226645D01*
X131515Y226175D01*
X131826Y225864D01*
X131874Y225711D01*
X131868Y225277D01*
X131615Y225025D01*
X131421Y224554D01*
Y224045D01*
X131615Y223575D01*
X131975Y223215D01*
X132446Y223021D01*
X132955D01*
X133425Y223215D01*
X133785Y223575D01*
X133950Y223974D01*
X134086Y223995D01*
X134314D01*
X134450Y223974D01*
X134615Y223575D01*
X134975Y223215D01*
X135445Y223021D01*
X135954D01*
X136425Y223215D01*
X136785Y223575D01*
X136979Y224045D01*
Y224554D01*
X136785Y225025D01*
X136574Y225236D01*
X136476Y225550D01*
X136574Y225864D01*
X136785Y226075D01*
X136979Y226546D01*
Y227055D01*
X136785Y227525D01*
X136425Y227885D01*
X135954Y228080D01*
X135445D01*
X134975Y227885D01*
X134615Y227525D01*
X134421Y227055D01*
Y226546D01*
X134615Y226075D01*
X134826Y225864D01*
X134924Y225550D01*
X134826Y225236D01*
X134615Y225025D01*
X134450Y224626D01*
X134314Y224605D01*
X134086D01*
X133950Y224626D01*
X133785Y225025D01*
X133474Y225336D01*
X133426Y225489D01*
X133432Y225923D01*
X133685Y226175D01*
X133879Y226645D01*
Y227154D01*
X133685Y227625D01*
X133325Y227985D01*
X132854Y228180D01*
D02*
G37*
G36*
X129655Y228080D02*
X129146D01*
X128675Y227885D01*
X128315Y227525D01*
X128121Y227055D01*
Y226546D01*
X128315Y226075D01*
X128675Y225715D01*
X128712Y225700D01*
X128749Y225396D01*
X128738Y225148D01*
X128415Y224825D01*
X128220Y224355D01*
Y223846D01*
X128415Y223375D01*
X128775Y223015D01*
X129245Y222820D01*
X129754D01*
X130225Y223015D01*
X130585Y223375D01*
X130780Y223846D01*
Y224355D01*
X130585Y224825D01*
X130225Y225185D01*
X130188Y225200D01*
X130151Y225504D01*
X130162Y225752D01*
X130485Y226075D01*
X130680Y226546D01*
Y227055D01*
X130485Y227525D01*
X130125Y227885D01*
X129655Y228080D01*
D02*
G37*
G36*
X29936Y223830D02*
X29427D01*
X28957Y223635D01*
X28597Y223275D01*
X28402Y222805D01*
Y222296D01*
X28597Y221826D01*
X28957Y221466D01*
X29427Y221271D01*
X29936D01*
X30406Y221466D01*
X30766Y221826D01*
X30961Y222296D01*
Y222805D01*
X30766Y223275D01*
X30406Y223635D01*
X29936Y223830D01*
D02*
G37*
G36*
X99954Y223780D02*
X99445D01*
X98975Y223585D01*
X98615Y223225D01*
X98421Y222755D01*
Y222246D01*
X98615Y221775D01*
X98975Y221415D01*
X99445Y221220D01*
X99954D01*
X100425Y221415D01*
X100785Y221775D01*
X100979Y222246D01*
Y222755D01*
X100785Y223225D01*
X100425Y223585D01*
X99954Y223780D01*
D02*
G37*
G36*
X90055D02*
X89546D01*
X89075Y223585D01*
X88715Y223225D01*
X88520Y222755D01*
Y222246D01*
X88715Y221775D01*
X89075Y221415D01*
X89546Y221220D01*
X90055D01*
X90525Y221415D01*
X90885Y221775D01*
X91079Y222246D01*
Y222755D01*
X90885Y223225D01*
X90525Y223585D01*
X90055Y223780D01*
D02*
G37*
G36*
X80054D02*
X79545D01*
X79075Y223585D01*
X78715Y223225D01*
X78521Y222755D01*
Y222246D01*
X78715Y221775D01*
X79075Y221415D01*
X79545Y221220D01*
X80054D01*
X80525Y221415D01*
X80885Y221775D01*
X81080Y222246D01*
Y222755D01*
X80885Y223225D01*
X80525Y223585D01*
X80054Y223780D01*
D02*
G37*
G36*
X70055D02*
X69546D01*
X69075Y223585D01*
X68715Y223225D01*
X68520Y222755D01*
Y222246D01*
X68715Y221775D01*
X69075Y221415D01*
X69546Y221220D01*
X70055D01*
X70525Y221415D01*
X70885Y221775D01*
X71079Y222246D01*
Y222755D01*
X70885Y223225D01*
X70525Y223585D01*
X70055Y223780D01*
D02*
G37*
G36*
X59855D02*
X59346D01*
X58875Y223585D01*
X58515Y223225D01*
X58320Y222755D01*
Y222246D01*
X58515Y221775D01*
X58875Y221415D01*
X59346Y221220D01*
X59855D01*
X60325Y221415D01*
X60685Y221775D01*
X60879Y222246D01*
Y222755D01*
X60685Y223225D01*
X60325Y223585D01*
X59855Y223780D01*
D02*
G37*
G36*
X49955D02*
X49446D01*
X48975Y223585D01*
X48615Y223225D01*
X48421Y222755D01*
Y222246D01*
X48615Y221775D01*
X48975Y221415D01*
X49446Y221220D01*
X49955D01*
X50425Y221415D01*
X50785Y221775D01*
X50980Y222246D01*
Y222755D01*
X50785Y223225D01*
X50425Y223585D01*
X49955Y223780D01*
D02*
G37*
G36*
X39955D02*
X39445D01*
X38975Y223585D01*
X38615Y223225D01*
X38421Y222755D01*
Y222246D01*
X38615Y221775D01*
X38975Y221415D01*
X39445Y221220D01*
X39955D01*
X40425Y221415D01*
X40785Y221775D01*
X40979Y222246D01*
Y222755D01*
X40785Y223225D01*
X40425Y223585D01*
X39955Y223780D01*
D02*
G37*
G36*
X298554Y225180D02*
X298045D01*
X297575Y224985D01*
X297215Y224625D01*
X297021Y224154D01*
Y223645D01*
X297215Y223175D01*
X297397Y222993D01*
X297461Y222577D01*
X297364Y222373D01*
X297115Y222125D01*
X296920Y221655D01*
Y221146D01*
X297115Y220675D01*
X297475Y220315D01*
X297945Y220121D01*
X298454D01*
X298925Y220315D01*
X299073Y220464D01*
X299400Y220620D01*
X299727Y220464D01*
X299875Y220315D01*
X300345Y220121D01*
X300854D01*
X301325Y220315D01*
X301606Y220597D01*
X301715Y220575D01*
X302075Y220215D01*
X302545Y220021D01*
X303054D01*
X303525Y220215D01*
X303885Y220575D01*
X304080Y221045D01*
Y221554D01*
X303885Y222025D01*
X303674Y222236D01*
X303576Y222550D01*
X303674Y222864D01*
X303885Y223075D01*
X304080Y223546D01*
Y224055D01*
X303885Y224525D01*
X303525Y224885D01*
X303054Y225079D01*
X302545D01*
X302075Y224885D01*
X301977Y224786D01*
X301650Y224568D01*
X301323Y224786D01*
X301225Y224885D01*
X300754Y225079D01*
X300245D01*
X299775Y224885D01*
X299494Y224603D01*
X299385Y224625D01*
X299025Y224985D01*
X298554Y225180D01*
D02*
G37*
G36*
X327034Y227251D02*
X326049D01*
X325098Y226996D01*
X324245Y226504D01*
X323549Y225807D01*
X323057Y224955D01*
X322802Y224003D01*
Y223019D01*
X323057Y222067D01*
X323549Y221215D01*
X324245Y220518D01*
X325098Y220026D01*
X326049Y219771D01*
X327034D01*
X327985Y220026D01*
X328838Y220518D01*
X329535Y221215D01*
X330027Y222067D01*
X330282Y223019D01*
Y224003D01*
X330027Y224955D01*
X329535Y225807D01*
X328838Y226504D01*
X327985Y226996D01*
X327034Y227251D01*
D02*
G37*
G36*
X270755Y221979D02*
X270246D01*
X269775Y221785D01*
X269415Y221425D01*
X269220Y220954D01*
Y220445D01*
X269415Y219975D01*
X269775Y219615D01*
X270246Y219421D01*
X270755D01*
X271225Y219615D01*
X271585Y219975D01*
X271779Y220445D01*
Y220954D01*
X271585Y221425D01*
X271225Y221785D01*
X270755Y221979D01*
D02*
G37*
G36*
X20546Y226046D02*
X13854D01*
Y219354D01*
X20546D01*
Y226046D01*
D02*
G37*
G36*
X7641D02*
X6759D01*
X5908Y225818D01*
X5145Y225378D01*
X4522Y224755D01*
X4082Y223992D01*
X3853Y223141D01*
Y222259D01*
X4082Y221408D01*
X4522Y220645D01*
X5145Y220022D01*
X5908Y219582D01*
X6759Y219354D01*
X7641D01*
X8492Y219582D01*
X9255Y220022D01*
X9878Y220645D01*
X10318Y221408D01*
X10547Y222259D01*
Y223141D01*
X10318Y223992D01*
X9878Y224755D01*
X9255Y225378D01*
X8492Y225818D01*
X7641Y226046D01*
D02*
G37*
G36*
X121054Y220779D02*
X120545D01*
X120075Y220585D01*
X119715Y220225D01*
X119520Y219755D01*
Y219246D01*
X119715Y218775D01*
X120075Y218415D01*
X120545Y218220D01*
X121054D01*
X121525Y218415D01*
X121885Y218775D01*
X122080Y219246D01*
Y219755D01*
X121885Y220225D01*
X121525Y220585D01*
X121054Y220779D01*
D02*
G37*
G36*
X175955Y220580D02*
X175446D01*
X174976Y220385D01*
X174616Y220025D01*
X174421Y219554D01*
Y219045D01*
X174616Y218575D01*
X174976Y218215D01*
X175446Y218021D01*
X175955D01*
X176426Y218215D01*
X176786Y218575D01*
X176980Y219045D01*
Y219554D01*
X176786Y220025D01*
X176426Y220385D01*
X175955Y220580D01*
D02*
G37*
G36*
X280844Y218267D02*
X280022D01*
X279350Y217989D01*
X278678Y218267D01*
X277856D01*
X277097Y217952D01*
X276677Y217532D01*
X276460Y217388D01*
X276036Y217520D01*
X275704Y217852D01*
X274944Y218167D01*
X274121D01*
X273450Y217889D01*
X272779Y218167D01*
X271956D01*
X271197Y217852D01*
X270615Y217271D01*
X270300Y216511D01*
Y215689D01*
X270615Y214929D01*
X271197Y214348D01*
X271956Y214033D01*
X272779D01*
X273450Y214311D01*
X274121Y214033D01*
X274944D01*
X275704Y214348D01*
X276123Y214768D01*
X276340Y214912D01*
X276764Y214780D01*
X277097Y214448D01*
X277856Y214133D01*
X278678D01*
X279350Y214411D01*
X280022Y214133D01*
X280844D01*
X281604Y214448D01*
X282185Y215029D01*
X282500Y215789D01*
Y216611D01*
X282185Y217371D01*
X281604Y217952D01*
X280844Y218267D01*
D02*
G37*
G36*
X308255Y220180D02*
X307746D01*
X307275Y219985D01*
X306915Y219625D01*
X306720Y219155D01*
Y218646D01*
X306915Y218175D01*
X307275Y217815D01*
X307746Y217620D01*
X308255D01*
X308725Y217815D01*
X309085Y218175D01*
X309279Y218646D01*
Y219155D01*
X309085Y219625D01*
X308725Y219985D01*
X308255Y220180D01*
D02*
G37*
G36*
X245755Y219280D02*
X245246D01*
X244775Y219085D01*
X244415Y218725D01*
X244220Y218254D01*
Y217745D01*
X244415Y217275D01*
X244775Y216915D01*
X245246Y216721D01*
X245755D01*
X246225Y216915D01*
X246585Y217275D01*
X246779Y217745D01*
Y218254D01*
X246585Y218725D01*
X246225Y219085D01*
X245755Y219280D01*
D02*
G37*
G36*
X144455Y219079D02*
X143946D01*
X143475Y218885D01*
X143115Y218525D01*
X142920Y218055D01*
Y217546D01*
X143115Y217075D01*
X143475Y216715D01*
X143946Y216521D01*
X144455D01*
X144925Y216715D01*
X145285Y217075D01*
X145480Y217546D01*
Y218055D01*
X145285Y218525D01*
X144925Y218885D01*
X144455Y219079D01*
D02*
G37*
G36*
X19354Y218479D02*
X18846D01*
X18375Y218285D01*
X18015Y217925D01*
X17820Y217455D01*
Y216946D01*
X18015Y216475D01*
X18375Y216115D01*
X18846Y215920D01*
X19354D01*
X19825Y216115D01*
X20185Y216475D01*
X20380Y216946D01*
Y217455D01*
X20185Y217925D01*
X19825Y218285D01*
X19354Y218479D01*
D02*
G37*
G36*
X15755D02*
X15246D01*
X14775Y218285D01*
X14415Y217925D01*
X14220Y217455D01*
Y216946D01*
X14415Y216475D01*
X14775Y216115D01*
X15246Y215920D01*
X15755D01*
X16225Y216115D01*
X16585Y216475D01*
X16780Y216946D01*
Y217455D01*
X16585Y217925D01*
X16225Y218285D01*
X15755Y218479D01*
D02*
G37*
G36*
X255655Y217280D02*
X255146D01*
X254675Y217085D01*
X254315Y216725D01*
X254120Y216254D01*
Y215745D01*
X254315Y215275D01*
X254675Y214915D01*
X255146Y214721D01*
X255655D01*
X256125Y214915D01*
X256485Y215275D01*
X256680Y215745D01*
Y216254D01*
X256485Y216725D01*
X256125Y217085D01*
X255655Y217280D01*
D02*
G37*
G36*
X21055Y215779D02*
X20546D01*
X20075Y215585D01*
X19715Y215225D01*
X19521Y214755D01*
Y214246D01*
X19715Y213775D01*
X20075Y213415D01*
X20546Y213221D01*
X21055D01*
X21525Y213415D01*
X21885Y213775D01*
X22080Y214246D01*
Y214755D01*
X21885Y215225D01*
X21525Y215585D01*
X21055Y215779D01*
D02*
G37*
G36*
X17355D02*
X16846D01*
X16375Y215585D01*
X16015Y215225D01*
X15821Y214755D01*
Y214246D01*
X16015Y213775D01*
X16375Y213415D01*
X16846Y213221D01*
X17355D01*
X17825Y213415D01*
X18185Y213775D01*
X18380Y214246D01*
Y214755D01*
X18185Y215225D01*
X17825Y215585D01*
X17355Y215779D01*
D02*
G37*
G36*
X22954Y213080D02*
X22445D01*
X21975Y212885D01*
X21615Y212525D01*
X21420Y212054D01*
Y211545D01*
X21615Y211075D01*
X21975Y210715D01*
X22445Y210521D01*
X22954D01*
X23425Y210715D01*
X23785Y211075D01*
X23979Y211545D01*
Y212054D01*
X23785Y212525D01*
X23425Y212885D01*
X22954Y213080D01*
D02*
G37*
G36*
X18855D02*
X18346D01*
X17875Y212885D01*
X17515Y212525D01*
X17321Y212054D01*
Y211545D01*
X17515Y211075D01*
X17875Y210715D01*
X18346Y210521D01*
X18855D01*
X19325Y210715D01*
X19685Y211075D01*
X19880Y211545D01*
Y212054D01*
X19685Y212525D01*
X19325Y212885D01*
X18855Y213080D01*
D02*
G37*
G36*
X262855Y208279D02*
X262346D01*
X261875Y208085D01*
X261515Y207725D01*
X261320Y207255D01*
Y206746D01*
X261515Y206275D01*
X261875Y205915D01*
X262346Y205720D01*
X262855D01*
X263325Y205915D01*
X263685Y206275D01*
X263879Y206746D01*
Y207255D01*
X263685Y207725D01*
X263325Y208085D01*
X262855Y208279D01*
D02*
G37*
G36*
X258955Y206979D02*
X258446D01*
X257975Y206785D01*
X257615Y206425D01*
X257420Y205955D01*
Y205446D01*
X257615Y204975D01*
X257975Y204615D01*
X258446Y204420D01*
X258955D01*
X259425Y204615D01*
X259785Y204975D01*
X259980Y205446D01*
Y205955D01*
X259785Y206425D01*
X259425Y206785D01*
X258955Y206979D01*
D02*
G37*
G36*
X79738Y203457D02*
X79229D01*
X78758Y203262D01*
X78398Y202902D01*
X78203Y202432D01*
Y202012D01*
X78154Y201979D01*
X77645D01*
X77175Y201785D01*
X76815Y201425D01*
X76621Y200955D01*
Y200446D01*
X76815Y199975D01*
X77175Y199615D01*
X77645Y199420D01*
X78154D01*
X78625Y199615D01*
X78985Y199975D01*
X79180Y200446D01*
Y200865D01*
X79229Y200898D01*
X79738D01*
X80208Y201093D01*
X80568Y201453D01*
X80762Y201923D01*
Y202432D01*
X80568Y202902D01*
X80208Y203262D01*
X79738Y203457D01*
D02*
G37*
G36*
X141554Y200679D02*
X141045D01*
X140575Y200485D01*
X140215Y200125D01*
X140021Y199654D01*
Y199145D01*
X140215Y198675D01*
X140575Y198315D01*
X141045Y198120D01*
X141554D01*
X142025Y198315D01*
X142385Y198675D01*
X142579Y199145D01*
Y199654D01*
X142385Y200125D01*
X142025Y200485D01*
X141554Y200679D01*
D02*
G37*
G36*
X248254Y201279D02*
X247745D01*
X247275Y201085D01*
X246915Y200725D01*
X246721Y200255D01*
Y199746D01*
X246915Y199275D01*
X247273Y198917D01*
X246915Y198559D01*
X246721Y198089D01*
Y197580D01*
X246915Y197110D01*
X247275Y196750D01*
X247745Y196555D01*
X248254D01*
X248725Y196750D01*
X249085Y197110D01*
X249279Y197580D01*
Y198089D01*
X249085Y198559D01*
X248727Y198917D01*
X249085Y199275D01*
X249279Y199746D01*
Y200255D01*
X249085Y200725D01*
X248725Y201085D01*
X248254Y201279D01*
D02*
G37*
G36*
X8141Y203147D02*
X7259D01*
X6408Y202918D01*
X5645Y202478D01*
X5022Y201855D01*
X4582Y201092D01*
X4354Y200241D01*
Y199359D01*
X4582Y198508D01*
X5022Y197745D01*
X5645Y197122D01*
X6408Y196682D01*
X7259Y196453D01*
X8141D01*
X8992Y196682D01*
X9755Y197122D01*
X10378Y197745D01*
X10818Y198508D01*
X11046Y199359D01*
Y200241D01*
X10818Y201092D01*
X10378Y201855D01*
X9755Y202478D01*
X8992Y202918D01*
X8141Y203147D01*
D02*
G37*
G36*
X97054Y199880D02*
X96545D01*
X96075Y199685D01*
X95715Y199325D01*
X95521Y198854D01*
Y198345D01*
X95715Y197875D01*
X96075Y197515D01*
X96545Y197320D01*
X96759D01*
X97070Y197276D01*
X97220Y196859D01*
Y196746D01*
X97415Y196275D01*
X97775Y195915D01*
X98246Y195721D01*
X98755D01*
X99225Y195915D01*
X99585Y196275D01*
X99779Y196746D01*
Y197255D01*
X99585Y197725D01*
X99225Y198085D01*
X98755Y198280D01*
X98541D01*
X98229Y198324D01*
X98080Y198741D01*
Y198854D01*
X97885Y199325D01*
X97525Y199685D01*
X97054Y199880D01*
D02*
G37*
G36*
X167955Y196244D02*
X167446D01*
X166975Y196049D01*
X166615Y195689D01*
X166420Y195219D01*
Y194710D01*
X166615Y194240D01*
X166975Y193880D01*
X167446Y193685D01*
X167955D01*
X168425Y193880D01*
X168785Y194240D01*
X168980Y194710D01*
Y195219D01*
X168785Y195689D01*
X168425Y196049D01*
X167955Y196244D01*
D02*
G37*
G36*
X158455D02*
X157946D01*
X157475Y196049D01*
X157115Y195689D01*
X156921Y195219D01*
Y194710D01*
X157115Y194240D01*
X157475Y193880D01*
X157946Y193685D01*
X158455D01*
X158925Y193880D01*
X159285Y194240D01*
X159479Y194710D01*
Y195219D01*
X159285Y195689D01*
X158925Y196049D01*
X158455Y196244D01*
D02*
G37*
G36*
X110814Y199051D02*
X110305D01*
X109834Y198857D01*
X109474Y198497D01*
X109280Y198026D01*
Y197517D01*
X109474Y197047D01*
X109834Y196687D01*
X110305Y196492D01*
X110741D01*
X110767Y196453D01*
Y195944D01*
X110962Y195474D01*
X111322Y195114D01*
X111793Y194919D01*
X112302D01*
X112420Y194840D01*
Y194545D01*
X112615Y194075D01*
X112975Y193715D01*
X113445Y193520D01*
X113954D01*
X114425Y193715D01*
X114785Y194075D01*
X114980Y194545D01*
Y195054D01*
X114785Y195525D01*
X114425Y195885D01*
X113954Y196080D01*
X113445D01*
X113327Y196159D01*
Y196453D01*
X113132Y196923D01*
X112772Y197283D01*
X112302Y197478D01*
X111865D01*
X111839Y197517D01*
Y198026D01*
X111644Y198497D01*
X111284Y198857D01*
X110814Y199051D01*
D02*
G37*
G36*
X259054Y194480D02*
X258545D01*
X258075Y194285D01*
X257715Y193925D01*
X257521Y193455D01*
Y192946D01*
X257715Y192475D01*
X258075Y192115D01*
X258545Y191920D01*
X259054D01*
X259525Y192115D01*
X259885Y192475D01*
X260080Y192946D01*
Y193455D01*
X259885Y193925D01*
X259525Y194285D01*
X259054Y194480D01*
D02*
G37*
G36*
X146354Y192579D02*
X145845D01*
X145375Y192385D01*
X145015Y192025D01*
X144820Y191554D01*
Y191045D01*
X145015Y190575D01*
X145375Y190215D01*
X145845Y190021D01*
X146354D01*
X146825Y190215D01*
X147185Y190575D01*
X147380Y191045D01*
Y191554D01*
X147185Y192025D01*
X146825Y192385D01*
X146354Y192579D01*
D02*
G37*
G36*
X179754Y191779D02*
X179245D01*
X178775Y191585D01*
X178415Y191225D01*
X178220Y190754D01*
Y190245D01*
X178255Y190161D01*
X177831Y189878D01*
X177825Y189885D01*
X177355Y190079D01*
X176846D01*
X176375Y189885D01*
X176015Y189525D01*
X175821Y189055D01*
Y188546D01*
X176015Y188075D01*
X176375Y187715D01*
X176846Y187521D01*
X177355D01*
X177825Y187715D01*
X178185Y188075D01*
X178379Y188546D01*
Y189055D01*
X178345Y189139D01*
X178769Y189422D01*
X178775Y189415D01*
X179245Y189220D01*
X179754D01*
X180225Y189415D01*
X180585Y189775D01*
X180780Y190245D01*
Y190754D01*
X180585Y191225D01*
X180225Y191585D01*
X179754Y191779D01*
D02*
G37*
G36*
X174255Y192280D02*
X173746D01*
X173275Y192085D01*
X172915Y191725D01*
X172721Y191254D01*
Y190745D01*
X172915Y190275D01*
X173275Y189915D01*
X173746Y189720D01*
X174255D01*
X174725Y189915D01*
X175085Y190275D01*
X175279Y190745D01*
Y191254D01*
X175085Y191725D01*
X174725Y192085D01*
X174255Y192280D01*
D02*
G37*
G36*
X248554Y191980D02*
X248045D01*
X247575Y191785D01*
X247215Y191425D01*
X247021Y190954D01*
Y190445D01*
X247215Y189975D01*
X247575Y189615D01*
X248045Y189420D01*
X248554D01*
X249025Y189615D01*
X249385Y189975D01*
X249580Y190445D01*
Y190954D01*
X249385Y191425D01*
X249025Y191785D01*
X248554Y191980D01*
D02*
G37*
G36*
X119155Y190279D02*
X118646D01*
X118175Y190085D01*
X117815Y189725D01*
X117621Y189254D01*
Y188745D01*
X117815Y188275D01*
X118175Y187915D01*
X118646Y187721D01*
X119155D01*
X119625Y187915D01*
X119985Y188275D01*
X120179Y188745D01*
Y189254D01*
X119985Y189725D01*
X119625Y190085D01*
X119155Y190279D01*
D02*
G37*
G36*
X8141Y193147D02*
X7259D01*
X6408Y192918D01*
X5645Y192478D01*
X5022Y191855D01*
X4582Y191092D01*
X4354Y190241D01*
Y189359D01*
X4582Y188508D01*
X5022Y187745D01*
X5645Y187122D01*
X6408Y186682D01*
X7259Y186453D01*
X8141D01*
X8992Y186682D01*
X9755Y187122D01*
X10378Y187745D01*
X10818Y188508D01*
X11046Y189359D01*
Y190241D01*
X10818Y191092D01*
X10378Y191855D01*
X9755Y192478D01*
X8992Y192918D01*
X8141Y193147D01*
D02*
G37*
G36*
X171354Y188680D02*
X170845D01*
X170375Y188485D01*
X170015Y188125D01*
X169820Y187654D01*
Y187145D01*
X170015Y186675D01*
X170375Y186315D01*
X170845Y186120D01*
X171354D01*
X171825Y186315D01*
X172185Y186675D01*
X172380Y187145D01*
Y187654D01*
X172185Y188125D01*
X171825Y188485D01*
X171354Y188680D01*
D02*
G37*
G36*
X150454Y188479D02*
X149945D01*
X149475Y188285D01*
X149115Y187925D01*
X148921Y187454D01*
Y186945D01*
X149115Y186475D01*
X149475Y186115D01*
X149945Y185921D01*
X150454D01*
X150925Y186115D01*
X151285Y186475D01*
X151479Y186945D01*
Y187454D01*
X151285Y187925D01*
X150925Y188285D01*
X150454Y188479D01*
D02*
G37*
G36*
X281754Y191480D02*
X281245D01*
X280775Y191285D01*
X280415Y190925D01*
X280221Y190454D01*
Y189945D01*
X280415Y189475D01*
X280773Y189117D01*
X280415Y188759D01*
X280221Y188289D01*
Y187780D01*
X280415Y187310D01*
X280506Y186806D01*
X280297Y186597D01*
X280103Y186127D01*
Y185618D01*
X280297Y185148D01*
X280657Y184788D01*
X281128Y184593D01*
X281637D01*
X282107Y184788D01*
X282467Y185148D01*
X282662Y185618D01*
Y186127D01*
X282467Y186597D01*
X282376Y187101D01*
X282585Y187310D01*
X282780Y187780D01*
Y188289D01*
X282585Y188759D01*
X282227Y189117D01*
X282585Y189475D01*
X282780Y189945D01*
Y190454D01*
X282585Y190925D01*
X282225Y191285D01*
X281754Y191480D01*
D02*
G37*
G36*
X272920Y184179D02*
X272411D01*
X271941Y183985D01*
X271583Y183627D01*
X271225Y183985D01*
X270755Y184179D01*
X270246D01*
X269775Y183985D01*
X269415Y183625D01*
X269220Y183154D01*
Y182645D01*
X269415Y182175D01*
X269775Y181815D01*
X270246Y181621D01*
X270755D01*
X271225Y181815D01*
X271583Y182173D01*
X271941Y181815D01*
X272411Y181621D01*
X272920D01*
X273390Y181815D01*
X273750Y182175D01*
X273945Y182645D01*
Y183154D01*
X273750Y183625D01*
X273390Y183985D01*
X272920Y184179D01*
D02*
G37*
G36*
X264855Y183866D02*
X264346D01*
X263875Y183671D01*
X263515Y183311D01*
X263320Y182841D01*
Y182332D01*
X263515Y181861D01*
X263875Y181501D01*
X264346Y181307D01*
X264855D01*
X265325Y181501D01*
X265685Y181861D01*
X265880Y182332D01*
Y182841D01*
X265685Y183311D01*
X265325Y183671D01*
X264855Y183866D01*
D02*
G37*
G36*
X126555Y183780D02*
X126046D01*
X125575Y183585D01*
X125215Y183225D01*
X125021Y182755D01*
Y182246D01*
X125215Y181775D01*
X125575Y181415D01*
X126046Y181220D01*
X126552D01*
Y180714D01*
X126746Y180244D01*
X127106Y179884D01*
X127577Y179689D01*
X128086D01*
X128556Y179884D01*
X128916Y180244D01*
X129111Y180714D01*
Y181223D01*
X128916Y181694D01*
X128556Y182054D01*
X128086Y182248D01*
X127579D01*
Y182755D01*
X127385Y183225D01*
X127025Y183585D01*
X126555Y183780D01*
D02*
G37*
G36*
X256454Y181280D02*
X255945D01*
X255475Y181085D01*
X255115Y180725D01*
X254921Y180254D01*
Y179745D01*
X255115Y179275D01*
X255475Y178915D01*
X255945Y178720D01*
X256454D01*
X256925Y178915D01*
X257285Y179275D01*
X257480Y179745D01*
Y180254D01*
X257285Y180725D01*
X256925Y181085D01*
X256454Y181280D01*
D02*
G37*
G36*
X8141Y183147D02*
X7259D01*
X6408Y182918D01*
X5645Y182478D01*
X5022Y181855D01*
X4582Y181092D01*
X4354Y180241D01*
Y179359D01*
X4582Y178508D01*
X5022Y177745D01*
X5645Y177122D01*
X6408Y176682D01*
X7259Y176453D01*
X8141D01*
X8992Y176682D01*
X9755Y177122D01*
X10378Y177745D01*
X10818Y178508D01*
X11046Y179359D01*
Y180241D01*
X10818Y181092D01*
X10378Y181855D01*
X9755Y182478D01*
X8992Y182918D01*
X8141Y183147D01*
D02*
G37*
G36*
X69754Y176579D02*
X69245D01*
X68775Y176385D01*
X68464Y176074D01*
X68311Y176026D01*
X67877Y176032D01*
X67625Y176285D01*
X67155Y176479D01*
X66645D01*
X66175Y176285D01*
X65993Y176103D01*
X65577Y176039D01*
X65373Y176136D01*
X65125Y176385D01*
X64654Y176579D01*
X64145D01*
X63675Y176385D01*
X63315Y176025D01*
X62785D01*
X62425Y176385D01*
X61954Y176579D01*
X61445D01*
X60975Y176385D01*
X60615Y176025D01*
X60421Y175555D01*
Y175046D01*
X60615Y174575D01*
X60975Y174215D01*
X61445Y174021D01*
X61954D01*
X62425Y174215D01*
X62785Y174575D01*
X63315D01*
X63675Y174215D01*
X64145Y174021D01*
X64654D01*
X65125Y174215D01*
X65307Y174397D01*
X65723Y174461D01*
X65927Y174364D01*
X66175Y174115D01*
X66645Y173921D01*
X67155D01*
X67625Y174115D01*
X67936Y174426D01*
X68089Y174474D01*
X68523Y174468D01*
X68775Y174215D01*
X69245Y174021D01*
X69754D01*
X70225Y174215D01*
X70585Y174575D01*
X70780Y175046D01*
Y175555D01*
X70585Y176025D01*
X70225Y176385D01*
X69754Y176579D01*
D02*
G37*
G36*
X143554Y177880D02*
X143045D01*
X142575Y177685D01*
X142215Y177325D01*
X142020Y176855D01*
Y176346D01*
X142215Y175875D01*
X142575Y175515D01*
X143045Y175320D01*
X143554D01*
X144025Y175515D01*
X144385Y175875D01*
X144580Y176346D01*
Y176855D01*
X144385Y177325D01*
X144025Y177685D01*
X143554Y177880D01*
D02*
G37*
G36*
X237354Y177980D02*
X236845D01*
X236375Y177785D01*
X236015Y177425D01*
X235821Y176954D01*
Y176445D01*
X236015Y175975D01*
X236264Y175727D01*
X236375Y175615D01*
X236317Y175142D01*
X236306Y175103D01*
X236121Y174654D01*
Y174145D01*
X236315Y173675D01*
X236675Y173315D01*
X237145Y173120D01*
X237654D01*
X238125Y173315D01*
X238485Y173675D01*
X238680Y174145D01*
Y174654D01*
X238485Y175125D01*
X238236Y175373D01*
X238125Y175485D01*
X238183Y175958D01*
X238194Y175997D01*
X238380Y176445D01*
Y176954D01*
X238185Y177425D01*
X237825Y177785D01*
X237354Y177980D01*
D02*
G37*
G36*
X130671Y179964D02*
X130162D01*
X129692Y179770D01*
X129332Y179410D01*
X129137Y178939D01*
Y178430D01*
X129332Y177960D01*
X129692Y177600D01*
X130162Y177405D01*
X130227D01*
X130675Y177289D01*
X130689Y176944D01*
Y176777D01*
X130884Y176306D01*
X131244Y175946D01*
X131714Y175752D01*
X132220D01*
Y175245D01*
X132415Y174775D01*
X132775Y174415D01*
X133246Y174221D01*
X133325D01*
X133589Y174201D01*
X133814Y173823D01*
X133815Y173780D01*
X134009Y173310D01*
X134369Y172950D01*
X134839Y172755D01*
X135348D01*
X135819Y172950D01*
X136179Y173310D01*
X136373Y173780D01*
Y174289D01*
X136179Y174759D01*
X135819Y175119D01*
X135348Y175314D01*
X134839D01*
X134780Y175711D01*
X134780Y175754D01*
Y175754D01*
X134585Y176225D01*
X134225Y176585D01*
X133755Y176779D01*
X133248D01*
Y177286D01*
X133054Y177756D01*
X132694Y178116D01*
X132223Y178311D01*
X132158D01*
X131710Y178427D01*
X131696Y178773D01*
Y178939D01*
X131501Y179410D01*
X131141Y179770D01*
X130671Y179964D01*
D02*
G37*
G36*
X45555Y175180D02*
X45046D01*
X44575Y174985D01*
X44215Y174625D01*
X44021Y174154D01*
Y173645D01*
X44215Y173175D01*
X44575Y172815D01*
X45046Y172620D01*
X45555D01*
X46025Y172815D01*
X46385Y173175D01*
X46580Y173645D01*
Y174154D01*
X46385Y174625D01*
X46025Y174985D01*
X45555Y175180D01*
D02*
G37*
G36*
X21454Y174779D02*
X20945D01*
X20475Y174585D01*
X20115Y174225D01*
X19920Y173755D01*
Y173246D01*
X20115Y172775D01*
X20475Y172415D01*
X20945Y172221D01*
X21454D01*
X21925Y172415D01*
X22285Y172775D01*
X22479Y173246D01*
Y173755D01*
X22285Y174225D01*
X21925Y174585D01*
X21454Y174779D01*
D02*
G37*
G36*
X174154Y173380D02*
X173645D01*
X173175Y173185D01*
X172815Y172825D01*
X172620Y172354D01*
Y171845D01*
X172815Y171375D01*
X173175Y171015D01*
X173645Y170820D01*
X174154D01*
X174625Y171015D01*
X174985Y171375D01*
X175180Y171845D01*
Y172354D01*
X174985Y172825D01*
X174625Y173185D01*
X174154Y173380D01*
D02*
G37*
G36*
X167754D02*
X167245D01*
X166775Y173185D01*
X166415Y172825D01*
X166220Y172354D01*
Y171845D01*
X166415Y171375D01*
X166775Y171015D01*
X167245Y170820D01*
X167754D01*
X168225Y171015D01*
X168585Y171375D01*
X168780Y171845D01*
Y172354D01*
X168585Y172825D01*
X168225Y173185D01*
X167754Y173380D01*
D02*
G37*
G36*
X110538Y175305D02*
X110029D01*
X109558Y175110D01*
X109198Y174750D01*
X109004Y174280D01*
Y173771D01*
X109198Y173301D01*
X109218Y173281D01*
X109475Y172885D01*
X109115Y172525D01*
X108921Y172055D01*
Y171546D01*
X109115Y171075D01*
X109475Y170715D01*
X109945Y170520D01*
X110454D01*
X110925Y170715D01*
X111285Y171075D01*
X111479Y171546D01*
Y172055D01*
X111285Y172525D01*
X111265Y172545D01*
X111008Y172941D01*
X111368Y173301D01*
X111563Y173771D01*
Y174280D01*
X111368Y174750D01*
X111008Y175110D01*
X110538Y175305D01*
D02*
G37*
G36*
X139655Y171879D02*
X139146D01*
X138675Y171685D01*
X138315Y171325D01*
X138120Y170854D01*
Y170345D01*
X138315Y169875D01*
X138675Y169515D01*
X139146Y169320D01*
X139655D01*
X140125Y169515D01*
X140485Y169875D01*
X140680Y170345D01*
Y170854D01*
X140485Y171325D01*
X140125Y171685D01*
X139655Y171879D01*
D02*
G37*
G36*
X81832Y173363D02*
X81323D01*
X80853Y173168D01*
X80493Y172808D01*
X80298Y172337D01*
Y171828D01*
X80265Y171780D01*
X79845D01*
X79375Y171585D01*
X79015Y171225D01*
X78821Y170755D01*
Y170246D01*
X79015Y169775D01*
X79375Y169415D01*
X79845Y169220D01*
X80354D01*
X80825Y169415D01*
X81185Y169775D01*
X81379Y170246D01*
Y170755D01*
X81412Y170803D01*
X81832D01*
X82302Y170998D01*
X82662Y171358D01*
X82857Y171828D01*
Y172337D01*
X82662Y172808D01*
X82302Y173168D01*
X81832Y173363D01*
D02*
G37*
G36*
X179754Y170780D02*
X179245D01*
X178775Y170585D01*
X178415Y170225D01*
X178220Y169755D01*
Y169246D01*
X178415Y168775D01*
X178775Y168415D01*
X179245Y168220D01*
X179754D01*
X180225Y168415D01*
X180585Y168775D01*
X180780Y169246D01*
Y169755D01*
X180585Y170225D01*
X180225Y170585D01*
X179754Y170780D01*
D02*
G37*
G36*
X63155Y169280D02*
X62646D01*
X62175Y169085D01*
X61815Y168725D01*
X61620Y168254D01*
Y167745D01*
X61815Y167275D01*
X62175Y166915D01*
X62646Y166720D01*
X63155D01*
X63625Y166915D01*
X63985Y167275D01*
X64179Y167745D01*
Y168254D01*
X63985Y168725D01*
X63625Y169085D01*
X63155Y169280D01*
D02*
G37*
G36*
X23455Y169379D02*
X22945D01*
X22475Y169185D01*
X22115Y168825D01*
X21921Y168354D01*
Y167845D01*
X22115Y167375D01*
X22475Y167015D01*
X22704Y166921D01*
Y166379D01*
X22475Y166285D01*
X22115Y165925D01*
X21921Y165454D01*
Y164945D01*
X22115Y164475D01*
X22475Y164115D01*
X22945Y163920D01*
X23455D01*
X23925Y164115D01*
X24285Y164475D01*
X24479Y164945D01*
Y165454D01*
X24285Y165925D01*
X23925Y166285D01*
X23696Y166379D01*
Y166921D01*
X23925Y167015D01*
X24285Y167375D01*
X24479Y167845D01*
Y168354D01*
X24285Y168825D01*
X23925Y169185D01*
X23455Y169379D01*
D02*
G37*
G36*
X19655Y169280D02*
X19146D01*
X18675Y169085D01*
X18315Y168725D01*
X18121Y168254D01*
Y167745D01*
X18315Y167275D01*
X18675Y166915D01*
X18904Y166821D01*
Y166279D01*
X18675Y166185D01*
X18315Y165825D01*
X18121Y165355D01*
Y164846D01*
X18315Y164375D01*
X18675Y164015D01*
X19146Y163821D01*
X19655D01*
X20125Y164015D01*
X20485Y164375D01*
X20680Y164846D01*
Y165355D01*
X20485Y165825D01*
X20125Y166185D01*
X19896Y166279D01*
Y166821D01*
X20125Y166915D01*
X20485Y167275D01*
X20680Y167745D01*
Y168254D01*
X20485Y168725D01*
X20125Y169085D01*
X19655Y169280D01*
D02*
G37*
G36*
X71955Y163579D02*
X71446D01*
X70975Y163385D01*
X70615Y163025D01*
X70420Y162555D01*
Y162046D01*
X70615Y161575D01*
X70975Y161215D01*
X71446Y161021D01*
X71955D01*
X72425Y161215D01*
X72785Y161575D01*
X72979Y162046D01*
Y162555D01*
X72785Y163025D01*
X72425Y163385D01*
X71955Y163579D01*
D02*
G37*
G36*
X23455Y163380D02*
X22945D01*
X22475Y163185D01*
X22115Y162825D01*
X21921Y162355D01*
Y161846D01*
X22115Y161375D01*
X22475Y161015D01*
X22945Y160820D01*
X23455D01*
X23925Y161015D01*
X24285Y161375D01*
X24479Y161846D01*
Y162355D01*
X24285Y162825D01*
X23925Y163185D01*
X23455Y163380D01*
D02*
G37*
G36*
X19555Y163279D02*
X19046D01*
X18575Y163085D01*
X18215Y162725D01*
X18021Y162255D01*
Y161746D01*
X18215Y161275D01*
X18575Y160915D01*
X19046Y160721D01*
X19555D01*
X20025Y160915D01*
X20385Y161275D01*
X20580Y161746D01*
Y162255D01*
X20385Y162725D01*
X20025Y163085D01*
X19555Y163279D01*
D02*
G37*
G36*
X141754Y160880D02*
X141245D01*
X140775Y160685D01*
X140415Y160325D01*
X140220Y159854D01*
Y159345D01*
X140415Y158875D01*
X140775Y158515D01*
X141245Y158320D01*
X141754D01*
X142225Y158515D01*
X142585Y158875D01*
X142780Y159345D01*
Y159854D01*
X142585Y160325D01*
X142225Y160685D01*
X141754Y160880D01*
D02*
G37*
G36*
X118854Y158780D02*
X118345D01*
X117875Y158585D01*
X117515Y158225D01*
X117423Y158002D01*
X117305Y157754D01*
X116821Y157752D01*
X116754Y157780D01*
X116245D01*
X115775Y157585D01*
X115415Y157225D01*
X115220Y156755D01*
Y156246D01*
X115415Y155775D01*
X115775Y155415D01*
X116245Y155220D01*
X116754D01*
X117225Y155415D01*
X117585Y155775D01*
X117677Y155998D01*
X117795Y156246D01*
X118048Y156247D01*
X118509Y156193D01*
Y156193D01*
D01*
X118603Y155720D01*
X118275Y155585D01*
X117915Y155225D01*
X117720Y154754D01*
Y154245D01*
X117915Y153775D01*
X118275Y153415D01*
X118746Y153220D01*
X119255D01*
X119725Y153415D01*
X120085Y153775D01*
X120280Y154245D01*
Y154754D01*
X120085Y155225D01*
X119725Y155585D01*
X119255Y155780D01*
X119091Y155807D01*
X118997Y156280D01*
X119325Y156415D01*
X119685Y156775D01*
X119879Y157246D01*
Y157755D01*
X119685Y158225D01*
X119325Y158585D01*
X118854Y158780D01*
D02*
G37*
G36*
X223254Y158879D02*
X222745D01*
X222275Y158685D01*
X221915Y158325D01*
X221721Y157854D01*
Y157345D01*
X221915Y156875D01*
X222275Y156515D01*
X222745Y156321D01*
X223254D01*
X223725Y156515D01*
X224085Y156875D01*
X224279Y157345D01*
Y157854D01*
X224085Y158325D01*
X223725Y158685D01*
X223254Y158879D01*
D02*
G37*
G36*
X141355Y156480D02*
X140846D01*
X140375Y156285D01*
X140015Y155925D01*
X139821Y155455D01*
Y154946D01*
X140015Y154475D01*
X140375Y154115D01*
X140846Y153920D01*
X141355D01*
X141825Y154115D01*
X142185Y154475D01*
X142379Y154946D01*
Y155455D01*
X142185Y155925D01*
X141825Y156285D01*
X141355Y156480D01*
D02*
G37*
G36*
X55155Y157980D02*
X54646D01*
X54175Y157785D01*
X53815Y157425D01*
X53620Y156955D01*
Y156446D01*
X53254Y156079D01*
X52745D01*
X52275Y155885D01*
X51915Y155525D01*
X51720Y155054D01*
Y154545D01*
X51354Y154180D01*
X50845D01*
X50375Y153985D01*
X50015Y153625D01*
X49821Y153155D01*
Y152646D01*
X50015Y152175D01*
X50375Y151815D01*
X50845Y151620D01*
X51354D01*
X51638Y151738D01*
X52023Y151360D01*
X52021Y151355D01*
Y150846D01*
X52215Y150375D01*
X52575Y150015D01*
X53045Y149820D01*
X53554D01*
X54025Y150015D01*
X54385Y150375D01*
X54580Y150846D01*
Y151355D01*
X54421Y151738D01*
X54595Y152005D01*
X54754Y152141D01*
X55045Y152021D01*
X55554D01*
X56025Y152215D01*
X56385Y152575D01*
X56580Y153045D01*
Y153390D01*
X56744Y153656D01*
X57011Y153821D01*
X57354D01*
X57825Y154015D01*
X58185Y154375D01*
X58380Y154845D01*
Y155354D01*
X58185Y155825D01*
X57825Y156185D01*
X57354Y156379D01*
X56845D01*
X56642Y156295D01*
X56569Y156318D01*
X56179Y156642D01*
Y156955D01*
X55985Y157425D01*
X55625Y157785D01*
X55155Y157980D01*
D02*
G37*
G36*
X327034Y158353D02*
X326049D01*
X325098Y158099D01*
X324245Y157606D01*
X323549Y156910D01*
X323057Y156057D01*
X322802Y155106D01*
Y154121D01*
X323057Y153170D01*
X323549Y152317D01*
X324245Y151620D01*
X325098Y151128D01*
X326049Y150873D01*
X327034D01*
X327985Y151128D01*
X328838Y151620D01*
X329535Y152317D01*
X330027Y153170D01*
X330282Y154121D01*
Y155106D01*
X330027Y156057D01*
X329535Y156910D01*
X328838Y157606D01*
X327985Y158099D01*
X327034Y158353D01*
D02*
G37*
G36*
X142054Y149279D02*
X141545D01*
X141075Y149085D01*
X140715Y148725D01*
X140521Y148255D01*
Y147746D01*
X140715Y147275D01*
X141075Y146915D01*
X141545Y146721D01*
X142054D01*
X142525Y146915D01*
X142885Y147275D01*
X143079Y147746D01*
Y148255D01*
X142885Y148725D01*
X142525Y149085D01*
X142054Y149279D01*
D02*
G37*
G36*
X59654Y150380D02*
X59145D01*
X58675Y150185D01*
X58315Y149825D01*
X58121Y149355D01*
Y148846D01*
X58315Y148375D01*
X58675Y148015D01*
X59145Y147820D01*
X59654D01*
X59707Y147785D01*
Y147372D01*
X59902Y146902D01*
X60262Y146542D01*
X60732Y146347D01*
X61241D01*
X61712Y146542D01*
X62072Y146902D01*
X62266Y147372D01*
Y147881D01*
X62072Y148351D01*
X61712Y148711D01*
X61241Y148906D01*
X60732D01*
X60680Y148941D01*
Y149355D01*
X60485Y149825D01*
X60125Y150185D01*
X59654Y150380D01*
D02*
G37*
G36*
X109255Y150279D02*
X108746D01*
X108275Y150085D01*
X107915Y149725D01*
X107720Y149255D01*
Y148746D01*
X107872Y148380D01*
X107678Y147928D01*
X107645Y147880D01*
X107175Y147685D01*
X106815Y147325D01*
X106621Y146854D01*
Y146345D01*
X106815Y145875D01*
X107175Y145515D01*
X107645Y145320D01*
X108154D01*
X108625Y145515D01*
X108985Y145875D01*
X109179Y146345D01*
Y146854D01*
X109165Y146891D01*
X109386Y147318D01*
X109721Y146992D01*
Y146746D01*
X109915Y146275D01*
X110275Y145915D01*
X110746Y145721D01*
X111255D01*
X111725Y145915D01*
X112085Y146275D01*
X112279Y146746D01*
Y147255D01*
X112085Y147725D01*
X111725Y148085D01*
X111255Y148280D01*
X110746D01*
X110603Y148221D01*
X110221Y148603D01*
X110280Y148746D01*
Y149255D01*
X110085Y149725D01*
X109725Y150085D01*
X109255Y150279D01*
D02*
G37*
G36*
X92255Y140779D02*
X91746D01*
X91275Y140585D01*
X90915Y140225D01*
X90720Y139754D01*
Y139245D01*
X90915Y138775D01*
X91275Y138415D01*
X91746Y138221D01*
X92255D01*
X92725Y138415D01*
X93085Y138775D01*
X93279Y139245D01*
Y139754D01*
X93085Y140225D01*
X92725Y140585D01*
X92255Y140779D01*
D02*
G37*
G36*
X71177Y139762D02*
X70668D01*
X70198Y139568D01*
X69838Y139208D01*
X69643Y138737D01*
Y138228D01*
X69838Y137758D01*
X70198Y137398D01*
X70668Y137204D01*
X71088D01*
X71121Y137154D01*
Y136645D01*
X71315Y136175D01*
X71675Y135815D01*
X72145Y135620D01*
X72654D01*
X73125Y135815D01*
X73485Y136175D01*
X73680Y136645D01*
Y137154D01*
X73485Y137625D01*
X73125Y137985D01*
X72654Y138180D01*
X72235D01*
X72202Y138228D01*
Y138737D01*
X72007Y139208D01*
X71647Y139568D01*
X71177Y139762D01*
D02*
G37*
G36*
X130754Y138080D02*
X130245D01*
X129775Y137885D01*
X129415Y137525D01*
X129220Y137055D01*
Y136546D01*
X129415Y136075D01*
X129775Y135715D01*
X130245Y135521D01*
X130754D01*
X131225Y135715D01*
X131585Y136075D01*
X131780Y136546D01*
Y137055D01*
X131585Y137525D01*
X131225Y137885D01*
X130754Y138080D01*
D02*
G37*
G36*
X39355Y137080D02*
X38846D01*
X38375Y136885D01*
X38015Y136525D01*
X37821Y136055D01*
Y135546D01*
X38015Y135075D01*
X38375Y134715D01*
X38846Y134520D01*
X39355D01*
X39825Y134715D01*
X40185Y135075D01*
X40380Y135546D01*
Y136055D01*
X40185Y136525D01*
X39825Y136885D01*
X39355Y137080D01*
D02*
G37*
G36*
X322622Y142409D02*
X321378D01*
X320176Y142087D01*
X319099Y141465D01*
X318219Y140586D01*
X317598Y139509D01*
X317276Y138307D01*
Y137063D01*
X317598Y135862D01*
X318219Y134784D01*
X319099Y133905D01*
X320176Y133283D01*
X321378Y132961D01*
X322622D01*
X323824Y133283D01*
X324901Y133905D01*
X325781Y134784D01*
X326402Y135862D01*
X326724Y137063D01*
Y138307D01*
X326402Y139509D01*
X325781Y140586D01*
X324901Y141465D01*
X323824Y142087D01*
X322622Y142409D01*
D02*
G37*
G36*
X102254Y132780D02*
X101745D01*
X101275Y132585D01*
X101064Y132374D01*
X100750Y132276D01*
X100436Y132374D01*
X100225Y132585D01*
X99755Y132780D01*
X99246D01*
X98775Y132585D01*
X98415Y132225D01*
X98220Y131755D01*
Y131246D01*
X98415Y130775D01*
X98626Y130564D01*
X98724Y130250D01*
X98626Y129936D01*
X98415Y129725D01*
X98220Y129254D01*
Y128745D01*
X98415Y128275D01*
X98775Y127915D01*
X99174Y127750D01*
X99195Y127614D01*
Y127386D01*
X99174Y127250D01*
X98775Y127085D01*
X98415Y126725D01*
X98220Y126254D01*
Y125745D01*
X98415Y125275D01*
X98775Y124915D01*
X99246Y124721D01*
X99755D01*
X100225Y124915D01*
X100436Y125126D01*
X100750Y125224D01*
X101064Y125126D01*
X101275Y124915D01*
X101745Y124721D01*
X102254D01*
X102725Y124915D01*
X103085Y125275D01*
X103279Y125745D01*
Y126254D01*
X103085Y126725D01*
X102725Y127085D01*
X102326Y127250D01*
X102305Y127386D01*
Y127614D01*
X102326Y127750D01*
X102725Y127915D01*
X103085Y128275D01*
X103279Y128745D01*
Y129254D01*
X103085Y129725D01*
X102874Y129936D01*
X102776Y130250D01*
X102874Y130564D01*
X103085Y130775D01*
X103279Y131246D01*
Y131755D01*
X103085Y132225D01*
X102725Y132585D01*
X102254Y132780D01*
D02*
G37*
G36*
X286754Y134280D02*
X286245D01*
X285775Y134085D01*
X285415Y133725D01*
X285221Y133255D01*
Y132746D01*
X285415Y132275D01*
X285775Y131915D01*
X286245Y131720D01*
X286754D01*
X287225Y131915D01*
X287585Y132275D01*
X287779Y132746D01*
Y133255D01*
X287585Y133725D01*
X287225Y134085D01*
X286754Y134280D01*
D02*
G37*
G36*
X76854D02*
X76345D01*
X75875Y134085D01*
X75515Y133725D01*
X75321Y133255D01*
Y132746D01*
X75515Y132275D01*
X75875Y131915D01*
X76345Y131720D01*
X76854D01*
X77325Y131915D01*
X77685Y132275D01*
X77880Y132746D01*
Y133255D01*
X77685Y133725D01*
X77325Y134085D01*
X76854Y134280D01*
D02*
G37*
G36*
X59154Y133379D02*
X58645D01*
X58175Y133185D01*
X57815Y132825D01*
X57621Y132354D01*
Y131845D01*
X57815Y131375D01*
X57443Y131066D01*
X57443Y131067D01*
X57425Y131085D01*
X56954Y131280D01*
X56445D01*
X55975Y131085D01*
X55615Y130725D01*
X55421Y130254D01*
Y129745D01*
X55615Y129275D01*
X55975Y128915D01*
X56445Y128720D01*
X56954D01*
X57425Y128915D01*
X57785Y129275D01*
X57980Y129745D01*
Y130254D01*
X57785Y130725D01*
X58157Y131034D01*
X58157Y131033D01*
X58175Y131015D01*
X58645Y130821D01*
X59154D01*
X59625Y131015D01*
X59985Y131375D01*
X60180Y131845D01*
Y132354D01*
X59985Y132825D01*
X59625Y133185D01*
X59154Y133379D01*
D02*
G37*
G36*
X92755Y132980D02*
X92246D01*
X91775Y132785D01*
X91415Y132425D01*
X91220Y131955D01*
Y131446D01*
X91415Y130975D01*
X91775Y130615D01*
X92246Y130420D01*
X92755D01*
X93225Y130615D01*
X93585Y130975D01*
X93779Y131446D01*
Y131955D01*
X93585Y132425D01*
X93225Y132785D01*
X92755Y132980D01*
D02*
G37*
G36*
X39355Y132879D02*
X38846D01*
X38375Y132685D01*
X38015Y132325D01*
X37821Y131854D01*
Y131345D01*
X38015Y130875D01*
X38375Y130515D01*
X38846Y130321D01*
X39355D01*
X39825Y130515D01*
X40185Y130875D01*
X40380Y131345D01*
Y131854D01*
X40185Y132325D01*
X39825Y132685D01*
X39355Y132879D01*
D02*
G37*
G36*
X109331Y131679D02*
X108822D01*
X108351Y131485D01*
X107991Y131125D01*
X107797Y130655D01*
Y130146D01*
X107991Y129675D01*
X108351Y129315D01*
X108822Y129121D01*
X109331D01*
X109801Y129315D01*
X110161Y129675D01*
X110356Y130146D01*
Y130655D01*
X110161Y131125D01*
X109801Y131485D01*
X109331Y131679D01*
D02*
G37*
G36*
X15055Y132080D02*
X14546D01*
X14075Y131885D01*
X13715Y131525D01*
X13521Y131054D01*
Y130545D01*
X13715Y130075D01*
X13909Y129881D01*
X13844Y129330D01*
X13830Y129307D01*
X13775Y129285D01*
X13415Y128925D01*
X13329Y128717D01*
X12788D01*
X12785Y128725D01*
X12503Y129007D01*
X12458Y129300D01*
X12503Y129594D01*
X12785Y129875D01*
X12979Y130345D01*
Y130854D01*
X12785Y131325D01*
X12425Y131685D01*
X11954Y131879D01*
X11445D01*
X10975Y131685D01*
X10615Y131325D01*
X10420Y130854D01*
Y130345D01*
X10615Y129875D01*
X10897Y129594D01*
X10942Y129300D01*
X10897Y129007D01*
X10615Y128725D01*
X10420Y128254D01*
Y127745D01*
X10615Y127275D01*
X10975Y126915D01*
X11083Y126871D01*
Y126329D01*
X10975Y126285D01*
X10615Y125925D01*
X10420Y125454D01*
Y124945D01*
X10615Y124475D01*
X10975Y124115D01*
X11445Y123921D01*
X11954D01*
X12425Y124115D01*
X12805Y124035D01*
X12775Y123685D01*
X12415Y123325D01*
X12220Y122854D01*
Y122345D01*
X12415Y121875D01*
X12775Y121515D01*
X13246Y121320D01*
X13755D01*
X14225Y121515D01*
X14585Y121875D01*
X14780Y122345D01*
Y122854D01*
X14585Y123325D01*
X14579Y123331D01*
X14574Y123429D01*
X14725Y123891D01*
X15025Y124015D01*
X15385Y124375D01*
X15579Y124846D01*
Y125355D01*
X15385Y125825D01*
X15025Y126185D01*
X14555Y126380D01*
X14045D01*
X13575Y126185D01*
X13323Y125932D01*
X12889Y125926D01*
X12736Y125974D01*
X12425Y126285D01*
X12317Y126329D01*
Y126871D01*
X12425Y126915D01*
X12785Y127275D01*
X12871Y127483D01*
X13412D01*
X13415Y127475D01*
X13775Y127115D01*
X14245Y126920D01*
X14754D01*
X15225Y127115D01*
X15585Y127475D01*
X15779Y127945D01*
Y128454D01*
X15585Y128925D01*
X15391Y129119D01*
X15457Y129670D01*
X15470Y129693D01*
X15525Y129715D01*
X15885Y130075D01*
X16080Y130545D01*
Y131054D01*
X15885Y131525D01*
X15525Y131885D01*
X15055Y132080D01*
D02*
G37*
G36*
X81055Y129980D02*
X80546D01*
X80075Y129785D01*
X79715Y129425D01*
X79520Y128955D01*
Y128445D01*
X79715Y127975D01*
X80075Y127615D01*
X80546Y127420D01*
X81055D01*
X81525Y127615D01*
X81885Y127975D01*
X82079Y128445D01*
Y128955D01*
X81885Y129425D01*
X81525Y129785D01*
X81055Y129980D01*
D02*
G37*
G36*
X71125Y129709D02*
X70616D01*
X70146Y129514D01*
X69786Y129154D01*
X69591Y128684D01*
Y128175D01*
X69786Y127705D01*
X70146Y127345D01*
X70616Y127150D01*
X71125D01*
X71595Y127345D01*
X71955Y127705D01*
X72150Y128175D01*
Y128684D01*
X71955Y129154D01*
X71595Y129514D01*
X71125Y129709D01*
D02*
G37*
G36*
X39255Y127880D02*
X38745D01*
X38275Y127685D01*
X37915Y127325D01*
X37721Y126855D01*
Y126346D01*
X37915Y125875D01*
X38275Y125515D01*
X38745Y125320D01*
X39255D01*
X39725Y125515D01*
X40085Y125875D01*
X40279Y126346D01*
Y126855D01*
X40085Y127325D01*
X39725Y127685D01*
X39255Y127880D01*
D02*
G37*
G36*
X48055Y127680D02*
X47545D01*
X47075Y127485D01*
X46715Y127125D01*
X46521Y126655D01*
Y126146D01*
X46715Y125675D01*
X47075Y125315D01*
X47545Y125120D01*
X48055D01*
X48525Y125315D01*
X48885Y125675D01*
X49079Y126146D01*
Y126655D01*
X48885Y127125D01*
X48525Y127485D01*
X48055Y127680D01*
D02*
G37*
G36*
X54554Y126279D02*
X54045D01*
X53575Y126085D01*
X53215Y125725D01*
X53021Y125254D01*
Y124746D01*
X53215Y124275D01*
X53575Y123915D01*
X54045Y123721D01*
X54554D01*
X55025Y123915D01*
X55385Y124275D01*
X55580Y124746D01*
Y125254D01*
X55385Y125725D01*
X55025Y126085D01*
X54554Y126279D01*
D02*
G37*
G36*
X22824Y123849D02*
X22315D01*
X21845Y123654D01*
X21485Y123294D01*
X21290Y122824D01*
Y122315D01*
X21485Y121844D01*
X21845Y121485D01*
X22315Y121290D01*
X22824D01*
X23294Y121485D01*
X23654Y121844D01*
X23849Y122315D01*
Y122824D01*
X23654Y123294D01*
X23294Y123654D01*
X22824Y123849D01*
D02*
G37*
G36*
X101555Y120080D02*
X101046D01*
X100575Y119885D01*
X100215Y119525D01*
X100021Y119054D01*
Y118545D01*
X100215Y118075D01*
X100575Y117715D01*
X101046Y117520D01*
X101555D01*
X102025Y117715D01*
X102385Y118075D01*
X102579Y118545D01*
Y119054D01*
X102385Y119525D01*
X102025Y119885D01*
X101555Y120080D01*
D02*
G37*
G36*
X39355Y119580D02*
X38846D01*
X38375Y119385D01*
X38015Y119025D01*
X37821Y118554D01*
Y118045D01*
X38015Y117575D01*
X38375Y117215D01*
X38846Y117020D01*
X39355D01*
X39825Y117215D01*
X40185Y117575D01*
X40380Y118045D01*
Y118554D01*
X40185Y119025D01*
X39825Y119385D01*
X39355Y119580D01*
D02*
G37*
G36*
X86554Y124380D02*
X86045D01*
X85575Y124185D01*
X85215Y123825D01*
X85021Y123354D01*
Y122845D01*
X85215Y122375D01*
X85575Y122015D01*
X85754Y121941D01*
Y121400D01*
X85475Y121285D01*
X85115Y120925D01*
X84921Y120455D01*
Y119946D01*
X85115Y119475D01*
X85475Y119115D01*
X85533Y119091D01*
Y118550D01*
X85375Y118485D01*
X85015Y118125D01*
X84820Y117655D01*
Y117146D01*
X85015Y116675D01*
X85375Y116315D01*
X85846Y116121D01*
X86355D01*
X86825Y116315D01*
X87185Y116675D01*
X87379Y117146D01*
Y117655D01*
X87185Y118125D01*
X86825Y118485D01*
X86767Y118509D01*
Y119050D01*
X86925Y119115D01*
X87285Y119475D01*
X87480Y119946D01*
Y120455D01*
X87285Y120925D01*
X86925Y121285D01*
X86746Y121359D01*
Y121900D01*
X87025Y122015D01*
X87385Y122375D01*
X87580Y122845D01*
Y123354D01*
X87385Y123825D01*
X87025Y124185D01*
X86554Y124380D01*
D02*
G37*
G36*
X114521Y121334D02*
X114012D01*
X113541Y121140D01*
X113181Y120780D01*
X112986Y120309D01*
Y120041D01*
X112847Y119948D01*
X112338D01*
X111868Y119753D01*
X111508Y119393D01*
X111313Y118923D01*
Y118414D01*
X111290Y118379D01*
X110845D01*
X110375Y118185D01*
X110015Y117825D01*
X109820Y117355D01*
Y116846D01*
X110015Y116375D01*
X110375Y116015D01*
X110845Y115821D01*
X111354D01*
X111825Y116015D01*
X112185Y116375D01*
X112380Y116846D01*
Y117355D01*
X112403Y117389D01*
X112847D01*
X113318Y117584D01*
X113678Y117944D01*
X113872Y118414D01*
Y118682D01*
X114012Y118775D01*
X114521D01*
X114991Y118970D01*
X115351Y119330D01*
X115545Y119800D01*
Y120309D01*
X115351Y120780D01*
X114991Y121140D01*
X114521Y121334D01*
D02*
G37*
G36*
X73070Y112180D02*
X72561D01*
X72091Y111985D01*
X71731Y111625D01*
X71536Y111154D01*
Y110645D01*
X71731Y110175D01*
X72091Y109815D01*
X72561Y109620D01*
X73070D01*
X73540Y109815D01*
X73900Y110175D01*
X74095Y110645D01*
Y111154D01*
X73900Y111625D01*
X73540Y111985D01*
X73070Y112180D01*
D02*
G37*
G36*
X39355Y110880D02*
X38846D01*
X38375Y110685D01*
X38015Y110325D01*
X37821Y109854D01*
Y109345D01*
X38015Y108875D01*
X38375Y108515D01*
X38774Y108350D01*
X38795Y108214D01*
Y107986D01*
X38774Y107850D01*
X38375Y107685D01*
X38015Y107325D01*
X37821Y106854D01*
Y106345D01*
X38015Y105875D01*
X38375Y105515D01*
X38846Y105321D01*
X39355D01*
X39825Y105515D01*
X40185Y105875D01*
X40380Y106345D01*
Y106854D01*
X40185Y107325D01*
X39825Y107685D01*
X39426Y107850D01*
X39405Y107986D01*
Y108214D01*
X39426Y108350D01*
X39825Y108515D01*
X40185Y108875D01*
X40380Y109345D01*
Y109854D01*
X40185Y110325D01*
X39825Y110685D01*
X39355Y110880D01*
D02*
G37*
G36*
X219055Y101579D02*
X218546D01*
X218075Y101385D01*
X217715Y101025D01*
X217679Y100938D01*
X217466Y100889D01*
X217119Y100891D01*
X216825Y101185D01*
X216354Y101380D01*
X215845D01*
X215375Y101185D01*
X215015Y100825D01*
X214991Y100767D01*
X214450D01*
X214385Y100925D01*
X214025Y101285D01*
X213555Y101479D01*
X213046D01*
X212575Y101285D01*
X212215Y100925D01*
X211685D01*
X211325Y101285D01*
X210855Y101479D01*
X210346D01*
X209875Y101285D01*
X209515Y100925D01*
X209320Y100454D01*
Y99945D01*
X209515Y99475D01*
X209875Y99115D01*
X210203Y98980D01*
X210154Y98552D01*
X210124Y98471D01*
X209675Y98285D01*
X209315Y97925D01*
X209120Y97455D01*
Y96946D01*
X209315Y96475D01*
X209675Y96115D01*
X210145Y95920D01*
X210654D01*
X211125Y96115D01*
X211485Y96475D01*
X211550Y96633D01*
X212091D01*
X212115Y96575D01*
X212475Y96215D01*
X212946Y96021D01*
X213455D01*
X213925Y96215D01*
X214285Y96575D01*
X214815D01*
X215175Y96215D01*
X215646Y96021D01*
X216155D01*
X216625Y96215D01*
X216985Y96575D01*
X217121Y96903D01*
X217548Y96854D01*
X217629Y96825D01*
X217815Y96375D01*
X218175Y96015D01*
X218646Y95820D01*
X219155D01*
X219625Y96015D01*
X219985Y96375D01*
X220180Y96846D01*
Y97355D01*
X219985Y97825D01*
X219625Y98185D01*
X219155Y98379D01*
X218646D01*
X218175Y98185D01*
X217815Y97825D01*
X217680Y97497D01*
X217252Y97546D01*
X217171Y97575D01*
X216985Y98025D01*
X216625Y98385D01*
X216617Y98388D01*
Y98929D01*
X216825Y99015D01*
X217185Y99375D01*
X217221Y99462D01*
X217434Y99511D01*
X217781Y99509D01*
X218075Y99215D01*
X218546Y99020D01*
X219055D01*
X219525Y99215D01*
X219885Y99575D01*
X220079Y100046D01*
Y100555D01*
X219885Y101025D01*
X219525Y101385D01*
X219055Y101579D01*
D02*
G37*
G36*
X82055Y102880D02*
X81546D01*
X81075Y102685D01*
X80715Y102325D01*
X80520Y101855D01*
Y101346D01*
X80715Y100875D01*
X81075Y100515D01*
X81546Y100320D01*
X82055D01*
X82525Y100515D01*
X82885Y100875D01*
X83079Y101346D01*
Y101855D01*
X82885Y102325D01*
X82525Y102685D01*
X82055Y102880D01*
D02*
G37*
G36*
X84511Y98167D02*
X83689D01*
X83017Y97889D01*
X82346Y98167D01*
X81524D01*
X80764Y97852D01*
X80182Y97271D01*
X79868Y96511D01*
Y95689D01*
X80182Y94929D01*
X80764Y94348D01*
X81524Y94033D01*
X82346D01*
X83017Y94311D01*
X83689Y94033D01*
X84511D01*
X85271Y94348D01*
X85852Y94929D01*
X86167Y95689D01*
Y96511D01*
X85852Y97271D01*
X85271Y97852D01*
X84511Y98167D01*
D02*
G37*
G36*
X31054Y99980D02*
X30545D01*
X30075Y99785D01*
X29715Y99425D01*
X29520Y98954D01*
Y98445D01*
X29715Y97975D01*
X30075Y97615D01*
X30545Y97421D01*
X31054D01*
X31525Y97615D01*
X31885Y97975D01*
X32079Y98445D01*
Y98954D01*
X31885Y99425D01*
X31525Y99785D01*
X31054Y99980D01*
D02*
G37*
G36*
X16555Y96680D02*
X16046D01*
X15575Y96485D01*
X15215Y96125D01*
X15021Y95654D01*
Y95145D01*
X15215Y94675D01*
X15575Y94315D01*
X16046Y94121D01*
X16555D01*
X17025Y94315D01*
X17385Y94675D01*
X17580Y95145D01*
Y95654D01*
X17385Y96125D01*
X17025Y96485D01*
X16555Y96680D01*
D02*
G37*
G36*
X74854Y92779D02*
X74345D01*
X73875Y92585D01*
X73515Y92225D01*
X73321Y91755D01*
Y91246D01*
X73515Y90775D01*
X73875Y90415D01*
X74345Y90220D01*
X74854D01*
X75325Y90415D01*
X75685Y90775D01*
X75880Y91246D01*
Y91755D01*
X75685Y92225D01*
X75325Y92585D01*
X74854Y92779D01*
D02*
G37*
G36*
X101254Y92279D02*
X100745D01*
X100275Y92085D01*
X99915Y91725D01*
X99721Y91255D01*
Y90746D01*
X99915Y90275D01*
X99951Y90239D01*
X99810Y89910D01*
X99704Y89780D01*
X99246D01*
X98775Y89585D01*
X98664Y89474D01*
X98240Y89342D01*
X98023Y89486D01*
X97825Y89685D01*
X97355Y89880D01*
X96846D01*
X96375Y89685D01*
X96015Y89325D01*
X95820Y88854D01*
Y88345D01*
X96015Y87875D01*
X96375Y87515D01*
X96846Y87321D01*
X97355D01*
X97825Y87515D01*
X97936Y87626D01*
X98360Y87758D01*
X98577Y87614D01*
X98775Y87415D01*
X99246Y87221D01*
X99755D01*
X100225Y87415D01*
X100585Y87775D01*
X100779Y88245D01*
Y88754D01*
X100585Y89225D01*
X100549Y89261D01*
X100690Y89590D01*
X100796Y89720D01*
X101254D01*
X101725Y89915D01*
X102085Y90275D01*
X102279Y90746D01*
Y91255D01*
X102085Y91725D01*
X101725Y92085D01*
X101254Y92279D01*
D02*
G37*
G36*
X94254Y90280D02*
X93745D01*
X93275Y90085D01*
X92915Y89725D01*
X92721Y89254D01*
X92225Y89085D01*
X91755Y89280D01*
X91246D01*
X90775Y89085D01*
X90415Y88725D01*
X90220Y88254D01*
Y87745D01*
X90415Y87275D01*
X90775Y86915D01*
X91246Y86721D01*
X91755D01*
X92225Y86915D01*
X92585Y87275D01*
X92779Y87745D01*
X93275Y87915D01*
X93745Y87721D01*
X94254D01*
X94725Y87915D01*
X95085Y88275D01*
X95280Y88745D01*
Y89254D01*
X95085Y89725D01*
X94725Y90085D01*
X94254Y90280D01*
D02*
G37*
G36*
X75155Y86680D02*
X74646D01*
X74175Y86485D01*
X73815Y86125D01*
X73620Y85654D01*
Y85145D01*
X73815Y84675D01*
X74175Y84315D01*
X74646Y84121D01*
X75155D01*
X75625Y84315D01*
X75985Y84675D01*
X76179Y85145D01*
Y85654D01*
X75985Y86125D01*
X75625Y86485D01*
X75155Y86680D01*
D02*
G37*
G36*
X79355Y82380D02*
X78846D01*
X78375Y82185D01*
X78164Y81974D01*
X77850Y81876D01*
X77536Y81974D01*
X77325Y82185D01*
X76854Y82380D01*
X76345D01*
X75875Y82185D01*
X75515Y81825D01*
X75321Y81354D01*
Y80845D01*
X75515Y80375D01*
X75875Y80015D01*
X76345Y79821D01*
X76854D01*
X77325Y80015D01*
X77536Y80226D01*
X77850Y80324D01*
X78164Y80226D01*
X78375Y80015D01*
X78846Y79821D01*
X79355D01*
X79825Y80015D01*
X80185Y80375D01*
X80379Y80845D01*
Y81354D01*
X80185Y81825D01*
X79825Y82185D01*
X79355Y82380D01*
D02*
G37*
G36*
X44754Y82780D02*
X44245D01*
X43775Y82585D01*
X43415Y82225D01*
X43274Y81883D01*
X42801Y81825D01*
X42753Y81833D01*
X42685Y81998D01*
X42325Y82358D01*
X41855Y82553D01*
X41346D01*
X40875Y82358D01*
X40515Y81998D01*
X40321Y81528D01*
Y81019D01*
X40515Y80548D01*
X40875Y80189D01*
X41346Y79994D01*
X41855D01*
X42325Y80189D01*
X42685Y80548D01*
X42826Y80890D01*
X43299Y80948D01*
X43347Y80940D01*
X43415Y80775D01*
X43775Y80415D01*
X44245Y80221D01*
X44754D01*
X45225Y80415D01*
X45585Y80775D01*
X45779Y81245D01*
Y81754D01*
X45585Y82225D01*
X45225Y82585D01*
X44754Y82780D01*
D02*
G37*
G36*
X33454Y83179D02*
X32945D01*
X32475Y82985D01*
X32115Y82625D01*
X31920Y82155D01*
Y81646D01*
X32115Y81175D01*
X32475Y80815D01*
X32945Y80620D01*
X33454D01*
X33925Y80815D01*
X34177Y81068D01*
X34611Y81074D01*
X34764Y81026D01*
X35075Y80715D01*
X35546Y80520D01*
X36055D01*
X36525Y80715D01*
X36885Y81075D01*
X37080Y81546D01*
Y82055D01*
X36885Y82525D01*
X36525Y82885D01*
X36055Y83079D01*
X35546D01*
X35075Y82885D01*
X34823Y82632D01*
X34389Y82626D01*
X34236Y82674D01*
X33925Y82985D01*
X33454Y83179D01*
D02*
G37*
G36*
X16689Y86049D02*
X15911D01*
X15160Y85848D01*
X14487Y85459D01*
X13937Y84909D01*
X13548Y84236D01*
X13347Y83485D01*
Y82707D01*
X13548Y81956D01*
X13937Y81283D01*
X14487Y80733D01*
X15160Y80344D01*
X15911Y80143D01*
X16689D01*
X17440Y80344D01*
X18113Y80733D01*
X18663Y81283D01*
X19051Y81956D01*
X19253Y82707D01*
Y83485D01*
X19051Y84236D01*
X18663Y84909D01*
X18113Y85459D01*
X17440Y85848D01*
X16689Y86049D01*
D02*
G37*
G36*
X8815D02*
X8037D01*
X7286Y85848D01*
X6613Y85459D01*
X6063Y84909D01*
X5675Y84236D01*
X5473Y83485D01*
Y82707D01*
X5675Y81956D01*
X6063Y81283D01*
X6613Y80733D01*
X7286Y80344D01*
X8037Y80143D01*
X8815D01*
X9566Y80344D01*
X10239Y80733D01*
X10789Y81283D01*
X11178Y81956D01*
X11379Y82707D01*
Y83485D01*
X11178Y84236D01*
X10789Y84909D01*
X10239Y85459D01*
X9566Y85848D01*
X8815Y86049D01*
D02*
G37*
G36*
X98255Y79280D02*
X97746D01*
X97275Y79085D01*
X96915Y78725D01*
X96720Y78254D01*
Y77745D01*
X96915Y77275D01*
X97275Y76915D01*
X97746Y76720D01*
X98255D01*
X98725Y76915D01*
X99085Y77275D01*
X99279Y77745D01*
Y78254D01*
X99085Y78725D01*
X98725Y79085D01*
X98255Y79280D01*
D02*
G37*
G36*
X46255Y79779D02*
X45746D01*
X45275Y79585D01*
X44915Y79225D01*
X44721Y78755D01*
Y78246D01*
X44915Y77775D01*
X45275Y77415D01*
X45674Y77250D01*
X45695Y77114D01*
Y76886D01*
X45674Y76750D01*
X45275Y76585D01*
X44915Y76225D01*
X44721Y75754D01*
Y75245D01*
X44915Y74775D01*
X45275Y74415D01*
X45746Y74221D01*
X46255D01*
X46725Y74415D01*
X47085Y74775D01*
X47280Y75245D01*
Y75754D01*
X47085Y76225D01*
X46725Y76585D01*
X46326Y76750D01*
X46305Y76886D01*
Y77114D01*
X46326Y77250D01*
X46725Y77415D01*
X47085Y77775D01*
X47280Y78246D01*
Y78755D01*
X47085Y79225D01*
X46725Y79585D01*
X46255Y79779D01*
D02*
G37*
G36*
X16689Y78175D02*
X15911D01*
X15160Y77974D01*
X14487Y77585D01*
X13937Y77035D01*
X13548Y76362D01*
X13347Y75611D01*
Y74833D01*
X13548Y74082D01*
X13937Y73409D01*
X14487Y72859D01*
X15160Y72470D01*
X15911Y72269D01*
X16689D01*
X17440Y72470D01*
X18113Y72859D01*
X18663Y73409D01*
X19051Y74082D01*
X19253Y74833D01*
Y75611D01*
X19051Y76362D01*
X18663Y77035D01*
X18113Y77585D01*
X17440Y77974D01*
X16689Y78175D01*
D02*
G37*
G36*
X8815D02*
X8037D01*
X7286Y77974D01*
X6613Y77585D01*
X6063Y77035D01*
X5675Y76362D01*
X5473Y75611D01*
Y74833D01*
X5675Y74082D01*
X6063Y73409D01*
X6613Y72859D01*
X7286Y72470D01*
X8037Y72269D01*
X8815D01*
X9566Y72470D01*
X10239Y72859D01*
X10789Y73409D01*
X11178Y74082D01*
X11379Y74833D01*
Y75611D01*
X11178Y76362D01*
X10789Y77035D01*
X10239Y77585D01*
X9566Y77974D01*
X8815Y78175D01*
D02*
G37*
G36*
X266755Y73779D02*
X266246D01*
X265775Y73585D01*
X265415Y73225D01*
X265220Y72755D01*
Y72246D01*
X265415Y71775D01*
X265775Y71415D01*
X266246Y71220D01*
X266755D01*
X267225Y71415D01*
X267585Y71775D01*
X267779Y72246D01*
Y72755D01*
X267585Y73225D01*
X267225Y73585D01*
X266755Y73779D01*
D02*
G37*
G36*
X100754Y73280D02*
X100245D01*
X99775Y73085D01*
X99415Y72725D01*
X99221Y72255D01*
Y71746D01*
X99415Y71275D01*
X99775Y70915D01*
X100245Y70720D01*
X100754D01*
X101225Y70915D01*
X101585Y71275D01*
X101779Y71746D01*
Y72255D01*
X101585Y72725D01*
X101225Y73085D01*
X100754Y73280D01*
D02*
G37*
G36*
X94254Y78780D02*
X93745D01*
X93275Y78585D01*
X92915Y78225D01*
X92721Y77754D01*
Y77245D01*
X92915Y76775D01*
X93275Y76415D01*
X93362Y76379D01*
X93480Y75789D01*
X93415Y75725D01*
X93221Y75254D01*
Y74746D01*
X93415Y74275D01*
X93775Y73915D01*
X94245Y73721D01*
X94754D01*
X95225Y73915D01*
X95548Y74238D01*
X95796Y74249D01*
X96100Y74212D01*
X96115Y74175D01*
X96475Y73815D01*
X96653Y73742D01*
X96604Y73221D01*
X96275Y73085D01*
X95915Y72725D01*
X95720Y72255D01*
Y71746D01*
X95915Y71275D01*
X96275Y70915D01*
X96746Y70720D01*
X97255D01*
X97725Y70915D01*
X98085Y71275D01*
X98280Y71746D01*
Y72255D01*
X98085Y72725D01*
X97725Y73085D01*
X97547Y73159D01*
X97596Y73679D01*
X97925Y73815D01*
X98285Y74175D01*
X98479Y74646D01*
Y75155D01*
X98285Y75625D01*
X97925Y75985D01*
X97455Y76179D01*
X96946D01*
X96475Y75985D01*
X96152Y75662D01*
X95904Y75651D01*
X95600Y75688D01*
X95585Y75725D01*
X95225Y76085D01*
X95138Y76121D01*
X95020Y76711D01*
X95085Y76775D01*
X95280Y77245D01*
Y77754D01*
X95085Y78225D01*
X94725Y78585D01*
X94254Y78780D01*
D02*
G37*
G36*
X16689Y70301D02*
X15911D01*
X15160Y70100D01*
X14487Y69711D01*
X13937Y69161D01*
X13548Y68488D01*
X13347Y67737D01*
Y66959D01*
X13548Y66208D01*
X13937Y65535D01*
X14487Y64985D01*
X15160Y64596D01*
X15911Y64395D01*
X16689D01*
X17440Y64596D01*
X18113Y64985D01*
X18663Y65535D01*
X19051Y66208D01*
X19253Y66959D01*
Y67737D01*
X19051Y68488D01*
X18663Y69161D01*
X18113Y69711D01*
X17440Y70100D01*
X16689Y70301D01*
D02*
G37*
G36*
X8815D02*
X8037D01*
X7286Y70100D01*
X6613Y69711D01*
X6063Y69161D01*
X5675Y68488D01*
X5473Y67737D01*
Y66959D01*
X5675Y66208D01*
X6063Y65535D01*
X6613Y64985D01*
X7286Y64596D01*
X8037Y64395D01*
X8815D01*
X9566Y64596D01*
X10239Y64985D01*
X10789Y65535D01*
X11178Y66208D01*
X11379Y66959D01*
Y67737D01*
X11178Y68488D01*
X10789Y69161D01*
X10239Y69711D01*
X9566Y70100D01*
X8815Y70301D01*
D02*
G37*
G36*
X71841Y69647D02*
X70959D01*
X70108Y69418D01*
X69345Y68978D01*
X68722Y68355D01*
X68282Y67592D01*
X68054Y66741D01*
Y65859D01*
X68282Y65008D01*
X68722Y64245D01*
X69345Y63622D01*
X70108Y63182D01*
X70959Y62954D01*
X71841D01*
X72692Y63182D01*
X73455Y63622D01*
X74078Y64245D01*
X74518Y65008D01*
X74747Y65859D01*
Y66741D01*
X74518Y67592D01*
X74078Y68355D01*
X73455Y68978D01*
X72692Y69418D01*
X71841Y69647D01*
D02*
G37*
G36*
X61841D02*
X60959D01*
X60108Y69418D01*
X59345Y68978D01*
X58722Y68355D01*
X58282Y67592D01*
X58053Y66741D01*
Y65859D01*
X58282Y65008D01*
X58722Y64245D01*
X59345Y63622D01*
X60108Y63182D01*
X60959Y62954D01*
X61841D01*
X62692Y63182D01*
X63455Y63622D01*
X64078Y64245D01*
X64518Y65008D01*
X64746Y65859D01*
Y66741D01*
X64518Y67592D01*
X64078Y68355D01*
X63455Y68978D01*
X62692Y69418D01*
X61841Y69647D01*
D02*
G37*
G36*
X51841D02*
X50959D01*
X50108Y69418D01*
X49345Y68978D01*
X48722Y68355D01*
X48282Y67592D01*
X48054Y66741D01*
Y65859D01*
X48282Y65008D01*
X48722Y64245D01*
X49345Y63622D01*
X50108Y63182D01*
X50959Y62954D01*
X51841D01*
X52692Y63182D01*
X53455Y63622D01*
X54078Y64245D01*
X54518Y65008D01*
X54747Y65859D01*
Y66741D01*
X54518Y67592D01*
X54078Y68355D01*
X53455Y68978D01*
X52692Y69418D01*
X51841Y69647D01*
D02*
G37*
G36*
X27555Y63579D02*
X27046D01*
X26575Y63385D01*
X26215Y63025D01*
X26021Y62555D01*
Y62046D01*
X26215Y61575D01*
X26575Y61215D01*
X27046Y61020D01*
X27555D01*
X28025Y61215D01*
X28385Y61575D01*
X28580Y62046D01*
Y62555D01*
X28385Y63025D01*
X28025Y63385D01*
X27555Y63579D01*
D02*
G37*
G36*
X109755Y63279D02*
X109246D01*
X108775Y63085D01*
X108415Y62725D01*
X108221Y62255D01*
Y61746D01*
X108415Y61275D01*
X108775Y60915D01*
X109246Y60720D01*
X109755D01*
X110225Y60915D01*
X110585Y61275D01*
X110780Y61746D01*
Y62255D01*
X110585Y62725D01*
X110225Y63085D01*
X109755Y63279D01*
D02*
G37*
G36*
X106755Y61779D02*
X106246D01*
X105775Y61585D01*
X105415Y61225D01*
X105220Y60755D01*
Y60246D01*
X105415Y59775D01*
X105775Y59415D01*
X106246Y59220D01*
X106755D01*
X107225Y59415D01*
X107585Y59775D01*
X107780Y60246D01*
Y60755D01*
X107585Y61225D01*
X107225Y61585D01*
X106755Y61779D01*
D02*
G37*
G36*
X209754Y60780D02*
X209245D01*
X208775Y60585D01*
X208415Y60225D01*
X208221Y59755D01*
Y59246D01*
X208415Y58775D01*
X208775Y58415D01*
X209245Y58220D01*
X209754D01*
X210225Y58415D01*
X210585Y58775D01*
X210780Y59246D01*
Y59755D01*
X210585Y60225D01*
X210225Y60585D01*
X209754Y60780D01*
D02*
G37*
G36*
X104254Y59780D02*
X103745D01*
X103275Y59585D01*
X102915Y59225D01*
X102720Y58754D01*
Y58245D01*
X102779Y58103D01*
X102397Y57721D01*
X102254Y57780D01*
X101745D01*
X101275Y57585D01*
X100915Y57225D01*
X100721Y56754D01*
Y56296D01*
X100590Y56190D01*
X100261Y56049D01*
X100225Y56085D01*
X99755Y56279D01*
X99246D01*
X98775Y56085D01*
X98415Y55725D01*
X98220Y55255D01*
Y55128D01*
X97755Y54779D01*
X97246D01*
X96775Y54585D01*
X96415Y54225D01*
X96220Y53755D01*
Y53246D01*
X96415Y52775D01*
X96775Y52415D01*
X97246Y52220D01*
X97755D01*
X98225Y52415D01*
X98585Y52775D01*
X98779Y53246D01*
Y53372D01*
X99246Y53720D01*
X99372D01*
X99721Y53254D01*
Y52745D01*
X99915Y52275D01*
X100275Y51915D01*
X100745Y51720D01*
X101254D01*
X101725Y51915D01*
X102085Y52275D01*
X102279Y52745D01*
Y53254D01*
X102085Y53725D01*
X101725Y54085D01*
X101254Y54280D01*
X101128D01*
X100779Y54746D01*
Y55204D01*
X100910Y55310D01*
X101239Y55451D01*
X101275Y55415D01*
X101745Y55221D01*
X102254D01*
X102397Y55279D01*
X102779Y54897D01*
X102720Y54755D01*
Y54246D01*
X102915Y53775D01*
X103275Y53415D01*
X103745Y53220D01*
X104254D01*
X104725Y53415D01*
X105085Y53775D01*
X105280Y54246D01*
Y54755D01*
X105085Y55225D01*
X104725Y55585D01*
X104254Y55779D01*
X103745D01*
X103603Y55721D01*
X103221Y56103D01*
X103279Y56245D01*
Y56754D01*
X103221Y56897D01*
X103603Y57279D01*
X103745Y57221D01*
X104254D01*
X104725Y57415D01*
X105085Y57775D01*
X105280Y58245D01*
Y58754D01*
X105085Y59225D01*
X104725Y59585D01*
X104254Y59780D01*
D02*
G37*
G36*
X109755D02*
X109246D01*
X108775Y59585D01*
X108415Y59225D01*
X108221Y58754D01*
Y58245D01*
X108415Y57775D01*
X108775Y57415D01*
X109246Y57221D01*
X109755D01*
X110225Y57415D01*
X110585Y57775D01*
X110780Y58245D01*
Y58754D01*
X110585Y59225D01*
X110225Y59585D01*
X109755Y59780D01*
D02*
G37*
G36*
X8815Y62427D02*
X8037D01*
X7286Y62226D01*
X6613Y61837D01*
X6063Y61287D01*
X5675Y60614D01*
X5473Y59863D01*
Y59085D01*
X5675Y58334D01*
X6063Y57661D01*
X6613Y57111D01*
X7286Y56722D01*
X8037Y56521D01*
X8815D01*
X9566Y56722D01*
X10239Y57111D01*
X10789Y57661D01*
X11178Y58334D01*
X11379Y59085D01*
Y59863D01*
X11178Y60614D01*
X10789Y61287D01*
X10239Y61837D01*
X9566Y62226D01*
X8815Y62427D01*
D02*
G37*
G36*
X106755Y57780D02*
X106246D01*
X105775Y57585D01*
X105415Y57225D01*
X105220Y56754D01*
Y56245D01*
X105415Y55775D01*
X105775Y55415D01*
X106246Y55221D01*
X106755D01*
X107225Y55415D01*
X107585Y55775D01*
X107780Y56245D01*
Y56754D01*
X107585Y57225D01*
X107225Y57585D01*
X106755Y57780D01*
D02*
G37*
G36*
X81841Y59646D02*
X80959D01*
X80108Y59418D01*
X79345Y58978D01*
X78722Y58355D01*
X78282Y57592D01*
X78053Y56741D01*
Y55859D01*
X78282Y55008D01*
X78722Y54245D01*
X79345Y53622D01*
X80108Y53182D01*
X80959Y52953D01*
X81841D01*
X82692Y53182D01*
X83455Y53622D01*
X84078Y54245D01*
X84518Y55008D01*
X84746Y55859D01*
Y56741D01*
X84518Y57592D01*
X84078Y58355D01*
X83455Y58978D01*
X82692Y59418D01*
X81841Y59646D01*
D02*
G37*
G36*
X71841D02*
X70959D01*
X70108Y59418D01*
X69345Y58978D01*
X68722Y58355D01*
X68282Y57592D01*
X68054Y56741D01*
Y55859D01*
X68282Y55008D01*
X68722Y54245D01*
X69345Y53622D01*
X70108Y53182D01*
X70959Y52953D01*
X71841D01*
X72692Y53182D01*
X73455Y53622D01*
X74078Y54245D01*
X74518Y55008D01*
X74747Y55859D01*
Y56741D01*
X74518Y57592D01*
X74078Y58355D01*
X73455Y58978D01*
X72692Y59418D01*
X71841Y59646D01*
D02*
G37*
G36*
X61841D02*
X60959D01*
X60108Y59418D01*
X59345Y58978D01*
X58722Y58355D01*
X58282Y57592D01*
X58053Y56741D01*
Y55859D01*
X58282Y55008D01*
X58722Y54245D01*
X59345Y53622D01*
X60108Y53182D01*
X60959Y52953D01*
X61841D01*
X62692Y53182D01*
X63455Y53622D01*
X64078Y54245D01*
X64518Y55008D01*
X64746Y55859D01*
Y56741D01*
X64518Y57592D01*
X64078Y58355D01*
X63455Y58978D01*
X62692Y59418D01*
X61841Y59646D01*
D02*
G37*
G36*
X54747D02*
X48054D01*
Y52953D01*
X54747D01*
Y59646D01*
D02*
G37*
G36*
X16689Y54553D02*
X15911D01*
X15160Y54352D01*
X14487Y53963D01*
X13937Y53413D01*
X13548Y52740D01*
X13347Y51989D01*
Y51211D01*
X13548Y50460D01*
X13937Y49787D01*
X14487Y49237D01*
X15160Y48849D01*
X15911Y48647D01*
X16689D01*
X17440Y48849D01*
X18113Y49237D01*
X18663Y49787D01*
X19051Y50460D01*
X19253Y51211D01*
Y51989D01*
X19051Y52740D01*
X18663Y53413D01*
X18113Y53963D01*
X17440Y54352D01*
X16689Y54553D01*
D02*
G37*
G36*
X8815D02*
X8037D01*
X7286Y54352D01*
X6613Y53963D01*
X6063Y53413D01*
X5675Y52740D01*
X5473Y51989D01*
Y51211D01*
X5675Y50460D01*
X6063Y49787D01*
X6613Y49237D01*
X7286Y48849D01*
X8037Y48647D01*
X8815D01*
X9566Y48849D01*
X10239Y49237D01*
X10789Y49787D01*
X11178Y50460D01*
X11379Y51211D01*
Y51989D01*
X11178Y52740D01*
X10789Y53413D01*
X10239Y53963D01*
X9566Y54352D01*
X8815Y54553D01*
D02*
G37*
G36*
X172006Y45131D02*
X171497D01*
X171027Y44937D01*
X170667Y44577D01*
X170473Y44107D01*
Y43597D01*
X170667Y43127D01*
X171027Y42767D01*
X171497Y42572D01*
X172006D01*
X172477Y42767D01*
X172837Y43127D01*
X173031Y43597D01*
Y44107D01*
X172837Y44577D01*
X172477Y44937D01*
X172006Y45131D01*
D02*
G37*
G36*
X167007D02*
X166498D01*
X166027Y44937D01*
X165667Y44577D01*
X165472Y44107D01*
Y43597D01*
X165667Y43127D01*
X166027Y42767D01*
X166498Y42572D01*
X167007D01*
X167477Y42767D01*
X167837Y43127D01*
X168032Y43597D01*
Y44107D01*
X167837Y44577D01*
X167477Y44937D01*
X167007Y45131D01*
D02*
G37*
G36*
X16689Y46679D02*
X15911D01*
X15160Y46477D01*
X14487Y46089D01*
X13937Y45539D01*
X13548Y44866D01*
X13347Y44115D01*
Y43337D01*
X13548Y42586D01*
X13937Y41913D01*
X14487Y41363D01*
X15160Y40975D01*
X15911Y40773D01*
X16689D01*
X17440Y40975D01*
X18113Y41363D01*
X18663Y41913D01*
X19051Y42586D01*
X19253Y43337D01*
Y44115D01*
X19051Y44866D01*
X18663Y45539D01*
X18113Y46089D01*
X17440Y46477D01*
X16689Y46679D01*
D02*
G37*
G36*
X8815D02*
X8037D01*
X7286Y46477D01*
X6613Y46089D01*
X6063Y45539D01*
X5675Y44866D01*
X5473Y44115D01*
Y43337D01*
X5675Y42586D01*
X6063Y41913D01*
X6613Y41363D01*
X7286Y40975D01*
X8037Y40773D01*
X8815D01*
X9566Y40975D01*
X10239Y41363D01*
X10789Y41913D01*
X11178Y42586D01*
X11379Y43337D01*
Y44115D01*
X11178Y44866D01*
X10789Y45539D01*
X10239Y46089D01*
X9566Y46477D01*
X8815Y46679D01*
D02*
G37*
G36*
X110484Y46902D02*
X103043D01*
Y39461D01*
X110484D01*
Y46902D01*
D02*
G37*
G36*
X96348D02*
X95368D01*
X94422Y46648D01*
X93574Y46158D01*
X92881Y45465D01*
X92391Y44617D01*
X92138Y43671D01*
Y42691D01*
X92391Y41745D01*
X92881Y40897D01*
X93574Y40204D01*
X94422Y39714D01*
X95368Y39461D01*
X96348D01*
X97294Y39714D01*
X98143Y40204D01*
X98835Y40897D01*
X99325Y41745D01*
X99579Y42691D01*
Y43671D01*
X99325Y44617D01*
X98835Y45465D01*
X98143Y46158D01*
X97294Y46648D01*
X96348Y46902D01*
D02*
G37*
G36*
X85546Y47689D02*
X84359D01*
X83213Y47382D01*
X82185Y46788D01*
X81346Y45949D01*
X80752Y44921D01*
X80445Y43775D01*
Y42588D01*
X80752Y41441D01*
X81346Y40413D01*
X82185Y39574D01*
X83213Y38980D01*
X84359Y38673D01*
X85546D01*
X86693Y38980D01*
X87721Y39574D01*
X88560Y40413D01*
X89153Y41441D01*
X89461Y42588D01*
Y43775D01*
X89153Y44921D01*
X88560Y45949D01*
X87721Y46788D01*
X86693Y47382D01*
X85546Y47689D01*
D02*
G37*
G36*
X74641D02*
X73454D01*
X72307Y47382D01*
X71279Y46788D01*
X70440Y45949D01*
X69847Y44921D01*
X69539Y43775D01*
Y42588D01*
X69847Y41441D01*
X70440Y40413D01*
X71279Y39574D01*
X72307Y38980D01*
X73454Y38673D01*
X74641D01*
X75787Y38980D01*
X76815Y39574D01*
X77654Y40413D01*
X78248Y41441D01*
X78555Y42588D01*
Y43775D01*
X78248Y44921D01*
X77654Y45949D01*
X76815Y46788D01*
X75787Y47382D01*
X74641Y47689D01*
D02*
G37*
G36*
X204955Y35820D02*
X204446D01*
X203975Y35625D01*
X203615Y35265D01*
X203085D01*
X202725Y35625D01*
X202255Y35820D01*
X201746D01*
X201275Y35625D01*
X200915Y35265D01*
X200742Y34846D01*
X200737Y34845D01*
X200463Y34822D01*
X200242Y34846D01*
X200085Y35225D01*
X199725Y35585D01*
X199255Y35780D01*
X198746D01*
X198275Y35585D01*
X197915Y35225D01*
X197721Y34754D01*
Y34245D01*
X197915Y33775D01*
X198275Y33415D01*
X198674Y33250D01*
X198695Y33114D01*
Y32886D01*
X198674Y32750D01*
X198275Y32585D01*
X197915Y32225D01*
X197721Y31754D01*
Y31245D01*
X197915Y30775D01*
X198275Y30415D01*
X198308Y30402D01*
X198325Y30220D01*
X198259Y29881D01*
X197882Y29725D01*
X197522Y29365D01*
X197327Y28895D01*
Y28386D01*
X197522Y27915D01*
X197882Y27555D01*
X198352Y27361D01*
X198861D01*
X199331Y27555D01*
X199691Y27915D01*
X199886Y28386D01*
Y28895D01*
X199691Y29365D01*
X199331Y29725D01*
X199298Y29739D01*
X199282Y29921D01*
X199348Y30259D01*
X199725Y30415D01*
X199936Y30626D01*
X200250Y30724D01*
X200564Y30626D01*
X200775Y30415D01*
X201105Y30279D01*
X201156Y29763D01*
X201155Y29758D01*
X201075Y29725D01*
X200715Y29365D01*
X200520Y28895D01*
Y28386D01*
X200715Y27915D01*
X201075Y27555D01*
X201546Y27361D01*
X202055D01*
X202525Y27555D01*
X202836Y27867D01*
X203130Y27875D01*
X203392Y27832D01*
X203415Y27775D01*
X203775Y27415D01*
X204245Y27220D01*
X204754D01*
X205225Y27415D01*
X205585Y27775D01*
X205780Y28245D01*
Y28754D01*
X205585Y29225D01*
X205225Y29585D01*
X204826Y29750D01*
X204805Y29886D01*
Y30114D01*
X204826Y30250D01*
X205225Y30415D01*
X205585Y30775D01*
X205780Y31245D01*
Y31754D01*
X205585Y32225D01*
X205225Y32585D01*
X204892Y32722D01*
X204754Y32779D01*
X204800Y33261D01*
X204955Y33261D01*
X205425Y33455D01*
X205785Y33815D01*
X205979Y34286D01*
Y34795D01*
X205785Y35265D01*
X205425Y35625D01*
X204955Y35820D01*
D02*
G37*
G36*
X16689Y38805D02*
X15911D01*
X15160Y38603D01*
X14487Y38215D01*
X13937Y37665D01*
X13548Y36992D01*
X13347Y36241D01*
Y35463D01*
X13548Y34712D01*
X13937Y34039D01*
X14487Y33489D01*
X15160Y33100D01*
X15911Y32899D01*
X16689D01*
X17440Y33100D01*
X18113Y33489D01*
X18663Y34039D01*
X19051Y34712D01*
X19253Y35463D01*
Y36241D01*
X19051Y36992D01*
X18663Y37665D01*
X18113Y38215D01*
X17440Y38603D01*
X16689Y38805D01*
D02*
G37*
G36*
X8815D02*
X8037D01*
X7286Y38603D01*
X6613Y38215D01*
X6063Y37665D01*
X5675Y36992D01*
X5473Y36241D01*
Y35463D01*
X5675Y34712D01*
X6063Y34039D01*
X6613Y33489D01*
X7286Y33100D01*
X8037Y32899D01*
X8815D01*
X9566Y33100D01*
X10239Y33489D01*
X10789Y34039D01*
X11178Y34712D01*
X11379Y35463D01*
Y36241D01*
X11178Y36992D01*
X10789Y37665D01*
X10239Y38215D01*
X9566Y38603D01*
X8815Y38805D01*
D02*
G37*
G36*
X101801Y35721D02*
X100821D01*
X99875Y35467D01*
X99027Y34977D01*
X98334Y34284D01*
X97844Y33436D01*
X97591Y32490D01*
Y31510D01*
X97844Y30564D01*
X98334Y29716D01*
X99027Y29023D01*
X99875Y28533D01*
X100821Y28280D01*
X101801D01*
X102747Y28533D01*
X103595Y29023D01*
X104288Y29716D01*
X104778Y30564D01*
X105032Y31510D01*
Y32490D01*
X104778Y33436D01*
X104288Y34284D01*
X103595Y34977D01*
X102747Y35467D01*
X101801Y35721D01*
D02*
G37*
G36*
X90895D02*
X89916D01*
X88969Y35467D01*
X88121Y34977D01*
X87428Y34284D01*
X86939Y33436D01*
X86685Y32490D01*
Y31510D01*
X86939Y30564D01*
X87428Y29716D01*
X88121Y29023D01*
X88969Y28533D01*
X89916Y28280D01*
X90895D01*
X91842Y28533D01*
X92690Y29023D01*
X93383Y29716D01*
X93872Y30564D01*
X94126Y31510D01*
Y32490D01*
X93872Y33436D01*
X93383Y34284D01*
X92690Y34977D01*
X91842Y35467D01*
X90895Y35721D01*
D02*
G37*
G36*
X79990D02*
X79010D01*
X78064Y35467D01*
X77216Y34977D01*
X76523Y34284D01*
X76033Y33436D01*
X75779Y32490D01*
Y31510D01*
X76033Y30564D01*
X76523Y29716D01*
X77216Y29023D01*
X78064Y28533D01*
X79010Y28280D01*
X79990D01*
X80936Y28533D01*
X81784Y29023D01*
X82477Y29716D01*
X82967Y30564D01*
X83220Y31510D01*
Y32490D01*
X82967Y33436D01*
X82477Y34284D01*
X81784Y34977D01*
X80936Y35467D01*
X79990Y35721D01*
D02*
G37*
G36*
X69084D02*
X68105D01*
X67158Y35467D01*
X66310Y34977D01*
X65617Y34284D01*
X65128Y33436D01*
X64874Y32490D01*
Y31510D01*
X65128Y30564D01*
X65617Y29716D01*
X66310Y29023D01*
X67158Y28533D01*
X68105Y28280D01*
X69084D01*
X70030Y28533D01*
X70879Y29023D01*
X71572Y29716D01*
X72061Y30564D01*
X72315Y31510D01*
Y32490D01*
X72061Y33436D01*
X71572Y34284D01*
X70879Y34977D01*
X70030Y35467D01*
X69084Y35721D01*
D02*
G37*
G36*
X135107Y47354D02*
X133184D01*
X131298Y46979D01*
X129521Y46243D01*
X127922Y45175D01*
X126562Y43815D01*
X125493Y42215D01*
X124757Y40439D01*
X124382Y38552D01*
Y36629D01*
X124757Y34743D01*
X125493Y32966D01*
X126562Y31367D01*
X127922Y30007D01*
X129521Y28938D01*
X131298Y28202D01*
X133184Y27827D01*
X135107D01*
X136994Y28202D01*
X138770Y28938D01*
X140370Y30007D01*
X141730Y31367D01*
X142798Y32966D01*
X143534Y34743D01*
X143909Y36629D01*
Y38552D01*
X143534Y40439D01*
X142798Y42215D01*
X141730Y43815D01*
X140370Y45175D01*
X138770Y46243D01*
X136994Y46979D01*
X135107Y47354D01*
D02*
G37*
G36*
X36722D02*
X34798D01*
X32912Y46979D01*
X31135Y46243D01*
X29536Y45175D01*
X28176Y43815D01*
X27107Y42215D01*
X26371Y40439D01*
X25996Y38552D01*
Y36629D01*
X26371Y34743D01*
X27107Y32966D01*
X28176Y31367D01*
X29536Y30007D01*
X31135Y28938D01*
X32912Y28202D01*
X34798Y27827D01*
X36722D01*
X38608Y28202D01*
X40385Y28938D01*
X41984Y30007D01*
X43344Y31367D01*
X44412Y32966D01*
X45148Y34743D01*
X45524Y36629D01*
Y38552D01*
X45148Y40439D01*
X44412Y42215D01*
X43344Y43815D01*
X41984Y45175D01*
X40385Y46243D01*
X38608Y46979D01*
X36722Y47354D01*
D02*
G37*
G36*
X208255Y35780D02*
X207746D01*
X207275Y35585D01*
X206915Y35225D01*
X206720Y34754D01*
Y34245D01*
X206915Y33775D01*
X207275Y33415D01*
X207674Y33250D01*
X207695Y33114D01*
Y32886D01*
X207674Y32750D01*
X207275Y32585D01*
X206915Y32225D01*
X206720Y31754D01*
Y31245D01*
X206915Y30775D01*
X207275Y30415D01*
X207674Y30250D01*
X207695Y30114D01*
Y29886D01*
X207674Y29750D01*
X207275Y29585D01*
X206915Y29225D01*
X206720Y28754D01*
Y28245D01*
X206915Y27775D01*
X207275Y27415D01*
X207746Y27220D01*
X208255D01*
X208725Y27415D01*
X209085Y27775D01*
X209279Y28245D01*
Y28754D01*
X209085Y29225D01*
X208725Y29585D01*
X208326Y29750D01*
X208305Y29886D01*
Y30114D01*
X208326Y30250D01*
X208725Y30415D01*
X209085Y30775D01*
X209279Y31245D01*
Y31754D01*
X209085Y32225D01*
X208725Y32585D01*
X208326Y32750D01*
X208305Y32886D01*
Y33114D01*
X208326Y33250D01*
X208725Y33415D01*
X209085Y33775D01*
X209279Y34245D01*
Y34754D01*
X209085Y35225D01*
X208725Y35585D01*
X208255Y35780D01*
D02*
G37*
G36*
X162146Y32846D02*
X155454D01*
Y26154D01*
X162146D01*
Y32846D01*
D02*
G37*
G36*
X271755Y25480D02*
X271246D01*
X270775Y25285D01*
X270415Y24925D01*
X270220Y24454D01*
Y23945D01*
X270415Y23475D01*
X270775Y23115D01*
X271246Y22920D01*
X271755D01*
X272225Y23115D01*
X272585Y23475D01*
X272779Y23945D01*
Y24454D01*
X272585Y24925D01*
X272225Y25285D01*
X271755Y25480D01*
D02*
G37*
G36*
X146011Y24176D02*
X145189D01*
X144429Y23862D01*
X143848Y23280D01*
X143533Y22521D01*
Y21698D01*
X143811Y21027D01*
X143533Y20355D01*
Y19533D01*
X143848Y18773D01*
X144429Y18192D01*
X145189Y17877D01*
X146011D01*
X146771Y18192D01*
X147352Y18773D01*
X147667Y19533D01*
Y20355D01*
X147389Y21027D01*
X147667Y21698D01*
Y22521D01*
X147352Y23280D01*
X146771Y23862D01*
X146011Y24176D01*
D02*
G37*
G36*
X159344Y23634D02*
X158256D01*
X157204Y23352D01*
X156262Y22808D01*
X155492Y22038D01*
X154948Y21096D01*
X154666Y20044D01*
Y18956D01*
X154948Y17904D01*
X155492Y16962D01*
X156262Y16192D01*
X157204Y15648D01*
X158256Y15366D01*
X159344D01*
X160396Y15648D01*
X161338Y16192D01*
X162108Y16962D01*
X162652Y17904D01*
X162934Y18956D01*
Y20044D01*
X162652Y21096D01*
X162108Y22038D01*
X161338Y22808D01*
X160396Y23352D01*
X159344Y23634D01*
D02*
G37*
G36*
X243837Y11559D02*
X243163D01*
X242512Y11385D01*
X241929Y11048D01*
X241452Y10571D01*
X241115Y9988D01*
X240941Y9337D01*
Y8663D01*
X241115Y8012D01*
X241452Y7429D01*
X241929Y6952D01*
X242512Y6615D01*
X243163Y6441D01*
X243837D01*
X244488Y6615D01*
X245071Y6952D01*
X245548Y7429D01*
X245885Y8012D01*
X246059Y8663D01*
Y9337D01*
X245885Y9988D01*
X245548Y10571D01*
X245071Y11048D01*
X244488Y11385D01*
X243837Y11559D01*
D02*
G37*
G36*
X221337D02*
X220663D01*
X220012Y11385D01*
X219429Y11048D01*
X218952Y10571D01*
X218615Y9988D01*
X218441Y9337D01*
Y8663D01*
X218615Y8012D01*
X218952Y7429D01*
X219429Y6952D01*
X220012Y6615D01*
X220663Y6441D01*
X221337D01*
X221988Y6615D01*
X222571Y6952D01*
X223048Y7429D01*
X223385Y8012D01*
X223559Y8663D01*
Y9337D01*
X223385Y9988D01*
X223048Y10571D01*
X222571Y11048D01*
X221988Y11385D01*
X221337Y11559D01*
D02*
G37*
G36*
X211337D02*
X210663D01*
X210012Y11385D01*
X209429Y11048D01*
X208952Y10571D01*
X208615Y9988D01*
X208441Y9337D01*
Y8663D01*
X208615Y8012D01*
X208952Y7429D01*
X209429Y6952D01*
X210012Y6615D01*
X210663Y6441D01*
X211337D01*
X211988Y6615D01*
X212571Y6952D01*
X213048Y7429D01*
X213385Y8012D01*
X213559Y8663D01*
Y9337D01*
X213385Y9988D01*
X213048Y10571D01*
X212571Y11048D01*
X211988Y11385D01*
X211337Y11559D01*
D02*
G37*
G36*
X198837D02*
X198163D01*
X197512Y11385D01*
X196929Y11048D01*
X196452Y10571D01*
X196115Y9988D01*
X195941Y9337D01*
Y8663D01*
X196115Y8012D01*
X196452Y7429D01*
X196929Y6952D01*
X197512Y6615D01*
X198163Y6441D01*
X198837D01*
X199488Y6615D01*
X200071Y6952D01*
X200548Y7429D01*
X200885Y8012D01*
X201059Y8663D01*
Y9337D01*
X200885Y9988D01*
X200548Y10571D01*
X200071Y11048D01*
X199488Y11385D01*
X198837Y11559D01*
D02*
G37*
G36*
X188837D02*
X188163D01*
X187512Y11385D01*
X186929Y11048D01*
X186452Y10571D01*
X186115Y9988D01*
X185941Y9337D01*
Y8663D01*
X186115Y8012D01*
X186452Y7429D01*
X186929Y6952D01*
X187512Y6615D01*
X188163Y6441D01*
X188837D01*
X189488Y6615D01*
X190071Y6952D01*
X190548Y7429D01*
X190885Y8012D01*
X191059Y8663D01*
Y9337D01*
X190885Y9988D01*
X190548Y10571D01*
X190071Y11048D01*
X189488Y11385D01*
X188837Y11559D01*
D02*
G37*
G36*
X176337D02*
X175663D01*
X175012Y11385D01*
X174429Y11048D01*
X173952Y10571D01*
X173615Y9988D01*
X173441Y9337D01*
Y8663D01*
X173615Y8012D01*
X173952Y7429D01*
X174429Y6952D01*
X175012Y6615D01*
X175663Y6441D01*
X176337D01*
X176988Y6615D01*
X177571Y6952D01*
X178048Y7429D01*
X178385Y8012D01*
X178559Y8663D01*
Y9337D01*
X178385Y9988D01*
X178048Y10571D01*
X177571Y11048D01*
X176988Y11385D01*
X176337Y11559D01*
D02*
G37*
G36*
X166337D02*
X165663D01*
X165012Y11385D01*
X164429Y11048D01*
X163952Y10571D01*
X163615Y9988D01*
X163441Y9337D01*
Y8663D01*
X163615Y8012D01*
X163952Y7429D01*
X164429Y6952D01*
X165012Y6615D01*
X165663Y6441D01*
X166337D01*
X166988Y6615D01*
X167571Y6952D01*
X168048Y7429D01*
X168385Y8012D01*
X168559Y8663D01*
Y9337D01*
X168385Y9988D01*
X168048Y10571D01*
X167571Y11048D01*
X166988Y11385D01*
X166337Y11559D01*
D02*
G37*
G36*
X328814Y18768D02*
X327186D01*
X325588Y18450D01*
X324084Y17827D01*
X322730Y16922D01*
X321578Y15770D01*
X320673Y14416D01*
X320050Y12912D01*
X319732Y11314D01*
Y9686D01*
X320050Y8088D01*
X320673Y6584D01*
X321578Y5230D01*
X322730Y4078D01*
X324084Y3173D01*
X325588Y2550D01*
X327186Y2232D01*
X328814D01*
X330412Y2550D01*
X331916Y3173D01*
X333270Y4078D01*
X334422Y5230D01*
X335327Y6584D01*
X335950Y8088D01*
X336268Y9686D01*
Y11314D01*
X335950Y12912D01*
X335327Y14416D01*
X334422Y15770D01*
X333270Y16922D01*
X331916Y17827D01*
X330412Y18450D01*
X328814Y18768D01*
D02*
G37*
G36*
X11314D02*
X9686D01*
X8088Y18450D01*
X6584Y17827D01*
X5230Y16922D01*
X4078Y15770D01*
X3173Y14416D01*
X2550Y12912D01*
X2232Y11314D01*
Y9686D01*
X2550Y8088D01*
X3173Y6584D01*
X4078Y5230D01*
X5230Y4078D01*
X6584Y3173D01*
X8088Y2550D01*
X9686Y2232D01*
X11314D01*
X12912Y2550D01*
X14416Y3173D01*
X15770Y4078D01*
X16922Y5230D01*
X17827Y6584D01*
X18450Y8088D01*
X18768Y9686D01*
Y11314D01*
X18450Y12912D01*
X17827Y14416D01*
X16922Y15770D01*
X15770Y16922D01*
X14416Y17827D01*
X12912Y18450D01*
X11314Y18768D01*
D02*
G37*
%LPD*%
D69*
X249100Y246200D02*
D03*
D73*
X106504Y271609D02*
D03*
X84693D02*
D03*
X63142Y43181D02*
D03*
D76*
X7700Y209800D02*
D03*
D77*
X17200Y242700D02*
D03*
X7200D02*
D03*
X81400Y66300D02*
D03*
D78*
X16300Y59474D02*
D03*
X8426Y27978D02*
D03*
X16300D02*
D03*
D80*
X253500Y9000D02*
D03*
D82*
X322000Y118000D02*
D03*
D85*
X151500Y273500D02*
D03*
X168000Y271500D02*
D03*
X167500Y259000D02*
D03*
X153500Y260000D02*
D03*
X278000Y197500D02*
D03*
X217525Y228868D02*
D03*
X222000Y203500D02*
D03*
X222500Y213000D02*
D03*
X110000Y159500D02*
D03*
X102712Y154421D02*
D03*
X87000Y164500D02*
D03*
X94000Y175500D02*
D03*
X102500Y183500D02*
D03*
X196500Y167000D02*
D03*
X191500Y162500D02*
D03*
X184000D02*
D03*
X241500Y161500D02*
D03*
X222000Y168000D02*
D03*
X187500Y123500D02*
D03*
X196000Y124000D02*
D03*
X137000Y136500D02*
D03*
X134500Y116500D02*
D03*
X117000Y72500D02*
D03*
X116000Y59500D02*
D03*
X128500Y68500D02*
D03*
X136000Y57000D02*
D03*
X125500Y58000D02*
D03*
X128000Y114000D02*
D03*
X140000Y113000D02*
D03*
X187500Y81500D02*
D03*
X187000Y90500D02*
D03*
X250000Y84500D02*
D03*
X256500Y92000D02*
D03*
X258500Y82000D02*
D03*
X251500Y58500D02*
D03*
X204500Y21000D02*
D03*
X183000Y15000D02*
D03*
X141500Y27000D02*
D03*
X106000Y26000D02*
D03*
X98000Y26500D02*
D03*
X94500Y61000D02*
D03*
X93000Y67000D02*
D03*
X116500Y271000D02*
D03*
X112500Y276500D02*
D03*
X20000Y254500D02*
D03*
X39000Y260500D02*
D03*
X28500Y260000D02*
D03*
X34000Y246000D02*
D03*
X40500D02*
D03*
X59000Y247000D02*
D03*
X69000Y246000D02*
D03*
X75000Y246500D02*
D03*
X83500Y246000D02*
D03*
X90000D02*
D03*
X95500Y247000D02*
D03*
X105000D02*
D03*
X110000Y248000D02*
D03*
X124000Y250000D02*
D03*
X98000Y263000D02*
D03*
X90500Y267000D02*
D03*
X83000Y259500D02*
D03*
X78000Y263500D02*
D03*
X270000Y225000D02*
D03*
X291500Y223000D02*
D03*
X288500Y219500D02*
D03*
X285500Y216500D02*
D03*
X279500Y225000D02*
D03*
X295000Y260000D02*
D03*
X292000Y264000D02*
D03*
X86000Y16500D02*
D03*
X95000D02*
D03*
X103500Y15000D02*
D03*
X112000Y16000D02*
D03*
X117500Y11000D02*
D03*
X107000D02*
D03*
X99500Y11500D02*
D03*
X92000Y12000D02*
D03*
X9000Y171000D02*
D03*
X31000Y165500D02*
D03*
X30000Y172500D02*
D03*
X32000Y179500D02*
D03*
X51500Y188500D02*
D03*
X47500Y195000D02*
D03*
X40000Y194000D02*
D03*
X34000Y190500D02*
D03*
X29000Y195000D02*
D03*
X30000Y207000D02*
D03*
X156000Y293000D02*
D03*
X146500Y291500D02*
D03*
X136000Y293500D02*
D03*
X126500Y293000D02*
D03*
X132000Y299000D02*
D03*
X142000Y299500D02*
D03*
X148500D02*
D03*
X157500D02*
D03*
X153000Y305000D02*
D03*
X145500D02*
D03*
X134500D02*
D03*
X179500Y299500D02*
D03*
X187500Y299000D02*
D03*
X193000Y299500D02*
D03*
X212500Y292000D02*
D03*
X213000Y300500D02*
D03*
Y305500D02*
D03*
X232500Y302500D02*
D03*
X271000Y282000D02*
D03*
X278000Y286000D02*
D03*
X277000Y277500D02*
D03*
X272500Y275000D02*
D03*
X271500Y268000D02*
D03*
X278500Y267500D02*
D03*
X287500D02*
D03*
X314500Y309500D02*
D03*
X312000Y281000D02*
D03*
X312500Y273000D02*
D03*
X318500Y267500D02*
D03*
X312500Y264500D02*
D03*
X308000D02*
D03*
X310000Y255000D02*
D03*
X316000Y255500D02*
D03*
X325500Y211000D02*
D03*
X319000Y202500D02*
D03*
X325000D02*
D03*
X326000Y195500D02*
D03*
X318500Y194000D02*
D03*
X320500Y185500D02*
D03*
X325500Y185000D02*
D03*
Y177000D02*
D03*
X319500Y176000D02*
D03*
X321000Y169000D02*
D03*
X325500Y168500D02*
D03*
X318500Y127000D02*
D03*
X325000Y126500D02*
D03*
X333000Y76000D02*
D03*
X319500Y94000D02*
D03*
X325500Y95000D02*
D03*
X333500Y98000D02*
D03*
X241000Y3500D02*
D03*
X247500D02*
D03*
X251500Y14500D02*
D03*
X258000Y12000D02*
D03*
X260500Y5500D02*
D03*
X36500Y9500D02*
D03*
X26000Y13500D02*
D03*
X24500Y5500D02*
D03*
X32500D02*
D03*
X42500Y5000D02*
D03*
X53500Y5500D02*
D03*
X47000Y11500D02*
D03*
X39000Y16000D02*
D03*
X54500Y15000D02*
D03*
X60000Y11000D02*
D03*
X67000Y4500D02*
D03*
X6000Y252000D02*
D03*
Y261000D02*
D03*
X5500Y266500D02*
D03*
X10500Y267500D02*
D03*
X16500Y267000D02*
D03*
X15000Y277000D02*
D03*
X9500Y275000D02*
D03*
X18000Y272500D02*
D03*
X21000Y277000D02*
D03*
X17000Y282500D02*
D03*
X10000Y281000D02*
D03*
Y289000D02*
D03*
X22500Y289500D02*
D03*
X29000Y293500D02*
D03*
X28500Y298500D02*
D03*
X36000Y298000D02*
D03*
X45000D02*
D03*
X52000D02*
D03*
X61500D02*
D03*
X65500D02*
D03*
X75500D02*
D03*
X81000Y297500D02*
D03*
X88000Y298000D02*
D03*
X93500Y298500D02*
D03*
X99500D02*
D03*
X106000Y299000D02*
D03*
X108500Y304500D02*
D03*
X103000Y304000D02*
D03*
X97000D02*
D03*
X92000Y304500D02*
D03*
X86500D02*
D03*
X80000Y305000D02*
D03*
X75500D02*
D03*
X71000D02*
D03*
X66000D02*
D03*
X61500D02*
D03*
X56000D02*
D03*
X50500D02*
D03*
X45500D02*
D03*
X40500Y305500D02*
D03*
X35500D02*
D03*
X30000D02*
D03*
X24500D02*
D03*
X117500Y310500D02*
D03*
X112000Y310000D02*
D03*
X105500D02*
D03*
X99000D02*
D03*
X93500D02*
D03*
X88500D02*
D03*
X83000D02*
D03*
X78000D02*
D03*
X73000D02*
D03*
X68500D02*
D03*
X63000D02*
D03*
X58000D02*
D03*
X53000D02*
D03*
X47500D02*
D03*
X42500D02*
D03*
X37500D02*
D03*
X32500D02*
D03*
X27500D02*
D03*
X21800Y115900D02*
D03*
X50000Y83200D02*
D03*
X114300Y169100D02*
D03*
X130700Y153300D02*
D03*
X120500Y143600D02*
D03*
X123500Y129200D02*
D03*
X142100Y167600D02*
D03*
X120200Y79000D02*
D03*
X39000Y113900D02*
D03*
X91600Y117400D02*
D03*
X186800Y43700D02*
D03*
X52400Y71200D02*
D03*
X57583Y163983D02*
D03*
X136000Y142200D02*
D03*
X45300Y62800D02*
D03*
X153300Y174600D02*
D03*
X114400Y204200D02*
D03*
X99800Y144600D02*
D03*
X88800Y112600D02*
D03*
X39600Y169100D02*
D03*
X157900Y190600D02*
D03*
X135900Y78400D02*
D03*
X178500Y84600D02*
D03*
X209200Y212500D02*
D03*
X198700Y191700D02*
D03*
X182200Y232300D02*
D03*
X196400Y234900D02*
D03*
X278400Y183000D02*
D03*
X297600Y172300D02*
D03*
X196000Y117500D02*
D03*
X220500Y81800D02*
D03*
X214500Y43900D02*
D03*
X329400Y93500D02*
D03*
X271300Y87300D02*
D03*
X251100Y118300D02*
D03*
X231100Y115200D02*
D03*
X237400Y165200D02*
D03*
X252900Y180400D02*
D03*
X289200Y214900D02*
D03*
X223200Y245300D02*
D03*
X227700Y222700D02*
D03*
X252600Y219600D02*
D03*
X276300Y206500D02*
D03*
X268400Y206600D02*
D03*
X287100Y234000D02*
D03*
X320100Y227600D02*
D03*
X178100Y261000D02*
D03*
X200900Y264900D02*
D03*
X124700Y209200D02*
D03*
X117400Y249500D02*
D03*
X154300Y139000D02*
D03*
X176400Y165300D02*
D03*
M02*
