G04*
G04 #@! TF.GenerationSoftware,Altium Limited,Altium Designer,21.3.2 (30)*
G04*
G04 Layer_Physical_Order=3*
G04 Layer_Color=16440176*
%FSLAX25Y25*%
%MOIN*%
G70*
G04*
G04 #@! TF.SameCoordinates,6B7675C1-BEDD-4D56-80B4-810BFE634478*
G04*
G04*
G04 #@! TF.FilePolarity,Positive*
G04*
G01*
G75*
%ADD11C,0.00787*%
%ADD19C,0.00394*%
%ADD62C,0.00610*%
%ADD68R,0.05600X0.05600*%
%ADD69C,0.05600*%
%ADD73C,0.06653*%
%ADD76R,0.05906X0.05906*%
%ADD77C,0.05906*%
%ADD78C,0.05118*%
%ADD80C,0.04331*%
%ADD82C,0.08661*%
%ADD85C,0.01772*%
%ADD86C,0.00512*%
G36*
X317500Y292500D02*
X335000D01*
Y22500D01*
X320500D01*
X317500Y19500D01*
Y2500D01*
X22500D01*
Y22500D01*
X2500D01*
Y292500D01*
X22500D01*
Y312500D01*
X317500D01*
Y292500D01*
D02*
G37*
%LPC*%
G36*
X292906Y303894D02*
X290094D01*
X288106Y301906D01*
Y299094D01*
X290094Y297106D01*
X292906D01*
X294894Y299094D01*
Y301906D01*
X292906Y303894D01*
D02*
G37*
G36*
X253006D02*
X250194D01*
X248206Y301906D01*
Y299094D01*
X250194Y297106D01*
X253006D01*
X254994Y299094D01*
Y301906D01*
X253006Y303894D01*
D02*
G37*
G36*
X282906Y297894D02*
X280094D01*
X278106Y295906D01*
Y293094D01*
X280094Y291106D01*
X282906D01*
X284894Y293094D01*
Y295906D01*
X282906Y297894D01*
D02*
G37*
G36*
X243006D02*
X240194D01*
X238206Y295906D01*
Y293094D01*
X240194Y291106D01*
X243006D01*
X244994Y293094D01*
Y295906D01*
X243006Y297894D01*
D02*
G37*
G36*
X194401Y295262D02*
X192444D01*
X191061Y293879D01*
Y291921D01*
X192444Y290538D01*
X194401D01*
X195785Y291921D01*
Y293879D01*
X194401Y295262D01*
D02*
G37*
G36*
X177078D02*
X175121D01*
X173738Y293879D01*
Y291921D01*
X175121Y290538D01*
X177078D01*
X178462Y291921D01*
Y293879D01*
X177078Y295262D01*
D02*
G37*
G36*
X259430Y292580D02*
X258370D01*
X257621Y291830D01*
Y290770D01*
X258370Y290020D01*
X259430D01*
X260179Y290770D01*
Y291830D01*
X259430Y292580D01*
D02*
G37*
G36*
X209230Y284279D02*
X208170D01*
X207420Y283530D01*
Y282470D01*
X208170Y281720D01*
X209230D01*
X209980Y282470D01*
Y283530D01*
X209230Y284279D01*
D02*
G37*
G36*
X102592Y286511D02*
X99510D01*
X97331Y284332D01*
Y281249D01*
X99510Y279070D01*
X102592D01*
X104772Y281249D01*
Y284332D01*
X102592Y286511D01*
D02*
G37*
G36*
X91687D02*
X88605D01*
X86425Y284332D01*
Y281249D01*
X88605Y279070D01*
X91687D01*
X93866Y281249D01*
Y284332D01*
X91687Y286511D01*
D02*
G37*
G36*
X69876D02*
X66794D01*
X64614Y284332D01*
Y281249D01*
X66794Y279070D01*
X69876D01*
X72055Y281249D01*
Y284332D01*
X69876Y286511D01*
D02*
G37*
G36*
X81107Y287298D02*
X77373D01*
X74732Y284658D01*
Y280923D01*
X77373Y278283D01*
X77655D01*
Y277157D01*
X76768Y276790D01*
X75875Y275897D01*
X75655Y276117D01*
X71920D01*
X69279Y273477D01*
Y269742D01*
X71920Y267102D01*
X75655D01*
X77144Y268591D01*
X78303Y268361D01*
X78317Y268324D01*
X85846Y260796D01*
Y260326D01*
X86302Y259226D01*
X86859Y258670D01*
X87959Y258214D01*
X88073D01*
Y258099D01*
X88529Y256999D01*
X89086Y256442D01*
X90186Y255987D01*
X90655D01*
X91671Y254971D01*
X92771Y254516D01*
X103699D01*
X104644Y253571D01*
X106356D01*
X107301Y254516D01*
X120185D01*
X121800Y252900D01*
X122900Y252445D01*
X132663D01*
X133763Y252900D01*
X133937Y253074D01*
X134344Y252668D01*
X136056D01*
X137267Y253878D01*
Y255591D01*
X138075Y256453D01*
X143447D01*
Y263146D01*
X136753D01*
Y259859D01*
X135692Y258967D01*
X134344D01*
X134234Y259013D01*
Y261512D01*
X131812Y263934D01*
X128388D01*
X125966Y261512D01*
Y258088D01*
X126108Y257946D01*
X125656Y256855D01*
X124082D01*
X122467Y258470D01*
X121367Y258926D01*
X107301D01*
X106356Y259870D01*
X104644D01*
X103699Y258926D01*
X93953D01*
X82272Y270607D01*
Y275102D01*
X81816Y276202D01*
X80917Y277102D01*
X81103Y278252D01*
X81114Y278290D01*
X83748Y280923D01*
Y284658D01*
X81107Y287298D01*
D02*
G37*
G36*
X291914Y287994D02*
X286286D01*
X282306Y284014D01*
Y278386D01*
X286286Y274406D01*
X291914D01*
X295894Y278386D01*
Y284014D01*
X291914Y287994D01*
D02*
G37*
G36*
X246914D02*
X241286D01*
X237306Y284014D01*
Y278386D01*
X241286Y274406D01*
X246914D01*
X250894Y278386D01*
Y284014D01*
X246914Y287994D01*
D02*
G37*
G36*
X97140Y275330D02*
X94057D01*
X91878Y273150D01*
Y270068D01*
X94057Y267889D01*
X97140D01*
X99319Y270068D01*
Y273150D01*
X97140Y275330D01*
D02*
G37*
G36*
X66602D02*
X59161D01*
Y267889D01*
X66602D01*
Y275330D01*
D02*
G37*
G36*
X266030Y268280D02*
X264970D01*
X264390Y267700D01*
X263750Y267602D01*
X263110Y267700D01*
X262530Y268280D01*
X261470D01*
X260720Y267530D01*
Y266470D01*
X260947Y266244D01*
X261350Y265500D01*
X260947Y264756D01*
X260720Y264530D01*
Y263470D01*
X261397Y262794D01*
X261440Y262750D01*
X261397Y262706D01*
X260720Y262030D01*
Y260970D01*
X261470Y260221D01*
X261793D01*
X261934Y260221D01*
X262423Y259039D01*
X262304Y258920D01*
X260906Y257523D01*
Y254877D01*
X262777Y253006D01*
X265423D01*
X265668Y252905D01*
Y251644D01*
X266879Y250433D01*
X267435D01*
X267635Y249252D01*
X265906Y247523D01*
Y244877D01*
X267777Y243006D01*
X270423D01*
X271368Y242615D01*
Y237500D01*
Y222119D01*
X271030Y221979D01*
X269970D01*
X269220Y221230D01*
Y220170D01*
X269970Y219421D01*
X271030D01*
X271368Y219281D01*
Y218024D01*
X270300Y216956D01*
Y215244D01*
X271511Y214033D01*
X273223D01*
X273450Y214260D01*
X273676Y214033D01*
X275389D01*
X276450Y215094D01*
X277411Y214133D01*
X279123D01*
X279350Y214360D01*
X279576Y214133D01*
X281289D01*
X282500Y215344D01*
Y217056D01*
X282127Y217429D01*
X292655Y227956D01*
X292655Y227956D01*
X293092Y229011D01*
Y230700D01*
Y259470D01*
X293092Y259470D01*
X292655Y260525D01*
X292655D01*
X288044Y265136D01*
X286989Y265573D01*
X286989Y265573D01*
X270611D01*
X270611Y265573D01*
X269556Y265136D01*
X267961Y263540D01*
X266779Y264029D01*
Y264530D01*
X266553Y264756D01*
X266150Y265500D01*
X266553Y266244D01*
X266779Y266470D01*
Y267530D01*
X266030Y268280D01*
D02*
G37*
G36*
X137930Y286964D02*
X129841D01*
X124122Y281244D01*
Y273156D01*
X129841Y267436D01*
X137930D01*
X143650Y273156D01*
Y281244D01*
X137930Y286964D01*
D02*
G37*
G36*
X39544D02*
X31456D01*
X25736Y281244D01*
Y273156D01*
X31456Y267436D01*
X39544D01*
X45264Y273156D01*
Y281244D01*
X39544Y286964D01*
D02*
G37*
G36*
X299751Y274394D02*
X295449D01*
X292406Y271351D01*
Y267049D01*
X295449Y264006D01*
X299751D01*
X302794Y267049D01*
Y271351D01*
X299751Y274394D01*
D02*
G37*
G36*
X237751D02*
X233449D01*
X230406Y271351D01*
Y267049D01*
X233449Y264006D01*
X237751D01*
X240794Y267049D01*
Y271351D01*
X237751Y274394D01*
D02*
G37*
G36*
X255423Y259394D02*
X252777D01*
X250906Y257523D01*
Y254877D01*
X252777Y253006D01*
X255423D01*
X257294Y254877D01*
Y257523D01*
X255423Y259394D01*
D02*
G37*
G36*
X325897Y250253D02*
X323451D01*
X321721Y248523D01*
Y246077D01*
X323451Y244347D01*
X325897D01*
X327627Y246077D01*
Y248523D01*
X325897Y250253D01*
D02*
G37*
G36*
X310149D02*
X307703D01*
X305973Y248523D01*
Y246077D01*
X307703Y244347D01*
X310149D01*
X311879Y246077D01*
Y248523D01*
X310149Y250253D01*
D02*
G37*
G36*
X260749Y250181D02*
X257451D01*
X255119Y247849D01*
Y244551D01*
X257451Y242219D01*
X260749D01*
X263081Y244551D01*
Y247849D01*
X260749Y250181D01*
D02*
G37*
G36*
X185230Y238680D02*
X184170D01*
X183550Y238059D01*
X183030Y238580D01*
X181970D01*
X181220Y237830D01*
Y236770D01*
X181970Y236020D01*
X183030D01*
X183650Y236641D01*
X184170Y236121D01*
X185230D01*
X185979Y236870D01*
Y237930D01*
X185230Y238680D01*
D02*
G37*
G36*
X253030Y242280D02*
X251970D01*
X251220Y241530D01*
Y240470D01*
X250925Y239646D01*
X250618Y239294D01*
X250530Y239280D01*
X249470D01*
X248721Y238530D01*
Y237470D01*
X249470Y236720D01*
X250530D01*
X251206Y237397D01*
X251250Y237440D01*
X251294Y237397D01*
X251970Y236720D01*
X253030D01*
X253780Y237470D01*
Y238530D01*
X253553Y238756D01*
X253150Y239500D01*
X253553Y240244D01*
X253780Y240470D01*
Y241530D01*
X253030Y242280D01*
D02*
G37*
G36*
X195870Y238680D02*
X195547Y238356D01*
X195472Y238327D01*
X195409Y238266D01*
X195357Y238222D01*
X195307Y238185D01*
X195260Y238154D01*
X195215Y238130D01*
X195174Y238112D01*
X195147Y238103D01*
X191800D01*
X191303Y237897D01*
X189503Y236097D01*
X189297Y235600D01*
Y227591D01*
X181709Y220003D01*
X176954D01*
X176927Y220012D01*
X176885Y220030D01*
X176841Y220054D01*
X176794Y220085D01*
X176744Y220122D01*
X176692Y220166D01*
X176629Y220227D01*
X176554Y220256D01*
X176231Y220580D01*
X175171D01*
X174421Y219830D01*
Y218770D01*
X175085Y218106D01*
X175171Y218020D01*
X176231D01*
X176554Y218344D01*
X176629Y218373D01*
X176692Y218434D01*
X176744Y218478D01*
X176794Y218515D01*
X176841Y218546D01*
X176885Y218570D01*
X176927Y218588D01*
X176954Y218597D01*
X182000D01*
X182497Y218803D01*
X190497Y226803D01*
X190703Y227300D01*
Y235309D01*
X192091Y236697D01*
X195147D01*
X195174Y236688D01*
X195216Y236669D01*
X195260Y236646D01*
X195307Y236615D01*
X195357Y236578D01*
X195409Y236534D01*
X195472Y236473D01*
X195547Y236444D01*
X195870Y236121D01*
X196930D01*
X197679Y236870D01*
Y237930D01*
X197016Y238594D01*
X196930Y238680D01*
X195870D01*
D02*
G37*
G36*
X149630Y230180D02*
X148570D01*
X148000Y229609D01*
X147430Y230180D01*
X146370D01*
X145621Y229430D01*
Y228370D01*
X146370Y227621D01*
X147430D01*
X148000Y228190D01*
X148570Y227621D01*
X149630D01*
X150380Y228370D01*
Y229430D01*
X149630Y230180D01*
D02*
G37*
G36*
X18586Y236047D02*
X15814D01*
X13854Y234086D01*
Y231314D01*
X15814Y229353D01*
X18586D01*
X20546Y231314D01*
Y234086D01*
X18586Y236047D01*
D02*
G37*
G36*
X8586D02*
X5814D01*
X3853Y234086D01*
Y231314D01*
X5814Y229353D01*
X8586D01*
X10547Y231314D01*
Y234086D01*
X8586Y236047D01*
D02*
G37*
G36*
X133130Y228180D02*
X132070D01*
X131673Y227783D01*
X131065Y227506D01*
X130268Y227741D01*
X129930Y228080D01*
X128870D01*
X128121Y227330D01*
Y226270D01*
X128164Y226227D01*
X128820Y225537D01*
X128220Y224630D01*
X128220Y224608D01*
Y223570D01*
X128970Y222820D01*
X130030D01*
X130456Y223247D01*
X130973Y223527D01*
X131861Y223329D01*
X132084Y223106D01*
X132170Y223021D01*
X133230D01*
X133456Y223247D01*
X134200Y223650D01*
X134944Y223247D01*
X135084Y223106D01*
X135170Y223021D01*
X136230D01*
X136979Y223770D01*
X136979Y223891D01*
Y224830D01*
X136303Y225506D01*
X136259Y225550D01*
X136303Y225594D01*
X136979Y226270D01*
Y227330D01*
X136230Y228080D01*
X135170D01*
X134902Y227812D01*
X134091Y227509D01*
X133456Y227853D01*
X133130Y228180D01*
D02*
G37*
G36*
X194630Y230279D02*
X193570D01*
X192821Y229530D01*
X192821Y228470D01*
X193570Y227720D01*
X193691Y227720D01*
X194630D01*
X195870Y227420D01*
X196930D01*
X197679Y228170D01*
X197679Y229230D01*
X196930Y229979D01*
X196809Y229979D01*
X195870D01*
X194630Y230279D01*
D02*
G37*
G36*
X105830Y234680D02*
X104770D01*
X104021Y233930D01*
Y232870D01*
X104034Y232856D01*
X104711Y232050D01*
X104034Y231244D01*
X104021Y231230D01*
Y230170D01*
X104700Y229490D01*
X104762Y229087D01*
X104742Y228251D01*
X104121Y227630D01*
Y226570D01*
X104870Y225820D01*
X105930D01*
X106198Y226088D01*
X107009Y226391D01*
X107644Y226047D01*
X107970Y225721D01*
X109030D01*
X109780Y226470D01*
Y227530D01*
X109658Y227651D01*
X109345Y228176D01*
X109093Y228790D01*
Y228810D01*
X109345Y229424D01*
X109658Y229949D01*
X109780Y230070D01*
Y231130D01*
X109736Y231173D01*
X109080Y231863D01*
X109679Y232770D01*
X109679Y232792D01*
Y233830D01*
X108930Y234579D01*
X107870D01*
X107602Y234312D01*
X106791Y234009D01*
X106156Y234353D01*
X105830Y234680D01*
D02*
G37*
G36*
X205430Y231080D02*
X204370D01*
X203621Y230330D01*
Y229270D01*
X204217Y228673D01*
X203520Y227977D01*
Y226917D01*
X204208Y226230D01*
X204214Y226223D01*
X204208Y226217D01*
X203520Y225530D01*
Y224470D01*
X204270Y223721D01*
X205326D01*
X205330Y223721D01*
X206328Y224163D01*
X207070Y223421D01*
X208130D01*
X208879Y224170D01*
Y225230D01*
X208203Y225906D01*
X208159Y225950D01*
X208203Y225994D01*
X208879Y226670D01*
Y227730D01*
X208245Y228365D01*
X208218Y228392D01*
X208230Y228420D01*
X208980Y229170D01*
Y230230D01*
X208230Y230979D01*
X207170D01*
X207115Y230924D01*
X206249Y230374D01*
X205544Y230965D01*
X205430Y231080D01*
D02*
G37*
G36*
X30212Y223830D02*
X29152D01*
X28402Y223080D01*
Y222020D01*
X29152Y221271D01*
X30212D01*
X30961Y222020D01*
Y223080D01*
X30212Y223830D01*
D02*
G37*
G36*
X100230Y223780D02*
X99170D01*
X98421Y223030D01*
Y221970D01*
X99170Y221220D01*
X100230D01*
X100979Y221970D01*
Y223030D01*
X100230Y223780D01*
D02*
G37*
G36*
X90330D02*
X89270D01*
X88520Y223030D01*
Y221970D01*
X89270Y221220D01*
X90330D01*
X91079Y221970D01*
Y223030D01*
X90330Y223780D01*
D02*
G37*
G36*
X80330D02*
X79270D01*
X78521Y223030D01*
Y221970D01*
X79270Y221220D01*
X80330D01*
X81080Y221970D01*
Y223030D01*
X80330Y223780D01*
D02*
G37*
G36*
X70330D02*
X69270D01*
X68520Y223030D01*
Y221970D01*
X69270Y221220D01*
X70330D01*
X71079Y221970D01*
Y223030D01*
X70330Y223780D01*
D02*
G37*
G36*
X60130D02*
X59070D01*
X58320Y223030D01*
Y221970D01*
X59070Y221220D01*
X60130D01*
X60879Y221970D01*
Y223030D01*
X60130Y223780D01*
D02*
G37*
G36*
X50230D02*
X49170D01*
X48421Y223030D01*
Y221970D01*
X49170Y221220D01*
X50230D01*
X50980Y221970D01*
Y223030D01*
X50230Y223780D01*
D02*
G37*
G36*
X40230D02*
X39170D01*
X38421Y223030D01*
Y221970D01*
X39170Y221220D01*
X40230D01*
X40979Y221970D01*
Y223030D01*
X40230Y223780D01*
D02*
G37*
G36*
X298830Y225180D02*
X297770D01*
X297021Y224430D01*
Y223370D01*
X297682Y222709D01*
X297670Y222679D01*
X296920Y221930D01*
Y220870D01*
X297670Y220121D01*
X298730D01*
X299400Y220791D01*
X300070Y220121D01*
X301130D01*
X301650Y220640D01*
X302270Y220021D01*
X303330D01*
X304080Y220770D01*
Y221830D01*
X303360Y222550D01*
X304080Y223270D01*
Y224330D01*
X303330Y225079D01*
X302270D01*
X301650Y224460D01*
X301030Y225079D01*
X299970D01*
X299450Y224559D01*
X298830Y225180D01*
D02*
G37*
G36*
X328091Y227251D02*
X324992D01*
X322802Y225060D01*
Y221962D01*
X324992Y219771D01*
X328091D01*
X330282Y221962D01*
Y225060D01*
X328091Y227251D01*
D02*
G37*
G36*
X8586Y226046D02*
X5814D01*
X3853Y224086D01*
Y221314D01*
X5814Y219354D01*
X8586D01*
X10547Y221314D01*
Y224086D01*
X8586Y226046D01*
D02*
G37*
G36*
X121330Y220779D02*
X120270D01*
X119520Y220030D01*
Y218970D01*
X120270Y218220D01*
X121330D01*
X122080Y218970D01*
Y220030D01*
X121330Y220779D01*
D02*
G37*
G36*
X308530Y220180D02*
X307470D01*
X306720Y219430D01*
Y218370D01*
X307470Y217620D01*
X308530D01*
X309279Y218370D01*
Y219430D01*
X308530Y220180D01*
D02*
G37*
G36*
X246030Y219280D02*
X244970D01*
X244220Y218530D01*
Y217470D01*
X244970Y216721D01*
X246030D01*
X246779Y217470D01*
Y218530D01*
X246030Y219280D01*
D02*
G37*
G36*
X144730Y219079D02*
X143670D01*
X142920Y218330D01*
Y217270D01*
X143670Y216521D01*
X144730D01*
X145480Y217270D01*
Y218330D01*
X144730Y219079D01*
D02*
G37*
G36*
X20546Y226046D02*
X13854D01*
Y219354D01*
X14229D01*
X14663Y218172D01*
X14306Y217816D01*
X14220Y217730D01*
Y216670D01*
X14970Y215920D01*
X15041Y215920D01*
X15821Y215030D01*
X15821Y214739D01*
Y213970D01*
X16555Y213235D01*
X16570Y213221D01*
X16570Y213220D01*
X17321Y212330D01*
X17321Y212039D01*
Y211270D01*
X18070Y210521D01*
X19130D01*
X19880Y211270D01*
Y211627D01*
X20675Y212320D01*
X20677Y212319D01*
X21420Y211877D01*
Y211270D01*
X22170Y210521D01*
X23230D01*
X23979Y211270D01*
Y212330D01*
X23230Y213080D01*
X22859D01*
X22102Y213945D01*
X22080Y214223D01*
Y215030D01*
X21330Y215779D01*
X21159D01*
X20380Y216670D01*
X20380Y216961D01*
Y217730D01*
X19937Y218172D01*
X20371Y219354D01*
X20546D01*
Y226046D01*
D02*
G37*
G36*
X263130Y208279D02*
X262070D01*
X261320Y207530D01*
Y206470D01*
X262070Y205720D01*
X263130D01*
X263879Y206470D01*
Y207530D01*
X263130Y208279D01*
D02*
G37*
G36*
X259230Y206979D02*
X258170D01*
X257420Y206230D01*
Y205170D01*
X258170Y204420D01*
X259230D01*
X259980Y205170D01*
Y206230D01*
X259230Y206979D01*
D02*
G37*
G36*
X80013Y203457D02*
X78953D01*
X78203Y202707D01*
Y201979D01*
X77370D01*
X76621Y201230D01*
Y200170D01*
X77370Y199420D01*
X78430D01*
X79180Y200170D01*
Y200898D01*
X80013D01*
X80762Y201647D01*
Y202707D01*
X80013Y203457D01*
D02*
G37*
G36*
X248530Y201279D02*
X247470D01*
X246721Y200530D01*
Y199470D01*
X247273Y198917D01*
X246721Y198365D01*
Y197908D01*
X246688Y197833D01*
X246687Y197747D01*
X246681Y197678D01*
X246672Y197617D01*
X246660Y197562D01*
X246646Y197513D01*
X246629Y197471D01*
X246617Y197446D01*
X246374Y197203D01*
X142467D01*
X142094Y198384D01*
X142494Y198784D01*
X142579Y198870D01*
Y199930D01*
X141830Y200679D01*
X141709Y200679D01*
X140770D01*
X140021Y199930D01*
Y198870D01*
X140506Y198384D01*
X140133Y197203D01*
X115400D01*
X114903Y196997D01*
X114508Y196602D01*
X113327Y196729D01*
X112577Y197478D01*
X111839D01*
Y198302D01*
X111089Y199051D01*
X110029D01*
X109280Y198302D01*
Y197242D01*
X110029Y196492D01*
X110767D01*
Y195669D01*
X111517Y194919D01*
X112420D01*
Y194270D01*
X113170Y193520D01*
X114230D01*
X114980Y194270D01*
Y194727D01*
X115012Y194801D01*
X115013Y194888D01*
X115019Y194956D01*
X115028Y195018D01*
X115040Y195073D01*
X115054Y195121D01*
X115071Y195164D01*
X115083Y195189D01*
X115691Y195797D01*
X136857D01*
X137346Y194616D01*
X126608Y183877D01*
X126596Y183871D01*
X126557Y183853D01*
X126515Y183839D01*
X126470Y183827D01*
X126422Y183819D01*
X126370Y183814D01*
X126298Y183812D01*
X126225Y183780D01*
X125770D01*
X125021Y183030D01*
Y181970D01*
X125770Y181220D01*
X126552D01*
Y180439D01*
X127301Y179689D01*
X128152D01*
X128522Y179511D01*
X129137Y178830D01*
Y178155D01*
X129886Y177405D01*
X130689D01*
Y176501D01*
X131439Y175752D01*
X132220D01*
Y174970D01*
X132970Y174221D01*
X133815D01*
Y173504D01*
X134564Y172755D01*
X135624D01*
X136373Y173504D01*
Y174564D01*
X135624Y175314D01*
X134780D01*
Y176030D01*
X134030Y176779D01*
X133248D01*
Y177561D01*
X132499Y178311D01*
X131696D01*
Y179215D01*
X130946Y179964D01*
X130095D01*
X129726Y180142D01*
X129111Y180824D01*
Y181499D01*
X128361Y182248D01*
X128299Y183430D01*
X139078Y194208D01*
X157009D01*
X157021Y194205D01*
X157062Y194189D01*
X157102Y194170D01*
X157141Y194146D01*
X157181Y194118D01*
X157222Y194085D01*
X157274Y194036D01*
X157348Y194007D01*
X157670Y193685D01*
X158730D01*
X159479Y194435D01*
Y195495D01*
X159605Y195797D01*
X166295D01*
X166420Y195495D01*
Y194435D01*
X166662Y194193D01*
X166674Y194147D01*
X166720Y194087D01*
X166753Y194038D01*
X166781Y193990D01*
X166805Y193941D01*
X166824Y193894D01*
X166840Y193846D01*
X166844Y193833D01*
Y173334D01*
X166841Y173325D01*
X166827Y173292D01*
X166809Y173260D01*
X166788Y173230D01*
X166762Y173198D01*
X166731Y173167D01*
X166680Y173124D01*
X166644Y173053D01*
X166220Y172630D01*
Y171570D01*
X166970Y170820D01*
X168030D01*
X168780Y171570D01*
Y172630D01*
X168538Y172871D01*
X168526Y172917D01*
X168480Y172977D01*
X168447Y173027D01*
X168419Y173075D01*
X168395Y173123D01*
X168376Y173171D01*
X168360Y173219D01*
X168356Y173232D01*
Y193731D01*
X168359Y193740D01*
X168373Y193772D01*
X168391Y193804D01*
X168412Y193835D01*
X168438Y193866D01*
X168469Y193898D01*
X168520Y193941D01*
X168556Y194012D01*
X168980Y194435D01*
Y195495D01*
X169105Y195797D01*
X246665D01*
X247163Y196003D01*
X247611Y196451D01*
X247636Y196464D01*
X247679Y196481D01*
X247727Y196495D01*
X247782Y196507D01*
X247844Y196516D01*
X247912Y196521D01*
X247999Y196523D01*
X248073Y196555D01*
X248530D01*
X249279Y197305D01*
Y198365D01*
X248727Y198917D01*
X249279Y199470D01*
Y200530D01*
X248530Y201279D01*
D02*
G37*
G36*
X9086Y203147D02*
X6314D01*
X4354Y201186D01*
Y198414D01*
X6314Y196453D01*
X9086D01*
X11046Y198414D01*
Y201186D01*
X9086Y203147D01*
D02*
G37*
G36*
X97330Y199880D02*
X96270D01*
X95521Y199130D01*
Y198070D01*
X96270Y197320D01*
X97220D01*
Y196470D01*
X97970Y195721D01*
X99030D01*
X99779Y196470D01*
Y197530D01*
X99030Y198280D01*
X98080D01*
Y199130D01*
X97330Y199880D01*
D02*
G37*
G36*
X259330Y194480D02*
X258270D01*
X257521Y193730D01*
Y192670D01*
X258270Y191920D01*
X259330D01*
X260080Y192670D01*
Y193730D01*
X259330Y194480D01*
D02*
G37*
G36*
X146630Y192579D02*
X145570D01*
X144820Y191830D01*
Y190770D01*
X145570Y190021D01*
X146630D01*
X147380Y190770D01*
Y191830D01*
X146630Y192579D01*
D02*
G37*
G36*
X248830Y191980D02*
X247770D01*
X247021Y191230D01*
Y190170D01*
X247770Y189420D01*
X248830D01*
X249580Y190170D01*
Y191230D01*
X248830Y191980D01*
D02*
G37*
G36*
X174530Y192280D02*
X173470D01*
X172721Y191530D01*
Y190470D01*
X173001Y190190D01*
X173021Y190127D01*
X173069Y190071D01*
X173102Y190026D01*
X173131Y189981D01*
X173155Y189937D01*
X173174Y189893D01*
X173190Y189849D01*
X173194Y189836D01*
Y188786D01*
X172012Y188297D01*
X171630Y188680D01*
X170570D01*
X169820Y187930D01*
Y186870D01*
X170570Y186120D01*
X171630D01*
X172012Y186503D01*
X173194Y186014D01*
Y173315D01*
X173190Y173304D01*
X173175Y173267D01*
X173157Y173231D01*
X173134Y173196D01*
X173107Y173160D01*
X173074Y173124D01*
X173024Y173077D01*
X172989Y172999D01*
X172620Y172630D01*
Y171570D01*
X173370Y170820D01*
X174430D01*
X175180Y171570D01*
Y172630D01*
X174899Y172910D01*
X174879Y172973D01*
X174831Y173029D01*
X174798Y173074D01*
X174769Y173118D01*
X174745Y173163D01*
X174726Y173206D01*
X174710Y173251D01*
X174706Y173264D01*
Y188108D01*
X175888Y188203D01*
X176570Y187521D01*
X177616D01*
X177630Y187521D01*
X178797Y187017D01*
Y170753D01*
X178788Y170727D01*
X178770Y170684D01*
X178746Y170640D01*
X178715Y170593D01*
X178678Y170543D01*
X178634Y170491D01*
X178573Y170429D01*
X178544Y170353D01*
X178220Y170030D01*
Y168970D01*
X178970Y168220D01*
X180030D01*
X180780Y168970D01*
Y170030D01*
X180456Y170353D01*
X180427Y170429D01*
X180366Y170491D01*
X180322Y170543D01*
X180285Y170593D01*
X180254Y170640D01*
X180230Y170685D01*
X180212Y170727D01*
X180203Y170753D01*
Y189247D01*
X180212Y189274D01*
X180230Y189316D01*
X180254Y189360D01*
X180285Y189407D01*
X180322Y189457D01*
X180366Y189509D01*
X180427Y189571D01*
X180456Y189647D01*
X180780Y189970D01*
Y191030D01*
X180030Y191779D01*
X178970D01*
X178220Y191030D01*
Y191016D01*
X177630Y190079D01*
X176570Y190079D01*
X175283Y190463D01*
X175279Y190470D01*
Y191530D01*
X174530Y192280D01*
D02*
G37*
G36*
X119430Y190279D02*
X118370D01*
X117621Y189530D01*
Y188470D01*
X118370Y187721D01*
X119430D01*
X120179Y188470D01*
Y189530D01*
X119430Y190279D01*
D02*
G37*
G36*
X9086Y193147D02*
X6314D01*
X4354Y191186D01*
Y188414D01*
X6314Y186453D01*
X9086D01*
X11046Y188414D01*
Y191186D01*
X9086Y193147D01*
D02*
G37*
G36*
X150730Y188479D02*
X149670D01*
X148921Y187730D01*
Y186670D01*
X149670Y185921D01*
X150730D01*
X151479Y186670D01*
Y187730D01*
X150730Y188479D01*
D02*
G37*
G36*
X282030Y191480D02*
X280970D01*
X280221Y190730D01*
Y189670D01*
X280773Y189117D01*
X280221Y188565D01*
Y187505D01*
X280713Y187013D01*
X280103Y186402D01*
Y185343D01*
X280852Y184593D01*
X281912D01*
X282662Y185343D01*
Y186402D01*
X282170Y186895D01*
X282780Y187505D01*
Y188565D01*
X282227Y189117D01*
X282780Y189670D01*
Y190730D01*
X282030Y191480D01*
D02*
G37*
G36*
X273195Y184179D02*
X272135D01*
X271583Y183627D01*
X271030Y184179D01*
X269970D01*
X269220Y183430D01*
Y182370D01*
X269970Y181621D01*
X271030D01*
X271583Y182173D01*
X272135Y181621D01*
X273195D01*
X273945Y182370D01*
Y183430D01*
X273195Y184179D01*
D02*
G37*
G36*
X265130Y183866D02*
X264070D01*
X263320Y183116D01*
Y182056D01*
X264070Y181307D01*
X265130D01*
X265880Y182056D01*
Y183116D01*
X265130Y183866D01*
D02*
G37*
G36*
X255930Y217280D02*
X254870D01*
X254120Y216530D01*
Y215470D01*
X254444Y215147D01*
X254473Y215072D01*
X254534Y215009D01*
X254578Y214957D01*
X254615Y214907D01*
X254646Y214860D01*
X254670Y214815D01*
X254688Y214774D01*
X254697Y214747D01*
Y180930D01*
X254903Y180433D01*
X254921Y180415D01*
Y179470D01*
X255670Y178720D01*
X256730D01*
X257480Y179470D01*
Y180530D01*
X256730Y181280D01*
X256103D01*
Y214747D01*
X256112Y214774D01*
X256131Y214816D01*
X256154Y214860D01*
X256185Y214907D01*
X256222Y214957D01*
X256266Y215009D01*
X256327Y215072D01*
X256356Y215147D01*
X256680Y215470D01*
Y216530D01*
X255930Y217280D01*
D02*
G37*
G36*
X9086Y183147D02*
X6314D01*
X4354Y181186D01*
Y178414D01*
X6314Y176453D01*
X9086D01*
X11046Y178414D01*
Y181186D01*
X9086Y183147D01*
D02*
G37*
G36*
X68970Y176579D02*
X68394Y176053D01*
X67430Y176479D01*
X67308Y176479D01*
X66370D01*
X65735Y175845D01*
X65709Y175818D01*
X65680Y175830D01*
X64930Y176579D01*
X63870D01*
X63856Y176566D01*
X63050Y175889D01*
X62244Y176566D01*
X62230Y176579D01*
X61170D01*
X60421Y175830D01*
Y174770D01*
X61170Y174021D01*
X62230D01*
X62244Y174035D01*
X63050Y174711D01*
X63856Y174035D01*
X63870Y174021D01*
X64930D01*
X65565Y174655D01*
X65592Y174682D01*
X65620Y174670D01*
X66370Y173921D01*
X67430Y173921D01*
X68006Y174447D01*
X68970Y174021D01*
X69092Y174021D01*
X70030D01*
X70780Y174770D01*
Y175830D01*
X70030Y176579D01*
X69000D01*
X68970Y176579D01*
D02*
G37*
G36*
X143830Y177880D02*
X142770D01*
X142020Y177130D01*
Y176070D01*
X142770Y175320D01*
X143830D01*
X144580Y176070D01*
Y177130D01*
X143830Y177880D01*
D02*
G37*
G36*
X237630Y177980D02*
X236570D01*
X235821Y177230D01*
Y176170D01*
X236570Y175420D01*
X236582Y175391D01*
X236121Y174930D01*
Y173870D01*
X236870Y173120D01*
X237930D01*
X238680Y173870D01*
Y174930D01*
X237930Y175680D01*
X237918Y175708D01*
X238380Y176170D01*
Y177230D01*
X237630Y177980D01*
D02*
G37*
G36*
X21730Y174779D02*
X20670D01*
X19920Y174030D01*
Y172970D01*
X20670Y172221D01*
X21730D01*
X22479Y172970D01*
Y174030D01*
X21730Y174779D01*
D02*
G37*
G36*
X110813Y175305D02*
X109753D01*
X109004Y174556D01*
Y173496D01*
X109545Y172954D01*
X108921Y172330D01*
Y171270D01*
X109670Y170520D01*
X110730D01*
X111479Y171270D01*
Y172330D01*
X110938Y172871D01*
X111563Y173496D01*
Y174556D01*
X110813Y175305D01*
D02*
G37*
G36*
X139930Y171879D02*
X138870D01*
X138120Y171130D01*
Y170070D01*
X138870Y169320D01*
X139930D01*
X140680Y170070D01*
Y171130D01*
X139930Y171879D01*
D02*
G37*
G36*
X82107Y173363D02*
X81047D01*
X80298Y172613D01*
Y171780D01*
X79570D01*
X78821Y171030D01*
Y169970D01*
X79570Y169220D01*
X80630D01*
X81379Y169970D01*
Y170803D01*
X82107D01*
X82857Y171553D01*
Y172613D01*
X82107Y173363D01*
D02*
G37*
G36*
X63430Y169280D02*
X62370D01*
X61620Y168530D01*
Y167470D01*
X62370Y166720D01*
X63430D01*
X64179Y167470D01*
Y168530D01*
X63430Y169280D01*
D02*
G37*
G36*
X72230Y163579D02*
X71170D01*
X70420Y162830D01*
Y161770D01*
X71170Y161021D01*
X72230D01*
X72979Y161770D01*
Y162830D01*
X72230Y163579D01*
D02*
G37*
G36*
X23730Y169379D02*
X22670D01*
X21921Y168630D01*
Y167570D01*
X22076Y167415D01*
X22562Y166650D01*
X22076Y165885D01*
X21921Y165730D01*
Y164670D01*
X22217Y164373D01*
X22547Y163650D01*
X22217Y162927D01*
X21921Y162630D01*
Y161570D01*
X22670Y160820D01*
X23730D01*
X24479Y161570D01*
Y162630D01*
X24183Y162927D01*
X23853Y163650D01*
X24183Y164373D01*
X24479Y164670D01*
Y165730D01*
X24324Y165885D01*
X23838Y166650D01*
X24324Y167415D01*
X24479Y167570D01*
Y168630D01*
X23730Y169379D01*
D02*
G37*
G36*
X19930Y169280D02*
X18870D01*
X18121Y168530D01*
Y167470D01*
X18276Y167315D01*
X18762Y166550D01*
X18276Y165785D01*
X18121Y165630D01*
Y164570D01*
X18388Y164302D01*
X18691Y163491D01*
X18347Y162856D01*
X18021Y162530D01*
Y161470D01*
X18684Y160806D01*
X18770Y160721D01*
X19830D01*
X20494Y161384D01*
X20580Y161470D01*
Y162530D01*
X20312Y162798D01*
X20009Y163609D01*
X20353Y164244D01*
X20680Y164570D01*
Y165630D01*
X20524Y165785D01*
X20038Y166550D01*
X20524Y167315D01*
X20680Y167470D01*
Y168530D01*
X19930Y169280D01*
D02*
G37*
G36*
X142030Y160880D02*
X140970D01*
X140220Y160130D01*
Y159070D01*
X140970Y158320D01*
X142030D01*
X142780Y159070D01*
Y160130D01*
X142030Y160880D01*
D02*
G37*
G36*
X223530Y158879D02*
X222470D01*
X222150Y158560D01*
X222079Y158534D01*
X222049Y158506D01*
X222032Y158493D01*
X222010Y158481D01*
X221984Y158468D01*
X221951Y158456D01*
X221939Y158452D01*
X151400D01*
X150797Y158203D01*
X141948Y149353D01*
X141937Y149347D01*
X141905Y149332D01*
X141877Y149322D01*
X141853Y149316D01*
X141832Y149313D01*
X141791Y149311D01*
X141722Y149279D01*
X141270D01*
X140521Y148530D01*
Y147470D01*
X141270Y146721D01*
X142330D01*
X143079Y147470D01*
Y147922D01*
X143112Y147991D01*
X143113Y148032D01*
X143116Y148053D01*
X143122Y148077D01*
X143132Y148105D01*
X143147Y148137D01*
X143153Y148148D01*
X151753Y156748D01*
X221939D01*
X221950Y156745D01*
X221984Y156732D01*
X222010Y156719D01*
X222032Y156707D01*
X222049Y156694D01*
X222079Y156666D01*
X222150Y156640D01*
X222470Y156321D01*
X223530D01*
X224279Y157070D01*
Y158130D01*
X223530Y158879D01*
D02*
G37*
G36*
X141630Y156480D02*
X140570D01*
X139821Y155730D01*
Y154670D01*
X140570Y153920D01*
X141630D01*
X142379Y154670D01*
Y155730D01*
X141630Y156480D01*
D02*
G37*
G36*
X119130Y158780D02*
X118070D01*
X117321Y158030D01*
Y157900D01*
X117030Y157780D01*
X115970D01*
X115220Y157030D01*
Y155970D01*
X115970Y155220D01*
X116618D01*
X117093Y155138D01*
X117720Y154325D01*
Y153970D01*
X118470Y153220D01*
X119530D01*
X120280Y153970D01*
Y155030D01*
X119936Y155373D01*
X119534Y155796D01*
X119771Y156861D01*
X119879Y156970D01*
Y158030D01*
X119130Y158780D01*
D02*
G37*
G36*
X328091Y158353D02*
X324992D01*
X322802Y156163D01*
Y153064D01*
X324992Y150873D01*
X328091D01*
X330282Y153064D01*
Y156163D01*
X328091Y158353D01*
D02*
G37*
G36*
X55430Y157980D02*
X54370D01*
X53620Y157230D01*
Y157223D01*
X53537Y156163D01*
X52477Y156079D01*
X52470D01*
X51720Y155330D01*
Y155323D01*
X51637Y154263D01*
X50577Y154180D01*
X50570D01*
X49821Y153430D01*
Y152370D01*
X50570Y151620D01*
X51630Y151620D01*
X52021Y150601D01*
Y150570D01*
X52770Y149820D01*
X53830D01*
X54580Y150570D01*
Y150918D01*
X54711Y151680D01*
X55599Y152021D01*
X55830D01*
X56580Y152770D01*
X56580Y153821D01*
X56687Y153821D01*
X57630D01*
X58380Y154570D01*
Y155630D01*
X57630Y156379D01*
X56978D01*
X56179Y157230D01*
X56060Y157349D01*
X55430Y157980D01*
D02*
G37*
G36*
X59930Y150380D02*
X58870D01*
X58121Y149630D01*
Y148570D01*
X58870Y147820D01*
X59707D01*
Y147097D01*
X60457Y146347D01*
X61517D01*
X62266Y147097D01*
Y148157D01*
X61517Y148906D01*
X60680D01*
Y149630D01*
X59930Y150380D01*
D02*
G37*
G36*
X109530Y150279D02*
X108470D01*
X107720Y149530D01*
X107720Y148470D01*
X107476Y147880D01*
X107370D01*
X106621Y147130D01*
Y146070D01*
X107370Y145320D01*
X108430D01*
X108844Y145735D01*
X109234Y146062D01*
X110290Y145900D01*
X110470Y145721D01*
X111530D01*
X112279Y146470D01*
Y147530D01*
X111530Y148280D01*
X111382D01*
X110442Y148442D01*
X110280Y149382D01*
Y149530D01*
X109530Y150279D01*
D02*
G37*
G36*
X92530Y140779D02*
X91470D01*
X90720Y140030D01*
Y138970D01*
X91470Y138221D01*
X92530D01*
X93279Y138970D01*
Y140030D01*
X92530Y140779D01*
D02*
G37*
G36*
X71452Y139762D02*
X70393D01*
X69643Y139013D01*
Y137953D01*
X70393Y137204D01*
X71121D01*
Y136370D01*
X71870Y135620D01*
X72930D01*
X73680Y136370D01*
Y137430D01*
X72930Y138180D01*
X72202D01*
Y139013D01*
X71452Y139762D01*
D02*
G37*
G36*
X131030Y138080D02*
X129970D01*
X129220Y137330D01*
Y136270D01*
X129970Y135521D01*
X131030D01*
X131780Y136270D01*
Y137330D01*
X131030Y138080D01*
D02*
G37*
G36*
X39630Y137080D02*
X38570D01*
X37821Y136330D01*
Y135270D01*
X38570Y134520D01*
X39630D01*
X40380Y135270D01*
Y136330D01*
X39630Y137080D01*
D02*
G37*
G36*
X323957Y142409D02*
X320043D01*
X317276Y139642D01*
Y135728D01*
X320043Y132961D01*
X323957D01*
X326724Y135728D01*
Y139642D01*
X323957Y142409D01*
D02*
G37*
G36*
X102530Y132780D02*
X101470D01*
X100750Y132060D01*
X100030Y132780D01*
X98970D01*
X98220Y132030D01*
Y130970D01*
X98940Y130250D01*
X98220Y129530D01*
Y128470D01*
X98447Y128244D01*
X98850Y127500D01*
X98447Y126756D01*
X98220Y126530D01*
Y125470D01*
X98970Y124721D01*
X100030D01*
X100706Y125397D01*
X100750Y125441D01*
X100794Y125397D01*
X101470Y124721D01*
X102530D01*
X103279Y125470D01*
Y126530D01*
X103053Y126756D01*
X102650Y127500D01*
X103053Y128244D01*
X103279Y128470D01*
Y129530D01*
X102559Y130250D01*
X103279Y130970D01*
Y132030D01*
X102530Y132780D01*
D02*
G37*
G36*
X287030Y134280D02*
X285970D01*
X285221Y133530D01*
Y132470D01*
X285970Y131720D01*
X287030D01*
X287779Y132470D01*
Y133530D01*
X287030Y134280D01*
D02*
G37*
G36*
X77130D02*
X76070D01*
X75321Y133530D01*
Y132470D01*
X76070Y131720D01*
X77130D01*
X77880Y132470D01*
Y133530D01*
X77130Y134280D01*
D02*
G37*
G36*
X15330Y132080D02*
X14270D01*
X13915Y131724D01*
X13366Y131376D01*
X12468Y131641D01*
X12316Y131794D01*
X12230Y131879D01*
X11170D01*
X10420Y131130D01*
X10420Y130070D01*
X10929Y129300D01*
X10420Y128530D01*
X10420Y128450D01*
Y127470D01*
X10505Y127385D01*
X11082Y126600D01*
X10505Y125815D01*
X10420Y125730D01*
Y124670D01*
X11170Y123921D01*
X11367D01*
X12220Y123130D01*
X12220Y122739D01*
Y122070D01*
X12970Y121320D01*
X14030D01*
X14780Y122070D01*
Y123130D01*
X14613Y123296D01*
X14830Y123820D01*
X15579Y124570D01*
Y125630D01*
X15341Y125868D01*
X15076Y126766D01*
X15424Y127315D01*
X15779Y127670D01*
X15779Y128730D01*
X15679Y129869D01*
X16080Y130270D01*
Y131330D01*
X15330Y132080D01*
D02*
G37*
G36*
X45830Y175180D02*
X44770D01*
X44021Y174430D01*
Y173370D01*
X44770Y172620D01*
X45222D01*
X45291Y172589D01*
X45332Y172587D01*
X45353Y172584D01*
X45377Y172578D01*
X45405Y172568D01*
X45437Y172553D01*
X45448Y172547D01*
X76397Y141597D01*
X77000Y141348D01*
X81647D01*
X91147Y131848D01*
X91153Y131837D01*
X91168Y131805D01*
X91178Y131777D01*
X91184Y131753D01*
X91187Y131732D01*
X91189Y131691D01*
X91220Y131622D01*
Y131170D01*
X91970Y130420D01*
X93030D01*
X93779Y131170D01*
Y132230D01*
X93030Y132980D01*
X92578D01*
X92509Y133011D01*
X92468Y133013D01*
X92447Y133016D01*
X92423Y133022D01*
X92395Y133032D01*
X92363Y133047D01*
X92352Y133053D01*
X82603Y142803D01*
X82000Y143052D01*
X77353D01*
X46653Y173752D01*
X46647Y173763D01*
X46632Y173795D01*
X46622Y173823D01*
X46616Y173847D01*
X46613Y173868D01*
X46611Y173909D01*
X46580Y173978D01*
Y174430D01*
X45830Y175180D01*
D02*
G37*
G36*
X39630Y132879D02*
X38570D01*
X37821Y132130D01*
Y131070D01*
X38570Y130321D01*
X39630D01*
X40380Y131070D01*
Y132130D01*
X39630Y132879D01*
D02*
G37*
G36*
X81330Y129980D02*
X80270D01*
X79851Y129560D01*
X79781Y129526D01*
X79756Y129497D01*
X79745Y129488D01*
X79731Y129478D01*
X79712Y129467D01*
X79686Y129456D01*
X79676Y129452D01*
X71761D01*
X71724Y129462D01*
X71687Y129474D01*
X71657Y129487D01*
X71633Y129499D01*
X71597Y129522D01*
X71586Y129523D01*
X71400Y129709D01*
X70341D01*
X69591Y128960D01*
Y127900D01*
X70341Y127150D01*
X71400D01*
X71917Y127666D01*
X71951Y127687D01*
X71972Y127715D01*
X71978Y127721D01*
X71987Y127727D01*
X72000Y127736D01*
X72021Y127745D01*
X72027Y127748D01*
X79828D01*
X79832Y127747D01*
X79872Y127734D01*
X79905Y127721D01*
X79933Y127708D01*
X79955Y127694D01*
X79989Y127669D01*
X80032Y127659D01*
X80270Y127420D01*
X81330D01*
X82079Y128170D01*
Y129230D01*
X81330Y129980D01*
D02*
G37*
G36*
X109606Y131679D02*
X108546D01*
X107797Y130930D01*
Y129870D01*
X108546Y129121D01*
X109606D01*
X110356Y129870D01*
Y130930D01*
X109606Y131679D01*
D02*
G37*
G36*
X59430Y133379D02*
X58370D01*
X57621Y132630D01*
Y132299D01*
X57309Y131485D01*
X56560Y131280D01*
X56170D01*
X55421Y130530D01*
Y129470D01*
X56170Y128720D01*
X57230D01*
X57980Y129470D01*
Y129801D01*
X58292Y130615D01*
X59040Y130821D01*
X59430D01*
X60180Y131570D01*
Y132630D01*
X59430Y133379D01*
D02*
G37*
G36*
X39530Y127880D02*
X38470D01*
X37721Y127130D01*
Y126070D01*
X38470Y125320D01*
X39530D01*
X40279Y126070D01*
Y127130D01*
X39530Y127880D01*
D02*
G37*
G36*
X48330Y127680D02*
X47270D01*
X46521Y126930D01*
Y125870D01*
X47270Y125120D01*
X48330D01*
X49079Y125870D01*
Y126930D01*
X48330Y127680D01*
D02*
G37*
G36*
X54830Y126279D02*
X53770D01*
X53021Y125530D01*
Y124470D01*
X53770Y123721D01*
X54830D01*
X55580Y124470D01*
Y125530D01*
X54830Y126279D01*
D02*
G37*
G36*
X23099Y123849D02*
X22039D01*
X21290Y123099D01*
Y122039D01*
X22039Y121290D01*
X23099D01*
X23849Y122039D01*
Y123099D01*
X23099Y123849D01*
D02*
G37*
G36*
X101830Y120080D02*
X100770D01*
X100021Y119330D01*
Y118270D01*
X100770Y117520D01*
X101830D01*
X102579Y118270D01*
Y119330D01*
X101830Y120080D01*
D02*
G37*
G36*
X39630Y119580D02*
X38570D01*
X37821Y118830D01*
Y117770D01*
X38570Y117020D01*
X39630D01*
X40380Y117770D01*
Y118830D01*
X39630Y119580D01*
D02*
G37*
G36*
X86830Y124380D02*
X85770D01*
X85021Y123630D01*
Y122570D01*
X85147Y122444D01*
X85606Y121597D01*
X85105Y120915D01*
X84921Y120730D01*
Y119670D01*
X84976Y119615D01*
X85526Y118749D01*
X84935Y118044D01*
X84820Y117930D01*
Y116870D01*
X85570Y116121D01*
X86630D01*
X87379Y116870D01*
Y117930D01*
X87324Y117985D01*
X86774Y118851D01*
X87366Y119556D01*
X87480Y119670D01*
Y120730D01*
X87353Y120856D01*
X86894Y121703D01*
X87395Y122385D01*
X87580Y122570D01*
Y123630D01*
X86830Y124380D01*
D02*
G37*
G36*
X114796Y121334D02*
X113736D01*
X112986Y120585D01*
Y119948D01*
X112063D01*
X111313Y119199D01*
Y118379D01*
X110570D01*
X109820Y117630D01*
Y116570D01*
X110570Y115821D01*
X111630D01*
X112380Y116570D01*
Y117389D01*
X113123D01*
X113872Y118139D01*
Y118775D01*
X114796D01*
X115545Y119525D01*
Y120585D01*
X114796Y121334D01*
D02*
G37*
G36*
X73345Y112180D02*
X72285D01*
X71536Y111430D01*
Y110370D01*
X72285Y109620D01*
X73345D01*
X74095Y110370D01*
Y111430D01*
X73345Y112180D01*
D02*
G37*
G36*
X39630Y110880D02*
X39509Y110880D01*
X38570D01*
X37906Y110216D01*
X37821Y110130D01*
Y109070D01*
X38047Y108844D01*
X38450Y108100D01*
X38047Y107356D01*
X37821Y107130D01*
Y106070D01*
X38570Y105321D01*
X39630D01*
X40380Y106070D01*
Y107130D01*
X40153Y107356D01*
X39750Y108100D01*
X40153Y108844D01*
X40294Y108984D01*
X40380Y109070D01*
Y110130D01*
X39630Y110880D01*
D02*
G37*
G36*
X219330Y101579D02*
X218270D01*
X217628Y100937D01*
X216630Y101380D01*
X216567Y101380D01*
X215570D01*
X215515Y101324D01*
X214649Y100774D01*
X213944Y101365D01*
X213830Y101479D01*
X212770D01*
X212756Y101465D01*
X211950Y100789D01*
X211144Y101465D01*
X211130Y101479D01*
X210070D01*
X209320Y100730D01*
Y99670D01*
X209488Y99502D01*
X209828Y98591D01*
X209405Y98015D01*
X209120Y97730D01*
Y96670D01*
X209870Y95920D01*
X210930D01*
X211044Y96034D01*
X211749Y96626D01*
X212615Y96076D01*
X212670Y96021D01*
X213730D01*
X213744Y96034D01*
X214550Y96711D01*
X215356Y96034D01*
X215370Y96021D01*
X216430D01*
X216598Y96188D01*
X217509Y96528D01*
X218085Y96105D01*
X218370Y95820D01*
X219430D01*
X220180Y96570D01*
Y97630D01*
X219783Y98027D01*
X219506Y98635D01*
X219741Y99432D01*
X220079Y99770D01*
Y100830D01*
X219330Y101579D01*
D02*
G37*
G36*
X82330Y102880D02*
X81270D01*
X80520Y102130D01*
Y101070D01*
X81270Y100320D01*
X82330D01*
X83079Y101070D01*
Y102130D01*
X82330Y102880D01*
D02*
G37*
G36*
X84956Y98167D02*
X83244D01*
X83017Y97940D01*
X82791Y98167D01*
X81078D01*
X79868Y96956D01*
Y95244D01*
X80812Y94299D01*
Y84295D01*
X81268Y83195D01*
X85926Y78537D01*
Y57690D01*
X84745Y57688D01*
X82786Y59646D01*
X80014D01*
X78053Y57686D01*
Y54914D01*
X80014Y52953D01*
X81784D01*
X82273Y51772D01*
X77887Y47387D01*
X77399Y47175D01*
X76590Y47014D01*
X75915Y47689D01*
X72180D01*
X69539Y45048D01*
Y41314D01*
X72180Y38673D01*
X75915D01*
X76204Y38963D01*
X77295Y38511D01*
Y38273D01*
X77751Y37173D01*
X78323Y36600D01*
X77959Y35721D01*
X75779Y33541D01*
Y30459D01*
X77959Y28280D01*
X81041D01*
X82447Y29685D01*
X82561Y29699D01*
X83771Y29340D01*
X84030Y28715D01*
X84203Y28542D01*
X84203Y28542D01*
X85044Y27701D01*
X84828Y27180D01*
Y26590D01*
X85284Y25490D01*
X86169Y24605D01*
X87269Y24150D01*
X87779D01*
Y23639D01*
X88235Y22539D01*
X89120Y21654D01*
X90220Y21199D01*
X90730D01*
Y20688D01*
X91185Y19589D01*
X92071Y18703D01*
X93171Y18248D01*
X93761D01*
X94861Y18703D01*
X94979Y18822D01*
X97176D01*
Y18432D01*
X97632Y17333D01*
X98049Y16915D01*
X99149Y16460D01*
X100401D01*
X101500Y16915D01*
X101861Y17276D01*
X102222Y16915D01*
X103322Y16460D01*
X104574D01*
X105674Y16915D01*
X106035Y17276D01*
X106395Y16915D01*
X107495Y16460D01*
X108747D01*
X109847Y16915D01*
X110208Y17276D01*
X110569Y16915D01*
X111668Y16460D01*
X112920D01*
X114020Y16915D01*
X114381Y17276D01*
X114742Y16915D01*
X115842Y16460D01*
X117094D01*
X118193Y16915D01*
X118554Y17276D01*
X118915Y16915D01*
X120015Y16460D01*
X121267D01*
X122367Y16915D01*
X122727Y17276D01*
X123088Y16915D01*
X124188Y16460D01*
X125440D01*
X126540Y16915D01*
X126901Y17276D01*
X127261Y16915D01*
X128361Y16460D01*
X129613D01*
X130713Y16915D01*
X131074Y17276D01*
X131435Y16915D01*
X132535Y16460D01*
X133786D01*
X134886Y16915D01*
X135247Y17276D01*
X135608Y16915D01*
X136708Y16460D01*
X137960D01*
X139059Y16915D01*
X139420Y17276D01*
X139781Y16915D01*
X140881Y16460D01*
X142133D01*
X143233Y16915D01*
X143650Y17333D01*
X144744Y17877D01*
X146456D01*
X147667Y19088D01*
Y20800D01*
X147440Y21027D01*
X147667Y21253D01*
Y22966D01*
X146456Y24176D01*
X144744D01*
X143799Y23232D01*
X95750D01*
X91582Y27400D01*
X91947Y28280D01*
X94126Y30459D01*
Y33541D01*
X91947Y35721D01*
X88864D01*
X87152Y34008D01*
X83668Y37492D01*
X84158Y38673D01*
X86820D01*
X89461Y41314D01*
Y45048D01*
X86820Y47689D01*
X85969D01*
X85517Y48780D01*
X89880Y53143D01*
X90336Y54243D01*
Y55619D01*
X90567Y55714D01*
X90827Y55974D01*
X91283Y57074D01*
Y57854D01*
X90851Y58896D01*
X91172Y59672D01*
Y60452D01*
X90717Y61552D01*
X90457Y61812D01*
X90336Y61862D01*
Y65259D01*
Y79720D01*
X89880Y80819D01*
X85222Y85477D01*
Y94299D01*
X86167Y95244D01*
Y96956D01*
X84956Y98167D01*
D02*
G37*
G36*
X31330Y99980D02*
X30270D01*
X29520Y99230D01*
Y98170D01*
X30270Y97421D01*
X31330D01*
X32079Y98170D01*
Y99230D01*
X31330Y99980D01*
D02*
G37*
G36*
X16830Y96680D02*
X15770D01*
X15021Y95930D01*
Y94870D01*
X15770Y94121D01*
X16830D01*
X17580Y94870D01*
Y95930D01*
X16830Y96680D01*
D02*
G37*
G36*
X75130Y92779D02*
X74070D01*
X73321Y92030D01*
Y90970D01*
X74070Y90220D01*
X75130D01*
X75880Y90970D01*
Y92030D01*
X75130Y92779D01*
D02*
G37*
G36*
X101530Y92279D02*
X100470D01*
X99721Y91530D01*
X99721Y90650D01*
X99169Y90011D01*
X98113Y89780D01*
X97729Y89780D01*
X97630Y89880D01*
X96570D01*
X96390Y89700D01*
X95334Y89538D01*
X94944Y89865D01*
X94530Y90280D01*
X93470D01*
X93003Y89813D01*
X92030Y89280D01*
X90970Y89280D01*
X90220Y88530D01*
Y87470D01*
X90970Y86721D01*
X92030D01*
X92497Y87187D01*
X93470Y87721D01*
X94530Y87721D01*
X94710Y87900D01*
X95766Y88062D01*
X96156Y87735D01*
X96570Y87321D01*
X97630D01*
X98250Y87941D01*
X98970Y87221D01*
X100030D01*
X100779Y87970D01*
X100779Y88850D01*
X101530Y89720D01*
X101632Y89823D01*
X102279Y90470D01*
Y91530D01*
X101530Y92279D01*
D02*
G37*
G36*
X75430Y86680D02*
X74370D01*
X73620Y85930D01*
Y84870D01*
X74370Y84121D01*
X75430D01*
X76179Y84870D01*
Y85930D01*
X75430Y86680D01*
D02*
G37*
G36*
X45030Y82780D02*
X43970D01*
X43748Y82558D01*
X43167Y82053D01*
X42219Y82464D01*
X42130Y82553D01*
X41070D01*
X40321Y81803D01*
Y80743D01*
X40984Y80079D01*
X41070Y79994D01*
X42130D01*
X42352Y80216D01*
X42933Y80720D01*
X43881Y80309D01*
X43970Y80221D01*
X44241D01*
X44730Y79039D01*
X44721Y79030D01*
Y77970D01*
X44947Y77744D01*
X45350Y77000D01*
X44947Y76256D01*
X44721Y76030D01*
Y74970D01*
X45470Y74221D01*
X46530D01*
X47280Y74970D01*
Y76030D01*
X47053Y76256D01*
X46650Y77000D01*
X47053Y77744D01*
X47280Y77970D01*
Y79030D01*
X46530Y79779D01*
X46259D01*
X45770Y80961D01*
X45779Y80970D01*
Y82030D01*
X45030Y82780D01*
D02*
G37*
G36*
X79630Y82380D02*
X78570D01*
X77894Y81703D01*
X77850Y81660D01*
X77806Y81703D01*
Y81703D01*
X77806Y81703D01*
X77130Y82380D01*
X76070D01*
X75321Y81630D01*
Y80570D01*
X76070Y79821D01*
X77130D01*
X77806Y80497D01*
X77850Y80540D01*
X77894Y80497D01*
Y80497D01*
X77894Y80497D01*
X78570Y79821D01*
X79630D01*
X80379Y80570D01*
Y81630D01*
X79630Y82380D01*
D02*
G37*
G36*
X33730Y83179D02*
X33700Y83179D01*
X32670D01*
X31920Y82430D01*
Y81370D01*
X32670Y80620D01*
X33730Y80620D01*
X34694Y81047D01*
X35270Y80520D01*
X35300Y80520D01*
X36330D01*
X37080Y81270D01*
Y82330D01*
X36330Y83079D01*
X35270Y83079D01*
X34306Y82653D01*
X33730Y83179D01*
D02*
G37*
G36*
X17523Y86049D02*
X15077D01*
X13347Y84319D01*
Y81873D01*
X15077Y80143D01*
X17523D01*
X19253Y81873D01*
Y84319D01*
X17523Y86049D01*
D02*
G37*
G36*
X9649D02*
X7203D01*
X5473Y84319D01*
Y81873D01*
X7203Y80143D01*
X9649D01*
X11379Y81873D01*
Y84319D01*
X9649Y86049D01*
D02*
G37*
G36*
X98530Y79280D02*
X97470D01*
X96720Y78530D01*
Y77470D01*
X96830Y77361D01*
X96736Y76669D01*
X96192Y76382D01*
X95338Y76758D01*
X95280Y76970D01*
Y78030D01*
X94530Y78780D01*
X93470D01*
X92721Y78030D01*
Y76970D01*
X93409Y76282D01*
X93470Y76221D01*
X93599Y75909D01*
X93221Y75530D01*
Y74470D01*
X93970Y73721D01*
X95008D01*
X95030Y73721D01*
X95179Y73681D01*
X95355Y73462D01*
X95720Y72530D01*
Y71470D01*
X96470Y70720D01*
X97530D01*
X98110Y71300D01*
X98750Y71398D01*
X99390Y71300D01*
X99970Y70720D01*
X101030D01*
X101779Y71470D01*
Y72530D01*
X101030Y73280D01*
X99970D01*
X99489Y72798D01*
X98294Y72905D01*
X97936Y73764D01*
X98265Y74156D01*
X98479Y74370D01*
Y75430D01*
X98370Y75539D01*
X98530Y76720D01*
X98695Y76885D01*
X99279Y77470D01*
Y78530D01*
X98530Y79280D01*
D02*
G37*
G36*
X17523Y78175D02*
X15077D01*
X13347Y76445D01*
Y73999D01*
X15077Y72269D01*
X17523D01*
X19253Y73999D01*
Y76445D01*
X17523Y78175D01*
D02*
G37*
G36*
X9649D02*
X7203D01*
X5473Y76445D01*
Y73999D01*
X7203Y72269D01*
X9649D01*
X11379Y73999D01*
Y76445D01*
X9649Y78175D01*
D02*
G37*
G36*
X267030Y73779D02*
X265970D01*
X265220Y73030D01*
Y71970D01*
X265970Y71220D01*
X267030D01*
X267779Y71970D01*
Y73030D01*
X267030Y73779D01*
D02*
G37*
G36*
X17523Y70301D02*
X15077D01*
X13347Y68571D01*
Y66125D01*
X15077Y64395D01*
X17523D01*
X19253Y66125D01*
Y68571D01*
X17523Y70301D01*
D02*
G37*
G36*
X9649D02*
X7203D01*
X5473Y68571D01*
Y66125D01*
X7203Y64395D01*
X9649D01*
X11379Y66125D01*
Y68571D01*
X9649Y70301D01*
D02*
G37*
G36*
X72786Y69647D02*
X70014D01*
X68054Y67686D01*
Y64914D01*
X70014Y62954D01*
X72786D01*
X74747Y64914D01*
Y67686D01*
X72786Y69647D01*
D02*
G37*
G36*
X62786D02*
X60014D01*
X58053Y67686D01*
Y64914D01*
X60014Y62954D01*
X62786D01*
X64746Y64914D01*
Y67686D01*
X62786Y69647D01*
D02*
G37*
G36*
X52786D02*
X50014D01*
X48054Y67686D01*
Y64914D01*
X50014Y62954D01*
X52786D01*
X54747Y64914D01*
Y67686D01*
X52786Y69647D01*
D02*
G37*
G36*
X110030Y63279D02*
X108970D01*
X108221Y62530D01*
Y62259D01*
X107039Y61770D01*
X107030Y61779D01*
X105970D01*
X105220Y61030D01*
Y60675D01*
X104593Y59862D01*
X104118Y59780D01*
X103470D01*
X102720Y59030D01*
Y58882D01*
X102558Y57942D01*
X101618Y57780D01*
X101470D01*
X100823Y57132D01*
X100721Y57030D01*
X99850Y56279D01*
X98970Y56279D01*
X98220Y55530D01*
Y54858D01*
X98030Y54779D01*
X98025Y54779D01*
X96970D01*
X96220Y54030D01*
Y52970D01*
X96970Y52220D01*
X98030D01*
X98539Y52730D01*
X99687Y52477D01*
X99744Y52447D01*
X100470Y51720D01*
X101530D01*
X102279Y52470D01*
Y52741D01*
X103461Y53230D01*
X103470Y53220D01*
X104530D01*
X105280Y53970D01*
Y54325D01*
X105907Y55138D01*
X106382Y55221D01*
X107030D01*
X107780Y55970D01*
Y56617D01*
X107780Y56741D01*
X108819Y57371D01*
X108879Y57312D01*
X108970Y57221D01*
X110030D01*
X110780Y57970D01*
Y59030D01*
X110200Y59610D01*
X110102Y60250D01*
X110200Y60890D01*
X110780Y61470D01*
Y62530D01*
X110030Y63279D01*
D02*
G37*
G36*
X27830Y63579D02*
X26770D01*
X26021Y62830D01*
Y61770D01*
X26770Y61020D01*
X27830D01*
X28580Y61770D01*
Y62830D01*
X27830Y63579D01*
D02*
G37*
G36*
X210030Y60780D02*
X208970D01*
X208221Y60030D01*
Y58970D01*
X208970Y58220D01*
X210030D01*
X210780Y58970D01*
Y60030D01*
X210030Y60780D01*
D02*
G37*
G36*
X9649Y62427D02*
X7203D01*
X5473Y60697D01*
Y58251D01*
X7203Y56521D01*
X9649D01*
X11379Y58251D01*
Y60697D01*
X9649Y62427D01*
D02*
G37*
G36*
X72786Y59646D02*
X70014D01*
X68054Y57686D01*
Y54914D01*
X70014Y52953D01*
X72786D01*
X74747Y54914D01*
Y57686D01*
X72786Y59646D01*
D02*
G37*
G36*
X62786D02*
X60014D01*
X58053Y57686D01*
Y54914D01*
X60014Y52953D01*
X62786D01*
X64746Y54914D01*
Y57686D01*
X62786Y59646D01*
D02*
G37*
G36*
X54747D02*
X48054D01*
Y52953D01*
X54747D01*
Y59646D01*
D02*
G37*
G36*
X17523Y54553D02*
X15077D01*
X13347Y52823D01*
Y50377D01*
X15077Y48647D01*
X17523D01*
X19253Y50377D01*
Y52823D01*
X17523Y54553D01*
D02*
G37*
G36*
X9649D02*
X7203D01*
X5473Y52823D01*
Y50377D01*
X7203Y48647D01*
X9649D01*
X11379Y50377D01*
Y52823D01*
X9649Y54553D01*
D02*
G37*
G36*
X172282Y45131D02*
X171222D01*
X170473Y44382D01*
Y43322D01*
X171222Y42572D01*
X172282D01*
X173031Y43322D01*
Y44382D01*
X172282Y45131D01*
D02*
G37*
G36*
X167282D02*
X166222D01*
X165472Y44382D01*
Y43322D01*
X166222Y42572D01*
X167282D01*
X168032Y43322D01*
Y44382D01*
X167282Y45131D01*
D02*
G37*
G36*
X17523Y46679D02*
X15077D01*
X13347Y44949D01*
Y42503D01*
X15077Y40773D01*
X17523D01*
X19253Y42503D01*
Y44949D01*
X17523Y46679D01*
D02*
G37*
G36*
X9649D02*
X7203D01*
X5473Y44949D01*
Y42503D01*
X7203Y40773D01*
X9649D01*
X11379Y42503D01*
Y44949D01*
X9649Y46679D01*
D02*
G37*
G36*
X110484Y46902D02*
X103043D01*
Y39461D01*
X110484D01*
Y46902D01*
D02*
G37*
G36*
X97399D02*
X94317D01*
X92138Y44722D01*
Y41640D01*
X94317Y39461D01*
X97399D01*
X99579Y41640D01*
Y44722D01*
X97399Y46902D01*
D02*
G37*
G36*
X205230Y35820D02*
X204170D01*
X204156Y35806D01*
X203350Y35129D01*
X202544Y35806D01*
X202530Y35820D01*
X201470D01*
X201232Y35582D01*
X200522Y35171D01*
X199744Y35565D01*
X199530Y35780D01*
X198470D01*
X197721Y35030D01*
Y33970D01*
X197947Y33744D01*
X198350Y33000D01*
X197947Y32256D01*
X197721Y32030D01*
Y30970D01*
X197732Y30958D01*
X198076Y29920D01*
X197327Y29170D01*
Y28110D01*
X198076Y27361D01*
X199136D01*
X199499Y27724D01*
X200203Y27990D01*
X200907Y27724D01*
X201270Y27361D01*
X202292D01*
X202330Y27361D01*
X203285Y27905D01*
X203915Y27276D01*
X203970Y27220D01*
X205030D01*
X205610Y27800D01*
X206250Y27898D01*
X206890Y27800D01*
X207470Y27220D01*
X208530D01*
X209279Y27970D01*
Y29030D01*
X209053Y29256D01*
X208650Y30000D01*
X209053Y30744D01*
X209279Y30970D01*
Y32030D01*
X209053Y32256D01*
X208650Y33000D01*
X209053Y33744D01*
X209279Y33970D01*
Y35030D01*
X208530Y35780D01*
X207470D01*
X207044Y35353D01*
X206320Y35161D01*
X205680Y35370D01*
X205230Y35820D01*
D02*
G37*
G36*
X17523Y38805D02*
X15077D01*
X13347Y37075D01*
Y34629D01*
X15077Y32899D01*
X17523D01*
X19253Y34629D01*
Y37075D01*
X17523Y38805D01*
D02*
G37*
G36*
X9649D02*
X7203D01*
X5473Y37075D01*
Y34629D01*
X7203Y32899D01*
X9649D01*
X11379Y34629D01*
Y37075D01*
X9649Y38805D01*
D02*
G37*
G36*
X102852Y35721D02*
X99770D01*
X97591Y33541D01*
Y30459D01*
X99770Y28280D01*
X102852D01*
X105032Y30459D01*
Y33541D01*
X102852Y35721D01*
D02*
G37*
G36*
X70136D02*
X67053D01*
X64874Y33541D01*
Y30459D01*
X67053Y28280D01*
X70136D01*
X72315Y30459D01*
Y33541D01*
X70136Y35721D01*
D02*
G37*
G36*
X138190Y47354D02*
X130101D01*
X124382Y41635D01*
Y33546D01*
X130101Y27827D01*
X138190D01*
X143909Y33546D01*
Y41635D01*
X138190Y47354D01*
D02*
G37*
G36*
X39804D02*
X31716D01*
X25996Y41635D01*
Y33546D01*
X31716Y27827D01*
X39804D01*
X45524Y33546D01*
Y41635D01*
X39804Y47354D01*
D02*
G37*
G36*
X162146Y32846D02*
X155454D01*
Y26154D01*
X162146D01*
Y32846D01*
D02*
G37*
G36*
X272030Y25480D02*
X270970D01*
X270220Y24730D01*
Y23670D01*
X270970Y22920D01*
X272030D01*
X272779Y23670D01*
Y24730D01*
X272030Y25480D01*
D02*
G37*
G36*
X160512Y23634D02*
X157088D01*
X154666Y21212D01*
Y17788D01*
X157088Y15366D01*
X160512D01*
X162934Y17788D01*
Y21212D01*
X160512Y23634D01*
D02*
G37*
G36*
X244560Y11559D02*
X242440D01*
X240941Y10060D01*
Y7940D01*
X242440Y6441D01*
X244560D01*
X246059Y7940D01*
Y10060D01*
X244560Y11559D01*
D02*
G37*
G36*
X222060D02*
X219940D01*
X218441Y10060D01*
Y7940D01*
X219940Y6441D01*
X222060D01*
X223559Y7940D01*
Y10060D01*
X222060Y11559D01*
D02*
G37*
G36*
X212060D02*
X209940D01*
X208441Y10060D01*
Y7940D01*
X209940Y6441D01*
X212060D01*
X213559Y7940D01*
Y10060D01*
X212060Y11559D01*
D02*
G37*
G36*
X199560D02*
X197440D01*
X195941Y10060D01*
Y7940D01*
X197440Y6441D01*
X199560D01*
X201059Y7940D01*
Y10060D01*
X199560Y11559D01*
D02*
G37*
G36*
X189560D02*
X187440D01*
X185941Y10060D01*
Y7940D01*
X187440Y6441D01*
X189560D01*
X191059Y7940D01*
Y10060D01*
X189560Y11559D01*
D02*
G37*
G36*
X177060D02*
X174940D01*
X173441Y10060D01*
Y7940D01*
X174940Y6441D01*
X177060D01*
X178559Y7940D01*
Y10060D01*
X177060Y11559D01*
D02*
G37*
G36*
X167060D02*
X164940D01*
X163441Y10060D01*
Y7940D01*
X164940Y6441D01*
X167060D01*
X168559Y7940D01*
Y10060D01*
X167060Y11559D01*
D02*
G37*
%LPD*%
G36*
X287388Y252218D02*
X288140Y251428D01*
X288269Y251116D01*
X288577Y250374D01*
Y250121D01*
X288140Y249066D01*
X288140Y249066D01*
Y248279D01*
X288140Y248279D01*
X288577Y247224D01*
Y246971D01*
X288140Y245917D01*
X288140Y245917D01*
Y245129D01*
X288140Y245129D01*
X288577Y244075D01*
Y243822D01*
X288140Y242767D01*
X288140Y242767D01*
Y241980D01*
X288140Y241980D01*
X288577Y240925D01*
Y240672D01*
X288140Y239617D01*
X288140Y239617D01*
Y238830D01*
X288140Y238830D01*
X288577Y237775D01*
Y237522D01*
X288140Y236468D01*
X288140Y236468D01*
Y235680D01*
X288140Y235680D01*
X288577Y234626D01*
Y234373D01*
X288140Y233318D01*
X288140Y233318D01*
Y232531D01*
X288140Y232531D01*
X288577Y231476D01*
X288805Y231248D01*
Y230492D01*
X288157Y229843D01*
X287102Y229406D01*
Y229406D01*
X286545Y228849D01*
X286456Y228633D01*
X285991Y227734D01*
X285091Y227269D01*
X284875Y227179D01*
Y227179D01*
X284318Y226622D01*
X284229Y226406D01*
X283764Y225506D01*
X282864Y225041D01*
X282648Y224952D01*
Y224952D01*
X282091Y224395D01*
X282001Y224179D01*
X281536Y223279D01*
X280637Y222814D01*
X280421Y222725D01*
Y222725D01*
X279864Y222168D01*
X279427Y221113D01*
X279427Y221113D01*
Y220618D01*
X278784Y219974D01*
X278783Y219974D01*
X277476Y218667D01*
X277325Y218301D01*
X276189Y217783D01*
X275692Y218155D01*
X275636Y219374D01*
X275883Y219620D01*
X275883Y219620D01*
X276319Y220675D01*
Y221462D01*
X276230Y221678D01*
X275923Y222643D01*
X276230Y223608D01*
X276319Y223824D01*
Y224612D01*
X276230Y224828D01*
X275923Y225793D01*
X276230Y226758D01*
X276319Y226974D01*
Y227761D01*
X276230Y227978D01*
X275923Y228942D01*
X276230Y229907D01*
X276319Y230124D01*
Y230911D01*
X276230Y231127D01*
X275923Y232092D01*
X276230Y233057D01*
X276319Y233273D01*
Y234061D01*
X275883Y235115D01*
X275883Y235115D01*
X275532Y235466D01*
Y242595D01*
X276623Y243047D01*
X277451Y242219D01*
X280749D01*
X283081Y244551D01*
Y247849D01*
X281491Y249439D01*
Y250388D01*
X281491Y250388D01*
X281345Y250741D01*
X281355Y250745D01*
X282552Y251942D01*
X282552Y251942D01*
X282666Y252219D01*
X287049D01*
X287388Y252218D01*
D02*
G37*
G36*
X280374Y217514D02*
X280388Y217446D01*
X280412Y217381D01*
X280445Y217318D01*
X280487Y217258D01*
X280539Y217199D01*
X280600Y217143D01*
X280670Y217089D01*
X280750Y217037D01*
X280840Y216987D01*
X279654Y216623D01*
X279715Y216738D01*
X279895Y217136D01*
X279924Y217219D01*
X279963Y217368D01*
X279973Y217432D01*
X279976Y217490D01*
X280369Y217583D01*
X280374Y217514D01*
D02*
G37*
G36*
X278728Y217488D02*
X278731Y217430D01*
X278741Y217366D01*
X278757Y217295D01*
X278779Y217218D01*
X278843Y217044D01*
X278885Y216947D01*
X279048Y216619D01*
X277864Y216988D01*
X277953Y217038D01*
X278033Y217091D01*
X278104Y217146D01*
X278165Y217204D01*
X278217Y217265D01*
X278259Y217329D01*
X278292Y217395D01*
X278315Y217465D01*
X278329Y217537D01*
X278334Y217612D01*
X278728Y217488D01*
D02*
G37*
G36*
X195767Y236780D02*
X195696Y236849D01*
X195623Y236911D01*
X195550Y236966D01*
X195476Y237013D01*
X195402Y237053D01*
X195327Y237086D01*
X195252Y237111D01*
X195175Y237129D01*
X195098Y237140D01*
X195020Y237144D01*
Y237656D01*
X195098Y237660D01*
X195175Y237670D01*
X195252Y237689D01*
X195327Y237714D01*
X195402Y237747D01*
X195476Y237787D01*
X195550Y237834D01*
X195623Y237889D01*
X195696Y237951D01*
X195767Y238020D01*
Y236780D01*
D02*
G37*
G36*
X176405Y219851D02*
X176478Y219789D01*
X176550Y219734D01*
X176624Y219687D01*
X176699Y219647D01*
X176774Y219614D01*
X176849Y219589D01*
X176926Y219570D01*
X177003Y219560D01*
X177080Y219556D01*
Y219044D01*
X177003Y219040D01*
X176926Y219029D01*
X176849Y219011D01*
X176774Y218986D01*
X176699Y218953D01*
X176624Y218913D01*
X176550Y218866D01*
X176478Y218811D01*
X176405Y218749D01*
X176333Y218680D01*
Y219920D01*
X176405Y219851D01*
D02*
G37*
G36*
X247991Y196949D02*
X247891Y196947D01*
X247797Y196940D01*
X247706Y196927D01*
X247621Y196908D01*
X247540Y196884D01*
X247463Y196854D01*
X247392Y196818D01*
X247325Y196777D01*
X247263Y196730D01*
X247205Y196678D01*
X246844Y197040D01*
X246896Y197098D01*
X246943Y197160D01*
X246984Y197227D01*
X247019Y197298D01*
X247049Y197374D01*
X247073Y197455D01*
X247092Y197541D01*
X247105Y197631D01*
X247112Y197726D01*
X247114Y197826D01*
X247991Y196949D01*
D02*
G37*
G36*
X114856Y195595D02*
X114804Y195537D01*
X114757Y195475D01*
X114716Y195408D01*
X114681Y195336D01*
X114651Y195260D01*
X114627Y195179D01*
X114608Y195094D01*
X114595Y195003D01*
X114588Y194908D01*
X114586Y194809D01*
X113709Y195686D01*
X113809Y195688D01*
X113903Y195695D01*
X113994Y195708D01*
X114079Y195727D01*
X114160Y195751D01*
X114236Y195781D01*
X114308Y195816D01*
X114375Y195857D01*
X114437Y195904D01*
X114495Y195956D01*
X114856Y195595D01*
D02*
G37*
G36*
X157567Y194344D02*
X157504Y194404D01*
X157439Y194458D01*
X157372Y194505D01*
X157302Y194546D01*
X157230Y194581D01*
X157156Y194609D01*
X157080Y194631D01*
X157001Y194647D01*
X156920Y194656D01*
X156837Y194659D01*
Y195270D01*
X156920Y195273D01*
X157001Y195282D01*
X157080Y195298D01*
X157156Y195320D01*
X157230Y195348D01*
X157302Y195383D01*
X157372Y195424D01*
X157439Y195471D01*
X157504Y195525D01*
X157567Y195585D01*
Y194344D01*
D02*
G37*
G36*
X168245Y194266D02*
X168180Y194211D01*
X168122Y194153D01*
X168071Y194092D01*
X168027Y194028D01*
X167990Y193960D01*
X167959Y193889D01*
X167936Y193814D01*
X167919Y193737D01*
X167909Y193656D01*
X167905Y193571D01*
X167295Y193645D01*
X167292Y193727D01*
X167284Y193808D01*
X167270Y193887D01*
X167250Y193965D01*
X167224Y194042D01*
X167193Y194117D01*
X167157Y194192D01*
X167114Y194264D01*
X167066Y194336D01*
X167013Y194406D01*
X168245Y194266D01*
D02*
G37*
G36*
X127480Y183248D02*
X127423Y183187D01*
X127372Y183123D01*
X127328Y183056D01*
X127289Y182987D01*
X127257Y182914D01*
X127231Y182839D01*
X127210Y182761D01*
X127196Y182679D01*
X127188Y182596D01*
X127186Y182509D01*
X126309Y183386D01*
X126396Y183388D01*
X126479Y183396D01*
X126561Y183410D01*
X126639Y183431D01*
X126714Y183457D01*
X126787Y183490D01*
X126856Y183528D01*
X126923Y183572D01*
X126987Y183623D01*
X127048Y183680D01*
X127480Y183248D01*
D02*
G37*
G36*
X167905Y173419D02*
X167908Y173337D01*
X167916Y173257D01*
X167930Y173177D01*
X167950Y173099D01*
X167976Y173022D01*
X168007Y172947D01*
X168043Y172873D01*
X168086Y172800D01*
X168134Y172729D01*
X168187Y172659D01*
X166955Y172799D01*
X167020Y172853D01*
X167078Y172911D01*
X167129Y172972D01*
X167173Y173037D01*
X167210Y173105D01*
X167241Y173176D01*
X167264Y173250D01*
X167281Y173328D01*
X167291Y173409D01*
X167295Y173493D01*
X167905Y173419D01*
D02*
G37*
G36*
X174583Y190333D02*
X174521Y190275D01*
X174465Y190213D01*
X174416Y190149D01*
X174373Y190081D01*
X174337Y190012D01*
X174308Y189939D01*
X174285Y189863D01*
X174268Y189785D01*
X174258Y189704D01*
X174255Y189620D01*
X173645Y189657D01*
X173642Y189740D01*
X173633Y189820D01*
X173618Y189900D01*
X173597Y189977D01*
X173570Y190052D01*
X173537Y190126D01*
X173498Y190198D01*
X173453Y190268D01*
X173402Y190337D01*
X173345Y190403D01*
X174583Y190333D01*
D02*
G37*
G36*
X180051Y189796D02*
X179989Y189723D01*
X179934Y189650D01*
X179887Y189576D01*
X179847Y189502D01*
X179814Y189427D01*
X179789Y189351D01*
X179771Y189275D01*
X179760Y189198D01*
X179756Y189120D01*
X179244D01*
X179241Y189198D01*
X179229Y189275D01*
X179211Y189351D01*
X179186Y189427D01*
X179153Y189502D01*
X179113Y189576D01*
X179066Y189650D01*
X179011Y189723D01*
X178949Y189796D01*
X178880Y189867D01*
X180120D01*
X180051Y189796D01*
D02*
G37*
G36*
X174255Y173443D02*
X174258Y173360D01*
X174267Y173280D01*
X174282Y173201D01*
X174303Y173123D01*
X174330Y173048D01*
X174363Y172974D01*
X174402Y172902D01*
X174447Y172832D01*
X174498Y172763D01*
X174555Y172697D01*
X173317Y172767D01*
X173379Y172825D01*
X173435Y172887D01*
X173484Y172951D01*
X173527Y173019D01*
X173563Y173089D01*
X173592Y173161D01*
X173615Y173237D01*
X173632Y173315D01*
X173642Y173396D01*
X173645Y173480D01*
X174255Y173443D01*
D02*
G37*
G36*
X179760Y170802D02*
X179771Y170725D01*
X179789Y170649D01*
X179814Y170573D01*
X179847Y170498D01*
X179887Y170423D01*
X179934Y170350D01*
X179989Y170277D01*
X180051Y170204D01*
X180120Y170133D01*
X178880D01*
X178949Y170204D01*
X179011Y170277D01*
X179066Y170350D01*
X179113Y170423D01*
X179153Y170498D01*
X179186Y170573D01*
X179211Y170649D01*
X179229Y170725D01*
X179241Y170802D01*
X179244Y170879D01*
X179756D01*
X179760Y170802D01*
D02*
G37*
G36*
X255951Y215296D02*
X255889Y215223D01*
X255834Y215150D01*
X255787Y215076D01*
X255747Y215002D01*
X255714Y214927D01*
X255689Y214851D01*
X255670Y214775D01*
X255660Y214698D01*
X255656Y214620D01*
X255144D01*
X255140Y214698D01*
X255130Y214775D01*
X255111Y214851D01*
X255086Y214927D01*
X255053Y215002D01*
X255013Y215076D01*
X254966Y215150D01*
X254911Y215223D01*
X254849Y215296D01*
X254780Y215367D01*
X256020D01*
X255951Y215296D01*
D02*
G37*
G36*
X255635Y181058D02*
X255737Y180972D01*
X255783Y180938D01*
X255828Y180910D01*
X255870Y180889D01*
X255909Y180874D01*
X255946Y180865D01*
X255980Y180862D01*
X256012Y180866D01*
X255392Y180363D01*
X255402Y180393D01*
X255406Y180425D01*
X255404Y180459D01*
X255396Y180495D01*
X255382Y180533D01*
X255361Y180572D01*
X255335Y180614D01*
X255302Y180657D01*
X255264Y180702D01*
X255219Y180749D01*
X255581Y181111D01*
X255635Y181058D01*
D02*
G37*
G36*
X222367Y156980D02*
X222321Y157023D01*
X222269Y157061D01*
X222212Y157095D01*
X222150Y157125D01*
X222083Y157150D01*
X222012Y157170D01*
X221935Y157186D01*
X221853Y157197D01*
X221767Y157204D01*
X221675Y157206D01*
Y157994D01*
X221767Y157996D01*
X221853Y158003D01*
X221935Y158014D01*
X222012Y158030D01*
X222083Y158050D01*
X222150Y158075D01*
X222212Y158105D01*
X222269Y158139D01*
X222321Y158177D01*
X222367Y158220D01*
Y156980D01*
D02*
G37*
G36*
X143015Y148659D02*
X142952Y148592D01*
X142896Y148526D01*
X142846Y148460D01*
X142803Y148395D01*
X142767Y148330D01*
X142737Y148265D01*
X142714Y148201D01*
X142698Y148136D01*
X142689Y148072D01*
X142686Y148009D01*
X141809Y148886D01*
X141872Y148889D01*
X141936Y148898D01*
X142000Y148914D01*
X142065Y148937D01*
X142130Y148967D01*
X142195Y149003D01*
X142260Y149046D01*
X142326Y149096D01*
X142392Y149152D01*
X142458Y149215D01*
X143015Y148659D01*
D02*
G37*
G36*
X46189Y173828D02*
X46198Y173764D01*
X46214Y173699D01*
X46237Y173635D01*
X46267Y173570D01*
X46303Y173505D01*
X46346Y173440D01*
X46396Y173374D01*
X46452Y173308D01*
X46515Y173241D01*
X45959Y172685D01*
X45892Y172748D01*
X45826Y172804D01*
X45760Y172854D01*
X45695Y172897D01*
X45630Y172933D01*
X45565Y172963D01*
X45500Y172986D01*
X45436Y173002D01*
X45372Y173012D01*
X45309Y173014D01*
X46186Y173891D01*
X46189Y173828D01*
D02*
G37*
G36*
X91908Y132852D02*
X91974Y132796D01*
X92040Y132746D01*
X92105Y132703D01*
X92170Y132667D01*
X92235Y132637D01*
X92299Y132614D01*
X92364Y132598D01*
X92428Y132589D01*
X92491Y132586D01*
X91614Y131709D01*
X91611Y131772D01*
X91602Y131836D01*
X91586Y131901D01*
X91563Y131965D01*
X91533Y132030D01*
X91497Y132095D01*
X91454Y132160D01*
X91404Y132226D01*
X91348Y132292D01*
X91285Y132359D01*
X91842Y132915D01*
X91908Y132852D01*
D02*
G37*
G36*
X80241Y128013D02*
X80191Y128049D01*
X80137Y128082D01*
X80077Y128111D01*
X80014Y128137D01*
X79945Y128158D01*
X79872Y128175D01*
X79794Y128189D01*
X79712Y128199D01*
X79533Y128206D01*
X79433Y128994D01*
X79525Y128996D01*
X79611Y129004D01*
X79692Y129016D01*
X79767Y129034D01*
X79836Y129056D01*
X79900Y129084D01*
X79959Y129117D01*
X80012Y129154D01*
X80059Y129197D01*
X80101Y129245D01*
X80241Y128013D01*
D02*
G37*
G36*
X71423Y129128D02*
X71478Y129100D01*
X71538Y129075D01*
X71602Y129053D01*
X71671Y129035D01*
X71745Y129020D01*
X71823Y129009D01*
X71993Y128995D01*
X72085Y128994D01*
X72259Y128206D01*
X72167Y128204D01*
X72081Y128196D01*
X72001Y128183D01*
X71927Y128164D01*
X71859Y128140D01*
X71798Y128111D01*
X71742Y128077D01*
X71692Y128038D01*
X71648Y127993D01*
X71611Y127943D01*
X71372Y129160D01*
X71423Y129128D01*
D02*
G37*
D11*
X141800Y148000D02*
X151400Y157600D01*
X223000D01*
X45300Y173900D02*
X77000Y142200D01*
X82000D01*
X70871Y128429D02*
X71041Y128600D01*
X80700D01*
X80800Y128700D01*
X82000Y142200D02*
X92500Y131700D01*
D19*
X274041Y216965D02*
Y219690D01*
Y234848D02*
Y235400D01*
Y234848D02*
X274828Y234061D01*
Y233273D02*
Y234061D01*
X274041Y232486D02*
X274828Y233273D01*
X274041Y231698D02*
Y232486D01*
Y231698D02*
X274828Y230911D01*
Y230124D02*
Y230911D01*
X274041Y229336D02*
X274828Y230124D01*
X274041Y228549D02*
Y229336D01*
Y228549D02*
X274828Y227761D01*
Y226974D02*
Y227761D01*
X274041Y226187D02*
X274828Y226974D01*
X274041Y225399D02*
Y226187D01*
Y225399D02*
X274828Y224612D01*
Y223824D02*
Y224612D01*
X274041Y223037D02*
X274828Y223824D01*
X274041Y222250D02*
Y223037D01*
Y222250D02*
X274828Y221462D01*
Y220675D02*
Y221462D01*
X274041Y219887D02*
X274828Y220675D01*
X274041Y219690D02*
Y219887D01*
Y235400D02*
Y247770D01*
X280300Y251800D02*
X281497Y252997D01*
X279769Y250619D02*
X280000Y250388D01*
X276889Y250619D02*
X279769D01*
X274041Y247770D02*
X276889Y250619D01*
X280000Y247100D02*
Y250388D01*
X272860Y248259D02*
X276400Y251800D01*
X280300D01*
X272860Y237500D02*
Y248259D01*
X267735Y252500D02*
Y252873D01*
X269900Y252500D02*
Y252873D01*
X269408Y253365D02*
X269900Y252873D01*
X269408Y253365D02*
Y261208D01*
X267735Y252873D02*
X268227Y253365D01*
Y261697D01*
X270611Y264081D01*
X281497Y252997D02*
Y253597D01*
X272860Y216965D02*
Y237500D01*
X279100Y246200D02*
X280000Y247100D01*
X278267Y216200D02*
X278531Y216464D01*
Y217612D01*
X280173Y217583D02*
X291600Y229011D01*
Y230700D02*
Y259470D01*
X280173Y216460D02*
Y217583D01*
X291600Y229011D02*
Y230700D01*
X289409Y228490D02*
X290419Y229500D01*
X280173Y216460D02*
X280433Y216200D01*
X290419Y229500D02*
Y230700D01*
X278531Y217612D02*
X279838Y218919D01*
X286989Y264081D02*
X291600Y259470D01*
X270611Y264081D02*
X286989D01*
X290419Y243554D02*
Y244342D01*
Y246704D02*
Y247491D01*
X289632Y242767D02*
X290419Y243554D01*
X289632Y245917D02*
X290419Y246704D01*
X289632Y248279D02*
X290419Y247491D01*
X289632Y245129D02*
X290419Y244342D01*
Y237255D02*
Y238042D01*
Y240405D02*
Y241192D01*
X289632Y236468D02*
X290419Y237255D01*
X289632Y239617D02*
X290419Y240405D01*
X289632Y241980D02*
X290419Y241192D01*
X289632Y238830D02*
X290419Y238042D01*
Y253003D02*
Y253200D01*
Y258981D01*
X289632Y251428D02*
X290419Y250641D01*
X289632Y252216D02*
X290419Y253003D01*
X286500Y262900D02*
X290419Y258981D01*
X289632Y251428D02*
Y252216D01*
X290419Y249853D02*
Y250641D01*
X289632Y241980D02*
Y242767D01*
Y238830D02*
Y239617D01*
Y249066D02*
X290419Y249853D01*
X289632Y248279D02*
Y249066D01*
Y245129D02*
Y245917D01*
X290419Y234105D02*
Y234893D01*
X289632Y232531D02*
Y233318D01*
Y232531D02*
X290419Y231743D01*
X289632Y235680D02*
X290419Y234893D01*
X289632Y235680D02*
Y236468D01*
Y233318D02*
X290419Y234105D01*
Y230700D02*
Y231743D01*
X289270Y228351D02*
X289409Y228490D01*
X288157Y228351D02*
X289270D01*
X287600Y227795D02*
X288157Y228351D01*
X287600Y226681D02*
Y227795D01*
X285930Y226124D02*
X287043D01*
X287600Y226681D01*
X285373Y225568D02*
X285930Y226124D01*
X285373Y224454D02*
Y225568D01*
X284816Y223897D02*
X285373Y224454D01*
X283702Y223897D02*
X284816D01*
X283146Y223340D02*
X283702Y223897D01*
X283146Y222227D02*
Y223340D01*
X281475Y221670D02*
X282589D01*
X283146Y222227D01*
X271100Y262900D02*
X286500D01*
X269408Y261208D02*
X271100Y262900D01*
X280919Y221113D02*
X281475Y221670D01*
X280919Y220000D02*
Y221113D01*
X279838Y218919D02*
X280919Y220000D01*
X274533Y216100D02*
Y216473D01*
X274041Y216965D02*
X274533Y216473D01*
X281497Y253597D02*
X284100Y256200D01*
X272367Y216473D02*
X272860Y216965D01*
X272367Y216100D02*
Y216473D01*
D62*
X126300Y182500D02*
X138765Y194965D01*
X158200D01*
X167600Y172200D02*
Y194865D01*
X167700Y194965D01*
X167500Y172100D02*
X167600Y172200D01*
X173900Y172100D02*
X173950Y172150D01*
Y190950D02*
X174000Y191000D01*
X173950Y172150D02*
Y190950D01*
D68*
X284100Y256200D02*
D03*
D69*
X279100Y246200D02*
D03*
X249100D02*
D03*
D73*
X106504Y271609D02*
D03*
X84693D02*
D03*
X79240Y282790D02*
D03*
X73787Y271609D02*
D03*
X63142Y43181D02*
D03*
X74047D02*
D03*
X84953D02*
D03*
D76*
X7700Y209800D02*
D03*
D77*
X17200Y242700D02*
D03*
X7200D02*
D03*
X81400Y66300D02*
D03*
D78*
X16300Y59474D02*
D03*
X8426Y27978D02*
D03*
X16300D02*
D03*
D80*
X253500Y9000D02*
D03*
D82*
X322000Y118000D02*
D03*
D85*
X151500Y273500D02*
D03*
X168000Y271500D02*
D03*
X167500Y259000D02*
D03*
X153500Y260000D02*
D03*
X278000Y197500D02*
D03*
X217525Y228868D02*
D03*
X222000Y203500D02*
D03*
X222500Y213000D02*
D03*
X110000Y159500D02*
D03*
X102712Y154421D02*
D03*
X87000Y164500D02*
D03*
X94000Y175500D02*
D03*
X102500Y183500D02*
D03*
X196500Y167000D02*
D03*
X191500Y162500D02*
D03*
X184000D02*
D03*
X241500Y161500D02*
D03*
X222000Y168000D02*
D03*
X187500Y123500D02*
D03*
X196000Y124000D02*
D03*
X137000Y136500D02*
D03*
X134500Y116500D02*
D03*
X117000Y72500D02*
D03*
X116000Y59500D02*
D03*
X128500Y68500D02*
D03*
X136000Y57000D02*
D03*
X125500Y58000D02*
D03*
X128000Y114000D02*
D03*
X140000Y113000D02*
D03*
X187500Y81500D02*
D03*
X187000Y90500D02*
D03*
X250000Y84500D02*
D03*
X256500Y92000D02*
D03*
X258500Y82000D02*
D03*
X251500Y58500D02*
D03*
X204500Y21000D02*
D03*
X183000Y15000D02*
D03*
X141500Y27000D02*
D03*
X106000Y26000D02*
D03*
X98000Y26500D02*
D03*
X94500Y61000D02*
D03*
X93000Y67000D02*
D03*
X116500Y271000D02*
D03*
X112500Y276500D02*
D03*
X20000Y254500D02*
D03*
X39000Y260500D02*
D03*
X28500Y260000D02*
D03*
X34000Y246000D02*
D03*
X40500D02*
D03*
X59000Y247000D02*
D03*
X69000Y246000D02*
D03*
X75000Y246500D02*
D03*
X83500Y246000D02*
D03*
X90000D02*
D03*
X95500Y247000D02*
D03*
X105000D02*
D03*
X110000Y248000D02*
D03*
X124000Y250000D02*
D03*
X98000Y263000D02*
D03*
X90500Y267000D02*
D03*
X83000Y259500D02*
D03*
X78000Y263500D02*
D03*
X270000Y225000D02*
D03*
X291500Y223000D02*
D03*
X288500Y219500D02*
D03*
X285500Y216500D02*
D03*
X279500Y225000D02*
D03*
X295000Y260000D02*
D03*
X292000Y264000D02*
D03*
X86000Y16500D02*
D03*
X95000D02*
D03*
X103500Y15000D02*
D03*
X112000Y16000D02*
D03*
X117500Y11000D02*
D03*
X107000D02*
D03*
X99500Y11500D02*
D03*
X92000Y12000D02*
D03*
X9000Y171000D02*
D03*
X31000Y165500D02*
D03*
X30000Y172500D02*
D03*
X32000Y179500D02*
D03*
X51500Y188500D02*
D03*
X47500Y195000D02*
D03*
X40000Y194000D02*
D03*
X34000Y190500D02*
D03*
X29000Y195000D02*
D03*
X30000Y207000D02*
D03*
X156000Y293000D02*
D03*
X146500Y291500D02*
D03*
X136000Y293500D02*
D03*
X126500Y293000D02*
D03*
X132000Y299000D02*
D03*
X142000Y299500D02*
D03*
X148500D02*
D03*
X157500D02*
D03*
X153000Y305000D02*
D03*
X145500D02*
D03*
X134500D02*
D03*
X179500Y299500D02*
D03*
X187500Y299000D02*
D03*
X193000Y299500D02*
D03*
X212500Y292000D02*
D03*
X213000Y300500D02*
D03*
Y305500D02*
D03*
X232500Y302500D02*
D03*
X271000Y282000D02*
D03*
X278000Y286000D02*
D03*
X277000Y277500D02*
D03*
X272500Y275000D02*
D03*
X271500Y268000D02*
D03*
X278500Y267500D02*
D03*
X287500D02*
D03*
X314500Y309500D02*
D03*
X312000Y281000D02*
D03*
X312500Y273000D02*
D03*
X318500Y267500D02*
D03*
X312500Y264500D02*
D03*
X308000D02*
D03*
X310000Y255000D02*
D03*
X316000Y255500D02*
D03*
X325500Y211000D02*
D03*
X319000Y202500D02*
D03*
X325000D02*
D03*
X326000Y195500D02*
D03*
X318500Y194000D02*
D03*
X320500Y185500D02*
D03*
X325500Y185000D02*
D03*
Y177000D02*
D03*
X319500Y176000D02*
D03*
X321000Y169000D02*
D03*
X325500Y168500D02*
D03*
X318500Y127000D02*
D03*
X325000Y126500D02*
D03*
X333000Y76000D02*
D03*
X319500Y94000D02*
D03*
X325500Y95000D02*
D03*
X333500Y98000D02*
D03*
X241000Y3500D02*
D03*
X247500D02*
D03*
X251500Y14500D02*
D03*
X258000Y12000D02*
D03*
X260500Y5500D02*
D03*
X36500Y9500D02*
D03*
X26000Y13500D02*
D03*
X24500Y5500D02*
D03*
X32500D02*
D03*
X42500Y5000D02*
D03*
X53500Y5500D02*
D03*
X47000Y11500D02*
D03*
X39000Y16000D02*
D03*
X54500Y15000D02*
D03*
X60000Y11000D02*
D03*
X67000Y4500D02*
D03*
X6000Y252000D02*
D03*
Y261000D02*
D03*
X5500Y266500D02*
D03*
X10500Y267500D02*
D03*
X16500Y267000D02*
D03*
X15000Y277000D02*
D03*
X9500Y275000D02*
D03*
X18000Y272500D02*
D03*
X21000Y277000D02*
D03*
X17000Y282500D02*
D03*
X10000Y281000D02*
D03*
Y289000D02*
D03*
X22500Y289500D02*
D03*
X29000Y293500D02*
D03*
X28500Y298500D02*
D03*
X36000Y298000D02*
D03*
X45000D02*
D03*
X52000D02*
D03*
X61500D02*
D03*
X65500D02*
D03*
X75500D02*
D03*
X81000Y297500D02*
D03*
X88000Y298000D02*
D03*
X93500Y298500D02*
D03*
X99500D02*
D03*
X106000Y299000D02*
D03*
X108500Y304500D02*
D03*
X103000Y304000D02*
D03*
X97000D02*
D03*
X92000Y304500D02*
D03*
X86500D02*
D03*
X80000Y305000D02*
D03*
X75500D02*
D03*
X71000D02*
D03*
X66000D02*
D03*
X61500D02*
D03*
X56000D02*
D03*
X50500D02*
D03*
X45500D02*
D03*
X40500Y305500D02*
D03*
X35500D02*
D03*
X30000D02*
D03*
X24500D02*
D03*
X117500Y310500D02*
D03*
X112000Y310000D02*
D03*
X105500D02*
D03*
X99000D02*
D03*
X93500D02*
D03*
X88500D02*
D03*
X83000D02*
D03*
X78000D02*
D03*
X73000D02*
D03*
X68500D02*
D03*
X63000D02*
D03*
X58000D02*
D03*
X53000D02*
D03*
X47500D02*
D03*
X42500D02*
D03*
X37500D02*
D03*
X32500D02*
D03*
X27500D02*
D03*
X223000Y157600D02*
D03*
X248000Y197835D02*
D03*
X21800Y115900D02*
D03*
X50000Y83200D02*
D03*
X114300Y169100D02*
D03*
X130700Y153300D02*
D03*
X120500Y143600D02*
D03*
X123500Y129200D02*
D03*
X142100Y167600D02*
D03*
X120200Y79000D02*
D03*
X39000Y113900D02*
D03*
X91600Y117400D02*
D03*
X186800Y43700D02*
D03*
X52400Y71200D02*
D03*
X70871Y128429D02*
D03*
X80800Y128700D02*
D03*
X92500Y131700D02*
D03*
X57583Y163983D02*
D03*
X113700Y194800D02*
D03*
X126300Y182500D02*
D03*
X136000Y142200D02*
D03*
X141800Y148000D02*
D03*
X45300Y62800D02*
D03*
X84100Y96100D02*
D03*
X81935D02*
D03*
X153300Y174600D02*
D03*
X114400Y204200D02*
D03*
X167700Y194965D02*
D03*
X158200D02*
D03*
X99800Y144600D02*
D03*
X88800Y112600D02*
D03*
X39600Y169100D02*
D03*
X45300Y173900D02*
D03*
X157900Y190600D02*
D03*
X135900Y78400D02*
D03*
X173900Y172100D02*
D03*
X174000Y191000D02*
D03*
X167500Y172100D02*
D03*
X178500Y84600D02*
D03*
X209200Y212500D02*
D03*
X198700Y191700D02*
D03*
X182200Y232300D02*
D03*
X196400Y234900D02*
D03*
X278400Y183000D02*
D03*
X297600Y172300D02*
D03*
X196000Y117500D02*
D03*
X220500Y81800D02*
D03*
X214500Y43900D02*
D03*
X329400Y93500D02*
D03*
X271300Y87300D02*
D03*
X251100Y118300D02*
D03*
X231100Y115200D02*
D03*
X237400Y165200D02*
D03*
X252900Y180400D02*
D03*
X289200Y214900D02*
D03*
X255400Y216000D02*
D03*
X223200Y245300D02*
D03*
X227700Y222700D02*
D03*
X252600Y219600D02*
D03*
X276300Y206500D02*
D03*
X268400Y206600D02*
D03*
X287100Y234000D02*
D03*
X320100Y227600D02*
D03*
X178100Y261000D02*
D03*
X200900Y264900D02*
D03*
X124700Y209200D02*
D03*
X105500Y255638D02*
D03*
Y257803D02*
D03*
X117400Y249500D02*
D03*
X154300Y139000D02*
D03*
X176400Y165300D02*
D03*
X278267Y216200D02*
D03*
X280433D02*
D03*
X256200Y180000D02*
D03*
X179500Y169500D02*
D03*
X267735Y252500D02*
D03*
X269900D02*
D03*
X179500Y190500D02*
D03*
X175701Y219300D02*
D03*
X196400Y237400D02*
D03*
X145600Y19944D02*
D03*
Y22109D02*
D03*
X135200Y254735D02*
D03*
Y256900D02*
D03*
X274533Y216100D02*
D03*
X272367D02*
D03*
D86*
X246665Y196500D02*
X248000Y197835D01*
X115400Y196500D02*
X246665D01*
X133831Y255168D02*
X134426D01*
X123438Y255299D02*
X132125D01*
X121367Y257370D02*
X123438Y255299D01*
X133293Y256467D02*
X134426D01*
X120829Y256071D02*
X122900Y254000D01*
X132663D02*
X133831Y255168D01*
X122900Y254000D02*
X132663D01*
X132125Y255299D02*
X133293Y256467D01*
X256200Y180000D02*
Y180130D01*
X255400Y180930D02*
X256200Y180130D01*
X255400Y180930D02*
Y216000D01*
X79417Y269424D02*
X87221Y261621D01*
X91299Y257542D02*
X91621Y257221D01*
X90186Y257542D02*
X91299D01*
X89629Y258099D02*
X90186Y257542D01*
X89629Y258099D02*
Y259213D01*
X89072Y259770D02*
X89629Y259213D01*
X87959Y259770D02*
X89072D01*
X87402Y260326D02*
X87959Y259770D01*
X87402Y260326D02*
Y261440D01*
X87221Y261621D02*
X87402Y261440D01*
X91621Y257221D02*
X92771Y256071D01*
X94335Y20377D02*
X95477D01*
X93761Y19803D02*
X94335Y20377D01*
X93171Y19803D02*
X93761D01*
X92285Y20688D02*
X93171Y19803D01*
X92285Y20688D02*
Y21279D01*
X92681Y21674D01*
Y22264D01*
X91795Y23149D02*
X92681Y22264D01*
X91205Y23149D02*
X91795D01*
X90810Y22754D02*
X91205Y23149D01*
X90220Y22754D02*
X90810D01*
X89334Y23639D02*
X90220Y22754D01*
X89334Y23639D02*
Y24230D01*
X89730Y24625D01*
Y25215D01*
X88844Y26100D02*
X89730Y25215D01*
X88254Y26100D02*
X88844D01*
X87859Y25705D02*
X88254Y26100D01*
X87269Y25705D02*
X87859D01*
X86384Y26590D02*
X87269Y25705D01*
X86384Y26590D02*
Y27180D01*
X86779Y27576D01*
Y28166D01*
X85303Y29641D02*
X86779Y28166D01*
X85130Y29815D02*
X85303Y29641D01*
X85130Y29815D02*
Y29830D01*
X95477Y20377D02*
X95972D01*
X85130Y29830D02*
Y31993D01*
X78850Y38273D02*
X85130Y31993D01*
X81935Y95759D02*
X82368Y95326D01*
X84100Y95759D02*
Y96100D01*
X81935Y95759D02*
Y96100D01*
X83667Y95326D02*
X84100Y95759D01*
X82368Y84295D02*
Y95326D01*
X87481Y54781D02*
Y79181D01*
X83667Y84833D02*
Y95326D01*
X82368Y84295D02*
X87481Y79181D01*
X80150Y38811D02*
Y41582D01*
X86429Y30353D02*
X95106Y21676D01*
X144826D01*
X83778Y42006D02*
X84953Y43181D01*
X81494Y42006D02*
X83778D01*
X86429Y30353D02*
Y32532D01*
X80150Y38811D02*
X86429Y32532D01*
X78850Y38273D02*
Y41582D01*
X80449Y41882D02*
X81370D01*
X81494Y42006D01*
X78551Y41882D02*
X78850Y41582D01*
X80150D02*
X80449Y41882D01*
X77630D02*
X78551D01*
X113700Y194800D02*
X115400Y196500D01*
X190000Y235600D02*
X191800Y237400D01*
X196400D01*
X190000Y227300D02*
Y235600D01*
X182000Y219300D02*
X190000Y227300D01*
X175701Y219300D02*
X182000D01*
X105500Y257803D02*
X105841D01*
Y255638D02*
X106274Y256071D01*
X105500Y255638D02*
X105841D01*
Y257803D02*
X106274Y257370D01*
X179500Y169500D02*
Y190500D01*
X145259Y19944D02*
X145600D01*
X144826Y20377D02*
X145259Y19944D01*
Y22109D02*
X145600D01*
X144826Y21676D02*
X145259Y22109D01*
X134426Y255168D02*
X134859Y254735D01*
X135200D01*
X92771Y256071D02*
X104726D01*
X106274D02*
X120829D01*
X77868Y275690D02*
X78292D01*
X79417Y274564D01*
X73787Y271609D02*
X77868Y275690D01*
X79417Y269424D02*
Y274564D01*
X134426Y256467D02*
X134859Y256900D01*
X135200D01*
X80717Y269962D02*
X93309Y257370D01*
X104726D01*
X79210Y282761D02*
X79240Y282790D01*
X79210Y276608D02*
Y282761D01*
X80717Y269962D02*
Y275102D01*
X79210Y276608D02*
X80717Y275102D01*
X106274Y257370D02*
X121367D01*
X142968Y20377D02*
X144603D01*
X142550Y19960D02*
X142968Y20377D01*
X142550Y18432D02*
Y19960D01*
X142133Y18015D02*
X142550Y18432D01*
X140881Y18015D02*
X142133D01*
X140464Y18432D02*
X140881Y18015D01*
X140464Y18432D02*
Y19960D01*
X140046Y20377D02*
X140464Y19960D01*
X138794Y20377D02*
X140046D01*
X138377Y19960D02*
X138794Y20377D01*
X138377Y18432D02*
Y19960D01*
X137960Y18015D02*
X138377Y18432D01*
X136708Y18015D02*
X137960D01*
X136290Y18432D02*
X136708Y18015D01*
X136290Y18432D02*
Y19960D01*
X135873Y20377D02*
X136290Y19960D01*
X134621Y20377D02*
X135873D01*
X134204Y19960D02*
X134621Y20377D01*
X134204Y18432D02*
Y19960D01*
X133786Y18015D02*
X134204Y18432D01*
X132535Y18015D02*
X133786D01*
X132117Y18432D02*
X132535Y18015D01*
X132117Y18432D02*
Y19960D01*
X131700Y20377D02*
X132117Y19960D01*
X130448Y20377D02*
X131700D01*
X130031Y19960D02*
X130448Y20377D01*
X130031Y18432D02*
Y19960D01*
X129613Y18015D02*
X130031Y18432D01*
X128361Y18015D02*
X129613D01*
X127944Y18432D02*
X128361Y18015D01*
X127944Y18432D02*
Y19960D01*
X127527Y20377D02*
X127944Y19960D01*
X126275Y20377D02*
X127527D01*
X125857Y19960D02*
X126275Y20377D01*
X125857Y18432D02*
Y19960D01*
X125440Y18015D02*
X125857Y18432D01*
X124188Y18015D02*
X125440D01*
X123771Y18432D02*
X124188Y18015D01*
X123771Y18432D02*
Y19960D01*
X123353Y20377D02*
X123771Y19960D01*
X122101Y20377D02*
X123353D01*
X121684Y19960D02*
X122101Y20377D01*
X121684Y18432D02*
Y19960D01*
X121267Y18015D02*
X121684Y18432D01*
X120015Y18015D02*
X121267D01*
X119597Y18432D02*
X120015Y18015D01*
X119597Y18432D02*
Y19960D01*
X119180Y20377D02*
X119597Y19960D01*
X117928Y20377D02*
X119180D01*
X117511Y19960D02*
X117928Y20377D01*
X117511Y18432D02*
Y19960D01*
X117094Y18015D02*
X117511Y18432D01*
X115842Y18015D02*
X117094D01*
X115424Y18432D02*
X115842Y18015D01*
X115424Y18432D02*
Y19960D01*
X115007Y20377D02*
X115424Y19960D01*
X113755Y20377D02*
X115007D01*
X113338Y19960D02*
X113755Y20377D01*
X113338Y18432D02*
Y19960D01*
X112920Y18015D02*
X113338Y18432D01*
X111668Y18015D02*
X112920D01*
X111251Y18432D02*
X111668Y18015D01*
X111251Y18432D02*
Y19960D01*
X110834Y20377D02*
X111251Y19960D01*
X109582Y20377D02*
X110834D01*
X109165Y19960D02*
X109582Y20377D01*
X109165Y18432D02*
Y19960D01*
X108747Y18015D02*
X109165Y18432D01*
X107495Y18015D02*
X108747D01*
X107078Y18432D02*
X107495Y18015D01*
X107078Y18432D02*
Y19960D01*
X106660Y20377D02*
X107078Y19960D01*
X105409Y20377D02*
X106660D01*
X104991Y19960D02*
X105409Y20377D01*
X104991Y18432D02*
Y19960D01*
X104574Y18015D02*
X104991Y18432D01*
X103322Y18015D02*
X104574D01*
X102905Y18432D02*
X103322Y18015D01*
X102905Y18432D02*
Y19960D01*
X102487Y20377D02*
X102905Y19960D01*
X101235Y20377D02*
X102487D01*
X100818Y19960D02*
X101235Y20377D01*
X100818Y18432D02*
Y19960D01*
X100401Y18015D02*
X100818Y18432D01*
X99149Y18015D02*
X100401D01*
X98731Y18432D02*
X99149Y18015D01*
X98731Y18432D02*
Y19960D01*
X98314Y20377D02*
X98731Y19960D01*
X95972Y20377D02*
X98314D01*
X144603D02*
X144826D01*
X89468Y56814D02*
X89727Y57074D01*
X89617Y59672D02*
Y60452D01*
X89357Y60712D02*
X89617Y60452D01*
X89357Y59413D02*
X89617Y59672D01*
X89080Y60712D02*
X89357D01*
X89040Y59413D02*
X89357D01*
X89468Y58113D02*
X89727Y57854D01*
Y57074D02*
Y57854D01*
X89040Y58113D02*
X89468D01*
X89080Y56814D02*
X89468D01*
X88780Y65259D02*
Y79720D01*
X83667Y84833D02*
X88780Y79720D01*
Y59153D02*
X89040Y59413D01*
X88780Y58373D02*
Y59153D01*
Y61012D02*
Y65259D01*
Y61012D02*
X89080Y60712D01*
X88780Y56514D02*
X89080Y56814D01*
X88780Y54959D02*
Y56514D01*
Y54243D02*
Y54959D01*
Y58373D02*
X89040Y58113D01*
X80150Y45612D02*
X88780Y54243D01*
X80449Y43181D02*
X84953D01*
X80150Y43481D02*
Y45612D01*
Y43481D02*
X80449Y43181D01*
X78850Y46150D02*
X87481Y54781D01*
X78850Y43481D02*
Y46150D01*
X78551Y43181D02*
X78850Y43481D01*
X74047Y43181D02*
X78551D01*
X74047D02*
X75222Y42006D01*
X77506D02*
X77630Y41882D01*
X75222Y42006D02*
X77506D01*
M02*
