G04*
G04 #@! TF.GenerationSoftware,Altium Limited,Altium Designer,21.3.2 (30)*
G04*
G04 Layer_Color=65535*
%FSLAX25Y25*%
%MOIN*%
G70*
G04*
G04 #@! TF.SameCoordinates,6B7675C1-BEDD-4D56-80B4-810BFE634478*
G04*
G04*
G04 #@! TF.FilePolarity,Positive*
G04*
G01*
G75*
%ADD10C,0.01000*%
%ADD11C,0.00787*%
%ADD12C,0.00984*%
%ADD13C,0.02362*%
%ADD14C,0.00600*%
%ADD15C,0.01575*%
%ADD16C,0.00945*%
%ADD17C,0.00800*%
%ADD18C,0.00591*%
%ADD19C,0.00394*%
%ADD20C,0.00500*%
D10*
X53175Y135908D02*
G03*
X53175Y135908I-407J0D01*
G01*
X178874Y9000D02*
G03*
X178874Y9000I-7874J0D01*
G01*
X198641Y131251D02*
G03*
X198641Y131251I-448J0D01*
G01*
X228558Y105587D02*
G03*
X228558Y105587I-361J0D01*
G01*
X286558Y93587D02*
G03*
X286558Y93587I-361J0D01*
G01*
X256374Y9000D02*
G03*
X256374Y9000I-7874J0D01*
G01*
X223874D02*
G03*
X223874Y9000I-7874J0D01*
G01*
X201374D02*
G03*
X201374Y9000I-7874J0D01*
G01*
X48351Y95798D02*
Y149341D01*
X15839Y95798D02*
X37489D01*
X16202Y149341D02*
X37580D01*
X-4011D02*
X4288D01*
X-4011Y95798D02*
X4560D01*
X-4011D02*
Y149341D01*
X229100Y323700D02*
X304100D01*
Y238700D02*
Y323700D01*
X229100Y238700D02*
X304100D01*
X229100D02*
Y323700D01*
X22220Y227043D02*
X26550Y222712D01*
X22220Y227043D02*
Y228224D01*
X22220Y222712D02*
X106078D01*
Y247121D01*
X22220D02*
X106078D01*
X22220Y222712D02*
Y247121D01*
X129595Y109443D02*
X178807D01*
X129595Y89758D02*
Y109443D01*
Y89758D02*
X178807D01*
Y109443D01*
X207095Y154204D02*
X218905D01*
X207095Y133731D02*
X218905D01*
X227173D02*
Y154204D01*
X198827Y133731D02*
Y154204D01*
X273276Y104012D02*
Y118776D01*
Y78224D02*
Y92988D01*
X232724Y78224D02*
Y92988D01*
Y104012D02*
Y118776D01*
Y78224D02*
X273276D01*
X232724Y118776D02*
X273276D01*
X331276Y92012D02*
Y106776D01*
Y66224D02*
Y80988D01*
X290724Y66224D02*
Y80988D01*
Y92012D02*
Y106776D01*
Y66224D02*
X331276D01*
X290724Y106776D02*
X331276D01*
X333811Y114457D02*
X344047D01*
X333811D02*
Y121937D01*
X344047D01*
X333811Y134142D02*
X343653D01*
X333811D02*
Y141622D01*
X344047D01*
Y108158D02*
Y147528D01*
X301921Y108158D02*
X344047D01*
X301921D02*
Y147528D01*
X344047D01*
X175620Y243443D02*
Y243836D01*
X18720Y155468D02*
X21344Y151532D01*
Y155468D02*
X18720Y151532D01*
X24624D02*
Y155468D01*
X22656Y153500D01*
X25280D01*
X307080Y288968D02*
X309704Y285032D01*
Y288968D02*
X307080Y285032D01*
X311016D02*
X312328D01*
X311672D01*
Y288968D01*
X311016Y288312D01*
X316920Y285032D02*
X314296D01*
X316920Y287656D01*
Y288312D01*
X316264Y288968D01*
X314952D01*
X314296Y288312D01*
X15720Y297468D02*
X18344Y293532D01*
Y297468D02*
X15720Y293532D01*
X22280Y297468D02*
X19656D01*
Y295500D01*
X20968Y296156D01*
X21624D01*
X22280Y295500D01*
Y294188D01*
X21624Y293532D01*
X20312D01*
X19656Y294188D01*
X25000Y216400D02*
X25656D01*
X25328D01*
Y218368D01*
X25000Y218040D01*
X220312Y202532D02*
Y206468D01*
X222280D01*
X222936Y205812D01*
Y204500D01*
X222280Y203844D01*
X220312D01*
X221624D02*
X222936Y202532D01*
X226872Y206468D02*
X224248D01*
Y204500D01*
X225560Y205156D01*
X226216D01*
X226872Y204500D01*
Y203188D01*
X226216Y202532D01*
X224904D01*
X224248Y203188D01*
X230807Y202532D02*
X228184D01*
X230807Y205156D01*
Y205812D01*
X230152Y206468D01*
X228840D01*
X228184Y205812D01*
X146720Y262868D02*
X149344Y258932D01*
Y262868D02*
X146720Y258932D01*
X150656Y262212D02*
X151312Y262868D01*
X152624D01*
X153280Y262212D01*
Y261556D01*
X152624Y260900D01*
X151968D01*
X152624D01*
X153280Y260244D01*
Y259588D01*
X152624Y258932D01*
X151312D01*
X150656Y259588D01*
X23636Y93668D02*
X26260Y89732D01*
Y93668D02*
X23636Y89732D01*
X27572D02*
X28884D01*
X28228D01*
Y93668D01*
X27572Y93012D01*
X30852Y89732D02*
X32164D01*
X31508D01*
Y93668D01*
X30852Y93012D01*
X14780Y178968D02*
X17404Y175032D01*
Y178968D02*
X14780Y175032D01*
X18716D02*
X20028D01*
X19372D01*
Y178968D01*
X18716Y178312D01*
X21996D02*
X22652Y178968D01*
X23964D01*
X24620Y178312D01*
Y175688D01*
X23964Y175032D01*
X22652D01*
X21996Y175688D01*
Y178312D01*
X93720Y59168D02*
X96344Y55232D01*
Y59168D02*
X93720Y55232D01*
X97656Y55888D02*
X98312Y55232D01*
X99624D01*
X100280Y55888D01*
Y58512D01*
X99624Y59168D01*
X98312D01*
X97656Y58512D01*
Y57856D01*
X98312Y57200D01*
X100280D01*
X2720Y261468D02*
X5344Y257532D01*
Y261468D02*
X2720Y257532D01*
X6656Y260812D02*
X7312Y261468D01*
X8624D01*
X9280Y260812D01*
Y260156D01*
X8624Y259500D01*
X9280Y258844D01*
Y258188D01*
X8624Y257532D01*
X7312D01*
X6656Y258188D01*
Y258844D01*
X7312Y259500D01*
X6656Y260156D01*
Y260812D01*
X7312Y259500D02*
X8624D01*
X120520Y55968D02*
X123144Y52032D01*
Y55968D02*
X120520Y52032D01*
X124456Y55968D02*
X127080D01*
Y55312D01*
X124456Y52688D01*
Y52032D01*
X156520Y13368D02*
X159144Y9432D01*
Y13368D02*
X156520Y9432D01*
X163080Y13368D02*
X161768Y12712D01*
X160456Y11400D01*
Y10088D01*
X161112Y9432D01*
X162424D01*
X163080Y10088D01*
Y10744D01*
X162424Y11400D01*
X160456D01*
X303220Y153068D02*
X305844Y149132D01*
Y153068D02*
X303220Y149132D01*
X309780D02*
X307156D01*
X309780Y151756D01*
Y152412D01*
X309124Y153068D01*
X307812D01*
X307156Y152412D01*
X162376Y314068D02*
X165000Y310132D01*
Y314068D02*
X162376Y310132D01*
X166312D02*
X167624D01*
X166968D01*
Y314068D01*
X166312Y313412D01*
X312508Y249268D02*
Y246644D01*
X313820Y245332D01*
X315132Y246644D01*
Y249268D01*
X316444D02*
X319068D01*
X317756D01*
Y245332D01*
X320380D02*
X321692D01*
X321036D01*
Y249268D01*
X320380Y248612D01*
X267952Y23568D02*
Y20944D01*
X269264Y19632D01*
X270576Y20944D01*
Y23568D01*
X271888D02*
Y19632D01*
X273856D01*
X274512Y20288D01*
Y22912D01*
X273856Y23568D01*
X271888D01*
X278448D02*
X277136Y22912D01*
X275824Y21600D01*
Y20288D01*
X276480Y19632D01*
X277792D01*
X278448Y20288D01*
Y20944D01*
X277792Y21600D01*
X275824D01*
X110152Y250896D02*
Y248272D01*
X111464Y246960D01*
X112776Y248272D01*
Y250896D01*
X114088D02*
Y246960D01*
X116056D01*
X116712Y247616D01*
Y250240D01*
X116056Y250896D01*
X114088D01*
X120648D02*
X118024D01*
Y248928D01*
X119336Y249584D01*
X119992D01*
X120648Y248928D01*
Y247616D01*
X119992Y246960D01*
X118680D01*
X118024Y247616D01*
X216500Y287136D02*
Y284512D01*
X217812Y283200D01*
X219124Y284512D01*
Y287136D01*
X220436D02*
Y283200D01*
X222404D01*
X223060Y283856D01*
Y286480D01*
X222404Y287136D01*
X220436D01*
X226339Y283200D02*
Y287136D01*
X224372Y285168D01*
X226995D01*
X288752Y148968D02*
Y146344D01*
X290064Y145032D01*
X291376Y146344D01*
Y148968D01*
X292688D02*
Y145032D01*
X294656D01*
X295312Y145688D01*
Y148312D01*
X294656Y148968D01*
X292688D01*
X296624Y148312D02*
X297280Y148968D01*
X298592D01*
X299248Y148312D01*
Y147656D01*
X298592Y147000D01*
X297936D01*
X298592D01*
X299248Y146344D01*
Y145688D01*
X298592Y145032D01*
X297280D01*
X296624Y145688D01*
X168952Y273168D02*
Y270544D01*
X170264Y269232D01*
X171576Y270544D01*
Y273168D01*
X172888D02*
Y269232D01*
X174856D01*
X175512Y269888D01*
Y272512D01*
X174856Y273168D01*
X172888D01*
X179448Y269232D02*
X176824D01*
X179448Y271856D01*
Y272512D01*
X178792Y273168D01*
X177480D01*
X176824Y272512D01*
X96944Y220212D02*
X96288Y220868D01*
X94976D01*
X94320Y220212D01*
Y219556D01*
X94976Y218900D01*
X96288D01*
X96944Y218244D01*
Y217588D01*
X96288Y216932D01*
X94976D01*
X94320Y217588D01*
X100880Y216932D02*
X98256D01*
X100880Y219556D01*
Y220212D01*
X100224Y220868D01*
X98912D01*
X98256Y220212D01*
X170100Y113612D02*
X169444Y114268D01*
X168132D01*
X167476Y113612D01*
Y112956D01*
X168132Y112300D01*
X169444D01*
X170100Y111644D01*
Y110988D01*
X169444Y110332D01*
X168132D01*
X167476Y110988D01*
X171412Y110332D02*
X172724D01*
X172068D01*
Y114268D01*
X171412Y113612D01*
X23852Y82232D02*
Y86168D01*
X25820D01*
X26476Y85512D01*
Y84200D01*
X25820Y83544D01*
X23852D01*
X25164D02*
X26476Y82232D01*
X30412Y86168D02*
X29100Y85512D01*
X27788Y84200D01*
Y82888D01*
X28444Y82232D01*
X29756D01*
X30412Y82888D01*
Y83544D01*
X29756Y84200D01*
X27788D01*
X31724Y86168D02*
X34348D01*
Y85512D01*
X31724Y82888D01*
Y82232D01*
X24852Y61932D02*
Y65868D01*
X26820D01*
X27476Y65212D01*
Y63900D01*
X26820Y63244D01*
X24852D01*
X26164D02*
X27476Y61932D01*
X31412Y65868D02*
X30100Y65212D01*
X28788Y63900D01*
Y62588D01*
X29444Y61932D01*
X30756D01*
X31412Y62588D01*
Y63244D01*
X30756Y63900D01*
X28788D01*
X32724Y65212D02*
X33380Y65868D01*
X34692D01*
X35348Y65212D01*
Y62588D01*
X34692Y61932D01*
X33380D01*
X32724Y62588D01*
Y65212D01*
X220452Y193732D02*
Y197668D01*
X222420D01*
X223076Y197012D01*
Y195700D01*
X222420Y195044D01*
X220452D01*
X221764D02*
X223076Y193732D01*
X227012Y197668D02*
X224388D01*
Y195700D01*
X225700Y196356D01*
X226356D01*
X227012Y195700D01*
Y194388D01*
X226356Y193732D01*
X225044D01*
X224388Y194388D01*
X228324Y197012D02*
X228980Y197668D01*
X230292D01*
X230948Y197012D01*
Y194388D01*
X230292Y193732D01*
X228980D01*
X228324Y194388D01*
Y197012D01*
X268552Y152732D02*
Y156668D01*
X270520D01*
X271176Y156012D01*
Y154700D01*
X270520Y154044D01*
X268552D01*
X269864D02*
X271176Y152732D01*
X274456D02*
Y156668D01*
X272488Y154700D01*
X275112D01*
X276424Y153388D02*
X277080Y152732D01*
X278392D01*
X279048Y153388D01*
Y156012D01*
X278392Y156668D01*
X277080D01*
X276424Y156012D01*
Y155356D01*
X277080Y154700D01*
X279048D01*
X219952Y210932D02*
Y214868D01*
X221920D01*
X222576Y214212D01*
Y212900D01*
X221920Y212244D01*
X219952D01*
X221264D02*
X222576Y210932D01*
X225856D02*
Y214868D01*
X223888Y212900D01*
X226512D01*
X227824Y214212D02*
X228480Y214868D01*
X229792D01*
X230448Y214212D01*
Y213556D01*
X229792Y212900D01*
X230448Y212244D01*
Y211588D01*
X229792Y210932D01*
X228480D01*
X227824Y211588D01*
Y212244D01*
X228480Y212900D01*
X227824Y213556D01*
Y214212D01*
X228480Y212900D02*
X229792D01*
X282752Y175732D02*
Y179668D01*
X284720D01*
X285376Y179012D01*
Y177700D01*
X284720Y177044D01*
X282752D01*
X284064D02*
X285376Y175732D01*
X288656D02*
Y179668D01*
X286688Y177700D01*
X289312D01*
X290624Y179668D02*
X293248D01*
Y179012D01*
X290624Y176388D01*
Y175732D01*
X235552Y160132D02*
Y164068D01*
X237520D01*
X238176Y163412D01*
Y162100D01*
X237520Y161444D01*
X235552D01*
X236864D02*
X238176Y160132D01*
X241456D02*
Y164068D01*
X239488Y162100D01*
X242112D01*
X246048Y164068D02*
X244736Y163412D01*
X243424Y162100D01*
Y160788D01*
X244080Y160132D01*
X245392D01*
X246048Y160788D01*
Y161444D01*
X245392Y162100D01*
X243424D01*
X220152Y185432D02*
Y189368D01*
X222120D01*
X222776Y188712D01*
Y187400D01*
X222120Y186744D01*
X220152D01*
X221464D02*
X222776Y185432D01*
X226056D02*
Y189368D01*
X224088Y187400D01*
X226712D01*
X230648Y189368D02*
X228024D01*
Y187400D01*
X229336Y188056D01*
X229992D01*
X230648Y187400D01*
Y186088D01*
X229992Y185432D01*
X228680D01*
X228024Y186088D01*
X268031Y231230D02*
Y235166D01*
X269999D01*
X270655Y234509D01*
Y233198D01*
X269999Y232542D01*
X268031D01*
X269343D02*
X270655Y231230D01*
X273935D02*
Y235166D01*
X271967Y233198D01*
X274591D01*
X275903Y234509D02*
X276558Y235166D01*
X277870D01*
X278526Y234509D01*
Y233854D01*
X277870Y233198D01*
X277215D01*
X277870D01*
X278526Y232542D01*
Y231886D01*
X277870Y231230D01*
X276558D01*
X275903Y231886D01*
X268052Y222432D02*
Y226368D01*
X270020D01*
X270676Y225712D01*
Y224400D01*
X270020Y223744D01*
X268052D01*
X269364D02*
X270676Y222432D01*
X273956D02*
Y226368D01*
X271988Y224400D01*
X274612D01*
X278548Y222432D02*
X275924D01*
X278548Y225056D01*
Y225712D01*
X277892Y226368D01*
X276580D01*
X275924Y225712D01*
X52008Y79832D02*
Y83768D01*
X53976D01*
X54632Y83112D01*
Y81800D01*
X53976Y81144D01*
X52008D01*
X53320D02*
X54632Y79832D01*
X57912D02*
Y83768D01*
X55944Y81800D01*
X58568D01*
X59880Y79832D02*
X61192D01*
X60536D01*
Y83768D01*
X59880Y83112D01*
X296652Y226732D02*
Y230668D01*
X298620D01*
X299276Y230012D01*
Y228700D01*
X298620Y228044D01*
X296652D01*
X297964D02*
X299276Y226732D01*
X300588Y230012D02*
X301244Y230668D01*
X302556D01*
X303212Y230012D01*
Y229356D01*
X302556Y228700D01*
X301900D01*
X302556D01*
X303212Y228044D01*
Y227388D01*
X302556Y226732D01*
X301244D01*
X300588Y227388D01*
X304524D02*
X305180Y226732D01*
X306492D01*
X307148Y227388D01*
Y230012D01*
X306492Y230668D01*
X305180D01*
X304524Y230012D01*
Y229356D01*
X305180Y228700D01*
X307148D01*
X38452Y81832D02*
Y85768D01*
X40420D01*
X41076Y85112D01*
Y83800D01*
X40420Y83144D01*
X38452D01*
X39764D02*
X41076Y81832D01*
X42388Y85112D02*
X43044Y85768D01*
X44356D01*
X45012Y85112D01*
Y84456D01*
X44356Y83800D01*
X43700D01*
X44356D01*
X45012Y83144D01*
Y82488D01*
X44356Y81832D01*
X43044D01*
X42388Y82488D01*
X46324Y85112D02*
X46980Y85768D01*
X48292D01*
X48948Y85112D01*
Y84456D01*
X48292Y83800D01*
X48948Y83144D01*
Y82488D01*
X48292Y81832D01*
X46980D01*
X46324Y82488D01*
Y83144D01*
X46980Y83800D01*
X46324Y84456D01*
Y85112D01*
X46980Y83800D02*
X48292D01*
X74752Y80932D02*
Y84868D01*
X76720D01*
X77376Y84212D01*
Y82900D01*
X76720Y82244D01*
X74752D01*
X76064D02*
X77376Y80932D01*
X78688Y84212D02*
X79344Y84868D01*
X80656D01*
X81312Y84212D01*
Y83556D01*
X80656Y82900D01*
X80000D01*
X80656D01*
X81312Y82244D01*
Y81588D01*
X80656Y80932D01*
X79344D01*
X78688Y81588D01*
X82624Y84868D02*
X85248D01*
Y84212D01*
X82624Y81588D01*
Y80932D01*
X306252Y193832D02*
Y197768D01*
X308220D01*
X308876Y197112D01*
Y195800D01*
X308220Y195144D01*
X306252D01*
X307564D02*
X308876Y193832D01*
X310188Y197112D02*
X310844Y197768D01*
X312156D01*
X312812Y197112D01*
Y196456D01*
X312156Y195800D01*
X311500D01*
X312156D01*
X312812Y195144D01*
Y194488D01*
X312156Y193832D01*
X310844D01*
X310188Y194488D01*
X316748Y197768D02*
X314124D01*
Y195800D01*
X315436Y196456D01*
X316092D01*
X316748Y195800D01*
Y194488D01*
X316092Y193832D01*
X314780D01*
X314124Y194488D01*
X199952Y23232D02*
Y27168D01*
X201920D01*
X202576Y26512D01*
Y25200D01*
X201920Y24544D01*
X199952D01*
X201264D02*
X202576Y23232D01*
X203888Y26512D02*
X204544Y27168D01*
X205856D01*
X206512Y26512D01*
Y25856D01*
X205856Y25200D01*
X205200D01*
X205856D01*
X206512Y24544D01*
Y23888D01*
X205856Y23232D01*
X204544D01*
X203888Y23888D01*
X209792Y23232D02*
Y27168D01*
X207824Y25200D01*
X210448D01*
X176952Y23532D02*
Y27468D01*
X178920D01*
X179576Y26812D01*
Y25500D01*
X178920Y24844D01*
X176952D01*
X178264D02*
X179576Y23532D01*
X180888Y26812D02*
X181544Y27468D01*
X182856D01*
X183512Y26812D01*
Y26156D01*
X182856Y25500D01*
X182200D01*
X182856D01*
X183512Y24844D01*
Y24188D01*
X182856Y23532D01*
X181544D01*
X180888Y24188D01*
X184824Y26812D02*
X185480Y27468D01*
X186792D01*
X187448Y26812D01*
Y26156D01*
X186792Y25500D01*
X186136D01*
X186792D01*
X187448Y24844D01*
Y24188D01*
X186792Y23532D01*
X185480D01*
X184824Y24188D01*
X220052Y21032D02*
Y24968D01*
X222020D01*
X222676Y24312D01*
Y23000D01*
X222020Y22344D01*
X220052D01*
X221364D02*
X222676Y21032D01*
X223988Y24312D02*
X224644Y24968D01*
X225956D01*
X226612Y24312D01*
Y23656D01*
X225956Y23000D01*
X225300D01*
X225956D01*
X226612Y22344D01*
Y21688D01*
X225956Y21032D01*
X224644D01*
X223988Y21688D01*
X230548Y21032D02*
X227924D01*
X230548Y23656D01*
Y24312D01*
X229892Y24968D01*
X228580D01*
X227924Y24312D01*
X203908Y95532D02*
Y99468D01*
X205876D01*
X206532Y98812D01*
Y97500D01*
X205876Y96844D01*
X203908D01*
X205220D02*
X206532Y95532D01*
X207844Y98812D02*
X208500Y99468D01*
X209812D01*
X210468Y98812D01*
Y98156D01*
X209812Y97500D01*
X209156D01*
X209812D01*
X210468Y96844D01*
Y96188D01*
X209812Y95532D01*
X208500D01*
X207844Y96188D01*
X211780Y95532D02*
X213092D01*
X212436D01*
Y99468D01*
X211780Y98812D01*
X135052Y112532D02*
Y116468D01*
X137020D01*
X137676Y115812D01*
Y114500D01*
X137020Y113844D01*
X135052D01*
X136364D02*
X137676Y112532D01*
X138988Y115812D02*
X139644Y116468D01*
X140956D01*
X141612Y115812D01*
Y115156D01*
X140956Y114500D01*
X140300D01*
X140956D01*
X141612Y113844D01*
Y113188D01*
X140956Y112532D01*
X139644D01*
X138988Y113188D01*
X142924Y115812D02*
X143580Y116468D01*
X144892D01*
X145548Y115812D01*
Y113188D01*
X144892Y112532D01*
X143580D01*
X142924Y113188D01*
Y115812D01*
X141152Y188932D02*
Y192868D01*
X143120D01*
X143776Y192212D01*
Y190900D01*
X143120Y190244D01*
X141152D01*
X142464D02*
X143776Y188932D01*
X147712D02*
X145088D01*
X147712Y191556D01*
Y192212D01*
X147056Y192868D01*
X145744D01*
X145088Y192212D01*
X149024D02*
X149680Y192868D01*
X150992D01*
X151648Y192212D01*
Y191556D01*
X150992Y190900D01*
X151648Y190244D01*
Y189588D01*
X150992Y188932D01*
X149680D01*
X149024Y189588D01*
Y190244D01*
X149680Y190900D01*
X149024Y191556D01*
Y192212D01*
X149680Y190900D02*
X150992D01*
X173952Y126032D02*
Y129968D01*
X175920D01*
X176576Y129312D01*
Y128000D01*
X175920Y127344D01*
X173952D01*
X175264D02*
X176576Y126032D01*
X180512D02*
X177888D01*
X180512Y128656D01*
Y129312D01*
X179856Y129968D01*
X178544D01*
X177888Y129312D01*
X181824Y129968D02*
X184448D01*
Y129312D01*
X181824Y126688D01*
Y126032D01*
X209152Y77932D02*
Y81868D01*
X211120D01*
X211776Y81212D01*
Y79900D01*
X211120Y79244D01*
X209152D01*
X210464D02*
X211776Y77932D01*
X215712D02*
X213088D01*
X215712Y80556D01*
Y81212D01*
X215056Y81868D01*
X213744D01*
X213088Y81212D01*
X219648Y81868D02*
X218336Y81212D01*
X217024Y79900D01*
Y78588D01*
X217680Y77932D01*
X218992D01*
X219648Y78588D01*
Y79244D01*
X218992Y79900D01*
X217024D01*
X209752Y39932D02*
Y43868D01*
X211720D01*
X212376Y43212D01*
Y41900D01*
X211720Y41244D01*
X209752D01*
X211064D02*
X212376Y39932D01*
X216312D02*
X213688D01*
X216312Y42556D01*
Y43212D01*
X215656Y43868D01*
X214344D01*
X213688Y43212D01*
X220248Y43868D02*
X217624D01*
Y41900D01*
X218936Y42556D01*
X219592D01*
X220248Y41900D01*
Y40588D01*
X219592Y39932D01*
X218280D01*
X217624Y40588D01*
X150552Y216132D02*
Y220068D01*
X152520D01*
X153176Y219412D01*
Y218100D01*
X152520Y217444D01*
X150552D01*
X151864D02*
X153176Y216132D01*
X157112D02*
X154488D01*
X157112Y218756D01*
Y219412D01*
X156456Y220068D01*
X155144D01*
X154488Y219412D01*
X160392Y216132D02*
Y220068D01*
X158424Y218100D01*
X161048D01*
X203652Y216932D02*
Y220868D01*
X205620D01*
X206276Y220212D01*
Y218900D01*
X205620Y218244D01*
X203652D01*
X204964D02*
X206276Y216932D01*
X210212D02*
X207588D01*
X210212Y219556D01*
Y220212D01*
X209556Y220868D01*
X208244D01*
X207588Y220212D01*
X211524D02*
X212180Y220868D01*
X213492D01*
X214148Y220212D01*
Y219556D01*
X213492Y218900D01*
X212836D01*
X213492D01*
X214148Y218244D01*
Y217588D01*
X213492Y216932D01*
X212180D01*
X211524Y217588D01*
X147152Y1732D02*
Y5668D01*
X149120D01*
X149776Y5012D01*
Y3700D01*
X149120Y3044D01*
X147152D01*
X148464D02*
X149776Y1732D01*
X153712D02*
X151088D01*
X153712Y4356D01*
Y5012D01*
X153056Y5668D01*
X151744D01*
X151088Y5012D01*
X157648Y1732D02*
X155024D01*
X157648Y4356D01*
Y5012D01*
X156992Y5668D01*
X155680D01*
X155024Y5012D01*
X146008Y35632D02*
Y39568D01*
X147976D01*
X148632Y38912D01*
Y37600D01*
X147976Y36944D01*
X146008D01*
X147320D02*
X148632Y35632D01*
X152568D02*
X149944D01*
X152568Y38256D01*
Y38912D01*
X151912Y39568D01*
X150600D01*
X149944Y38912D01*
X153880Y35632D02*
X155192D01*
X154536D01*
Y39568D01*
X153880Y38912D01*
X134652Y53732D02*
Y57668D01*
X136620D01*
X137276Y57012D01*
Y55700D01*
X136620Y55044D01*
X134652D01*
X135964D02*
X137276Y53732D01*
X141212D02*
X138588D01*
X141212Y56356D01*
Y57012D01*
X140556Y57668D01*
X139244D01*
X138588Y57012D01*
X142524D02*
X143180Y57668D01*
X144492D01*
X145148Y57012D01*
Y54388D01*
X144492Y53732D01*
X143180D01*
X142524Y54388D01*
Y57012D01*
X162180Y237932D02*
Y241868D01*
X164148D01*
X164804Y241212D01*
Y239900D01*
X164148Y239244D01*
X162180D01*
X163492D02*
X164804Y237932D01*
X166116D02*
X167428D01*
X166772D01*
Y241868D01*
X166116Y241212D01*
X169396Y238588D02*
X170052Y237932D01*
X171364D01*
X172020Y238588D01*
Y241212D01*
X171364Y241868D01*
X170052D01*
X169396Y241212D01*
Y240556D01*
X170052Y239900D01*
X172020D01*
X148880Y244932D02*
Y248868D01*
X150848D01*
X151504Y248212D01*
Y246900D01*
X150848Y246244D01*
X148880D01*
X150192D02*
X151504Y244932D01*
X152816D02*
X154128D01*
X153472D01*
Y248868D01*
X152816Y248212D01*
X158720Y248868D02*
X157408Y248212D01*
X156096Y246900D01*
Y245588D01*
X156752Y244932D01*
X158064D01*
X158720Y245588D01*
Y246244D01*
X158064Y246900D01*
X156096D01*
X146820Y250832D02*
Y254768D01*
X148788D01*
X149444Y254112D01*
Y252800D01*
X148788Y252144D01*
X146820D01*
X148132D02*
X149444Y250832D01*
X150756Y251488D02*
X151412Y250832D01*
X152724D01*
X153380Y251488D01*
Y254112D01*
X152724Y254768D01*
X151412D01*
X150756Y254112D01*
Y253456D01*
X151412Y252800D01*
X153380D01*
X204120Y246132D02*
Y250068D01*
X206088D01*
X206744Y249412D01*
Y248100D01*
X206088Y247444D01*
X204120D01*
X205432D02*
X206744Y246132D01*
X208056Y250068D02*
X210680D01*
Y249412D01*
X208056Y246788D01*
Y246132D01*
X166320Y252732D02*
Y256668D01*
X168288D01*
X168944Y256012D01*
Y254700D01*
X168288Y254044D01*
X166320D01*
X167632D02*
X168944Y252732D01*
X172880Y256668D02*
X171568Y256012D01*
X170256Y254700D01*
Y253388D01*
X170912Y252732D01*
X172224D01*
X172880Y253388D01*
Y254044D01*
X172224Y254700D01*
X170256D01*
X203220Y193332D02*
Y197268D01*
X205188D01*
X205844Y196612D01*
Y195300D01*
X205188Y194644D01*
X203220D01*
X204532D02*
X205844Y193332D01*
X209780Y197268D02*
X207156D01*
Y195300D01*
X208468Y195956D01*
X209124D01*
X209780Y195300D01*
Y193988D01*
X209124Y193332D01*
X207812D01*
X207156Y193988D01*
X329320Y213232D02*
Y217168D01*
X331288D01*
X331944Y216512D01*
Y215200D01*
X331288Y214544D01*
X329320D01*
X330632D02*
X331944Y213232D01*
X335224D02*
Y217168D01*
X333256Y215200D01*
X335880D01*
X114620Y222732D02*
Y226668D01*
X116588D01*
X117244Y226012D01*
Y224700D01*
X116588Y224044D01*
X114620D01*
X115932D02*
X117244Y222732D01*
X118556Y226012D02*
X119212Y226668D01*
X120524D01*
X121180Y226012D01*
Y225356D01*
X120524Y224700D01*
X119868D01*
X120524D01*
X121180Y224044D01*
Y223388D01*
X120524Y222732D01*
X119212D01*
X118556Y223388D01*
X192720Y168832D02*
Y172768D01*
X194688D01*
X195344Y172112D01*
Y170800D01*
X194688Y170144D01*
X192720D01*
X194032D02*
X195344Y168832D01*
X199280D02*
X196656D01*
X199280Y171456D01*
Y172112D01*
X198624Y172768D01*
X197312D01*
X196656Y172112D01*
X151976Y208832D02*
Y212768D01*
X153944D01*
X154600Y212112D01*
Y210800D01*
X153944Y210144D01*
X151976D01*
X153288D02*
X154600Y208832D01*
X155912D02*
X157224D01*
X156568D01*
Y212768D01*
X155912Y212112D01*
X186520Y158345D02*
Y154409D01*
X189144D01*
X193080D02*
X190456D01*
X193080Y157033D01*
Y157689D01*
X192424Y158345D01*
X191112D01*
X190456Y157689D01*
X238376Y25168D02*
Y21232D01*
X241000D01*
X242312D02*
X243624D01*
X242968D01*
Y25168D01*
X242312Y24512D01*
X199552Y19768D02*
Y15832D01*
Y17800D01*
X202176D01*
Y19768D01*
Y15832D01*
X203488Y19768D02*
Y15832D01*
X206112D01*
X210048Y19768D02*
X208736Y19112D01*
X207424Y17800D01*
Y16488D01*
X208080Y15832D01*
X209392D01*
X210048Y16488D01*
Y17144D01*
X209392Y17800D01*
X207424D01*
X176952Y19268D02*
Y15332D01*
Y17300D01*
X179576D01*
Y19268D01*
Y15332D01*
X180888Y19268D02*
Y15332D01*
X183512D01*
X187448Y19268D02*
X184824D01*
Y17300D01*
X186136Y17956D01*
X186792D01*
X187448Y17300D01*
Y15988D01*
X186792Y15332D01*
X185480D01*
X184824Y15988D01*
X223352Y18768D02*
Y14832D01*
Y16800D01*
X225976D01*
Y18768D01*
Y14832D01*
X227288Y18768D02*
Y14832D01*
X229912D01*
X233192D02*
Y18768D01*
X231224Y16800D01*
X233848D01*
X175952Y222768D02*
Y218832D01*
Y220800D01*
X178576D01*
Y222768D01*
Y218832D01*
X179888Y222768D02*
Y218832D01*
X182512D01*
X183824Y222112D02*
X184480Y222768D01*
X185792D01*
X186448Y222112D01*
Y221456D01*
X185792Y220800D01*
X185136D01*
X185792D01*
X186448Y220144D01*
Y219488D01*
X185792Y218832D01*
X184480D01*
X183824Y219488D01*
X175752Y215768D02*
Y211832D01*
Y213800D01*
X178376D01*
Y215768D01*
Y211832D01*
X179688Y215768D02*
Y211832D01*
X182312D01*
X186248D02*
X183624D01*
X186248Y214456D01*
Y215112D01*
X185592Y215768D01*
X184280D01*
X183624Y215112D01*
X255408Y21968D02*
Y18032D01*
Y20000D01*
X258032D01*
Y21968D01*
Y18032D01*
X259344Y21968D02*
Y18032D01*
X261968D01*
X263280D02*
X264592D01*
X263936D01*
Y21968D01*
X263280Y21312D01*
X214124Y282236D02*
X211500D01*
Y280268D01*
X212812D01*
X211500D01*
Y278300D01*
X218060D02*
X215436D01*
X218060Y280924D01*
Y281580D01*
X217404Y282236D01*
X216092D01*
X215436Y281580D01*
X244480Y179768D02*
Y175832D01*
X246448D01*
X247104Y176488D01*
Y179112D01*
X246448Y179768D01*
X244480D01*
X248416Y175832D02*
X249728D01*
X249072D01*
Y179768D01*
X248416Y179112D01*
X251696D02*
X252352Y179768D01*
X253664D01*
X254320Y179112D01*
Y176488D01*
X253664Y175832D01*
X252352D01*
X251696Y176488D01*
Y179112D01*
X156320Y69068D02*
Y65132D01*
X158288D01*
X158944Y65788D01*
Y68412D01*
X158288Y69068D01*
X156320D01*
X160256Y65788D02*
X160912Y65132D01*
X162224D01*
X162880Y65788D01*
Y68412D01*
X162224Y69068D01*
X160912D01*
X160256Y68412D01*
Y67756D01*
X160912Y67100D01*
X162880D01*
X98520Y199968D02*
Y196032D01*
X100488D01*
X101144Y196688D01*
Y199312D01*
X100488Y199968D01*
X98520D01*
X102456Y199312D02*
X103112Y199968D01*
X104424D01*
X105080Y199312D01*
Y198656D01*
X104424Y198000D01*
X105080Y197344D01*
Y196688D01*
X104424Y196032D01*
X103112D01*
X102456Y196688D01*
Y197344D01*
X103112Y198000D01*
X102456Y198656D01*
Y199312D01*
X103112Y198000D02*
X104424D01*
X268820Y149568D02*
Y145632D01*
X270788D01*
X271444Y146288D01*
Y148912D01*
X270788Y149568D01*
X268820D01*
X272756D02*
X275380D01*
Y148912D01*
X272756Y146288D01*
Y145632D01*
X328720Y23468D02*
Y19532D01*
X330688D01*
X331344Y20188D01*
Y22812D01*
X330688Y23468D01*
X328720D01*
X335280D02*
X332656D01*
Y21500D01*
X333968Y22156D01*
X334624D01*
X335280Y21500D01*
Y20188D01*
X334624Y19532D01*
X333312D01*
X332656Y20188D01*
X199220Y242968D02*
Y239032D01*
X201188D01*
X201844Y239688D01*
Y242312D01*
X201188Y242968D01*
X199220D01*
X205124Y239032D02*
Y242968D01*
X203156Y241000D01*
X205780D01*
X130620Y240768D02*
Y236832D01*
X132588D01*
X133244Y237488D01*
Y240112D01*
X132588Y240768D01*
X130620D01*
X134556Y240112D02*
X135212Y240768D01*
X136524D01*
X137180Y240112D01*
Y239456D01*
X136524Y238800D01*
X135868D01*
X136524D01*
X137180Y238144D01*
Y237488D01*
X136524Y236832D01*
X135212D01*
X134556Y237488D01*
X159620Y213168D02*
Y209232D01*
X161588D01*
X162244Y209888D01*
Y212512D01*
X161588Y213168D01*
X159620D01*
X166180Y209232D02*
X163556D01*
X166180Y211856D01*
Y212512D01*
X165524Y213168D01*
X164212D01*
X163556Y212512D01*
X149776Y185968D02*
Y182032D01*
X151744D01*
X152400Y182688D01*
Y185312D01*
X151744Y185968D01*
X149776D01*
X153712Y182032D02*
X155024D01*
X154368D01*
Y185968D01*
X153712Y185312D01*
X309032Y207512D02*
X308376Y208168D01*
X307064D01*
X306408Y207512D01*
Y204888D01*
X307064Y204232D01*
X308376D01*
X309032Y204888D01*
X312968Y208168D02*
X310344D01*
Y206200D01*
X311656Y206856D01*
X312312D01*
X312968Y206200D01*
Y204888D01*
X312312Y204232D01*
X311000D01*
X310344Y204888D01*
X314280Y204232D02*
X315592D01*
X314936D01*
Y208168D01*
X314280Y207512D01*
X294276Y223812D02*
X293620Y224468D01*
X292308D01*
X291652Y223812D01*
Y221188D01*
X292308Y220532D01*
X293620D01*
X294276Y221188D01*
X298212Y224468D02*
X295588D01*
Y222500D01*
X296900Y223156D01*
X297556D01*
X298212Y222500D01*
Y221188D01*
X297556Y220532D01*
X296244D01*
X295588Y221188D01*
X299524Y223812D02*
X300180Y224468D01*
X301492D01*
X302148Y223812D01*
Y221188D01*
X301492Y220532D01*
X300180D01*
X299524Y221188D01*
Y223812D01*
X227576Y226112D02*
X226920Y226768D01*
X225608D01*
X224952Y226112D01*
Y223488D01*
X225608Y222832D01*
X226920D01*
X227576Y223488D01*
X230856Y222832D02*
Y226768D01*
X228888Y224800D01*
X231512D01*
X232824Y223488D02*
X233480Y222832D01*
X234792D01*
X235448Y223488D01*
Y226112D01*
X234792Y226768D01*
X233480D01*
X232824Y226112D01*
Y225456D01*
X233480Y224800D01*
X235448D01*
X227476Y234112D02*
X226820Y234768D01*
X225508D01*
X224852Y234112D01*
Y231488D01*
X225508Y230832D01*
X226820D01*
X227476Y231488D01*
X230756Y230832D02*
Y234768D01*
X228788Y232800D01*
X231412D01*
X232724Y234112D02*
X233380Y234768D01*
X234692D01*
X235348Y234112D01*
Y233456D01*
X234692Y232800D01*
X235348Y232144D01*
Y231488D01*
X234692Y230832D01*
X233380D01*
X232724Y231488D01*
Y232144D01*
X233380Y232800D01*
X232724Y233456D01*
Y234112D01*
X233380Y232800D02*
X234692D01*
X238096Y171512D02*
X237440Y172168D01*
X236128D01*
X235472Y171512D01*
Y168888D01*
X236128Y168232D01*
X237440D01*
X238096Y168888D01*
X241376Y168232D02*
Y172168D01*
X239408Y170200D01*
X242032D01*
X243343Y172168D02*
X245967D01*
Y171512D01*
X243343Y168888D01*
Y168232D01*
X196876Y127712D02*
X196220Y128368D01*
X194908D01*
X194252Y127712D01*
Y125088D01*
X194908Y124432D01*
X196220D01*
X196876Y125088D01*
X200156Y124432D02*
Y128368D01*
X198188Y126400D01*
X200812D01*
X204748Y128368D02*
X202124D01*
Y126400D01*
X203436Y127056D01*
X204092D01*
X204748Y126400D01*
Y125088D01*
X204092Y124432D01*
X202780D01*
X202124Y125088D01*
X326276Y247765D02*
X325620Y248421D01*
X324308D01*
X323652Y247765D01*
Y245142D01*
X324308Y244486D01*
X325620D01*
X326276Y245142D01*
X329556Y244486D02*
Y248421D01*
X327588Y246453D01*
X330212D01*
X333492Y244486D02*
Y248421D01*
X331524Y246453D01*
X334148D01*
X27176Y55612D02*
X26520Y56268D01*
X25208D01*
X24552Y55612D01*
Y52988D01*
X25208Y52332D01*
X26520D01*
X27176Y52988D01*
X30456Y52332D02*
Y56268D01*
X28488Y54300D01*
X31112D01*
X32424Y55612D02*
X33080Y56268D01*
X34392D01*
X35048Y55612D01*
Y54956D01*
X34392Y54300D01*
X33736D01*
X34392D01*
X35048Y53644D01*
Y52988D01*
X34392Y52332D01*
X33080D01*
X32424Y52988D01*
X300476Y163412D02*
X299820Y164068D01*
X298508D01*
X297852Y163412D01*
Y160788D01*
X298508Y160132D01*
X299820D01*
X300476Y160788D01*
X303756Y160132D02*
Y164068D01*
X301788Y162100D01*
X304412D01*
X305724Y163412D02*
X306380Y164068D01*
X307692D01*
X308348Y163412D01*
Y160788D01*
X307692Y160132D01*
X306380D01*
X305724Y160788D01*
Y163412D01*
X300776Y171512D02*
X300120Y172168D01*
X298808D01*
X298152Y171512D01*
Y168888D01*
X298808Y168232D01*
X300120D01*
X300776Y168888D01*
X302088Y171512D02*
X302744Y172168D01*
X304056D01*
X304712Y171512D01*
Y170856D01*
X304056Y170200D01*
X303400D01*
X304056D01*
X304712Y169544D01*
Y168888D01*
X304056Y168232D01*
X302744D01*
X302088Y168888D01*
X306024D02*
X306680Y168232D01*
X307992D01*
X308648Y168888D01*
Y171512D01*
X307992Y172168D01*
X306680D01*
X306024Y171512D01*
Y170856D01*
X306680Y170200D01*
X308648D01*
X182376Y89112D02*
X181720Y89768D01*
X180408D01*
X179752Y89112D01*
Y86488D01*
X180408Y85832D01*
X181720D01*
X182376Y86488D01*
X183688Y89112D02*
X184344Y89768D01*
X185656D01*
X186312Y89112D01*
Y88456D01*
X185656Y87800D01*
X185000D01*
X185656D01*
X186312Y87144D01*
Y86488D01*
X185656Y85832D01*
X184344D01*
X183688Y86488D01*
X187624Y89112D02*
X188280Y89768D01*
X189592D01*
X190248Y89112D01*
Y88456D01*
X189592Y87800D01*
X190248Y87144D01*
Y86488D01*
X189592Y85832D01*
X188280D01*
X187624Y86488D01*
Y87144D01*
X188280Y87800D01*
X187624Y88456D01*
Y89112D01*
X188280Y87800D02*
X189592D01*
X151476Y86512D02*
X150820Y87168D01*
X149508D01*
X148852Y86512D01*
Y83888D01*
X149508Y83232D01*
X150820D01*
X151476Y83888D01*
X152788Y86512D02*
X153444Y87168D01*
X154756D01*
X155412Y86512D01*
Y85856D01*
X154756Y85200D01*
X154100D01*
X154756D01*
X155412Y84544D01*
Y83888D01*
X154756Y83232D01*
X153444D01*
X152788Y83888D01*
X156724Y87168D02*
X159348D01*
Y86512D01*
X156724Y83888D01*
Y83232D01*
X189376Y98812D02*
X188720Y99468D01*
X187408D01*
X186752Y98812D01*
Y96188D01*
X187408Y95532D01*
X188720D01*
X189376Y96188D01*
X190688Y98812D02*
X191344Y99468D01*
X192656D01*
X193312Y98812D01*
Y98156D01*
X192656Y97500D01*
X192000D01*
X192656D01*
X193312Y96844D01*
Y96188D01*
X192656Y95532D01*
X191344D01*
X190688Y96188D01*
X197248Y99468D02*
X195936Y98812D01*
X194624Y97500D01*
Y96188D01*
X195280Y95532D01*
X196592D01*
X197248Y96188D01*
Y96844D01*
X196592Y97500D01*
X194624D01*
X117576Y201712D02*
X116920Y202368D01*
X115608D01*
X114952Y201712D01*
Y199088D01*
X115608Y198432D01*
X116920D01*
X117576Y199088D01*
X118888Y201712D02*
X119544Y202368D01*
X120856D01*
X121512Y201712D01*
Y201056D01*
X120856Y200400D01*
X120200D01*
X120856D01*
X121512Y199744D01*
Y199088D01*
X120856Y198432D01*
X119544D01*
X118888Y199088D01*
X124792Y198432D02*
Y202368D01*
X122824Y200400D01*
X125448D01*
X138632Y71924D02*
X137976Y72580D01*
X136664D01*
X136008Y71924D01*
Y69300D01*
X136664Y68644D01*
X137976D01*
X138632Y69300D01*
X139944Y71924D02*
X140600Y72580D01*
X141912D01*
X142568Y71924D01*
Y71268D01*
X141912Y70612D01*
X141256D01*
X141912D01*
X142568Y69956D01*
Y69300D01*
X141912Y68644D01*
X140600D01*
X139944Y69300D01*
X143880Y68644D02*
X145192D01*
X144536D01*
Y72580D01*
X143880Y71924D01*
X146876Y157612D02*
X146220Y158268D01*
X144908D01*
X144252Y157612D01*
Y154988D01*
X144908Y154332D01*
X146220D01*
X146876Y154988D01*
X148188Y157612D02*
X148844Y158268D01*
X150156D01*
X150812Y157612D01*
Y156956D01*
X150156Y156300D01*
X149500D01*
X150156D01*
X150812Y155644D01*
Y154988D01*
X150156Y154332D01*
X148844D01*
X148188Y154988D01*
X152124Y157612D02*
X152780Y158268D01*
X154092D01*
X154748Y157612D01*
Y154988D01*
X154092Y154332D01*
X152780D01*
X152124Y154988D01*
Y157612D01*
X146676Y137012D02*
X146020Y137668D01*
X144708D01*
X144052Y137012D01*
Y134388D01*
X144708Y133732D01*
X146020D01*
X146676Y134388D01*
X150612Y133732D02*
X147988D01*
X150612Y136356D01*
Y137012D01*
X149956Y137668D01*
X148644D01*
X147988Y137012D01*
X151924Y134388D02*
X152580Y133732D01*
X153892D01*
X154548Y134388D01*
Y137012D01*
X153892Y137668D01*
X152580D01*
X151924Y137012D01*
Y136356D01*
X152580Y135700D01*
X154548D01*
X174276Y150312D02*
X173620Y150968D01*
X172308D01*
X171652Y150312D01*
Y147688D01*
X172308Y147032D01*
X173620D01*
X174276Y147688D01*
X178212Y147032D02*
X175588D01*
X178212Y149656D01*
Y150312D01*
X177556Y150968D01*
X176244D01*
X175588Y150312D01*
X182148Y150968D02*
X180836Y150312D01*
X179524Y149000D01*
Y147688D01*
X180180Y147032D01*
X181492D01*
X182148Y147688D01*
Y148344D01*
X181492Y149000D01*
X179524D01*
X164876Y124512D02*
X164220Y125168D01*
X162908D01*
X162252Y124512D01*
Y121888D01*
X162908Y121232D01*
X164220D01*
X164876Y121888D01*
X168812Y121232D02*
X166188D01*
X168812Y123856D01*
Y124512D01*
X168156Y125168D01*
X166844D01*
X166188Y124512D01*
X172748Y125168D02*
X170124D01*
Y123200D01*
X171436Y123856D01*
X172092D01*
X172748Y123200D01*
Y121888D01*
X172092Y121232D01*
X170780D01*
X170124Y121888D01*
X201576Y33612D02*
X200920Y34268D01*
X199608D01*
X198952Y33612D01*
Y30988D01*
X199608Y30332D01*
X200920D01*
X201576Y30988D01*
X205512Y30332D02*
X202888D01*
X205512Y32956D01*
Y33612D01*
X204856Y34268D01*
X203544D01*
X202888Y33612D01*
X206824D02*
X207480Y34268D01*
X208792D01*
X209448Y33612D01*
Y32956D01*
X208792Y32300D01*
X208136D01*
X208792D01*
X209448Y31644D01*
Y30988D01*
X208792Y30332D01*
X207480D01*
X206824Y30988D01*
X108632Y217612D02*
X107976Y218268D01*
X106664D01*
X106008Y217612D01*
Y214988D01*
X106664Y214332D01*
X107976D01*
X108632Y214988D01*
X112568Y214332D02*
X109944D01*
X112568Y216956D01*
Y217612D01*
X111912Y218268D01*
X110600D01*
X109944Y217612D01*
X113880Y214332D02*
X115192D01*
X114536D01*
Y218268D01*
X113880Y217612D01*
X198276Y61012D02*
X197620Y61668D01*
X196308D01*
X195652Y61012D01*
Y58388D01*
X196308Y57732D01*
X197620D01*
X198276Y58388D01*
X202212Y57732D02*
X199588D01*
X202212Y60356D01*
Y61012D01*
X201556Y61668D01*
X200244D01*
X199588Y61012D01*
X203524D02*
X204180Y61668D01*
X205492D01*
X206148Y61012D01*
Y58388D01*
X205492Y57732D01*
X204180D01*
X203524Y58388D01*
Y61012D01*
X226404Y158612D02*
X225748Y159268D01*
X224436D01*
X223780Y158612D01*
Y155988D01*
X224436Y155332D01*
X225748D01*
X226404Y155988D01*
X227716Y155332D02*
X229028D01*
X228372D01*
Y159268D01*
X227716Y158612D01*
X230996Y155988D02*
X231652Y155332D01*
X232964D01*
X233620Y155988D01*
Y158612D01*
X232964Y159268D01*
X231652D01*
X230996Y158612D01*
Y157956D01*
X231652Y157300D01*
X233620D01*
X156804Y76212D02*
X156148Y76868D01*
X154836D01*
X154180Y76212D01*
Y73588D01*
X154836Y72932D01*
X156148D01*
X156804Y73588D01*
X158116Y72932D02*
X159428D01*
X158772D01*
Y76868D01*
X158116Y76212D01*
X161396D02*
X162052Y76868D01*
X163364D01*
X164020Y76212D01*
Y75556D01*
X163364Y74900D01*
X164020Y74244D01*
Y73588D01*
X163364Y72932D01*
X162052D01*
X161396Y73588D01*
Y74244D01*
X162052Y74900D01*
X161396Y75556D01*
Y76212D01*
X162052Y74900D02*
X163364D01*
X191704Y79112D02*
X191048Y79768D01*
X189736D01*
X189080Y79112D01*
Y76488D01*
X189736Y75832D01*
X191048D01*
X191704Y76488D01*
X193016Y75832D02*
X194328D01*
X193672D01*
Y79768D01*
X193016Y79112D01*
X196296Y79768D02*
X198920D01*
Y79112D01*
X196296Y76488D01*
Y75832D01*
X122604Y78912D02*
X121948Y79568D01*
X120636D01*
X119980Y78912D01*
Y76288D01*
X120636Y75632D01*
X121948D01*
X122604Y76288D01*
X123916Y75632D02*
X125228D01*
X124572D01*
Y79568D01*
X123916Y78912D01*
X129820Y79568D02*
X128508Y78912D01*
X127196Y77600D01*
Y76288D01*
X127852Y75632D01*
X129164D01*
X129820Y76288D01*
Y76944D01*
X129164Y77600D01*
X127196D01*
X97604Y78812D02*
X96948Y79468D01*
X95636D01*
X94980Y78812D01*
Y76188D01*
X95636Y75532D01*
X96948D01*
X97604Y76188D01*
X98916Y75532D02*
X100228D01*
X99572D01*
Y79468D01*
X98916Y78812D01*
X104820Y79468D02*
X102196D01*
Y77500D01*
X103508Y78156D01*
X104164D01*
X104820Y77500D01*
Y76188D01*
X104164Y75532D01*
X102852D01*
X102196Y76188D01*
X214704Y114912D02*
X214048Y115568D01*
X212736D01*
X212080Y114912D01*
Y112288D01*
X212736Y111632D01*
X214048D01*
X214704Y112288D01*
X216016Y111632D02*
X217328D01*
X216672D01*
Y115568D01*
X216016Y114912D01*
X221264Y111632D02*
Y115568D01*
X219296Y113600D01*
X221920D01*
X277004Y107312D02*
X276348Y107968D01*
X275036D01*
X274380Y107312D01*
Y104688D01*
X275036Y104032D01*
X276348D01*
X277004Y104688D01*
X278316Y104032D02*
X279628D01*
X278972D01*
Y107968D01*
X278316Y107312D01*
X281596D02*
X282252Y107968D01*
X283564D01*
X284220Y107312D01*
Y106656D01*
X283564Y106000D01*
X282908D01*
X283564D01*
X284220Y105344D01*
Y104688D01*
X283564Y104032D01*
X282252D01*
X281596Y104688D01*
X213504Y92012D02*
X212848Y92668D01*
X211536D01*
X210880Y92012D01*
Y89388D01*
X211536Y88732D01*
X212848D01*
X213504Y89388D01*
X214816Y88732D02*
X216128D01*
X215472D01*
Y92668D01*
X214816Y92012D01*
X220720Y88732D02*
X218096D01*
X220720Y91356D01*
Y92012D01*
X220064Y92668D01*
X218752D01*
X218096Y92012D01*
X132444Y217612D02*
X131788Y218268D01*
X130476D01*
X129820Y217612D01*
Y214988D01*
X130476Y214332D01*
X131788D01*
X132444Y214988D01*
X133756Y217612D02*
X134412Y218268D01*
X135724D01*
X136380Y217612D01*
Y216956D01*
X135724Y216300D01*
X136380Y215644D01*
Y214988D01*
X135724Y214332D01*
X134412D01*
X133756Y214988D01*
Y215644D01*
X134412Y216300D01*
X133756Y216956D01*
Y217612D01*
X134412Y216300D02*
X135724D01*
X285444Y98312D02*
X284788Y98968D01*
X283476D01*
X282820Y98312D01*
Y95688D01*
X283476Y95032D01*
X284788D01*
X285444Y95688D01*
X286756Y98968D02*
X289380D01*
Y98312D01*
X286756Y95688D01*
Y95032D01*
X280924Y86180D02*
X280268Y86836D01*
X278956D01*
X278300Y86180D01*
Y83556D01*
X278956Y82900D01*
X280268D01*
X280924Y83556D01*
X284860Y86836D02*
X283548Y86180D01*
X282236Y84868D01*
Y83556D01*
X282892Y82900D01*
X284204D01*
X284860Y83556D01*
Y84212D01*
X284204Y84868D01*
X282236D01*
X200044Y264412D02*
X199388Y265068D01*
X198076D01*
X197420Y264412D01*
Y261788D01*
X198076Y261132D01*
X199388D01*
X200044Y261788D01*
X203980Y265068D02*
X201356D01*
Y263100D01*
X202668Y263756D01*
X203324D01*
X203980Y263100D01*
Y261788D01*
X203324Y261132D01*
X202012D01*
X201356Y261788D01*
X182844Y264512D02*
X182188Y265168D01*
X180876D01*
X180220Y264512D01*
Y261888D01*
X180876Y261232D01*
X182188D01*
X182844Y261888D01*
X186124Y261232D02*
Y265168D01*
X184156Y263200D01*
X186780D01*
X191344Y210312D02*
X190688Y210968D01*
X189376D01*
X188720Y210312D01*
Y207688D01*
X189376Y207032D01*
X190688D01*
X191344Y207688D01*
X192656Y210312D02*
X193312Y210968D01*
X194624D01*
X195280Y210312D01*
Y209656D01*
X194624Y209000D01*
X193968D01*
X194624D01*
X195280Y208344D01*
Y207688D01*
X194624Y207032D01*
X193312D01*
X192656Y207688D01*
X183344Y164012D02*
X182688Y164668D01*
X181376D01*
X180720Y164012D01*
Y161388D01*
X181376Y160732D01*
X182688D01*
X183344Y161388D01*
X187280Y160732D02*
X184656D01*
X187280Y163356D01*
Y164012D01*
X186624Y164668D01*
X185312D01*
X184656Y164012D01*
X216400Y249312D02*
X215744Y249968D01*
X214432D01*
X213776Y249312D01*
Y246688D01*
X214432Y246032D01*
X215744D01*
X216400Y246688D01*
X217712Y246032D02*
X219024D01*
X218368D01*
Y249968D01*
X217712Y249312D01*
X207952Y160203D02*
Y156268D01*
X209920D01*
X210576Y156923D01*
Y157580D01*
X209920Y158235D01*
X207952D01*
X209920D01*
X210576Y158891D01*
Y159547D01*
X209920Y160203D01*
X207952D01*
X214512Y156923D02*
Y159547D01*
X213856Y160203D01*
X212544D01*
X211888Y159547D01*
Y156923D01*
X212544Y156268D01*
X213856D01*
X213200Y157580D02*
X214512Y156268D01*
X213856D02*
X214512Y156923D01*
X215824Y159547D02*
X216480Y160203D01*
X217792D01*
X218448Y159547D01*
Y158891D01*
X217792Y158235D01*
X217136D01*
X217792D01*
X218448Y157580D01*
Y156923D01*
X217792Y156268D01*
X216480D01*
X215824Y156923D01*
X116852Y109168D02*
Y105232D01*
X118820D01*
X119476Y105888D01*
Y106544D01*
X118820Y107200D01*
X116852D01*
X118820D01*
X119476Y107856D01*
Y108512D01*
X118820Y109168D01*
X116852D01*
X123412Y105888D02*
Y108512D01*
X122756Y109168D01*
X121444D01*
X120788Y108512D01*
Y105888D01*
X121444Y105232D01*
X122756D01*
X122100Y106544D02*
X123412Y105232D01*
X122756D02*
X123412Y105888D01*
X127348Y105232D02*
X124724D01*
X127348Y107856D01*
Y108512D01*
X126692Y109168D01*
X125380D01*
X124724Y108512D01*
X95308Y95568D02*
Y91632D01*
X97276D01*
X97932Y92288D01*
Y92944D01*
X97276Y93600D01*
X95308D01*
X97276D01*
X97932Y94256D01*
Y94912D01*
X97276Y95568D01*
X95308D01*
X101868Y92288D02*
Y94912D01*
X101212Y95568D01*
X99900D01*
X99244Y94912D01*
Y92288D01*
X99900Y91632D01*
X101212D01*
X100556Y92944D02*
X101868Y91632D01*
X101212D02*
X101868Y92288D01*
X103180Y91632D02*
X104492D01*
X103836D01*
Y95568D01*
X103180Y94912D01*
D11*
X47055Y314621D02*
G03*
X49791Y317357I0J2736D01*
G01*
X52547Y338224D02*
G03*
X49811Y335487I0J-2736D01*
G01*
X119595Y317357D02*
G03*
X122331Y314621I2736J0D01*
G01*
X119575Y335487D02*
G03*
X116839Y338224I-2736J0D01*
G01*
X122591Y169D02*
G03*
X119854Y-2567I0J-2736D01*
G01*
X117098Y-23433D02*
G03*
X119835Y-20697I0J2736D01*
G01*
X50051Y-2567D02*
G03*
X47315Y169I-2736J0D01*
G01*
X50071Y-20697D02*
G03*
X52807Y-23433I2736J0D01*
G01*
X123131Y88298D02*
G03*
X123131Y88298I-1249J0D01*
G01*
X24063Y302790D02*
X145323D01*
Y265783D02*
Y314602D01*
X24063Y265783D02*
Y314602D01*
X52547Y338224D02*
X116839D01*
X24063Y265783D02*
X145323D01*
X112252Y265783D02*
Y302790D01*
X24063Y314602D02*
X145323D01*
X57134Y265783D02*
Y302790D01*
X49791Y317357D02*
Y335468D01*
X119595Y317357D02*
Y335468D01*
X2200Y247700D02*
X22200D01*
X2200Y217700D02*
X22200D01*
X2200D02*
Y247700D01*
X22200Y217700D02*
Y247700D01*
Y228533D02*
Y247700D01*
X2700Y214800D02*
X12700D01*
Y174800D02*
Y214800D01*
X2700Y174800D02*
Y214800D01*
Y174800D02*
X12700D01*
X2520Y90970D02*
X22206D01*
Y20104D02*
Y90970D01*
X2520Y20104D02*
X22206D01*
X2520D02*
Y90970D01*
X24323Y12000D02*
X145583D01*
X24323Y189D02*
Y49008D01*
X145583Y189D02*
Y49008D01*
X52807Y-23433D02*
X117098D01*
X24323Y49008D02*
X145583D01*
X57394Y12000D02*
Y49008D01*
X24323Y189D02*
X145583D01*
X112512Y12000D02*
Y49008D01*
X119854Y-20677D02*
Y-2567D01*
X50051Y-20677D02*
Y-2567D01*
X101441Y122723D02*
X136240Y157522D01*
X66643D02*
X101441Y192321D01*
X66643Y157522D02*
X101441Y122723D01*
Y192321D02*
X136240Y157522D01*
X46400Y51300D02*
X86400D01*
X46400Y71300D02*
X86400D01*
X46400Y51300D02*
Y71300D01*
X86400Y51300D02*
Y71300D01*
X163631Y167454D02*
X183268D01*
X163631D02*
Y186746D01*
X183268D01*
Y167454D02*
Y186746D01*
X184646Y166943D02*
X190650D01*
X167201Y207446D02*
X179799D01*
Y188154D02*
Y207446D01*
X167201Y188154D02*
X179799D01*
X167201D02*
Y207446D01*
X159819Y207958D02*
X165823D01*
X125100Y254800D02*
X145100D01*
Y264800D01*
X125100D02*
X145100D01*
X125100Y254800D02*
Y264800D01*
X122942Y214919D02*
Y220923D01*
X123454Y222301D02*
X142746D01*
Y234899D01*
X123454D02*
X142746D01*
X123454Y222301D02*
Y234899D01*
X163800Y14500D02*
Y34500D01*
X153800D02*
X163800D01*
X153800Y14500D02*
Y34500D01*
Y14500D02*
X163800D01*
X188307Y66857D02*
X201693D01*
X188307Y73943D02*
X201693D01*
X188307Y66857D02*
Y67054D01*
X196575D02*
X201693D01*
X188307Y73747D02*
Y73943D01*
X196575Y73747D02*
X201693D01*
X203563Y65774D02*
Y66758D01*
X202874Y66266D02*
X204252D01*
X159996Y7917D02*
Y10673D01*
X158618Y9295D02*
X161374D01*
X145766Y59760D02*
Y61138D01*
X145274Y60449D02*
X146258D01*
X153246Y62319D02*
Y67437D01*
Y75705D02*
X153443D01*
X146554Y62319D02*
Y67437D01*
X146357Y75705D02*
X146554D01*
X153443Y62319D02*
Y75705D01*
X146357Y62319D02*
Y75705D01*
X181974Y66266D02*
X183352D01*
X182663Y65774D02*
Y66758D01*
X175675Y73747D02*
X180793D01*
X167407D02*
Y73943D01*
X175675Y67054D02*
X180793D01*
X167407Y66857D02*
Y67054D01*
Y73943D02*
X180793D01*
X167407Y66857D02*
X180793D01*
X280949Y19177D02*
Y23114D01*
X312051D01*
Y19177D02*
Y23114D01*
X280949Y-114D02*
Y3823D01*
Y-114D02*
X312051D01*
Y3823D01*
X274886Y110449D02*
X278823D01*
X274886D02*
Y141551D01*
X278823D01*
X294177Y110449D02*
X298114D01*
Y141551D01*
X294177D02*
X298114D01*
X317684Y211700D02*
X335400D01*
X317684Y166424D02*
Y211700D01*
Y166424D02*
X335400D01*
Y211700D01*
X228445Y132095D02*
X246555D01*
X228445Y123039D02*
X228642D01*
X246358D02*
X246555D01*
X228445D02*
Y152961D01*
X246555Y123039D02*
Y152961D01*
X246358D02*
X246555D01*
X228445D02*
X228642D01*
X201666Y37248D02*
Y38626D01*
X201174Y37937D02*
X202158D01*
X209146Y39807D02*
Y44925D01*
Y53193D02*
X209343D01*
X202453Y39807D02*
Y44925D01*
X202257Y53193D02*
X202453D01*
X209343Y39807D02*
Y53193D01*
X202257Y39807D02*
Y53193D01*
X202134Y54386D02*
Y55764D01*
X201642Y55075D02*
X202626D01*
X194653Y48087D02*
Y53205D01*
X194457Y39819D02*
X194653D01*
X201346Y48087D02*
Y53205D01*
Y39819D02*
X201543D01*
X194457D02*
Y53205D01*
X201543Y39819D02*
Y53205D01*
X196099Y132519D02*
Y150235D01*
X183501Y132519D02*
Y150235D01*
X236118Y9295D02*
X238874D01*
X237496Y7917D02*
Y10673D01*
X164157Y128695D02*
Y142081D01*
X171243Y128695D02*
Y142081D01*
X164157D02*
X164354D01*
Y128695D02*
Y133813D01*
X171046Y142081D02*
X171243D01*
X171046Y128695D02*
Y133813D01*
X163074Y126825D02*
X164058D01*
X163566Y126136D02*
Y127514D01*
Y147048D02*
Y148426D01*
X163074Y147737D02*
X164058D01*
X171046Y149607D02*
Y154725D01*
Y162993D02*
X171243D01*
X164354Y149607D02*
Y154725D01*
X164157Y162993D02*
X164354D01*
X171243Y149607D02*
Y162993D01*
X164157Y149607D02*
Y162993D01*
X203618Y9295D02*
X206374D01*
X204996Y7917D02*
Y10673D01*
X181118Y9295D02*
X183874D01*
X182496Y7917D02*
Y10673D01*
X23784Y253068D02*
X23128D01*
X22800Y252740D01*
Y251428D01*
X23128Y251100D01*
X23784D01*
X24112Y251428D01*
Y252740D01*
X23784Y253068D01*
X24768Y251100D02*
Y253068D01*
X26080Y251100D01*
Y253068D01*
D12*
X104300Y117852D02*
G03*
X104300Y117852I-492J0D01*
G01*
X317071Y11500D02*
G03*
X317071Y11500I-492J0D01*
G01*
X286992Y146079D02*
G03*
X286992Y146079I-492J0D01*
G01*
X228937Y120480D02*
G03*
X228937Y120480I-492J0D01*
G01*
D13*
X102622Y128291D02*
G03*
X102622Y128291I-1181J0D01*
G01*
D14*
X192552Y53362D02*
G03*
X192552Y53362I-2100J0D01*
G01*
X193552Y42562D02*
Y56662D01*
X154952Y42562D02*
X193552D01*
X154952D02*
Y56662D01*
X193552D01*
X283300Y181300D02*
Y182400D01*
X255700Y181300D02*
X256800D01*
X255700Y207800D02*
Y208900D01*
X282200D02*
X283300D01*
Y207800D02*
Y208900D01*
X255700D02*
X256800D01*
X255700Y181300D02*
Y182400D01*
X282200Y181300D02*
X283300D01*
D15*
X191848Y274081D02*
G03*
X191848Y274081I-787J0D01*
G01*
D16*
X223872Y260740D02*
G03*
X223872Y260740I-472J0D01*
G01*
D17*
X187400Y243440D02*
G03*
X191400Y243440I2000J0D01*
G01*
X181560Y223760D02*
X197240D01*
Y243440D01*
X181560D02*
X197240D01*
X181560Y223760D02*
Y243440D01*
X9032Y254798D02*
X7366Y253965D01*
X5700Y252299D01*
Y250633D01*
X6533Y249800D01*
X8199D01*
X9032Y250633D01*
Y251466D01*
X8199Y252299D01*
X5700D01*
X19632Y254798D02*
X16300D01*
Y252299D01*
X17966Y253132D01*
X18799D01*
X19632Y252299D01*
Y250633D01*
X18799Y249800D01*
X17133D01*
X16300Y250633D01*
X12632Y220400D02*
X9300D01*
X12632Y223732D01*
Y224565D01*
X11799Y225398D01*
X10133D01*
X9300Y224565D01*
X17100Y211600D02*
X18766D01*
X17933D01*
Y216598D01*
X17100Y215765D01*
X57732Y64000D02*
X54400D01*
X57732Y67332D01*
Y68165D01*
X56899Y68998D01*
X55233D01*
X54400Y68165D01*
X44600Y53300D02*
X46266D01*
X45433D01*
Y58298D01*
X44600Y57465D01*
X87400Y59298D02*
X90732D01*
Y58465D01*
X87400Y55133D01*
Y54300D01*
Y68465D02*
X88233Y69298D01*
X89899D01*
X90732Y68465D01*
Y67632D01*
X89899Y66799D01*
X90732Y65966D01*
Y65133D01*
X89899Y64300D01*
X88233D01*
X87400Y65133D01*
Y65966D01*
X88233Y66799D01*
X87400Y67632D01*
Y68465D01*
X88233Y66799D02*
X89899D01*
D18*
X103358Y213137D02*
X107295D01*
X103358Y205263D02*
X107295Y205263D01*
X103358Y205263D02*
Y213137D01*
X118122Y205263D02*
Y213137D01*
X114185D02*
X118122D01*
X114185Y205263D02*
X118122D01*
X35653Y67159D02*
Y70801D01*
X29747Y67159D02*
X35653D01*
X29747D02*
Y70801D01*
X35653Y76706D02*
Y80348D01*
X29747D02*
X35653D01*
X29747Y76706D02*
Y80348D01*
X29153Y67159D02*
Y70801D01*
X23247Y67159D02*
X29153D01*
X23247D02*
Y70801D01*
X29153Y76706D02*
Y80348D01*
X23247D02*
X29153D01*
X23247Y76706D02*
Y80348D01*
X58799Y78453D02*
X62441D01*
Y72547D02*
Y78453D01*
X58799Y72547D02*
X62441D01*
X49252Y78453D02*
X52894D01*
X49252Y72547D02*
Y78453D01*
Y72547D02*
X52894D01*
X38647Y76653D02*
Y80295D01*
X44553D01*
Y76653D02*
Y80295D01*
X38647Y67106D02*
Y70747D01*
Y67106D02*
X44553D01*
Y70747D01*
X44537Y62505D02*
Y66442D01*
X36663Y62505D02*
Y66442D01*
X44537D01*
X36663Y51678D02*
X44537D01*
Y55615D01*
X36663Y51678D02*
Y55615D01*
X126078Y204537D02*
X130015D01*
X126078Y196663D02*
X130015D01*
X126078D02*
Y204537D01*
X140842Y196663D02*
Y204537D01*
X136905D02*
X140842D01*
X136905Y196663D02*
X140842D01*
X151463Y221458D02*
Y225395D01*
X159337Y221458D02*
Y225395D01*
X151463Y221458D02*
X159337D01*
X151463Y236222D02*
X159337D01*
X151463Y232285D02*
Y236222D01*
X159337Y232285D02*
Y236222D01*
X232178Y208337D02*
X236115D01*
X232178Y200463D02*
X236115D01*
X232178D02*
Y208337D01*
X246942Y200463D02*
Y208337D01*
X243005D02*
X246942D01*
X243005Y200463D02*
X246942D01*
X157453Y194606D02*
Y198247D01*
X151547Y194606D02*
X157453D01*
X151547D02*
Y198247D01*
X157453Y204153D02*
Y207794D01*
X151547D02*
X157453D01*
X151547Y204153D02*
Y207794D01*
X141963Y193978D02*
Y197915D01*
X149837Y193978D02*
Y197915D01*
X141963Y193978D02*
X149837D01*
X141963Y208742D02*
X149837D01*
X141963Y204805D02*
Y208742D01*
X149837Y204805D02*
Y208742D01*
X136905Y205163D02*
X140842D01*
X136905Y213037D02*
X140842D01*
Y205163D02*
Y213037D01*
X126078Y205163D02*
Y213037D01*
Y205163D02*
X130015D01*
X126078Y213037D02*
X130015D01*
X130418Y253337D02*
X134355D01*
X130418Y245463D02*
X134355D01*
X130418D02*
Y253337D01*
X145182Y245463D02*
Y253337D01*
X141245D02*
X145182D01*
X141245Y245463D02*
X145182D01*
X114063Y228818D02*
Y232755D01*
X121937Y228818D02*
Y232755D01*
X114063Y228818D02*
X121937D01*
X114063Y243582D02*
X121937D01*
X114063Y239645D02*
Y243582D01*
X121937Y239645D02*
Y243582D01*
X152653Y7406D02*
Y11047D01*
X146747Y7406D02*
X152653D01*
X146747D02*
Y11047D01*
X152653Y16953D02*
Y20595D01*
X146747D02*
X152653D01*
X146747Y16953D02*
Y20595D01*
X175137Y30785D02*
Y34722D01*
X167263Y30785D02*
Y34722D01*
X175137D01*
X167263Y19958D02*
X175137D01*
Y23895D01*
X167263Y19958D02*
Y23895D01*
X152653Y21459D02*
Y25101D01*
X146747Y21459D02*
X152653D01*
X146747D02*
Y25101D01*
X152653Y31006D02*
Y34648D01*
X146747D02*
X152653D01*
X146747Y31006D02*
Y34648D01*
X152753Y43259D02*
Y46901D01*
X146847Y43259D02*
X152753D01*
X146847D02*
Y46901D01*
X152753Y52806D02*
Y56448D01*
X146847D02*
X152753D01*
X146847Y52806D02*
Y56448D01*
X198306Y205753D02*
X201948D01*
Y199847D02*
Y205753D01*
X198306Y199847D02*
X201948D01*
X188759Y205753D02*
X192401D01*
X188759Y199847D02*
Y205753D01*
Y199847D02*
X192401D01*
X188852Y192247D02*
X192494D01*
X188852D02*
Y198153D01*
X192494D01*
X198399Y192247D02*
X202041D01*
Y198153D01*
X198399D02*
X202041D01*
X198053Y174305D02*
Y177947D01*
X192147Y174305D02*
X198053D01*
X192147D02*
Y177947D01*
X198053Y183853D02*
Y187495D01*
X192147D02*
X198053D01*
X192147Y183853D02*
Y187495D01*
X72018Y79037D02*
X75955D01*
X72018Y71163D02*
X75955D01*
X72018D02*
Y79037D01*
X86782Y71163D02*
Y79037D01*
X82845D02*
X86782D01*
X82845Y71163D02*
X86782D01*
X229937Y88945D02*
Y92882D01*
X222063Y88945D02*
Y92882D01*
X229937D01*
X222063Y78118D02*
X229937D01*
Y82055D01*
X222063Y78118D02*
Y82055D01*
X206018Y129437D02*
X209955D01*
X206018Y121563D02*
X209955D01*
X206018D02*
Y129437D01*
X220782Y121563D02*
Y129437D01*
X216845D02*
X220782D01*
X216845Y121563D02*
X220782D01*
X105947Y85206D02*
Y88848D01*
X111853D01*
Y85206D02*
Y88848D01*
X105947Y75659D02*
Y79301D01*
Y75659D02*
X111853D01*
Y79301D01*
X112947Y85206D02*
Y88848D01*
X118853D01*
Y85206D02*
Y88848D01*
X112947Y75659D02*
Y79301D01*
Y75659D02*
X118853D01*
Y79301D01*
X226253Y245859D02*
Y249501D01*
X220347Y245859D02*
X226253D01*
X220347D02*
Y249501D01*
X226253Y255406D02*
Y259048D01*
X220347D02*
X226253D01*
X220347Y255406D02*
Y259048D01*
X236658Y237137D02*
X240595D01*
X236658Y229263D02*
X240595D01*
X236658D02*
Y237137D01*
X251422Y229263D02*
Y237137D01*
X247485D02*
X251422D01*
X247485Y229263D02*
X251422D01*
X247445Y220763D02*
X251382D01*
X247445Y228637D02*
X251382D01*
Y220763D02*
Y228637D01*
X236618Y220763D02*
Y228637D01*
Y220763D02*
X240555D01*
X236618Y228637D02*
X240555D01*
X252058Y237137D02*
X255995D01*
X252058Y229263D02*
X255995D01*
X252058D02*
Y237137D01*
X266822Y229263D02*
Y237137D01*
X262885D02*
X266822D01*
X262885Y229263D02*
X266822D01*
X252058Y228637D02*
X255995D01*
X252058Y220763D02*
X255995D01*
X252058D02*
Y228637D01*
X266822Y220763D02*
Y228637D01*
X262885D02*
X266822D01*
X262885Y220763D02*
X266822D01*
X328853Y228505D02*
Y232147D01*
X322947Y228505D02*
X328853D01*
X322947D02*
Y232147D01*
X328853Y238053D02*
Y241694D01*
X322947D02*
X328853D01*
X322947Y238053D02*
Y241694D01*
X309347Y225206D02*
Y228848D01*
X315253D01*
Y225206D02*
Y228848D01*
X309347Y215659D02*
Y219301D01*
Y215659D02*
X315253D01*
Y219301D01*
X301145Y202663D02*
X305082D01*
X301145Y210537D02*
X305082D01*
Y202663D02*
Y210537D01*
X290318Y202663D02*
Y210537D01*
Y202663D02*
X294255D01*
X290318Y210537D02*
X294255D01*
X232178Y216837D02*
X236115D01*
X232178Y208963D02*
X236115D01*
X232178D02*
Y216837D01*
X246942Y208963D02*
Y216837D01*
X243005D02*
X246942D01*
X243005Y208963D02*
X246942D01*
X243005Y183463D02*
X246942D01*
X243005Y191337D02*
X246942D01*
Y183463D02*
Y191337D01*
X232178Y183463D02*
Y191337D01*
Y183463D02*
X236115D01*
X232178Y191337D02*
X236115D01*
X281858Y174237D02*
X285795D01*
X281858Y166363D02*
X285795D01*
X281858D02*
Y174237D01*
X296622Y166363D02*
Y174237D01*
X292685D02*
X296622D01*
X292685Y166363D02*
X296622D01*
X247478Y174237D02*
X251415D01*
X247478Y166363D02*
X251415D01*
X247478D02*
Y174237D01*
X262242Y166363D02*
Y174237D01*
X258305D02*
X262242D01*
X258305Y166363D02*
X262242D01*
X258305Y157863D02*
X262242D01*
X258305Y165737D02*
X262242D01*
Y157863D02*
Y165737D01*
X247478Y157863D02*
Y165737D01*
Y157863D02*
X251415D01*
X247478Y165737D02*
X251415D01*
X266258D02*
X270195D01*
X266258Y157863D02*
X270195D01*
X266258D02*
Y165737D01*
X281022Y157863D02*
Y165737D01*
X277085D02*
X281022D01*
X277085Y157863D02*
X281022D01*
X266258Y174237D02*
X270195D01*
X266258Y166363D02*
X270195D01*
X266258D02*
Y174237D01*
X281022Y166363D02*
Y174237D01*
X277085D02*
X281022D01*
X277085Y166363D02*
X281022D01*
X197637Y30845D02*
Y34782D01*
X189763Y30845D02*
Y34782D01*
X197637D01*
X189763Y20018D02*
X197637D01*
Y23955D01*
X189763Y20018D02*
Y23955D01*
X163342Y222747D02*
Y228653D01*
X166689D01*
X163342Y222747D02*
X166689D01*
X171610Y228653D02*
X174957D01*
X171610Y222747D02*
X174957D01*
Y228653D01*
X164071Y229480D02*
X164740D01*
X171005Y229063D02*
X174942D01*
X171005Y236937D02*
X174942D01*
Y229063D02*
Y236937D01*
X160178Y229063D02*
Y236937D01*
Y229063D02*
X164115D01*
X160178Y236937D02*
X164115D01*
X170805Y243084D02*
X174742D01*
X170805Y250958D02*
X174742D01*
Y243084D02*
Y250958D01*
X159978Y243084D02*
Y250958D01*
Y243084D02*
X163915D01*
X159978Y250958D02*
X163915D01*
X198185Y214663D02*
X202122D01*
X198185Y222537D02*
X202122D01*
Y214663D02*
Y222537D01*
X187358Y214663D02*
Y222537D01*
Y214663D02*
X191295D01*
X187358Y222537D02*
X191295D01*
X163343Y216447D02*
Y222353D01*
X166690D01*
X163343Y216447D02*
X166690D01*
X171611Y222353D02*
X174958D01*
X171611Y216447D02*
X174958D01*
Y222353D01*
X164072Y223180D02*
X164741D01*
X185499Y251253D02*
X189141D01*
Y245347D02*
Y251253D01*
X185499Y245347D02*
X189141D01*
X175952Y251253D02*
X179594D01*
X175952Y245347D02*
Y251253D01*
Y245347D02*
X179594D01*
X174478Y259737D02*
X178415D01*
X174478Y251863D02*
X178415D01*
X174478D02*
Y259737D01*
X189242Y251863D02*
Y259737D01*
X185305D02*
X189242D01*
X185305Y251863D02*
X189242D01*
X199353Y251253D02*
X202994D01*
Y245347D02*
Y251253D01*
X199353Y245347D02*
X202994D01*
X189805Y251253D02*
X193447D01*
X189805Y245347D02*
Y251253D01*
Y245347D02*
X193447D01*
X200645Y251863D02*
X204582D01*
X200645Y259737D02*
X204582D01*
Y251863D02*
Y259737D01*
X189818Y251863D02*
Y259737D01*
Y251863D02*
X193755D01*
X189818Y259737D02*
X193755D01*
X301205Y211263D02*
X305142D01*
X301205Y219137D02*
X305142D01*
Y211263D02*
Y219137D01*
X290378Y211263D02*
Y219137D01*
Y211263D02*
X294315D01*
X290378Y219137D02*
X294315D01*
X179253Y151459D02*
Y155101D01*
X173347Y151459D02*
X179253D01*
X173347D02*
Y155101D01*
X179253Y161006D02*
Y164648D01*
X173347D02*
X179253D01*
X173347Y161006D02*
Y164648D01*
X290358Y199837D02*
X294295D01*
X290358Y191963D02*
X294295D01*
X290358D02*
Y199837D01*
X305122Y191963D02*
Y199837D01*
X301185D02*
X305122D01*
X301185Y191963D02*
X305122D01*
X243005D02*
X246942D01*
X243005Y199837D02*
X246942D01*
Y191963D02*
Y199837D01*
X232178Y191963D02*
Y199837D01*
Y191963D02*
X236115D01*
X232178Y199837D02*
X236115D01*
X292685Y157863D02*
X296622D01*
X292685Y165737D02*
X296622D01*
Y157863D02*
Y165737D01*
X281858Y157863D02*
Y165737D01*
Y157863D02*
X285795D01*
X281858Y165737D02*
X285795D01*
X218737Y30685D02*
Y34622D01*
X210863Y30685D02*
Y34622D01*
X218737D01*
X210863Y19858D02*
X218737D01*
Y23795D01*
X210863Y19858D02*
Y23795D01*
X277563Y64878D02*
Y68815D01*
X285437Y64878D02*
Y68815D01*
X277563Y64878D02*
X285437D01*
X277563Y79642D02*
X285437D01*
X277563Y75705D02*
Y79642D01*
X285437Y75705D02*
Y79642D01*
X222063Y104118D02*
Y108055D01*
X229937Y104118D02*
Y108055D01*
X222063Y104118D02*
X229937D01*
X222063Y118882D02*
X229937D01*
X222063Y114945D02*
Y118882D01*
X229937Y114945D02*
Y118882D01*
X210563Y45358D02*
Y49295D01*
X218437Y45358D02*
Y49295D01*
X210563Y45358D02*
X218437D01*
X210563Y60122D02*
X218437D01*
X210563Y56185D02*
Y60122D01*
X218437Y56185D02*
Y60122D01*
X210563Y61618D02*
Y65555D01*
X218437Y61618D02*
Y65555D01*
X210563Y61618D02*
X218437D01*
X210563Y76382D02*
X218437D01*
X210563Y72445D02*
Y76382D01*
X218437Y72445D02*
Y76382D01*
X181637Y142485D02*
Y146422D01*
X173763Y142485D02*
Y146422D01*
X181637D01*
X173763Y131658D02*
X181637D01*
Y135595D01*
X173763Y131658D02*
Y135595D01*
X155163Y127978D02*
Y131915D01*
X163037Y127978D02*
Y131915D01*
X155163Y127978D02*
X163037D01*
X155163Y142742D02*
X163037D01*
X155163Y138805D02*
Y142742D01*
X163037Y138805D02*
Y142742D01*
X163337Y159805D02*
Y163742D01*
X155463Y159805D02*
Y163742D01*
X163337D01*
X155463Y148978D02*
X163337D01*
Y152915D01*
X155463Y148978D02*
Y152915D01*
X157705Y110563D02*
X161642D01*
X157705Y118437D02*
X161642D01*
Y110563D02*
Y118437D01*
X146878Y110563D02*
Y118437D01*
Y110563D02*
X150815D01*
X146878Y118437D02*
X150815D01*
X195685Y101563D02*
X199622D01*
X195685Y109437D02*
X199622D01*
Y101563D02*
Y109437D01*
X184858Y101563D02*
Y109437D01*
Y101563D02*
X188795D01*
X184858Y109437D02*
X188795D01*
X200618D02*
X204555D01*
X200618Y101563D02*
X204555D01*
X200618D02*
Y109437D01*
X215382Y101563D02*
Y109437D01*
X211445D02*
X215382D01*
X211445Y101563D02*
X215382D01*
X143245Y80963D02*
X147182D01*
X143245Y88837D02*
X147182D01*
Y80963D02*
Y88837D01*
X132418Y80963D02*
Y88837D01*
Y80963D02*
X136355D01*
X132418Y88837D02*
X136355D01*
X173485Y80763D02*
X177422D01*
X173485Y88637D02*
X177422D01*
Y80763D02*
Y88637D01*
X162658Y80763D02*
Y88637D01*
Y80763D02*
X166595D01*
X162658Y88637D02*
X166595D01*
X61900Y259000D02*
X63868D01*
X62884D01*
Y264904D01*
X61900Y263920D01*
X102936Y264804D02*
X99000D01*
Y261852D01*
X100968Y262836D01*
X101952D01*
X102936Y261852D01*
Y259884D01*
X101952Y258900D01*
X99984D01*
X99000Y259884D01*
X100000Y289484D02*
X100984Y288500D01*
X102952D01*
X103936Y289484D01*
Y293420D01*
X102952Y294404D01*
X100984D01*
X100000Y293420D01*
Y292436D01*
X100984Y291452D01*
X103936D01*
X70336Y294804D02*
X68368Y293820D01*
X66400Y291852D01*
Y289884D01*
X67384Y288900D01*
X69352D01*
X70336Y289884D01*
Y290868D01*
X69352Y291852D01*
X66400D01*
X56136Y46304D02*
X52200D01*
Y43352D01*
X54168Y44336D01*
X55152D01*
X56136Y43352D01*
Y41384D01*
X55152Y40400D01*
X53184D01*
X52200Y41384D01*
X103800Y25216D02*
X102816Y26200D01*
X100848D01*
X99864Y25216D01*
Y21280D01*
X100848Y20296D01*
X102816D01*
X103800Y21280D01*
Y22264D01*
X102816Y23248D01*
X99864D01*
X65264Y19896D02*
X67232Y20880D01*
X69200Y22848D01*
Y24816D01*
X68216Y25800D01*
X66248D01*
X65264Y24816D01*
Y23832D01*
X66248Y22848D01*
X69200D01*
X105700Y50600D02*
X107668D01*
X106684D01*
Y56504D01*
X105700Y55520D01*
D19*
X222305Y27097D02*
Y36939D01*
X271912Y27097D02*
Y36939D01*
X222305Y66861D02*
Y77097D01*
X271912Y66861D02*
Y77097D01*
X222305D02*
X271912D01*
X222305Y27097D02*
X271912D01*
D20*
X175189Y124390D02*
X198811D01*
Y110610D02*
Y124390D01*
X175189Y110610D02*
X198811D01*
X175189D02*
Y124390D01*
X169604Y310223D02*
Y315932D01*
X199919D01*
Y310223D02*
Y315932D01*
X172557Y279711D02*
X176297D01*
X193226D02*
X196966D01*
X199919Y288569D02*
Y298215D01*
X169604Y288569D02*
Y298215D01*
X219463Y265071D02*
Y276882D01*
X227337Y265071D02*
Y276882D01*
X247700Y130200D02*
X272300D01*
X247700Y143800D02*
X272300D01*
Y130200D02*
Y143800D01*
X247700Y130200D02*
Y143800D01*
M02*
